<svg xmlns="http://www.w3.org/2000/svg" width="360" height="149.8" viewBox="0 0 360 149.8"><g transform="translate(-54 -36)"><path d="M414,113.4c0-25.6-12.4-45.8-36.1-45.8-23.8,0-38.2,20.2-38.2,45.6,0,30.1,17,45.3,41.4,45.3,11.9,0,20.9-2.7,27.7-6.5V132a53.1,53.1,0,0,1-24.5,5.5c-9.7,0-18.3-3.4-19.4-15.2h48.9C413.8,121,414,115.8,414,113.4Zm-49.4-9.5c0-11.3,6.9-16,13.2-16,6.1,0,12.6,4.7,12.6,16Z" fill="rgba(26,26,26,0.4)" fill-rule="evenodd"/><path d="M301.1,67.6a28.251,28.251,0,0,0-19.6,7.8l-1.3-6.2h-22V185.8l25-5.3.1-28.3c3.6,2.6,8.9,6.3,17.7,6.3,17.9,0,34.2-14.4,34.2-46.1C335.1,83.4,318.6,67.6,301.1,67.6Zm-6,68.9c-5.9,0-9.4-2.1-11.8-4.7l-.1-37.1c2.6-2.9,6.2-4.9,11.9-4.9,9.1,0,15.4,10.2,15.4,23.3C310.5,126.5,304.3,136.5,295.1,136.5Z" fill="rgba(26,26,26,0.4)" fill-rule="evenodd"/><path d="M223.8,61.7l25.1-5.4V36l-25.1,5.3Z" fill="rgba(26,26,26,0.4)" fill-rule="evenodd"/><rect width="25.1" height="87.5" transform="translate(223.8 69.3)" fill="rgba(26,26,26,0.4)"/><path d="M196.9,76.7l-1.6-7.4H173.7v87.5h25V97.5c5.9-7.7,15.9-6.3,19-5.2v-23C214.5,68.1,202.8,65.9,196.9,76.7Z" fill="rgba(26,26,26,0.4)" fill-rule="evenodd"/><path d="M146.9,47.6l-24.4,5.2-.1,80.1c0,14.8,11.1,25.7,25.9,25.7,8.2,0,14.2-1.5,17.5-3.3V135c-3.2,1.3-19,5.9-19-8.9V90.6h19V69.3h-19Z" fill="rgba(26,26,26,0.4)" fill-rule="evenodd"/><path d="M79.3,94.7c0-3.9,3.2-5.4,8.5-5.4a55.777,55.777,0,0,1,24.8,6.4V72.2a65.947,65.947,0,0,0-24.8-4.6C67.5,67.6,54,78.2,54,95.9c0,27.6,38,23.2,38,35.1,0,4.6-4,6.1-9.6,6.1-8.3,0-18.9-3.4-27.3-8v23.8a69.321,69.321,0,0,0,27.3,5.7c20.8,0,35.1-10.3,35.1-28.2C117.4,100.6,79.3,105.9,79.3,94.7Z" fill="rgba(26,26,26,0.4)" fill-rule="evenodd"/></g></svg>