<svg xmlns="http://www.w3.org/2000/svg" xmlns:xlink="http://www.w3.org/1999/xlink" width="723" height="50" viewBox="0 0 723 50">
    <defs>
        <path id="cmro9le7ia" d="M0 0L146.774 0 125.269 50 0 50z"/>
    </defs>
    <g fill="none" fill-rule="evenodd">
        <path fill="#000" d="M66.129 1.21h31.883v9.677H76.6v9.678h19.801v9.677h-19.8V48.79H66.128V1.21zm51.349 0h8.658l20.674 47.58h-11.813l-4.095-10.08h-18.458l-3.96 10.08H96.937l20.54-47.58zm4.027 13.844l-5.772 14.785h11.612l-5.84-14.785zm61.149-1.479c-1.03-1.254-2.294-2.217-3.793-2.89-1.499-.672-3.233-1.008-5.202-1.008-1.969 0-3.792.381-5.47 1.143s-3.133 1.826-4.363 3.192c-1.23 1.367-2.193 2.99-2.887 4.872-.693 1.882-1.04 3.92-1.04 6.116 0 2.24.347 4.29 1.04 6.15.694 1.859 1.645 3.471 2.853 4.838 1.208 1.366 2.63 2.43 4.262 3.192 1.634.762 3.39 1.143 5.27 1.143 2.148 0 4.05-.448 5.705-1.345 1.656-.896 3.02-2.15 4.094-3.763l8.726 6.519c-2.013 2.822-4.564 4.906-7.652 6.25-3.087 1.344-6.264 2.016-9.531 2.016-3.714 0-7.137-.582-10.27-1.747-3.132-1.165-5.84-2.834-8.122-5.007-2.282-2.173-4.06-4.805-5.336-7.897-1.275-3.091-1.913-6.54-1.913-10.349 0-3.808.638-7.258 1.913-10.35 1.276-3.09 3.054-5.723 5.336-7.896 2.283-2.173 4.99-3.842 8.122-5.007C167.53.582 170.952 0 174.666 0c1.342 0 2.74.123 4.195.37 1.455.246 2.886.638 4.296 1.176 1.41.537 2.763 1.254 4.06 2.15 1.299.896 2.462 1.994 3.491 3.293l-8.054 6.586zM197.958 1.21h32.285v9.677H208.43v8.871h20.606v9.677H208.43v9.678h23.023v9.677h-33.494V1.21z"/>
        <g fill="#F05136" fill-rule="nonzero">
            <path d="M20.968 20.968H10.484v10.484H0V0h31.452v10.484H20.968v10.484zM50 50H8.065V39.516h10.483V29.032h10.484V18.548h10.484V8.065H50V50z"/>
        </g>
        <g>
            <path fill="#000" d="M66.129 1.21h31.883v9.677H76.6v9.678h19.801v9.677h-19.8V48.79H66.128V1.21zm51.349 0h8.658l20.674 47.58h-11.813l-4.095-10.08h-18.458l-3.96 10.08H96.937l20.54-47.58zm4.027 13.844l-5.772 14.785h11.612l-5.84-14.785zm61.149-1.479c-1.03-1.254-2.294-2.217-3.793-2.89-1.499-.672-3.233-1.008-5.202-1.008-1.969 0-3.792.381-5.47 1.143s-3.133 1.826-4.363 3.192c-1.23 1.367-2.193 2.99-2.887 4.872-.693 1.882-1.04 3.92-1.04 6.116 0 2.24.347 4.29 1.04 6.15.694 1.859 1.645 3.471 2.853 4.838 1.208 1.366 2.63 2.43 4.262 3.192 1.634.762 3.39 1.143 5.27 1.143 2.148 0 4.05-.448 5.705-1.345 1.656-.896 3.02-2.15 4.094-3.763l8.726 6.519c-2.013 2.822-4.564 4.906-7.652 6.25-3.087 1.344-6.264 2.016-9.531 2.016-3.714 0-7.137-.582-10.27-1.747-3.132-1.165-5.84-2.834-8.122-5.007-2.282-2.173-4.06-4.805-5.336-7.897-1.275-3.091-1.913-6.54-1.913-10.349 0-3.808.638-7.258 1.913-10.35 1.276-3.09 3.054-5.723 5.336-7.896 2.283-2.173 4.99-3.842 8.122-5.007C167.53.582 170.952 0 174.666 0c1.342 0 2.74.123 4.195.37 1.455.246 2.886.638 4.296 1.176 1.41.537 2.763 1.254 4.06 2.15 1.299.896 2.462 1.994 3.491 3.293l-8.054 6.586zM197.958 1.21h32.285v9.677H208.43v8.871h20.606v9.677H208.43v9.678h23.023v9.677h-33.494V1.21z" transform="translate(328)"/>
            <g fill="#F05136" fill-rule="nonzero">
                <path d="M20.968 20.968H10.484v10.484H0V0h31.452v10.484H20.968v10.484zM50 50H8.065V39.516h10.483V29.032h10.484V18.548h10.484V8.065H50V50z" transform="translate(328)"/>
            </g>
            <g transform="translate(328) translate(247.58)">
                <mask id="6o0s0wmoeb" fill="#fff">
                    <use xlink:href="#cmro9le7ia"/>
                </mask>
                <use fill="#F05136" xlink:href="#cmro9le7ia"/>
                <path fill="#FFF" fill-rule="nonzero" d="M6.449 5.645h14.31c1.994 0 3.88.182 5.658.545 1.777.362 3.328.988 4.652 1.878 1.324.889 2.376 2.086 3.156 3.592.78 1.506 1.17 3.402 1.17 5.689 0 2.25-.363 4.137-1.089 5.661-.725 1.524-1.723 2.74-2.992 3.647-1.27.908-2.775 1.552-4.516 1.933-1.741.38-3.628.571-5.659.571h-6.203v15.024H6.45V5.645zm8.487 16.33h5.66c.76 0 1.495-.072 2.203-.217.707-.145 1.342-.39 1.904-.735.562-.345 1.016-.816 1.36-1.415.345-.599.517-1.352.517-2.26 0-.98-.227-1.768-.68-2.367-.453-.599-1.034-1.062-1.741-1.388-.707-.327-1.496-.536-2.367-.626-.87-.091-1.705-.136-2.503-.136h-4.353v9.145zm24.757-4.245h8.161v4.246h.11c.87-1.633 1.903-2.858 3.1-3.675 1.197-.816 2.703-1.224 4.516-1.224.472 0 .944.018 1.415.054.472.036.907.109 1.306.218v7.457c-.58-.181-1.152-.317-1.714-.408-.562-.09-1.152-.136-1.768-.136-1.56 0-2.793.218-3.7.653-.907.436-1.605 1.044-2.095 1.824-.49.78-.807 1.715-.952 2.803-.145 1.09-.218 2.287-.218 3.593v11.05h-8.161V17.73zm46.194 21.883c-1.306 1.67-2.957 2.958-4.952 3.865s-4.062 1.36-6.202 1.36c-2.032 0-3.945-.326-5.74-.98-1.796-.652-3.356-1.587-4.68-2.803-1.324-1.215-2.367-2.676-3.128-4.382-.762-1.705-1.143-3.61-1.143-5.715s.38-4.01 1.143-5.716c.761-1.706 1.804-3.166 3.128-4.382 1.324-1.216 2.884-2.15 4.68-2.804 1.795-.653 3.708-.98 5.74-.98 1.886 0 3.6.327 5.141.98 1.542.654 2.848 1.588 3.918 2.804 1.07 1.216 1.895 2.676 2.475 4.382.58 1.706.871 3.61.871 5.716v2.558H68.203c.327 1.56 1.034 2.804 2.122 3.729 1.089.925 2.43 1.388 4.027 1.388 1.342 0 2.475-.3 3.4-.898.925-.599 1.732-1.37 2.422-2.314l5.713 4.192zm-6.91-11.65c.036-1.378-.418-2.558-1.36-3.538-.944-.98-2.159-1.47-3.646-1.47-.907 0-1.705.146-2.394.436-.69.29-1.279.662-1.768 1.116-.49.454-.871.98-1.143 1.579-.272.598-.426 1.224-.463 1.878h10.774zM92.85 17.73h7.509v3.484h.108c.327-.472.753-.953 1.279-1.443.526-.49 1.143-.934 1.85-1.334.707-.399 1.478-.725 2.312-.98.835-.253 1.723-.38 2.666-.38 1.96 0 3.737.335 5.333 1.007 1.596.671 2.965 1.615 4.108 2.83 1.142 1.216 2.022 2.659 2.638 4.328.617 1.67.925 3.502.925 5.498 0 1.85-.28 3.62-.843 5.307-.562 1.688-1.36 3.185-2.394 4.491-1.034 1.307-2.294 2.35-3.781 3.13-1.488.78-3.174 1.17-5.06 1.17-1.705 0-3.292-.262-4.761-.789-1.47-.526-2.676-1.424-3.619-2.694h-.108v15.242H92.85V17.73zm7.509 13.228c0 1.996.57 3.61 1.713 4.844 1.143 1.234 2.748 1.851 4.816 1.851 2.067 0 3.672-.617 4.815-1.85 1.143-1.234 1.714-2.85 1.714-4.845 0-1.996-.571-3.611-1.714-4.845-1.143-1.234-2.748-1.85-4.815-1.85-2.068 0-3.673.616-4.816 1.85-1.142 1.234-1.713 2.849-1.713 4.845z" mask="url(#6o0s0wmoeb)"/>
            </g>
        </g>
    </g>
</svg>
