<svg xmlns="http://www.w3.org/2000/svg" width="50" height="50" viewBox="0 0 50 50">
    <g fill="none" fill-rule="evenodd">
        <g>
            <g transform="translate(-1135 -632) translate(1135 632)">
                <circle cx="25" cy="25" r="25" fill="#F50A5F"/>
                <path fill="#FFF" fill-rule="nonzero" d="M29.897 27.422c.269 0 .502-.09.7-.27l4.816-4.816C36.47 21.26 37 19.97 37 18.462c0-1.507-.534-2.794-1.6-3.861C34.331 13.534 33.044 13 31.537 13c-1.507 0-2.798.538-3.874 1.614l-4.816 4.816c-.18.18-.27.404-.27.673 0 .27.095.498.283.686.188.189.417.283.686.283.27 0 .493-.09.673-.27l4.816-4.815c.7-.7 1.534-1.05 2.502-1.05.969 0 1.798.346 2.489 1.036.69.69 1.036 1.525 1.036 2.502 0 .978-.35 1.808-1.05 2.49l-4.789 4.815c-.197.18-.296.404-.296.673s.094.498.283.686c.188.188.417.283.686.283zM18.462 37c1.507 0 2.798-.53 3.874-1.587l4.816-4.817c.18-.197.27-.43.27-.7 0-.268-.095-.497-.283-.685-.188-.189-.417-.283-.686-.283-.27 0-.493.099-.673.296l-4.816 4.816c-.7.682-1.534 1.023-2.502 1.023-.969 0-1.794-.341-2.475-1.023-.7-.7-1.05-1.533-1.05-2.502 0-.968.35-1.803 1.05-2.502l4.789-4.816c.197-.18.296-.404.296-.673s-.094-.498-.283-.686c-.188-.188-.417-.283-.686-.283-.269 0-.493.1-.673.296l-4.816 4.79C13.538 28.74 13 30.03 13 31.538c0 1.507.534 2.794 1.6 3.861C15.669 36.466 16.956 37 18.463 37zm5.139-9.578c.269 0 .493-.1.673-.296l2.744-2.745c.197-.18.296-.403.296-.672 0-.27-.094-.498-.283-.687-.188-.188-.417-.282-.686-.282-.269 0-.493.099-.672.296l-2.745 2.744c-.197.18-.296.404-.296.673s.094.498.283.686c.188.188.417.283.686.283z"/>
            </g>
        </g>
    </g>
</svg>
