<svg xmlns="http://www.w3.org/2000/svg" viewBox="0 0 242 130">
    <g fill="none" fill-rule="evenodd">
        <g fill-rule="nonzero">
            <g>
                <g transform="translate(-56 -191) translate(56.404 191.71) translate(76.975 31.132)">
                    <path fill="#000" d="M151.07 1.185H93.59V0H67.529v1.185H9.812c-1.032 0-2.02.41-2.75 1.138-.729.73-1.139 1.719-1.139 2.75v78.706c0 2.148 1.741 3.888 3.889 3.888H151.07c2.147 0 3.888-1.74 3.888-3.888V5.073c0-1.031-.41-2.02-1.139-2.75-.729-.729-1.718-1.138-2.749-1.138z"/>
                    <path fill="#F2F2F2" d="M11.136 8.056H149.745V86.246H11.136z"/>
                    <circle cx="80.322" cy="4.502" r="1.422" fill="#6C63FF"/>
                    <path fill="#000" d="M158.85 84.824h-13.527v-.974c0-.052-.02-.1-.057-.137-.036-.036-.085-.057-.137-.057h-4.638c-.05 0-.1.02-.136.057-.036.036-.057.085-.057.137v.974H137.4v-.974c0-.052-.02-.1-.056-.137-.036-.036-.086-.057-.137-.057h-4.638c-.051 0-.1.02-.136.057-.037.036-.057.085-.057.137v.974h-2.899v-.974c0-.052-.02-.1-.056-.137-.037-.036-.086-.057-.137-.057h-4.638c-.051 0-.1.02-.137.057-.036.036-.056.085-.056.137v.974h-2.899v-.974c0-.052-.02-.1-.056-.137-.037-.036-.086-.057-.137-.057h-4.638c-.051 0-.1.02-.137.057-.036.036-.056.085-.056.137v.974h-2.9v-.974c0-.052-.02-.1-.056-.137-.036-.036-.085-.057-.136-.057h-4.638c-.052 0-.1.02-.137.057-.036.036-.057.085-.057.137v.974h-2.898v-.974c0-.052-.02-.1-.057-.137-.036-.036-.085-.057-.136-.057h-4.638c-.052 0-.1.02-.137.057-.036.036-.057.085-.057.137v.974h-2.898v-.974c0-.052-.02-.1-.057-.137-.036-.036-.085-.057-.137-.057H61.26c-.052 0-.1.02-.137.057-.036.036-.057.085-.057.137v.974h-2.898v-.974c0-.052-.02-.1-.057-.137-.036-.036-.085-.057-.137-.057h-4.637c-.052 0-.1.02-.137.057-.036.036-.057.085-.057.137v.974h-2.898v-.974c0-.052-.02-.1-.057-.137-.036-.036-.085-.057-.137-.057h-4.638c-.05 0-.1.02-.136.057-.037.036-.057.085-.057.137v.974h-2.899v-.974c0-.052-.02-.1-.056-.137-.036-.036-.086-.057-.137-.057H37.49c-.051 0-.1.02-.136.057-.037.036-.057.085-.057.137v.974h-2.899v-.974c0-.052-.02-.1-.056-.137-.037-.036-.086-.057-.137-.057h-4.638c-.051 0-.1.02-.137.057-.036.036-.056.085-.056.137v.974h-2.899v-.974c0-.052-.02-.1-.057-.137-.036-.036-.085-.057-.136-.057h-4.638c-.051 0-.1.02-.137.057-.036.036-.056.085-.056.137v.974h-2.9v-.974c0-.052-.02-.1-.056-.137-.036-.036-.085-.057-.136-.057H13.72c-.052 0-.1.02-.137.057-.036.036-.057.085-.057.137v.974H4.638C2.076 84.824 0 86.901 0 89.462v2.097c0 2.562 2.076 4.638 4.638 4.638H158.85c2.561 0 4.638-2.076 4.638-4.638v-2.097c0-1.23-.489-2.41-1.358-3.28-.87-.87-2.05-1.358-3.28-1.358z"/>
                    <path fill="#CCC" d="M17.75 14.18H56.646V15.625H17.75zM17.75 18.757H56.646V20.202H17.75zM17.75 23.333H56.646V24.778H17.75zM17.75 27.674H56.646V29.119H17.75zM17.75 32.251H56.646V33.696H17.75zM17.75 36.827H56.646V38.272H17.75zM17.75 41.443H56.646V42.888H17.75zM17.75 46.02H56.646V47.465H17.75zM17.75 50.597H56.646V52.042H17.75zM17.75 54.937H56.646V56.382H17.75zM17.75 59.514H56.646V60.959H17.75zM17.75 64.091H56.646V65.53599999999999H17.75zM62.363 14.18H101.259V15.625H62.363zM62.363 18.757H101.259V20.202H62.363zM62.363 23.333H101.259V24.778H62.363zM62.363 27.674H101.259V29.119H62.363zM62.363 32.251H101.259V33.696H62.363zM62.363 36.827H101.259V38.272H62.363zM62.363 41.443H101.259V42.888H62.363zM62.363 46.02H101.259V47.465H62.363zM62.363 50.597H101.259V52.042H62.363zM62.363 54.937H101.259V56.382H62.363zM62.363 59.514H101.259V60.959H62.363zM62.363 64.091H101.259V65.53599999999999H62.363zM62.363 68.602H101.259V70.047H62.363zM62.363 73.178H101.259V74.62299999999999H62.363zM106.975 14.18H145.87099999999998V15.625H106.975zM106.975 18.757H145.87099999999998V20.202H106.975zM106.975 23.333H145.87099999999998V24.778H106.975zM106.975 27.674H145.87099999999998V29.119H106.975zM106.975 32.251H145.87099999999998V33.696H106.975zM106.975 36.827H145.87099999999998V38.272H106.975zM106.975 41.443H145.87099999999998V42.888H106.975zM106.975 46.02H145.87099999999998V47.465H106.975z"/>
                </g>
                <path fill="#FFF" d="M46.115 1.667c4.838-5.284 11.35-8.73 18.43-9.752l-3.031-2.745 3.353-.17 4.15 3.76-3.75 4.16-3.354.17 2.512-2.786C49.613-3.298 39.122 10.107 40.323 25.102c1.2 14.996 13.688 26.552 28.693 26.55v2.34c-12.35 0-23.532-7.324-28.495-18.664-4.963-11.339-2.768-24.548 5.594-33.661z" transform="translate(-56 -191) translate(56.404 191.71) rotate(80 53.457 21.496)"/>
                <g>
                    <path fill="#000" d="M37.228 17.742h-.41V6.504c0-1.725-.686-3.38-1.906-4.599C33.692.685 32.038 0 30.313 0H6.504C4.78 0 3.124.685 1.905 1.905.685 3.125 0 4.779 0 6.505v61.651c0 1.725.685 3.38 1.905 4.6 1.22 1.22 2.874 1.904 4.6 1.904h23.808c1.725 0 3.38-.685 4.6-1.905 1.22-1.22 1.904-2.874 1.904-4.599V25.741h.41v-7.999z" transform="translate(-56 -191) translate(56.404 191.71) translate(0 47.557)"/>
                    <path fill="#F2F2F2" d="M35.432 6.886V68.45c0 2.682-2.174 4.858-4.856 4.858H6.652c-2.683 0-4.857-2.176-4.857-4.858V6.886c0-2.682 2.175-4.856 4.857-4.856h2.902c-.29.711-.207 1.52.222 2.158.429.638 1.147 1.02 1.915 1.02h13.64c.769 0 1.487-.382 1.915-1.02.429-.637.512-1.447.222-2.158h3.108c2.682 0 4.856 2.174 4.856 4.856z" transform="translate(-56 -191) translate(56.404 191.71) translate(0 47.557)"/>
                </g>
            </g>
        </g>
    </g>
</svg>
