<svg xmlns="http://www.w3.org/2000/svg" width="596" height="342" viewBox="0 0 596 342">
    <defs>
        <linearGradient id="5icdpnlvua" x1="44.849%" x2="104.705%" y1="78.538%" y2="11.87%">
            <stop offset="0%" stop-color="#6930D8"/>
            <stop offset="100%" stop-color="#8C61E1"/>
        </linearGradient>
        <linearGradient id="yftsulxjvb" x1="50.001%" x2="50.001%" y1="100%" y2="17.093%">
            <stop offset="0%" stop-color="#6930D8"/>
            <stop offset="100%" stop-color="#8C61E1"/>
        </linearGradient>
        <linearGradient id="oyqgzexprc" x1="50%" x2="50%" y1="98.355%" y2="24.304%">
            <stop offset="0%" stop-color="#6930D8"/>
            <stop offset="100%" stop-color="#8C61E1"/>
        </linearGradient>
        <linearGradient id="8r2x9cd46d" x1="62.725%" x2="42.486%" y1="68.666%" y2="41.849%">
            <stop offset="0%" stop-color="#6930D8"/>
            <stop offset="100%" stop-color="#8C61E1"/>
        </linearGradient>
        <linearGradient id="pi00428foe" x1="61.237%" x2="45.659%" y1="68.581%" y2="40.783%">
            <stop offset="0%" stop-color="#6930D8"/>
            <stop offset="100%" stop-color="#8C61E1"/>
        </linearGradient>
    </defs>
    <g fill="none" fill-rule="evenodd">
        <g transform="translate(107.48 .339)">
            <ellipse cx="184.783" cy="328.846" fill="#E5E5E5" fill-rule="nonzero" rx="184.321" ry="11.387"/>
            <g fill-rule="nonzero">
                <g>
                    <g>
                        <path fill="#FEBF24" d="M2.357 0.292H10.956V70.602H2.357z" transform="translate(190.949 80.038) translate(22.296 132.635) translate(37.732)"/>
                        <path fill="#BF8801" d="M10.827 93.05H2.485c-1.354 0-2.452-1.098-2.452-2.453V35.451C.033 34.097 1.13 33 2.485 33h8.342c1.355 0 2.453 1.098 2.453 2.452v55.146c0 1.355-1.098 2.453-2.453 2.453z" transform="translate(190.949 80.038) translate(22.296 132.635) translate(37.732)"/>
                    </g>
                    <path fill="#BF8801" d="M78.32 88.022L76.21 88.022 12.567 88.022 7.564 88.022 7.564 95.249 7.564 103.381 12.567 103.381 12.567 95.249 76.21 95.249 76.21 103.381 81.213 103.381 81.213 95.249 81.213 88.022z" transform="translate(190.949 80.038) translate(22.296 132.635)"/>
                    <g transform="translate(190.949 80.038) translate(22.296 132.635) translate(0 97.761)">
                        <g transform="translate(68.604)">
                            <circle cx="9.939" cy="9.772" r="9.666" fill="#000"/>
                            <path fill="#FEBF24" d="M13.643 9.772c0 2.046-1.658 3.704-3.704 3.704-2.045 0-3.704-1.658-3.704-3.704 0-2.045 1.659-3.704 3.704-3.704 2.046 0 3.704 1.659 3.704 3.704z"/>
                        </g>
                        <circle cx="9.965" cy="9.772" r="9.666" fill="#000"/>
                        <path fill="#FEBF24" d="M13.67 9.772c0 2.046-1.66 3.704-3.705 3.704s-3.704-1.658-3.704-3.704c0-2.045 1.659-3.704 3.704-3.704 2.046 0 3.704 1.659 3.704 3.704z"/>
                    </g>
                </g>
                <path fill="#BF8801" d="M112.81 131.714s17.993-11.534 22.607-37.37c4.613-25.834-5.075-63.664-16.609-81.657C107.274-5.305 76.365-3.92 73.135 18.223c-3.23 22.144-11.533 76.121-35.523 81.658-23.99 5.535-39.214 11.072-36.908 29.525 2.308 18.454 92.804 27.893 112.107 2.308z" transform="translate(190.949 80.038)"/>
            </g>
            <g>
                <g>
                    <path fill="#FFCACA" fill-rule="nonzero" d="M37.962 1.26S29.298.092 23.752.398C18.204.705.257 8.522.141 11.191c-.115 2.668 38.082 4.31 38.082 4.31v-1.73L37.962 1.26z" transform="translate(117.77 75.465) translate(0 71.463)"/>
                    <path stroke="#1A2E35" stroke-width=".5" d="M4.037 12.721L23.028 5.618" transform="translate(117.77 75.465) translate(0 71.463)"/>
                </g>
                <path fill="#9872E4" fill-rule="nonzero" d="M41.566 65.143L32.998 69.081 33.315 87.439 47.558 88.388z" transform="translate(117.77 75.465)"/>
                <g fill-rule="nonzero">
                    <path fill="#F181A9" d="M87.882.45S73.91-4.187 55.807 26.018c-16.247 27.11-16.67 27.11-16.67 27.11S2.528 59.904.946 66.222C-.637 72.54 2.317 88.906 2.317 88.906l59.188-2.994L87.882.451z" transform="translate(117.77 75.465) translate(40.02)"/>
                    <path fill="url(#5icdpnlvua)" d="M45.992 76.394c0 3.492.118 6.92.336 10.285l-44.01 2.227S-.637 72.538.943 66.225c1.581-6.318 38.195-13.1 38.195-13.1s.38 0 14.366-23.28c-4.72 12.984-7.513 29.096-7.513 46.549z" transform="translate(117.77 75.465) translate(40.02)"/>
                </g>
            </g>
            <g fill-rule="nonzero">
                <path fill="#5724BD" d="M51.293 2.167L24.917 87.626l-24.058.769C.64 85.03.523 81.602.523 78.109c0-17.452 11.673-33.565 16.394-46.548.731-1.212 1.495-2.488 2.301-3.829C37.323-2.473 51.293 2.167 51.293 2.167z" transform="translate(194.38 73.75)"/>
                <path fill="url(#yftsulxjvb)" d="M90.124 92.69c.437-4.725.674-9.595.674-14.58 0-43.016-16.98-77.887-37.927-77.887-20.946 0-37.927 34.871-37.927 77.887 0 4.985.238 9.855.674 14.58h74.506z" transform="translate(194.38 73.75)"/>
            </g>
            <g>
                <g>
                    <path fill="#FFCACA" fill-rule="nonzero" d="M38.14 1.347S29.5-.001 23.95.19C18.396.38.29 7.82.12 10.486c-.17 2.666 25.738 4.42 25.738 4.42l12.281-1.86v-11.7z" transform="translate(194.95 73.75) translate(0 74.893)"/>
                    <path stroke="#1A2E35" stroke-width=".5" d="M8.83 13.52L25.858 8.493M23.613 3.903L14.057 7.263 1.473 11.593" transform="translate(194.95 73.75) translate(0 74.893)"/>
                </g>
                <path fill="#9872E4" fill-rule="nonzero" d="M46.779 68.568L35.004 71.983 35.399 88.413 50.682 88.679z" transform="translate(194.95 73.75)"/>
                <g fill-rule="nonzero">
                    <path fill="#5724BD" d="M18.993 21.739l8.636 34.997S7.843 60.298 3.622 66.858C1.622 69.968.141 88.68.141 88.68s49.27 3.693 67.702-.738C86.275 83.509 85.916 60.087 57.51 29.7 29.1-.683 10.374.223 10.374.223l8.62 21.517z" transform="translate(194.95 73.75) translate(42.878)"/>
                    <path fill="url(#oyqgzexprc)" d="M21.347 27.592l16.776 31.603s-30.28 1.103-34.5 7.663C1.62 69.968.14 88.68.14 88.68s49.27 3.693 67.702-.738C86.275 83.509 85.916 60.087 57.51 29.7 29.1-.683 10.374.223 10.374.223l10.973 27.37z" transform="translate(194.95 73.75) translate(42.878)"/>
                </g>
            </g>
            <g fill-rule="nonzero">
                <path fill="#23406D" d="M46.162 57.84c0 3.13-4.613 5.667-10.305 5.667-5.692 0-10.306-2.537-10.306-5.667s4.614-5.666 10.306-5.666c5.692 0 10.305 2.537 10.305 5.666z" transform="translate(209.815 17.723)"/>
                <path fill="#FFCACA" d="M24.02 9.776h8.516c5.662 0 10.294 5.275 10.294 11.72v13.202c0 .372-.019.739-.049 1.103.092.389.146.793.146 1.209v16.52c0 2.917-2.386 5.302-5.302 5.302h-3.379c-2.916 0-5.302-2.385-5.302-5.302v-7.112H24.02c-5.662 0-10.295-5.274-10.295-11.72V21.497c0-6.447 4.632-11.72 10.295-11.72z" transform="translate(209.815 17.723)"/>
                <path fill="#735441" d="M40.598 30.427l-1.571-10.34S10.418 23.672 1.144 9.775c-9.274-13.897 46.04-11.411 52.414 0 6.375 11.41 1.209 19.506-10.451 31.295l-1.063-6.594-1.446-4.05z" transform="translate(209.815 17.723)"/>
                <path fill="#FFCACA" d="M53.558 30.643c0 3.715-3.036 6.725-6.78 6.725-3.745 0-6.78-3.01-6.78-6.725 0-3.714 3.036-6.725 6.78-6.725 3.745 0 6.78 3.012 6.78 6.725z" transform="translate(209.815 17.723)"/>
            </g>
            <g>
                <path fill="#FFCACA" fill-rule="nonzero" d="M11.594 94.73L1.959 132.353 15.711 144.44 26.998 105.566z" transform="translate(117.77 167.51)"/>
                <g fill-rule="nonzero">
                    <path fill="#F181A9" d="M.334 106.65l34.81 3.165L69.941 40.18 96.41 6.631 69.154.3S35.46 5.68 28.813 21.822C22.167 37.966.334 106.65.334 106.65z" transform="translate(117.77 167.51)"/>
                    <path fill="#2A115A" d="M.334 106.65l34.81 3.165L69.941 40.18 96.41 6.631 69.154.3S35.46 5.68 28.813 21.822C22.167 37.966.334 106.65.334 106.65z" transform="translate(117.77 167.51)"/>
                </g>
                <path stroke="#1A2E35" stroke-width=".572" d="M0.334 106.65L35.143 109.815 69.942 40.181 96.41 6.631" transform="translate(117.77 167.51)"/>
            </g>
            <g>
                <g fill-rule="nonzero">
                    <path fill="#FFCACA" d="M106.247 1.171L112.696 30.624 131.861 30.849 130.906 0.551z" transform="translate(86.327 165.222) translate(0 104.05)"/>
                    <g>
                        <path fill="url(#8r2x9cd46d)" d="M52.449 24.627c.016 1.735-.099 3.078-.41 3.7-1.506 2.995-47.68 2.308-50.675 2.177-2.619-.115-2.226-8.479 10.083-13.291 1.784-.704 3.83-1.326 6.154-1.85C29.877 12.63 29.468.455 29.468.455L50.403.52s1.963 17.577 2.046 24.107z" transform="translate(86.327 165.222) translate(0 104.05) translate(81.754 29.157)"/>
                        <path fill="#9872E4" d="M52.449 24.627c.016 1.735-.099 3.078-.41 3.7-1.506 2.995-47.68 2.308-50.675 2.177-2.619-.115-2.226-8.479 10.083-13.291 2.995.573 6.22 2.913 7.512 9.82 0 0 21.819.295 33.49-2.406z" transform="translate(86.327 165.222) translate(0 104.05) translate(81.754 29.157)"/>
                    </g>
                    <g>
                        <path fill="url(#pi00428foe)" d="M52.908 26.362c-.15 1.729-.391 3.054-.76 3.643-1.784 2.839-47.683-2.243-50.652-2.659-2.597-.363-1.41-8.652 11.302-12.27 1.843-.53 3.94-.955 6.303-1.255C31.58 12.269 32.333.11 32.333.11l20.834 2.058s.281 17.684-.26 24.193z" transform="translate(86.327 165.222) translate(0 104.05) translate(0 25.727)"/>
                        <path fill="#9872E4" d="M52.908 26.362c-.15 1.729-.391 3.054-.76 3.643-1.784 2.839-47.683-2.243-50.652-2.659-2.597-.363-1.41-8.652 11.302-12.27 2.927.856 5.914 3.492 6.544 10.491 0 0 21.691 2.372 33.566.795z" transform="translate(86.327 165.222) translate(0 104.05) translate(0 25.727)"/>
                    </g>
                </g>
                <g>
                    <g fill-rule="nonzero">
                        <path fill="#F181A9" d="M120.357 1.217s2.611 35.554-14.687 38.508c-17.298 2.954-60.54 2.55-60.54 2.55l13.468 66.239-34.765 1.688S.11 42.696.102 30.862C.09 13.137 18.977 3.898 41.928 1.216c22.95-2.681 78.43 0 78.43 0z" transform="translate(86.327 165.222) translate(76.037)"/>
                        <path fill="#2A115A" d="M120.357 1.217s2.611 35.554-14.687 38.508c-17.298 2.954-60.54 2.55-60.54 2.55l13.468 66.239-34.765 1.688S.11 42.696.102 30.862C.09 13.137 18.977 3.898 41.928 1.216c22.95-2.681 78.43 0 78.43 0z" transform="translate(86.327 165.222) translate(76.037)"/>
                    </g>
                    <path stroke="#1A2E35" stroke-width=".572" d="M58.597 108.514l-34.764 1.688S.109 42.696.1 30.862C.09 13.137 18.977 3.898 41.927 1.216c22.951-2.682 78.43 0 78.43 0" transform="translate(86.327 165.222) translate(76.037)"/>
                </g>
            </g>
            <g fill-rule="nonzero">
                <path fill="#FAB201" d="M119.82 86.461H8.882c-4.677 0-8.467-3.79-8.467-8.467V9.03C.415 4.354 4.206.563 8.882.563H119.82c4.676 0 8.467 3.791 8.467 8.467v68.964c0 4.677-3.791 8.467-8.467 8.467z" transform="translate(48.595 56.027)"/>
                <g>
                    <path fill="#FED05F" d="M17.469 0.469L0.166 67.359 27.175 67.359 42.579 0.469z" transform="translate(48.595 56.027) translate(29.157 38.304)"/>
                    <path fill="#FAB201" d="M1.333 62.847L0.166 67.359 50.176 67.359 50.176 62.847z" transform="translate(48.595 56.027) translate(29.157 38.304)"/>
                </g>
                <path fill="#BF8801" d="M76.22 101.152H167.316V106.402H76.22z" transform="translate(48.595 56.027)"/>
            </g>
            <g fill="#000" fill-rule="nonzero">
                <path d="M0.121 0.47H338.78799999999995V11.671000000000001H0.121z" transform="translate(12.006 161.22)"/>
                <g>
                    <path d="M.414.353H10.542V163.112H.414zM255.915.353H266.043V163.112H255.915z" transform="translate(12.006 161.22) translate(36.589 5.717)"/>
                </g>
            </g>
            <path fill="#D69D9D" fill-rule="nonzero" d="M239.141 64.094h-.376s.01 2.331 0 2.34c-.009.01 11.353-2.34 11.353-2.34h-10.977z"/>
            <path stroke="#5724BD" stroke-width="2.287" d="M209.324 274.302l-17.9-74.458s-3.32-9.635 8.95-11.635c12.269-2 63.356 6.545 72.264-2.182 3.818-3.818 5.496-13.136 5.496-13.136"/>
            <g fill-rule="nonzero">
                <path fill="#FAB201" d="M24.6 14.933S4.936 13.272.333 17.927C-5.137 23.46 81.34 50.6 82.777 48.22c1.436-2.382-4.898-11.24-21.457-21.296 0 0-15.333-9.223-36.72-11.99z" transform="translate(200.096)"/>
                <path fill="#FFCC9D" d="M65.455 21.17c-5.244.167-10.549-1.177-15.773-2.28C41 17.058 31.605 14.433 23.857 9.918c-2.798 2.749-4.398 5.041-4.398 5.041 21.387 14.29 47.398 15.533 47.398 15.533s-.113-4.131-1.402-9.322z" transform="translate(200.096)"/>
                <path fill="#FAB201" d="M65.937 23.318C64.38 15.604 60.207 4.06 49.064 1.222c-11.3-2.878-20.553 4.017-25.557 9.045 12.218 6.783 27.766 12.061 42.43 13.051z" transform="translate(200.096)"/>
            </g>
        </g>
        <g fill-rule="nonzero">
            <g>
                <path fill="#F5F5F5" d="M11.584 45.785s-4.291 3.243-4.291 7.534v21.948h32.001V52.338s-.447-5.626-4.209-6.553H11.584z" transform="translate(0 79.234) translate(18.866)"/>
                <path fill="#E1E1E1" d="M9.72 74.076c-.198-2.068-.522-4.624-.472-6.746.051-2.202 1.625-4.39 3.749-4.973 1.687-.463 3.453.155 5.18.44 2.798.464 5.74.026 8.281-1.235 2.163-1.073 4.137-2.75 6.54-2.973 1.573-.145 3.388.592 3.823 2.11.207.72.074 1.486-.037 2.226-.511 3.383.146 7.585.146 10.835-8.96.418-18.242.122-27.21.316M5.264 78.367L10.085 75.266 39.294 75.266 43.984 78.367 5.264 78.367" transform="translate(0 79.234) translate(18.866)"/>
                <path fill="#F5F5F5" d="M4.358 6.978v32.67h39.626v38.72H5.264v9.283h66.798V6.978c0-3.842-3.115-6.957-6.956-6.957H11.315c-3.843 0-6.957 3.114-6.957 6.957z" transform="translate(0 79.234) translate(18.866)"/>
                <path fill="#E1E1E1" d="M72.062 7.72c0 .158-15.157.287-33.85.287-18.7 0-33.854-.129-33.854-.287 0-.159 15.154-.287 33.854-.287 18.693 0 33.85.128 33.85.287z" transform="translate(0 79.234) translate(18.866)"/>
                <path fill="#E1E1E1" d="M53.268 87.651c-.158 0-.287-19.567-.287-43.7 0-24.14.129-43.704.287-43.704.158 0 .287 19.564.287 43.704 0 24.133-.129 43.7-.287 43.7zM.772 64.683l-.4-9.898c-.115-2.847.547-5.72 2.15-8.075 1.275-1.872 3.16-3.536 5.833-3.536h26.73v2.611H8.853s-4.725.498-5.346 6.963c-.622 6.464 0 11.935 0 11.935H.772z" transform="translate(0 79.234) translate(18.866)"/>
            </g>
            <g>
                <path fill="#F5F5F5" d="M.389.181H94.946V126.857H.389zM8.747 126.857H20.467V147.988H8.747zM76.139 126.857H87.859V147.988H76.139z" transform="translate(0 79.234) translate(0 87.47)"/>
                <g fill="#E1E1E1">
                    <path d="M81.705 31.775s-.01-.194-.014-.56l-.014-1.618-.033-6.209L81.573.505l.132.132L.559.697H.553L.744.506l-.007 31.27-.184-.184 58.133.087 16.905.051 4.533.024 1.175.011c.265.003.406.01.406.01s-.126.008-.384.012l-1.153.011-4.494.024-16.863.051-58.257.086H.37v-.183L.363.506V.314H.56l81.146.06h.133v.132l-.072 22.963-.033 6.18-.014 1.594c-.006.356-.015.532-.015.532z" transform="translate(0 79.234) translate(0 87.47) translate(5.717 80.61)"/>
                    <path d="M43.58 16.14c-.034.001-.038-.218-.149-.58-.109-.356-.362-.87-.9-1.26-.522-.392-1.366-.603-2.176-.296-.804.283-1.493 1.14-1.485 2.136-.009.998.681 1.854 1.485 2.137.81.307 1.655.095 2.176-.296.538-.39.792-.904.9-1.26.11-.363.115-.582.149-.58.018-.002.066.219-.005.616-.07.388-.303.973-.881 1.439-.559.466-1.515.747-2.46.412-.937-.305-1.759-1.3-1.747-2.468-.011-1.168.81-2.162 1.747-2.467.945-.336 1.901-.054 2.46.411.578.466.81 1.051.88 1.44.072.397.024.617.006.616z" transform="translate(0 79.234) translate(0 87.47) translate(5.717 80.61)"/>
                </g>
                <g fill="#E1E1E1">
                    <path d="M81.705 31.488s-.01-.194-.014-.56l-.014-1.618-.033-6.209L81.573.218l.132.132L.559.41H.553L.744.219l-.007 31.27-.184-.184 58.133.087 16.905.051 4.533.024 1.175.011c.265.003.406.01.406.01s-.126.008-.384.012l-1.153.011-4.494.024-16.863.051-58.257.086H.37v-.184L.363.218V.027H.56l81.146.06h.133v.131l-.072 22.963-.033 6.18-.014 1.594c-.006.358-.015.533-.015.533z" transform="translate(0 79.234) translate(0 87.47) translate(5.717 43.45)"/>
                    <path d="M43.58 15.853c-.034.001-.038-.218-.149-.58-.109-.356-.362-.87-.9-1.26-.522-.392-1.366-.603-2.176-.296-.804.283-1.493 1.14-1.485 2.136-.009.998.681 1.854 1.485 2.137.81.307 1.655.095 2.176-.296.538-.39.792-.904.9-1.26.11-.363.115-.582.149-.58.018-.002.066.219-.005.616-.07.388-.303.973-.881 1.439-.559.466-1.515.747-2.46.412-.937-.305-1.759-1.3-1.747-2.468-.011-1.168.81-2.162 1.747-2.467.945-.336 1.901-.054 2.46.411.578.466.81 1.051.88 1.44.072.397.024.618.006.616z" transform="translate(0 79.234) translate(0 87.47) translate(5.717 43.45)"/>
                </g>
                <g fill="#E1E1E1">
                    <path d="M81.705 31.707s-.01-.194-.014-.56l-.014-1.619-.033-6.208L81.573.437l.132.132L.559.628H.553L.744.437l-.007 31.27-.184-.184 58.133.086 16.905.052 4.533.023 1.175.012c.265.003.406.01.406.01s-.126.008-.384.012l-1.153.012-4.494.023-16.863.051-58.257.087H.37v-.184L.363.437V.246H.56l81.146.059h.133v.132L81.767 23.4l-.033 6.18-.014 1.594c-.006.357-.015.533-.015.533z" transform="translate(0 79.234) translate(0 87.47) translate(5.717 6.289)"/>
                    <path d="M43.58 16.071c-.034.001-.038-.218-.149-.58-.109-.356-.362-.87-.9-1.26-.522-.392-1.366-.603-2.176-.296-.804.283-1.493 1.14-1.485 2.136-.009.997.681 1.854 1.485 2.137.81.307 1.655.095 2.176-.296.538-.39.792-.904.9-1.26.11-.362.115-.581.149-.58.018-.003.066.219-.005.615-.07.389-.303.974-.881 1.44-.559.465-1.515.747-2.46.412-.937-.306-1.759-1.3-1.747-2.468-.011-1.168.81-2.162 1.747-2.467.945-.336 1.901-.054 2.46.411.578.466.81 1.051.88 1.44.072.397.024.618.006.616z" transform="translate(0 79.234) translate(0 87.47) translate(5.717 6.289)"/>
                </g>
            </g>
            <path fill="#E1E1E1" d="M89.958 87.651c0 .159-14.723.287-32.88.287-18.164 0-32.883-.128-32.883-.287 0-.158 14.72-.287 32.883-.287 18.156 0 32.88.129 32.88.287z" transform="translate(0 79.234)"/>
        </g>
        <g fill-rule="nonzero">
            <path fill="#F5F5F5" d="M43.07 144.843L53.68 197.184 92.935 197.184 103.191 148.215z" transform="translate(452.218 114.68)"/>
            <g fill="#E1E1E1">
                <path d="M0.219 0.306H73.92599999999999V10.434H0.219z" transform="translate(452.218 114.68) translate(36.017 137.78)"/>
                <path d="M74.052 10.56H.093V.18h73.959v10.38zM.345 10.308H73.8V.432H.345v9.876z" transform="translate(452.218 114.68) translate(36.017 137.78)"/>
            </g>
            <path fill="#E1E1E1" d="M43.07 192.233L48.729 200.013 96.444 200.013 103.191 192.233zM70.322 146.372c-.145 0-.33-24.248-.415-54.152-.084-29.916-.035-54.16.11-54.16.145 0 .331 24.243.415 54.158.084 29.905.035 54.154-.11 54.154zM86.74 85.692c.017.008-.052.202-.197.564l-.658 1.57-.481 1.13-.491 1.376-.568 1.58c-.198.56-.353 1.17-.546 1.8-.805 2.512-1.445 5.594-2.061 9.024-.537 3.447-.94 7.263-1.142 11.285-.358 8.053.097 15.356.583 20.615.237 2.632.476 4.758.65 6.227l.186 1.693c.037.388.048.593.03.596-.018.002-.064-.198-.135-.581l-.283-1.68c-.238-1.462-.533-3.585-.818-6.218-.582-5.26-1.098-12.585-.738-20.676.204-4.041.623-7.879 1.189-11.34.646-3.447 1.328-6.54 2.184-9.054.205-.63.373-1.24.584-1.8.214-.555.418-1.08.61-1.574l.533-1.368c.182-.413.368-.781.526-1.117l.75-1.533c.177-.349.278-.527.294-.52z" transform="translate(452.218 114.68)"/>
            <path fill="#E1E1E1" d="M84.856 66.08c.017.007-.064.282-.234.8l-.767 2.254-.564 1.625-.593 1.958c-.431 1.403-.931 2.997-1.375 4.791-.235.894-.482 1.83-.74 2.803l-.69 3.066c-.515 2.11-.887 4.404-1.362 6.798-.812 4.816-1.528 10.14-2.021 15.756-.465 5.62-.668 10.99-.74 15.876-.014 4.886.048 9.289.248 12.98.065 1.847.184 3.515.28 4.98.084 1.467.176 2.728.27 3.758l.18 2.375c.036.544.046.83.028.832-.019.002-.064-.28-.133-.821l-.279-2.367c-.125-1.028-.247-2.289-.36-3.754-.122-1.466-.267-3.135-.356-4.983-.249-3.695-.35-8.106-.36-13.003.044-4.897.232-10.282.7-15.917.494-5.631 1.227-10.97 2.067-15.796.49-2.4.878-4.697 1.414-6.81l.722-3.068.774-2.803c.468-1.793.995-3.385 1.454-4.783.227-.696.44-1.347.635-1.949l.609-1.613.86-2.224c.202-.505.317-.767.333-.76zM65.66 150.662c-.009 0-.023-.095-.042-.283-.018-.218-.04-.493-.07-.835l-.216-3.211-.74-11.812c-.639-9.97-1.565-23.745-3.242-38.894-.857-7.574-1.852-14.767-2.885-21.289-.55-3.255-1.048-6.353-1.614-9.235-.518-2.89-1.077-5.568-1.59-8.011-.485-2.45-1.025-4.644-1.46-6.58-.427-1.937-.84-3.595-1.185-4.948l-.765-3.125-.187-.817c-.039-.184-.055-.28-.046-.283.009-.002.042.089.098.269l.237.803.861 3.1c.376 1.347.818 3 1.273 4.932.462 1.931 1.028 4.122 1.536 6.57.538 2.44 1.12 5.117 1.657 8.008.584 2.881 1.1 5.98 1.663 9.238 1.06 6.526 2.07 13.727 2.929 21.309 1.68 15.164 2.546 28.952 3.092 38.93.27 4.99.459 9.03.572 11.823l.118 3.216.018.837c0 .19-.003.288-.012.288z" transform="translate(452.218 114.68)"/>
            <path fill="#F5F5F5" d="M69.721 49.718c-.32-3.436-3.792-6.027-7.242-6.063-3.45-.035-6.665 2.034-8.775 4.763-2.11 2.73-3.274 6.062-4.226 9.379-2.323 8.093-3.593 16.596-2.6 24.957.993 8.361 4.386 16.593 10.386 22.5.975.961 2.239 1.922 3.577 1.636.732-.156 1.332-.665 1.888-1.167 11.786-10.647 18.592-26.594 18.126-42.47-.093-3.18-.51-6.489-2.271-9.137-1.761-2.649-5.866-5.462-8.863-4.398" transform="translate(452.218 114.68)"/>
            <g>
                <path fill="#F5F5F5" d="M19.376 22.203l-4.859 8.8c-.113.205-.263.434-.496.454-.256.021-.446-.22-.586-.435L.589 11.306l2.96-1.677 15.827 12.574z" transform="translate(452.218 114.68) translate(24.583)"/>
                <path fill="#000" d="M19.376 22.203l-4.859 8.8c-.113.205-.263.434-.496.454-.256.021-.446-.22-.586-.435L.589 11.306l2.96-1.677 15.827 12.574z" opacity=".2" transform="translate(452.218 114.68) translate(24.583)"/>
                <path fill="#F5F5F5" d="M45.434 38.06L1.613 12.201c-.447-.263-.932-.575-1.067-1.076-.175-.648.312-1.273.78-1.756C7.353 3.151 16.107-.453 24.744.17c8.637.621 16.943 5.61 21.172 13.167 4.228 7.557 4.368 17.55-.482 24.724" transform="translate(452.218 114.68) translate(24.583)"/>
                <path fill="#E1E1E1" d="M7.928 3.948c0-.019.196-.043.574-.072.378-.019.936-.087 1.657-.08 1.44-.035 3.533.06 6.08.484 2.545.418 5.535 1.237 8.659 2.63 3.122 1.387 6.352 3.394 9.294 6.031 2.919 2.666 5.239 5.681 6.93 8.65 1.697 2.97 2.81 5.863 3.48 8.354.675 2.492.978 4.566 1.086 6.002.08.716.067 1.278.086 1.656.009.379.004.577-.014.578-.047.002-.101-.792-.276-2.212-.17-1.421-.526-3.468-1.24-5.921-1.385-4.88-4.602-11.46-10.405-16.717-5.807-5.248-12.673-7.793-17.667-8.685-2.512-.466-4.585-.616-6.016-.644-1.43-.033-2.225-.008-2.228-.054z" transform="translate(452.218 114.68) translate(24.583)"/>
                <path fill="#E1E1E1" d="M39.502 20.213c.026.066-.818.456-2.215 1.006-1.396.55-3.347 1.254-5.53 1.948-2.183.692-4.182 1.244-5.64 1.6-1.458.357-2.372.525-2.39.456-.019-.071.861-.366 2.29-.814l5.582-1.743 5.563-1.797c1.426-.459 2.315-.726 2.34-.656zM32.602 1.676c.141-.013.452 2.172.518 4.888.07 2.718-.13 4.915-.27 4.91-.15-.006-.185-2.198-.255-4.896-.066-2.698-.14-4.889.007-4.902zM1.23 11.711c-.02-.067 1.192-.506 3.184-1.12 1.99-.614 4.763-1.39 7.854-2.136 3.091-.744 5.914-1.315 7.966-1.675 2.052-.36 3.332-.521 3.344-.452.013.073-1.242.363-3.271.816-2.03.453-4.832 1.08-7.916 1.821-3.083.744-5.863 1.462-7.877 1.984-2.013.52-3.263.834-3.284.762z" transform="translate(452.218 114.68) translate(24.583)"/>
            </g>
            <g>
                <path fill="#F5F5F5" d="M49.811 3.282C46.043.424 42.057-.138 37.331.05c-4.726.187-9.327 1.627-13.659 3.524-7.39 3.237-14.335 8.007-18.75 14.758C.507 25.082-1.03 34.021 2.276 41.38c.33.733.758 1.5 1.497 1.816.778.333 1.668.073 2.473-.19 8.404-2.741 16.868-5.508 24.595-9.802C38.57 28.91 45.603 22.942 49.75 15.134c.995-1.873 1.828-3.881 1.99-5.996.163-2.114-.422-4.362-1.928-5.856" transform="translate(452.218 114.68) translate(0 38.304)"/>
                <path fill="#E1E1E1" d="M49.886 2.396c.005.018-.203.102-.605.246l-1.76.605-1.276.426c-.462.166-.955.374-1.49.58-1.063.43-2.297.86-3.597 1.49-.659.3-1.346.613-2.06.94-.716.329-1.429.735-2.184 1.12-1.524.748-3.065 1.704-4.706 2.673-3.222 2.037-6.632 4.489-9.951 7.38-3.29 2.924-6.158 5.994-8.59 8.931-1.17 1.505-2.314 2.912-3.251 4.328-.478.7-.971 1.356-1.39 2.023l-1.193 1.925c-.79 1.208-1.374 2.378-1.936 3.378-.274.504-.542.966-.766 1.404l-.584 1.21-.825 1.67c-.194.38-.304.575-.32.569-.018-.007.06-.218.223-.612l.737-1.714.545-1.234c.211-.445.468-.916.73-1.429.54-1.017 1.103-2.205 1.877-3.432l1.172-1.953c.412-.676.9-1.342 1.373-2.052.926-1.435 2.065-2.861 3.233-4.384 2.426-2.973 5.304-6.076 8.619-9.021 3.342-2.912 6.786-5.37 10.043-7.398 1.66-.964 3.219-1.911 4.76-2.648.765-.378 1.487-.777 2.21-1.1l2.086-.912c1.316-.612 2.566-1.02 3.643-1.426.542-.194 1.042-.389 1.51-.541l1.295-.383 1.794-.513c.411-.113.63-.164.634-.146zM20.442 18.339c.04.139-4.064 1.461-9.167 2.954-5.105 1.492-9.276 2.589-9.316 2.45-.04-.14 4.063-1.461 9.168-2.954 5.103-1.492 9.274-2.59 9.315-2.45z" transform="translate(452.218 114.68) translate(0 38.304)"/>
                <path fill="#E1E1E1" d="M20.065 38.57c-.07 0-.153-1.09-.202-2.857-.048-1.766-.056-4.207.02-6.901.075-2.696.219-5.133.366-6.894.147-1.76.29-2.845.36-2.84.075.004.063 1.097.01 2.861l-.212 6.887-.173 6.888c-.047 1.763-.095 2.855-.169 2.856zM37.395 29.741c-.145.01-.605-4.95-1.029-11.078-.424-6.13-.65-11.106-.505-11.116.144-.01.605 4.95 1.029 11.08.423 6.127.65 11.104.505 11.114z" transform="translate(452.218 114.68) translate(0 38.304)"/>
                <path fill="#E1E1E1" d="M15.823 7.065c.003-.072 1.127-.101 2.939-.089 1.811.013 4.313.066 7.074.158 2.762.091 5.261.203 7.07.31 1.809.108 2.927.21 2.926.283-.001.073-1.122.101-2.934.089-1.812-.013-4.315-.066-7.08-.157-2.763-.092-5.265-.204-7.074-.311-1.808-.108-2.925-.21-2.921-.283z" transform="translate(452.218 114.68) translate(0 38.304)"/>
            </g>
            <path fill="#E1E1E1" d="M59.143 107.615c-.018 0-.04-.206-.063-.6l-.077-1.72c-.066-1.497-.08-3.663-.024-6.34.048-2.676.225-5.861.54-9.388.342-3.524.836-7.387 1.543-11.413.727-4.023 1.597-7.82 2.494-11.246.921-3.42 1.855-6.47 2.734-8.999.871-2.53 1.634-4.56 2.212-5.94l.667-1.588c.157-.36.248-.547.266-.54.016.006-.042.206-.167.579l-.575 1.623c-.518 1.4-1.226 3.444-2.05 5.983-.832 2.537-1.725 5.59-2.62 9.004-.867 3.42-1.72 7.207-2.444 11.216-.705 4.011-1.212 7.859-1.578 11.368-.34 3.513-.556 6.685-.651 9.353-.104 2.668-.146 4.83-.142 6.324l-.021 1.722c-.012.394-.026.602-.044.602z" transform="translate(452.218 114.68)"/>
            <path fill="#E1E1E1" d="M61.455 77.716c.049.05-.614.788-1.748 1.918s-2.744 2.648-4.58 4.259c-1.837 1.61-3.554 3.008-4.822 3.984-1.27.976-2.087 1.537-2.131 1.481-.046-.058.69-.72 1.895-1.768l4.712-4.092 4.672-4.135c1.196-1.058 1.95-1.701 2.002-1.647zM75.325 88.888c-.063.04-.758-.957-1.862-2.578l-4.33-6.32-4.42-6.257c-1.137-1.599-1.83-2.597-1.771-2.643.056-.043.853.876 2.068 2.42 1.215 1.543 2.84 3.719 4.554 6.18 1.712 2.462 3.186 4.742 4.211 6.418 1.026 1.677 1.61 2.744 1.55 2.78zM68.059 53.75c.078.122-4.529 3.223-10.29 6.927-5.763 3.705-10.497 6.609-10.575 6.487-.078-.122 4.528-3.224 10.29-6.928 5.762-3.704 10.497-6.608 10.575-6.487zM81.051 67.772c-.101.104-3.222-2.78-6.97-6.44-3.748-3.66-6.703-6.712-6.602-6.815.102-.105 3.221 2.78 6.97 6.44 3.747 3.66 6.703 6.712 6.602 6.815z" transform="translate(452.218 114.68)"/>
            <g>
                <path fill="#F5F5F5" d="M.278 29.758l3.955-.327c2.808-.233 5.533-1.064 7.988-2.445 1.213-.683 2.432-1.352 3.723-1.87 4.89-1.963 10.346-1.612 15.609-1.876 8.59-.431 17.09-2.603 24.831-6.35.447-.216.843-.546 1.082-.981.813-1.48-.697-2.798-1.995-3.599-6.664-4.105-13.447-8.264-21.004-10.302C26.91-.03 18.332.314 11.884 4.752 4.314 9.961 1.557 20.66.278 29.758" transform="translate(452.218 114.68) translate(84.04 37.732)"/>
                <path fill="#E1E1E1" d="M57.555 15.423c-.009.016-.24-.092-.67-.312l-1.875-.982c-1.626-.856-3.967-2.118-6.925-3.536-2.96-1.403-6.546-2.986-10.718-4.131-4.155-1.155-8.95-1.76-13.892-1.126-4.923.65-9.456 2.564-12.665 5.439-3.229 2.865-5.201 6.323-6.594 9.262-1.39 2.965-2.246 5.487-2.87 7.212l-.703 1.995c-.165.455-.26.692-.277.686-.017-.005.044-.252.176-.718l.61-2.027c.565-1.749 1.37-4.295 2.727-7.303 1.361-2.982 3.323-6.516 6.611-9.47 3.27-2.965 7.907-4.938 12.917-5.596 5.027-.645 9.899-.013 14.09 1.18 4.209 1.182 7.8 2.812 10.751 4.263 2.948 1.467 5.264 2.78 6.86 3.69l1.829 1.07c.413.249.627.388.618.404z" transform="translate(452.218 114.68) translate(84.04 37.732)"/>
                <path fill="#E1E1E1" d="M48.056 20.526c-.081.12-5.254-3.226-11.553-7.473-6.302-4.25-11.342-7.79-11.261-7.91.081-.12 5.253 3.226 11.554 7.474 6.299 4.248 11.34 7.789 11.26 7.909zM43.086 4.648c.028.138-1.767.604-4.037.81-2.27.212-4.12.08-4.118-.06 0-.149 1.828-.254 4.07-.462 2.242-.205 4.058-.435 4.085-.288zM19.892.492c.126.074-.634 1.594-1.696 3.393-1.063 1.801-2.025 3.201-2.15 3.128-.125-.074.635-1.593 1.697-3.394 1.062-1.801 2.025-3.2 2.15-3.127zM24.528 23.574c-.036.059-.995-.443-2.49-1.35-1.494-.907-3.514-2.236-5.671-3.803-2.158-1.567-4.061-3.048-5.428-4.133-1.366-1.086-2.192-1.783-2.148-1.842.043-.058.948.535 2.372 1.545l5.512 4.005c2.151 1.561 4.127 2.932 5.565 3.916 1.438.984 2.327 1.596 2.288 1.662z" transform="translate(452.218 114.68) translate(84.04 37.732)"/>
            </g>
            <g>
                <path fill="#F5F5F5" d="M9.532 1.97C5.759.974 1.262 4.643.485 8.467c-.778 3.824.656 7.735 2.335 11.257 3.717 7.798 8.846 15.03 15.601 20.412 6.756 5.384 15.217 8.826 23.855 8.783-1.595-7.409.423-15.148-.467-22.674-.776-6.568-3.839-12.844-8.539-17.497-4.7-4.654-11.006-7.654-17.582-8.364-2.408-.26-5.196-.638-6.156 1.586" transform="translate(452.218 114.68) translate(80.61 82.325)"/>
                <path fill="#E1E1E1" d="M42.276 48.919c-.009.016-.193-.07-.537-.25-.34-.186-.832-.485-1.411-.947-1.185-.899-2.541-2.632-3.725-4.982-.602-1.168-1.274-2.436-1.93-3.84l-2.03-4.487c-.72-1.571-1.511-3.204-2.495-4.795-.978-1.595-2.142-3.153-3.432-4.668-2.583-3.034-5.354-5.659-7.757-8.166-2.415-2.498-4.446-4.904-5.914-7.096-1.483-2.184-2.38-4.14-2.89-5.52-.243-.695-.418-1.24-.505-1.618-.095-.376-.136-.575-.119-.58.05-.014.263.771.814 2.123.564 1.345 1.5 3.25 3.005 5.384 1.491 2.142 3.532 4.5 5.956 6.97 2.412 2.48 5.2 5.098 7.81 8.163 1.303 1.53 2.481 3.114 3.47 4.74.995 1.623 1.786 3.28 2.497 4.864l1.984 4.503c.633 1.398 1.288 2.68 1.866 3.853 1.136 2.356 2.404 4.063 3.526 4.996 1.102.95 1.848 1.302 1.817 1.353z" transform="translate(452.218 114.68) translate(80.61 82.325)"/>
                <path fill="#E1E1E1" d="M22.767 42.762c-.069-.013.05-.986.346-2.54.296-1.553.78-3.686 1.434-6.01.655-2.324 1.356-4.396 1.914-5.875.559-1.48.965-2.37 1.03-2.347.071.026-.212.962-.679 2.468-.467 1.505-1.108 3.584-1.76 5.897-.65 2.313-1.19 4.42-1.577 5.948-.387 1.528-.634 2.474-.708 2.46zM41.561 24.578c-.023.072-1.032-.186-2.658-.611-1.625-.425-3.87-1.006-6.367-1.569-2.499-.562-4.776-1-6.427-1.312-1.65-.313-2.673-.513-2.663-.588.01-.068 1.05.002 2.722.221 1.671.22 3.971.602 6.483 1.167 2.51.567 4.753 1.207 6.356 1.725 1.604.518 2.575.901 2.554.967zM8.767 29.862c-.069-.013.077-1.138.408-2.94.332-1.8.86-4.276 1.565-6.981.707-2.705 1.457-5.124 2.047-6.858.591-1.733 1.014-2.785 1.08-2.763.071.024-.226 1.116-.725 2.874s-1.19 4.184-1.894 6.88c-.702 2.695-1.286 5.148-1.71 6.926-.423 1.777-.698 2.876-.77 2.862zM32.906 8.732c-.016.144-4.726-.237-10.519-.852-5.795-.614-10.479-1.229-10.464-1.373.016-.144 4.724.237 10.52.851 5.793.614 10.478 1.23 10.463 1.374z" transform="translate(452.218 114.68) translate(80.61 82.325)"/>
            </g>
            <path fill="#E1E1E1" d="M110.066 148.172c0 .145-16.556.262-36.974.262-20.426 0-36.977-.117-36.977-.262 0-.145 16.552-.263 36.977-.263 20.418 0 36.974.118 36.974.263zM98.547 169.477c0 .145-11.155.262-24.912.262-13.762 0-24.914-.117-24.914-.262 0-.145 11.152-.262 24.914-.262 13.757 0 24.912.117 24.912.262zM98.982 172.524c0 .145-11.155.262-24.912.262-13.761 0-24.914-.118-24.914-.262 0-.145 11.153-.263 24.914-.263 13.757 0 24.912.117 24.912.263zM98.982 166.966c0 .145-11.538.262-25.767.262-14.235 0-25.771-.117-25.771-.262 0-.145 11.536-.262 25.77-.262 14.23 0 25.768.117 25.768.262z" transform="translate(452.218 114.68)"/>
        </g>
    </g>
</svg>
