<svg xmlns="http://www.w3.org/2000/svg" xmlns:xlink="http://www.w3.org/1999/xlink" width="595" height="474" viewBox="0 0 595 474">
    <defs>
        <linearGradient id="h6ajat344c" x1="50%" x2="50%" y1="60.423%" y2="13.118%">
            <stop offset="0%" stop-color="#6930D8"/>
            <stop offset="100%" stop-color="#8C61E1"/>
        </linearGradient>
        <linearGradient id="oynlck9shd" x1="50%" x2="50%" y1="98.643%" y2="30.619%">
            <stop offset="0%" stop-color="#6930D8"/>
            <stop offset="100%" stop-color="#8C61E1"/>
        </linearGradient>
        <linearGradient id="lmef9w1nle" x1="2.974%" x2="78.317%" y1="63.317%" y2="41.871%">
            <stop offset="0%" stop-color="#6930D8"/>
            <stop offset="100%" stop-color="#8C61E1"/>
        </linearGradient>
        <filter id="wc9fkggg0a" width="103.9%" height="105.6%" x="-1.9%" y="-2%" filterUnits="objectBoundingBox">
            <feMorphology in="SourceAlpha" operator="dilate" radius=".329" result="shadowSpreadOuter1"/>
            <feOffset dy="2" in="shadowSpreadOuter1" result="shadowOffsetOuter1"/>
            <feGaussianBlur in="shadowOffsetOuter1" result="shadowBlurOuter1" stdDeviation="2"/>
            <feComposite in="shadowBlurOuter1" in2="SourceAlpha" operator="out" result="shadowBlurOuter1"/>
            <feColorMatrix in="shadowBlurOuter1" values="0 0 0 0 0 0 0 0 0 0 0 0 0 0 0 0 0 0 0.1 0"/>
        </filter>
        <path id="040x2y9oeb" d="M161.333 0.47H539.679V260.535H161.333z"/>
    </defs>
    <g fill="none" transform="translate(0 2)">
        <ellipse cx="100.383" cy="460.817" fill="#E5E5E5" rx="89.924" ry="4.948"/>
        <ellipse cx="261.156" cy="466.093" fill="#E5E5E5" rx="89.924" ry="4.948"/>
        <ellipse cx="440.843" cy="405.133" fill="#E5E5E5" rx="89.924" ry="4.948"/>
        <ellipse cx="178.218" cy="414.192" fill="#E5E5E5" rx="89.924" ry="4.948"/>
        <use fill="#000" filter="url(#wc9fkggg0a)" xlink:href="#040x2y9oeb"/>
        <use fill="#FFF" stroke="#EAEAEA" stroke-width=".659" xlink:href="#040x2y9oeb"/>
        <path fill="#EAE8DC" d="M341.665 178.845h-5.005v-.5h5.005v.5zm-10.01 0h-5.006v-.5h5.005v.5zm-10.012 0h-5.005v-.5h5.005v.5zm-10.012 0h-5.005v-.5h5.005v.5zm-10.01 0h-5.006v-.5h5.005v.5zm-10.012 0h-5.005v-.5h5.005v.5zm-10.01 0h-5.006v-.5h5.005v.5zm-10.013 0h-5.005v-.5h5.005v.5zm-10.01 0h-5.006v-.5h5.005v.5zm-10.012 0h-5.006v-.5h5.006v.5zm-10.011 0h-5.006v-.5h5.006v.5zm-8.831-3.35l-3.54-3.54.354-.353 3.54 3.54-.354.353zm-7.08-7.079l-3.54-3.54.354-.353 3.54 3.54-.354.353zm-7.079-7.08l-3.54-3.539.354-.353 3.54 3.54-.354.353zm-7.079-7.078l-3.54-3.54.354-.353 3.54 3.54-.354.353zM419.418 137.5h-3.504v-.501h3.504v.5zm-8.51 0h-5.005v-.501h5.005v.5zm-10.01 0h-5.006v-.501h5.005v.5zm-10.012 0h-5.005v-.501h5.005v.5zm-10.011 0h-5.006v-.501h5.006v.5zm-10.012 0h-5.005v-.501h5.005v.5zm-10.011 0h-5.006v-.501h5.006v.5zm-10.011 0h-5.006v-.501h5.006v.5zm-10.011 0h-5.006v-.501h5.006v.5zm-10.012 0h-5.005v-.501h5.005v.5zm-10.011 0H315.8v-.501h5.006v.5zm-10.011 0h-5.006v-.501h5.006v.5zm-10.011 0h-5.006v-.501h5.006v.5zm-10.012 0h-5.006v-.501h5.006v.5z"/>
        <g fill="#EBEBEB" transform="translate(177.146 11.195)">
            <path d="M97.978 63.036l-.354-.354 3.54-3.54.353.354-3.54 3.54zm7.078-7.08l-.353-.353 3.54-3.54.353.354-3.54 3.54zm7.08-7.078l-.354-.354 3.54-3.54.353.354-3.54 3.54zm7.079-7.08l-.354-.353 3.54-3.54.354.354-3.54 3.54zm112.129-6.742h-5.005v-.5h5.006v.5h-.001zm-10.011 0h-5.006v-.5h5.006v.5zm-10.011 0h-5.006v-.5h5.006v.5zm-10.011 0h-5.006v-.5h5.006v.5zm-10.012 0h-5.006v-.5h5.006v.5zm-10.011 0h-5.006v-.5h5.006v.5zm-10.011 0h-5.006v-.5h5.006v.5zm-10.012 0h-5.005v-.5h5.005v.5zm-10.011 0h-5.006v-.5h5.006v.5zm-10.012 0h-5.005v-.5h5.005v.5zm-10.01 0h-5.006v-.5h5.006v.5zM108.798 97.917l-.353-.353 3.54-3.54.353.354-3.54 3.54zm7.079-7.08l-.354-.353 3.54-3.54.353.354-3.54 3.54zm7.079-7.078l-.354-.354 3.54-3.54.354.354-3.54 3.54zm7.08-7.08l-.354-.353 3.54-3.54.353.354-3.54 3.54zm112.129-6.742h-5.006v-.5h5.006v.5zm-10.012 0h-5.005v-.5h5.005v.5zm-10.01 0h-5.006v-.5h5.005v.5zm-10.013 0h-5.005v-.5h5.005v.5zm-10.01 0h-5.006v-.5h5.005v.5zm-10.012 0h-5.005v-.5h5.005v.5zm-10.011 0h-5.006v-.5h5.006v.5zm-10.012 0h-5.005v-.5h5.005v.5zm-10.01 0h-5.006v-.5h5.005v.5zm-10.012 0h-5.005v-.5h5.005v.5zm-10.011 0h-5.006v-.5h5.006v.5z"/>
            <g>
                <path d="M2.398 4.46H79.15c1.1 0 2.002-.9 2.002-2.001S80.252.456 79.15.456H2.398C1.297.456.396 1.357.396 2.46c0 1.101.9 2.002 2.002 2.002zM79.15 8.8H2.399C1.297 8.8.396 9.7.396 10.8s.9 2.002 2.002 2.002H79.15c1.1 0 2.002-.9 2.002-2.002 0-1.1-.901-2.002-2.002-2.002z" transform="translate(250.244 28.976)"/>
            </g>
            <g>
                <path d="M2.398 4.298H79.15c1.1 0 2.002-.9 2.002-2.002 0-1.1-.901-2.002-2.002-2.002H2.398C1.297.294.396 1.195.396 2.296c0 1.101.9 2.002 2.002 2.002zM79.15 8.637H2.399c-1.101 0-2.002.9-2.002 2.002 0 1.101.9 2.002 2.002 2.002H79.15c1.1 0 2.002-.9 2.002-2.002 0-1.101-.901-2.002-2.002-2.002z" transform="translate(250.244 63.22)"/>
            </g>
            <g>
                <path d="M78.99.453H2.235c-1.1 0-2.002.901-2.002 2.002 0 1.101.901 2.002 2.002 2.002H78.99c1.102 0 2.002-.9 2.002-2.002 0-1.101-.9-2.002-2.002-2.002zM78.99 8.796H2.235c-1.1 0-2.002.901-2.002 2.002 0 1.101.901 2.003 2.002 2.003H78.99c1.102 0 2.002-.902 2.002-2.003s-.9-2.002-2.002-2.002z" transform="translate(83.634 173.854)"/>
            </g>
            <g>
                <path d="M2.174 4.246h76.754c1.1 0 2.002-.901 2.002-2.002 0-1.101-.901-2.003-2.002-2.003H2.174c-1.1 0-2.001.902-2.001 2.003 0 1.1.9 2.002 2.001 2.002zM78.928 8.584H2.174c-1.1 0-2.001.9-2.001 2.002 0 1.101.9 2.002 2.001 2.002h76.754c1.1 0 2.002-.901 2.002-2.002 0-1.101-.9-2.002-2.002-2.002z" transform="translate(161.341 135)"/>
            </g>
            <path d="M61.095.624H4.085C2.006.624.305 2.325.305 4.406c0 2.08 1.701 3.78 3.782 3.78h57.01c2.079 0 3.781-1.7 3.781-3.78S63.175.624 61.095.624zM137.126.624h-57.01c-2.08 0-3.781 1.701-3.781 3.782 0 2.08 1.702 3.78 3.781 3.78h57.01c2.08 0 3.781-1.7 3.781-3.78S139.205.624 137.126.624z"/>
            <g>
                <path d="M260.528.296H3.238C1.586.296.234 1.648.234 3.299c0 1.653 1.352 3.004 3.004 3.004h257.29c1.652 0 3.003-1.351 3.003-3.004 0-1.652-1.351-3.003-3.003-3.003zM185.082 11.475H2.768c-1.393 0-2.534 1.14-2.534 2.533v.94c0 1.394 1.14 2.534 2.534 2.534h182.314c1.394 0 2.534-1.14 2.534-2.534v-.94c0-1.393-1.14-2.533-2.534-2.533z" transform="translate(7.244 210.732)"/>
            </g>
            <circle cx="57.6" cy="105.147" r="32.956"/>
        </g>
        <g>
            <g>
                <path fill="#FAB201" d="M39.892 77.386c-.717-17.376-2.26-32.489-4.11-43.03-2.945-16.802-5.597-26.468-5.628-26.571C29.767 6.307 24.16.329 11.696.513-.767.697.414 8.539.414 8.539c-.001.264.034.511.09.696.12.405 11.56 41.323 11.065 94.155-.007.742-.091 2.025-.038 2.878 0 .004 28.883.736 28.89 0 1.008-4.618.517-17.412-.53-28.882z" transform="translate(88.902 145.537) translate(0 71.78)"/>
                <path fill="#FFEDC0" d="M43.523 103.13c-.009.736-.403 1.325-.883 1.325h-.012c-.48-.011-.862-.6-.868-1.326H17.007c-.009.737-.403 1.326-.883 1.326h-.012c-.49-.011-.877-.62-.871-1.364.144-15.124-.73-29.245-2.054-41.71-3.29-31.083-9.373-51.857-9.46-52.146-.054-.185-.089-.431-.089-.697 0 0-1.182-7.84 11.281-8.026C27.385.327 32.991 6.307 33.38 7.785c.023.077 1.525 5.552 3.52 15.392.663 3.26 1.376 7 2.11 11.178 1.846 10.54 3.39 25.655 4.107 43.029 1.045 11.471 1.414 21.13.407 25.745z" transform="translate(88.902 145.537) translate(0 71.78)"/>
                <path fill="#FFDC86" d="M43.523 103.13c-.009.736-.403 1.325-.883 1.325h-.012c-.48-.011-.862-.6-.868-1.326H17.007c-.009.737-.403 1.326-.883 1.326h-.012c-.49-.011-.877-.62-.871-1.364.144-15.124-.73-29.245-2.054-41.71C17.28 41.655 33.097 26.567 36.9 23.178c.662 3.26 1.375 6.999 2.109 11.177 1.846 10.54 3.39 25.656 4.107 43.03 1.046 11.47 1.415 21.128.408 25.744z" transform="translate(88.902 145.537) translate(0 71.78)"/>
                <path fill="#E6A401" d="M18.427 102.858l-.005-.155v-.065c-.009-.462-.69-31.642-2.444-46.466-1.045-8.836-7.453-45.726-7.491-45.886-.047-.156-.073-.355-.072-.555-.01-.056-.267-1.888 1.142-3.55 1.394-1.645 3.878-2.505 7.385-2.556 9.276-.15 13.548 4.325 13.86 5.51.066.223 7.18 28.83 8.403 44.797.114 1.491.367 4.026.688 7.237 1.889 18.88 3.68 39.06 1.025 39.52-4.136.716-8.28.808-11.427.808-1.055 0-2.064-.011-3.013-.022-.842-.01-1.637-.019-2.376-.019-3.306 0-5.363.198-5.397 1.185v.053c-.005.077-.026.162-.138.164h-.14zM17.361 3.902c-.138 0-.277 0-.417.003-3.417.05-5.83.875-7.169 2.452-1.327 1.562-1.082 3.334-1.08 3.352 0 .192.023.367.062.499.034.115 6.43 36.877 7.5 45.929 1.647 13.923 2.33 41.324 2.432 45.858.658-.676 2.51-.823 5.411-.823.74 0 1.536.008 2.38.018.947.01 1.956.022 3.009.022 3.136 0 7.264-.091 11.378-.803 2.62-.453.002-26.633-1.256-39.214-.321-3.213-.575-5.75-.69-7.244-1.229-16.054-8.323-44.483-8.393-44.744-.295-1.124-4.337-5.305-13.167-5.305z" transform="translate(88.902 145.537) translate(0 71.78)"/>
                <path fill="#E5BD9E" d="M13.411 104.456h97.045s-2.26-9.02-58.462-7.677c-39.773.95-38.583 7.677-38.583 7.677z" transform="translate(88.902 145.537) translate(0 71.78)"/>
                <path fill="#FAB201" d="M5.512 198.678c11.252-56.186 8.359-90.664 8.344-91.097-.028-.865 1.588-1.65 2.458-1.68.88-.014 4.764-.255 5.214.486.588.97 2.854 43.449-13.915 92.29H5.512zM96.122 198.678c-11.252-56.186-8.359-90.664-8.344-91.097.028-.865-1.589-1.65-2.458-1.68-.88-.014-4.764-.255-5.214.486-.588.97-2.854 43.449 13.915 92.29h2.101zM114.079 198.678c-11.252-56.186-8.359-90.664-8.344-91.097.028-.865-1.589-1.65-2.458-1.68-.88-.014-4.764-.255-5.214.486-.588.97-2.854 43.449 13.915 92.29h2.101z" transform="translate(88.902 145.537) translate(0 71.78)"/>
                <path fill="#D39601" d="M23.59 193.807c11.252-56.186 8.359-85.792 8.344-86.226-.028-.865 1.589-1.65 2.458-1.68.88-.014 4.764-.255 5.214.486.588.97 2.854 38.577-13.915 87.42h-2.1z" transform="translate(88.902 145.537) translate(0 71.78)"/>
                <path fill="#FAB201" d="M109.999 107.335H13.984c-1.377 0-2.503-1.127-2.503-2.503v-.204c0-1.377 1.126-2.503 2.502-2.503H110c1.377 0 2.503 1.127 2.503 2.503v.204c0 1.376-1.126 2.503-2.503 2.503z" transform="translate(88.902 145.537) translate(0 71.78)"/>
            </g>
            <g>
                <path fill="#EFB1B1" d="M68.774 114.88s17.741 20.263 21.372 19.932c3.71-.338 5.973-1.506 9.201 0 2.32 1.083 9.654 6.981 7.685 6.591-1.97-.391-5.531-.848-6.471-.937-1.295-.123-3.375-.152-4.785-.397-.892-.155-4.115-.246-5.19-.281-4.669-.155-26.753-13.056-26.753-13.056l4.941-11.852z" transform="translate(88.902 145.537) translate(21.732)"/>
                <path fill="#735441" d="M56.465 11.987s-.802-10.178-15.44-7.535c-3.871.7-6.53-6.202-12.867-3.743C14.518 6.005 13.715-.987 9.772 8.825c-1.65 4.107-12.144 8.888-8.94 15.986 3.205 7.098-2.157 11.871 1.61 17.433 1.95 2.878 1.158 8.023 10.355 8.206 4.581.091 11.716 8.58 16.858 10.122 5.14 1.541 20.578-.683 19.997-7.736-.454-5.503 5.964-5.045 9.907-11.371 3.446-5.53-2.704-6.923.584-15.862 2.411-6.552-3.866-8.15-3.678-13.616z" transform="translate(88.902 145.537) translate(21.732)"/>
                <g>
                    <path fill="#FFCACA" d="M1.935 24.617c-.314 3.405 4.426 4.232 9.915 4.506 5.489.273 3.83 1.398 11.352 2.76 7.523 1.363 10.537-.696 11.081-1.713.485-.901-3.012-2.312-6.739-3.906-.469-.198-.938-.404-1.409-.609-4.195-1.844-6.548-5.606-9.818-9.094-3.098-3.304-6.04-13.882-6.04-13.882L.056.496s2.87 9.52 3.867 13.585c.586 2.391-.278 5.063-1.046 7.098-.414 1.106-.831 2.239-.94 3.438z" transform="translate(88.902 145.537) translate(21.732) translate(135 237.732)"/>
                    <path fill="#2A115A" d="M11.85 29.123c5.489.273 3.83 1.398 11.352 2.76 7.523 1.363 10.537-.696 11.081-1.713.485-.901-3.012-2.312-6.739-3.906l-.058.064s-5.29 1.796-11.394.137c-4.977-1.352-9.788-4.326-13.216-5.286-.413 1.107-.83 2.24-.94 3.438-.314 3.405 4.425 4.232 9.914 4.506z" transform="translate(88.902 145.537) translate(21.732) translate(135 237.732)"/>
                </g>
                <path fill="#220E49" d="M37.874 130.484s65.195 5.533 77.983 13.604c12.788 8.07 33.298 102.08 33.298 102.08s-1.266 1.014-4.093 1.32c-2.63.285-8.42-1.26-8.42-1.26s-29.476-42.063-31.551-52.66c-2.077-10.596-1.57-20.052-6.297-20.305-4.728-.254-63.661 7.164-72.576-8.54-8.914-15.704-1.545-31.25-1.545-31.25l13.201-2.99z" transform="translate(88.902 145.537) translate(21.732)"/>
                <g>
                    <path fill="#FFCACA" d="M2.27 24.341c-.313 3.405 4.426 4.233 9.915 4.506 5.489.273 3.83 1.398 11.352 2.76 7.523 1.363 10.537-.696 11.082-1.712.485-.902-3.013-2.312-6.74-3.906-.469-.199-.938-.404-1.408-.609-4.195-1.845-6.549-5.606-9.82-9.094-3.097-3.304-6.038-13.882-6.038-13.882L.391.22s2.87 9.52 3.866 13.585c.587 2.39-.278 5.063-1.046 7.097-.414 1.106-.831 2.239-.94 3.438z" transform="translate(88.902 145.537) translate(21.732) translate(111.293 238.39)"/>
                    <path fill="#2A115A" d="M12.186 28.847c5.488.273 3.83 1.398 11.352 2.76 7.523 1.363 10.537-.696 11.081-1.712.486-.902-3.012-2.312-6.74-3.906l-.057.064s-5.29 1.796-11.394.136c-4.977-1.352-9.788-4.325-13.216-5.286-.414 1.107-.831 2.24-.94 3.44-.315 3.403 4.424 4.23 9.914 4.504z" transform="translate(88.902 145.537) translate(21.732) translate(111.293 238.39)"/>
                </g>
                <path fill="#2A115A" d="M24.457 134.812s60.343 2.856 72.808 11.419c12.464 8.562 29.3 103.298 29.3 103.298s-1.305.964-4.142 1.16c-2.638.182-8.364-1.588-8.364-1.588s-27.816-43.178-29.479-53.848c-1.662-10.668-.787-20.097-5.502-20.535-4.714-.437-63.891 4.682-72.187-11.357-8.296-16.04 17.566-28.549 17.566-28.549z" transform="translate(88.902 145.537) translate(21.732)"/>
                <path fill="#FFCACA" d="M6.395 57.713c.022-.032.05-.06.077-.093.479-.539 1.051-1.034 1.683-1.474l.022-.017h.005c4.93-3.444 13.737-4.181 13.737-4.181v.005l.002-.004s.962-.09 2.487-.16c1.155-2.993 2.47-7.428 2.877-13.897l.873.233 14.682 3.938s-.65 4.66-.954 9.07c-.068.966-.117 1.92-.14 2.81.425.156.819.309 1.166.454 0 0 8.395.99 10.381 3.124 1.987 2.14 5.958 16.356 6.96 18.875l-56.526.925s-1.42-14.772 2.668-19.608z" transform="translate(88.902 145.537) translate(21.732)"/>
                <path fill="#6930D8" d="M4.309 158.815c6.692.637 29.247-12.983 36.763-17.413.134-.075.258-.151.378-.222 3.13-1.839 7.534-2.708 11.719-3.402 5.334-.873 10.312-1.46 11.906-3.366 1.896-2.27-3.682-4.786-8.166-7.395-2.258-1.319-4.243-2.663-4.862-4.003-.476-1.055-.44-3.366-.12-6.323v-.004c.053-.552.124-1.126.204-1.724.365.757.82 1.54 1.345 2.324 1.318 1.973 3.054 3.963 4.79 5.606 2.129 2.016 4.248 3.517 5.566 3.838.886.213 1.777.102 2.658-.24 2.346-.918 4.612-3.5 6.411-5.99.423-.587.824-1.175 1.189-1.731 1.229-1.861 2.101-3.406 2.431-3.771 1.002-1.108-4.03-3.304-6.095-4.952-2.057-1.651-10.17-33.65-10.17-33.65-1-2.521-4.973-16.738-6.958-18.88 0 0-7.747 9.462-17.792 8.92-9.973-.535-27.057-10.156-27.32-10.308h-.004l-.022.013-1.763 1.572C2.309 62.55 3.73 77.318 3.73 77.318s7.818 34.457 7.818 37.934c0 6.376-5.271 21.033-7.787 31.59-1.598 6.689-2.093 11.724.548 11.973z" transform="translate(88.902 145.537) translate(21.732)"/>
                <path fill="#EFB1B1" d="M42.841 42.063s-.65 4.66-.955 9.07c-8.31-.79-12.204-8.678-13.727-13.008l14.682 3.938z" transform="translate(88.902 145.537) translate(21.732)"/>
                <path fill="#FFCACA" d="M45.343 46.426s-19.72-.988-18.915-13.26c.804-12.27-1.2-20.662 11.425-20.55 12.625.112 14.762 4.954 15.49 9.116.727 4.161-2.85 24.635-8 24.694z" transform="translate(88.902 145.537) translate(21.732)"/>
                <path fill="#735441" d="M46.173 16.984s-4.713-1.1-6.253 1.192c-1.54 2.293-.44 3.576-3.878 4.539-3.438.963-4.607.894-4.263 3.3.344 2.407-3.456 4.195-3.62 6.12-.163 1.926-1.744 2.89-3.256 3.027-1.513.137-.826-24.824 5.02-25.925 5.845-1.1 11.483.206 13.203 1.581 1.718 1.375 3.047 6.166 3.047 6.166z" transform="translate(88.902 145.537) translate(21.732)"/>
                <path fill="#735441" d="M46.173 16.984s4.585-.32 5.41 2.293c.825 2.613-.275 3.232.894 4.813 1.169 1.582.492 4.386.492 4.386s9.066-16.695-.492-17.796c-9.559-1.1-9.307.848-6.304 6.304z" transform="translate(88.902 145.537) translate(21.732)"/>
                <path fill="#6930D8" d="M51.926 113.904v-.008c.063-.913.147-1.874.236-2.863 1.31 3.936 3.651 8.264 6.105 11.861 2.128 2.017 4.247 3.517 5.565 3.838.886.213 1.777.103 2.658-.24 2.346-.918 4.612-3.5 6.411-5.989.423-.587.824-1.176 1.189-1.732-6.265-5.027-18.139-16.527-19.372-32.266-1.687-21.496-2.796 27.39-2.796 27.39l.004.01z" transform="translate(88.902 145.537) translate(21.732)"/>
                <path fill="#6930D8" d="M66.49 126.492c-2.186-3.336-6.634-6.621-13.014-9.203 2.939 4.399 7.965 8.864 10.357 9.443.885.213 1.776.102 2.657-.24z" transform="translate(88.902 145.537) translate(21.732)"/>
                <path fill="#5724BD" d="M14.357 85.124s-10.596 61.72 26.715 56.278c.133-.075.258-.151.378-.222 3.13-1.839 7.533-2.708 11.718-3.402 5.334-.873 10.312-1.46 11.906-3.366 1.897-2.27-3.682-4.786-8.166-7.395-2.257-1.319-7.711-1.874-8.33-3.214-.477-1.056-4.56-5.968-4.239-8.923l-1.724-2.642c-18.397-14.4-28.258-27.114-28.258-27.114z" transform="translate(88.902 145.537) translate(21.732)"/>
                <path fill="#FFCACA" d="M24.884 72.14s-9.011-7.803-13.249 1.843c-4.238 9.647 11.076 53.228 20.493 57.794 5.154 2.499 47.843 7.766 47.843 7.766l.286-5.467s-29.438-10.652-31.32-12.011c-1.881-1.36-20.372-50.032-24.053-49.926z" transform="translate(88.902 145.537) translate(21.732)"/>
                <path fill="#FFCACA" d="M80.257 134.075s8.809-2.155 12.09 0c3.282 2.156 7.161 7.47 5.437 7.327-1.724-.143-17.059-.056-17.814-1.86-.755-1.803.287-5.467.287-5.467z" transform="translate(88.902 145.537) translate(21.732)"/>
                <path fill="#6930D8" d="M8.182 56.131s3.706 55.955 12.21 69.213c8.503 13.258 24.517 7.393 24.517 7.393s6.398-6.702 5.294-10.036c0 0-13.816-53.573-42.021-66.57z" transform="translate(88.902 145.537) translate(21.732)"/>
            </g>
        </g>
        <g>
            <g>
                <path fill="#F9C29D" d="M12.512 114.774s-.645-.189-1.771.166c-1.07.07-2.34.087-2.953-.145-1.168-.443-2.157.66-1.417 1.588.246.309.573.55.955.723-1.8 1.672-3.965 4.49-6.332 9.235 0 0-1.983 3.587 2.22 2.478 2.809-.74 3.41-2.145 7.352-3.253 3.944-1.108 7.048-3.948 7.384-6.953l1.678-2.975-4.144-4.114-2.972 3.25z" transform="translate(334.537 59.927) translate(98.78 54)"/>
                <path fill="url(#h6ajat344c)" d="M21.502.13s32.656 17.23 28.685 67.118c-1.072 13.468-31.436 52.862-31.436 52.862s-5.736-2.685-5.702-6.897c0 0 14.764-42.608 17.936-45.39 2.814-2.47-13.443-40.38-14.27-50.785C15.888 6.633 21.502.13 21.502.13z" transform="translate(334.537 59.927) translate(98.78 54)"/>
            </g>
            <path fill="#220E49" d="M175.29 319.816s5.695 5.197 4.583 8.89c-1.11 3.692-6.25 6.155-6.945 10.668-.694 4.513-3.472 6.975-5.972 6.975h-11.92s-1.84-3.176 2.605-4.133c4.445-.957 6.12-6.26 5.843-11.184-.278-4.923.417-11.488.417-11.488l9.444-2.189 1.945 2.461z" transform="translate(334.537 59.927)"/>
            <path fill="#220E49" d="M175.291 316.557c-1.042 3.08-12.503 7.59-12.503 7.59s-6.249-9.844-26.252-45.133c-1.72-3.04-3.52-6.375-5.373-9.928-19.642-37.733-45.046-100.441-45.046-100.441l48.548-13.537s2.289 19.487 2.706 29.335c.255 6.017 3.676 18.874 8.025 30.106 2.766 7.146 5.91 13.633 8.85 17.28 13.394 16.61 21.045 84.728 21.045 84.728z" transform="translate(334.537 59.927)"/>
            <path fill="#1A0B39" d="M145.396 214.55c-3.053 15.476-8.653 41.393-14.233 54.536-19.642-37.733-45.046-100.441-45.046-100.441l48.548-13.537s2.289 19.487 2.706 29.335c.254 6.018 3.676 18.875 8.025 30.106z" transform="translate(334.537 59.927)"/>
            <path fill="#2A115A" d="M105.425 333.258s1.022 11.828-1.478 13.06l-31.996-.067s0-3.692 5.14-4.513c5.138-.82 14.167-3.829 15.694-10.531 1.528-6.702 12.64 2.051 12.64 2.051z" transform="translate(334.537 59.927)"/>
            <path fill="#2A115A" d="M78.411 166.184s1.688 20.732 3.671 45.654c2.696 33.853 5.938 75.437 6.259 83.315.554 13.679 2.78 35.56 2.78 35.56s5.274 5.199 15.833 3.008c0 0 9.41-31.236 12.097-64.286l.125-1.633c2.5-33.644 6.388-104.49 6.388-104.49l-47.153 2.872z" transform="translate(334.537 59.927)"/>
            <path fill="#FFCACA" d="M122.654 52.935s-18.99 12.49-30.855 8.805c0 0 3.3-4.996 6.44-8.985-.41-2.382-.73-4.449-.913-6.201-.502-4.044-.502-6.336-.502-6.336l7.94-6.245 7.53-5.977c-.593 16.806 10.36 24.94 10.36 24.94z" transform="translate(334.537 59.927)"/>
            <path fill="url(#oynlck9shd)" d="M149.45 205.419c-24.132 16.292-72.896 11.637-73.262 11.326-.81-10.37-1.272-27.472-1.526-43.298-.103-6.6-.177-12.973-.22-18.547-.095-11.038-.09-18.93-.073-19.18 0 0 .013-.594.038-1.602.078-3.194.276-10.517.484-15.974.038-1.021.077-1.974.116-2.823.005-.047.005-.09.009-.138.15-2.452 1.65-9.003 3.759-16.64l.038-.139c3.09-11.163 7.465-24.584 10.823-30.838 1.737-3.22 7.556-12.551 7.556-12.551 4.107.81 7.068-.401 11.405-2.513 4.745-2.293 9.857-4.762 10.68-4.133 6.206 4.538 10.404 14.736 12.641 27.77 1.275 7.503 18.726 128.469 17.532 129.28z" transform="translate(334.537 59.927)"/>
            <path fill="#D69D9D" d="M112.43 34.422s-5.201 9.481-15.104 12.133c-.502-4.044-.502-6.336-.502-6.336l7.94-6.246 7.667.45z" transform="translate(334.537 59.927)"/>
            <path fill="#FFCACA" d="M93.203 39.945s19.634 3.212 21.477-8.859c1.843-12.07 5.618-19.784-6.84-22.346-12.457-2.561-15.602 1.683-17.212 5.565-1.61 3.882-2.485 24.493 2.575 25.64z" transform="translate(334.537 59.927)"/>
            <path fill="#735441" d="M119.884 4.303c-2.535-2.605-7.97-4.5-23.017-3.313-19.83 1.566-13.295 14.263-10.728 15.776 2.568 1.514 9.03-2.636 13.814-2.256 4.783.38 5.693 7.29 7.315 8.24 1.623.948.985-.73 3.18-1.722 2.196-.992 2.405 2.646 1.77 5.011-.634 2.366 2.383 5.486 2.383 5.486l3.049-3.283c3.048-3.283 5.921-17.19 4.536-20.154-.124-.261-1.322-2.865-2.302-3.785z" transform="translate(334.537 59.927)"/>
            <path fill="#6930D8" d="M74.442 154.9c-.095-11.038-.09-18.93-.073-19.18 0 0 .013-.594.038-1.602.078-3.194.276-10.517.484-15.974.038-1.021.077-1.974.116-2.823.005-.047.005-.09.009-.138.15-2.452 1.65-9.003 3.759-16.64l.038-.139c17.913-19.623 38.192-30.381 38.192-30.381s5.249 68.228-42.563 86.877zM119.326 48.367s-1.825-5.302-3.312-5.9c0 0-20.663 4.767-27.555 27.603 0 0 8.041-14.013 30.867-21.703z" transform="translate(334.537 59.927)"/>
            <g>
                <path fill="#F9C29D" d="M12.047 26.984s-5.955-9.849-8.66-10.673C.682 15.485-.238 20.97.304 24.449c.61 3.904 1.944 7.766 4.636 8.879 2.693 1.113 5.13 1.48 5.13 1.48l1.977-7.824z" transform="translate(334.537 59.927) translate(0 67.83)"/>
                <path fill="#F9C29D" d="M12.786 26.762s-.595-3.465-1.483-4.012c-.888-.547-4.338-1.52-5.203-1.398-.864.122 3.668 6.405 4.917 6.516 1.248.11 1.77-1.106 1.77-1.106z" transform="translate(334.537 59.927) translate(0 67.83)"/>
                <path fill="url(#lmef9w1nle)" d="M122.51 1.615s-6.862 36.28-55.712 47.156C53.61 51.708 7.028 34.273 7.028 34.273s.88-6.271 4.915-7.477c0 0 45.065 1.578 48.658 3.792 3.187 1.963 34.64-24.724 44.341-28.575 9.702-3.851 17.568-.398 17.568-.398z" transform="translate(334.537 59.927) translate(0 67.83)"/>
            </g>
        </g>
        <g>
            <g fill="#31146A">
                <path d="M.002 13.127c-.003.909.058 1.612.214 1.938.756 1.566 23.668 1.078 25.153 1.002 1.3-.067 1.08-4.45-5.041-6.939-.888-.364-1.905-.684-3.06-.953-6.1-1.4-5.932-7.782-5.932-7.782L.948.485S.024 9.704.002 13.127z" transform="translate(0 144.878) translate(146.854 299.634)"/>
                <path d="M.002 13.127c-.003.909.058 1.612.214 1.938.756 1.566 23.668 1.078 25.153 1.002 1.3-.067 1.08-4.45-5.041-6.939-1.485.308-3.078 1.544-3.7 5.168 0 0-10.827.215-16.626-1.17z" transform="translate(0 144.878) translate(146.854 299.634)"/>
            </g>
            <g fill="#2A115A">
                <path d="M.575 13.127c-.003.909.058 1.612.214 1.938.756 1.566 23.668 1.078 25.153 1.002 1.3-.067 1.08-4.45-5.041-6.939-.888-.364-1.905-.684-3.06-.953-6.1-1.4-5.932-7.782-5.932-7.782L1.521.485S.597 9.704.575 13.127z" transform="translate(0 144.878) translate(100.756 299.634)"/>
                <path d="M.575 13.127c-.003.909.058 1.612.214 1.938.756 1.566 23.668 1.078 25.153 1.002 1.3-.067 1.08-4.45-5.041-6.939-1.485.308-3.078 1.544-3.7 5.168 0 0-10.827.215-16.626-1.17z" transform="translate(0 144.878) translate(100.756 299.634)"/>
            </g>
            <path fill="#FFB27D" d="M74.916 50.856s-2.542-5.113-4.875-4.112c-2.334 1 .944 9.257 2.472 9.16 1.528-.097 2.403-5.048 2.403-5.048z" transform="translate(0 144.878)"/>
            <path fill="#31146A" d="M51.911 221.428c1.372.328 3.548.636 6.355.924v.006c10.855 1.118 31.14 1.915 50.656 2.03 6.938.042 13.775-.002 20.06-.146.027 0 .054.005.08-.001 5.46-.13 10.498-.337 14.813-.628 4.78-.32 8.678-.754 11.27-1.306 1.887-.398 3.088-.863 3.452-1.398 3.086-4.499 10.762-13.52 9.747-20.334-.206-1.39-.768-2.689-1.81-3.833 0 0-5.312-1.975-13.667-4.761h-.006c-16.552-5.515-45.05-14.193-67.848-16.936h-.005c-13.459-1.623-24.932-1.179-30.787 3.209-20.788 15.57-15.63 40.001-2.31 43.174z" transform="translate(0 144.878)"/>
            <path fill="#220E49" d="M143.995 222.894v.01c-.038.234-.08.472-.119.71-.032.217-.07.427-.107.65-.2 1.158-.42 2.361-.669 3.615-.119.631-.248 1.275-.39 1.93-.129.63-.265 1.269-.41 1.923-1.42 6.499-3.455 14.142-6.275 23.118v.006c-3.786 12.017-8.995 26.428-16.078 43.7-1.007 2.458-2.053 4.973-3.143 7.549-.925 2.197-1.884 4.446-2.875 6.733l-8.62.042c-1.592-.679-3.164-1.624-4.44-2.936-.746-.761-1.392-1.655-1.874-2.69-1.097-2.348-1.442-16.333.135-33.69.568-6.284 1.388-13.007 2.518-19.781 1.227-7.4 2.82-14.865 4.857-21.876.19-.66.381-1.314.583-1.963.19-.633.392-1.265.595-1.892.398-1.238.813-2.464 1.239-3.662.071-.195.137-.383.202-.566v-.006c.717-1.964 1.471-3.874 2.271-5.705v-.006c3.896-8.937 8.818-16.151 14.992-20.07 4.335-2.741 9.287-3.867 14.932-2.815.127.02.255.049.376.07 0 0 6.155 3.636 2.3 27.602z" transform="translate(0 144.878)"/>
            <path fill="#6930D8" d="M64.976 56.784s-1.004.166-2.51.524c-3.638.866-10.2 2.861-12.573 6.373-3.354 4.966-20.753 71.692-19.78 81.352.975 9.66 20.891 24.414 27.64 25.523l7.223-113.772z" transform="translate(0 144.878)"/>
            <path fill="#FFCACA" d="M84.949 67.283c.07.058-.007 10.166-8.759 8.035-5.745-1.399-16.86-10.876-14.778-15.621.99-2.255 6.576-7.51 10.212-21.305l1 .49 16.8 8.257s-1.897 5.475-3.315 10.73c-1.193 4.413-2.045 8.672-1.16 9.414z" transform="translate(0 144.878)"/>
            <path fill="#FFCACA" d="M96.632 50.658s-25.2 5.824-28.584-9.925c-3.385-15.748-8.917-25.603 7.028-29.987 15.946-4.385 20.374.95 22.783 5.933 2.408 4.982 5.24 32.058-1.227 33.979z" transform="translate(0 144.878)"/>
            <path fill="#31146A" d="M46.566 198.395s15.466 12.49 14.61 21.19c-.857 8.7 12.17-1.797 12.17-1.797l-6.055-19.494-20.725.1z" transform="translate(0 144.878)"/>
            <path fill="#31146A" d="M179.126 257.16c-4.67 14.812-11.438 33.048-21.084 55.462l-8.52.042c-1.293-.547-2.581-1.267-3.71-2.22-1.074-.892-2.004-1.996-2.653-3.355-.017-.028-.028-.06-.045-.088-.543-1.15-.894-5.097-.934-10.874-.06-10.098.85-25.773 3.463-41.817 1.087-6.691 2.472-13.45 4.208-19.89.245-.915.5-1.824.762-2.728.376-1.304.769-2.59 1.178-3.855.01-.04.021-.078.038-.117.392-1.221.802-2.425 1.223-3.607-1.866.048-3.783.085-5.739.11h-.016c-1.163.018-2.337.03-3.529.04-4.774.04-9.737.031-14.707-.022-.027.006-.055 0-.083 0-6.736-.061-13.494-.211-19.855-.424-6.032-.198-11.712-.453-16.665-.756-1.419-.081-2.777-.174-4.067-.268-5.984-.43-10.535-.929-12.83-1.477-1.57-.374-3.025-1.043-4.336-1.956-.495-.341-.973-.72-1.423-1.134l-.012-.011c-4.184-3.813-6.51-10.383-5.74-17.626 0-.006 0-.006.005-.011.073-.748.186-1.508.337-2.268.081-.432.179-.87.287-1.308.359-1.464.845-2.945 1.469-4.422 2.147-5.068 5.922-10.094 11.729-14.437 1.622-1.216 3.64-2.14 5.996-2.8.371-.106.747-.203 1.134-.293.005 0 .005-.006.005-.006h.012c.17-.04.343-.08.514-.114 1.184-.266 2.44-.471 3.758-.627 7.053-.848 15.841-.227 25.243 1.179h.005c.976.144 1.962.295 2.95.462 9.085 1.484 18.618 3.615 27.624 5.798.017.006.028.006.04.01 2.772.663 5.484 1.342 8.13 2 .598.152 1.192.298 1.78.451 3.161.793 6.195 1.566 9.057 2.277 1.958.483 3.81 1.022 5.558 1.584l.06.017c9.776 3.132 16.055 6.956 16.071 6.962 0 0 10.015 9.18-6.688 62.117z" transform="translate(0 144.878)"/>
            <path fill="#5F27CD" d="M40.046 193.614c1.331 1.838 3.589 3.435 6.514 4.78h.005c20.932 9.638 70.822-12.154 68.377-26.565-.86-5.073-4.817-5.026-7.943-13.303-2.427-6.43-4.183-12.454-4.13-18.356.02-2.504.374-4.994 1.134-7.478 1.854-6.03 3.533-15.718 4.578-26.039 1.782-17.581-3.11-36.553-7.339-42.78-.598-.882-31.744-9.203-58.49-.354 0 0-1.963 31.125 4.314 63.558.84 4.329.474 8.798-1.07 12.927-4.815 12.88-14.277 42.088-5.95 53.61z" transform="translate(0 144.878)"/>
            <path fill="#5724BD" d="M92.578 133.196c-3.662-11.258-4.776-25.228 2.494-39.713 0 0 7.472 4.486 13.509 13.169-1.045 10.32-2.725 20.008-4.578 26.039-.784 2.55-1.127 5.101-1.133 7.676 0 .147.003.294.005.441.004.338.014.677.03 1.016.006.143.011.287.02.431.026.443.062.886.106 1.331.015.144.034.288.05.433.038.33.08.66.126.99.025.172.049.343.075.514.063.401.13.804.206 1.208.028.15.058.3.087.449.072.363.148.727.229 1.093.04.182.083.366.126.549.077.328.158.657.242.987.039.152.075.302.115.454.117.445.242.892.372 1.34.053.184.108.367.163.551.095.317.192.635.292.954.056.178.11.355.168.533.146.455.297.913.453 1.372.052.153.107.307.16.46.123.357.25.714.378 1.073l.181.504c.179.49.36.98.546 1.474 3.126 8.278 10.565 12.475 10.574 16.656.023 10.815-50.075 32.85-71.007 23.213 48.716 7.253 46.023-64.894 46.011-65.197z" transform="translate(0 144.878)"/>
            <path fill="#735441" d="M93.454 5.639c-5.358-3.452-10.987-3.885-10.987-3.885-4.132-.5-7.716-.131-10.769.84l-.005-.007c-.501-.495-1.007-.859-1.518-1.066C53.896-5.186 38.36 17.906 43.797 36.856c2.339 8.176-8.96 17.758-19.633 25.632-9.008 6.646-10.756 15.169-9.816 22.737 1.25 10.114 7.027 18.927 15.843 21.98-4.547-6.708-4.352-13.384-4.352-13.384.298 3.29 2.514 6.663 4.937 9.438 1.777 2.04 3.863 3.769 6.163 5.16 2.161 1.302 4.52 2.304 6.977 2.968.238.066.483.13.716.19 7.165 1.899 12.576 2.858 16.66 3.226 2.079.19 3.813.226 5.264.157 4.286-.198 6.08-1.315 6.825-2.138.463-.512.521-.917.521-.917 11.82-19.65-14.958-21.037-4.321-40.034.747-1.333 1.676-2.755 2.82-4.278 1.291-2.278 2.24-5.207 2.925-8.002 1.087-4.387 1.515-8.471 1.59-9.241-.204 3.8-.555 6.838-.986 9.266v.006c-.496 2.85-1.09 4.857-1.659 6.284 1.455-1.597 2.624-3.708 3.537-6.183.94-2.542 1.619-5.47 2.057-8.634.375-2.638.583-5.448.646-8.329.043-1.607.035-3.235-.012-4.874v-.006-.002c2.58-4.056 4.648-10.497 8.47-13.527-1.442 7.664-5.494 17.06-5.494 17.06 14.64-6.95 17.178-25.883 17.178-25.883v-.001c1.347-4.458-4.424-8.1-7.199-9.888z" transform="translate(0 144.878)"/>
            <path fill="#FAB201" d="M152.597 227.833l-.722.004-.003-.009c-.098-.335-3.478-10.232-59.46-10.132-.525-32.944-5.065-62.32-10.78-80.957-6.867-22.401-13.014-35.278-13.085-35.415-.466-.901-2.062-1.453-4.631-1.216-2.938.27-3.016 2.287-2.55 3.187.09.173 2.993 5.88 6.865 15.874-15.897-2.66-42.036.34-52.76 1.789-4.429-12.374-7.704-19.238-7.756-19.338-.466-.9-2.063-1.453-4.632-1.216-2.938.27-3.015 2.287-2.55 3.188.278.537 27.732 54.473 27.028 124.857-.496.022-.946.23-1.276.566-.346.352-.557.828-.555 1.356.006 1.058.872 1.923 1.921 1.917l.148-.001v.001c.019.432 2.995 35.406-5.644 85.867l5.81-.028c11.44-40.875 10.67-78.851 9.92-85.888l46.341-.226c.447 6.286 1.94 40.37-5.782 85.868l5.778-.028c10.937-39.416 10.79-76.62 10.097-85.889l7.134-.035c-.29 3.004-.54 10.771.195 21.852.963 14.53 3.61 39.64 10.057 62.353.146.526.299 1.051.456 1.582l5.81-.028c-.415-2.28-.802-9.388-1.168-11.585-7.725-46.326-5.272-73.813-5.263-74.223l24.207-.119v.001c-.306 3.12-.56 11.347.278 23.086v.006c.785 11.08 2.544 25.286 6.156 41.271.527 2.336 1.092 4.704 1.701 7.11.599 2.367 1.242 9.646 1.93 12.08.203.74.417 1.482.637 2.234l5.81-.028c-.205-1.135-.404-2.258-.598-3.365-4.023-23.118-5.538-46.633-6.017-59.847-.524-14.427.179-22.374.184-22.596l6.788-.033c.525-.003 1-.22 1.34-.573.347-.352.56-.834.556-1.363-.005-1.05-.866-1.915-1.915-1.91zm-120.987.59l12.757-.063-5.474.026-7.283.037zm38.121-105.291c.89 2.408 1.816 5.017 2.758 7.807-16.33-2.571-42.88.59-52.976 1.977-.967-3.033-1.911-5.86-2.818-8.484 11.461-1.508 38.724-4.522 53.036-1.3zm-48.93 13.904c-.065-.214-.13-.42-.195-.63 10.705-1.438 38.278-4.619 53.167-1.577 6.604 20.478 13.56 49.522 14.521 82.893-3.648.035-7.493.109-11.57.23-5.734.174-10.804.435-15.292.776l.003.02c-17.164 1.304-25.632 3.654-29.805 5.714.01-35.548-4.744-67.578-10.829-87.426z" transform="translate(0 144.878)"/>
            <path fill="#FFB27D" d="M155.124 176.25s8.485 2.335 10.925 4.57c2.439 2.235 3.695 7.26 3.695 7.26l-16.473-4.252 1.853-7.579z" transform="translate(0 144.878)"/>
            <path fill="#6930D8" d="M155.017 184.279c-8.14-.94-26.078-8.021-32.754-16.178-7.653-9.36-38.2-61.155-32.625-76.82 1.984-5.577 5.61-28.098 10.275-27.744 4.249.318 10.386 8.926 11.79 14.37 5.705 22.128 13.546 64.986 19.443 69.875 5.35 4.435 17.883 18.902 23.978 28.465 0 .004.005.008.005.013 1.892 4.184 1.023 6.317-.112 8.019z" transform="translate(0 144.878)"/>
        </g>
        <g>
            <g>
                <path fill="#FFCACA" d="M15.028 73.356l13.123 9.72 18.967-3.992c-.262-1.73-1.515-8.898-2.655-15.391-.07-.383-.138-.766-.202-1.14-.977-5.525-1.82-10.271-1.82-10.271l-17.714-8.83-6.605-3.29c.017.115.512 6.13.581 7.008 1.238 15.593-3.675 26.186-3.675 26.186z" transform="translate(160.024 141.585) translate(51.366)"/>
                <path fill="#D69D9D" d="M20.031 47.446c3.89 7.443 18.386 13.88 24.431 16.247-.069-.383-.137-.766-.202-1.14-.976-5.525-1.82-10.271-1.82-10.271l-17.714-8.83c-3.916-.06-6.3.93-4.695 3.994z" transform="translate(160.024 141.585) translate(51.366)"/>
                <path fill="#FFCACA" d="M48.148 52.685s-26.223 8.18-31.066-8.229c-4.842-16.408-11.488-26.403 5.05-32.32 16.537-5.916 21.653-.619 24.601 4.464 2.948 5.084 8.111 33.534 1.415 36.085z" transform="translate(160.024 141.585) translate(51.366)"/>
                <path fill="#735441" d="M45.703 15.02s-1.673 19.094-5.62 18.265c-3.95-.829-7.53-1.443-6.953 4.312.579 5.756 6.054 12.402-6.115 13.42C14.845 52.036-2.649 20.651.695 14.71c9.645-17.145 58.95-20.605 45.008.31z" transform="translate(160.024 141.585) translate(51.366)"/>
            </g>
            <g fill="#31146A">
                <path d="M.46 12.894c-.002.91.059 1.613.215 1.938.756 1.566 23.668 1.079 25.153 1.003 1.3-.068 1.08-4.45-5.041-6.94-.888-.364-1.905-.684-3.06-.952-6.1-1.4-5.932-7.782-5.932-7.782L1.407.252S.483 9.472.46 12.894z" transform="translate(160.024 141.585) translate(146.195 306.22)"/>
                <path d="M.46 12.894c-.002.91.059 1.613.215 1.938.756 1.566 23.668 1.079 25.153 1.003 1.3-.068 1.08-4.45-5.041-6.94-1.485.31-3.078 1.545-3.7 5.169 0 0-10.827.214-16.626-1.17z" transform="translate(160.024 141.585) translate(146.195 306.22)"/>
            </g>
            <g fill="#2A115A">
                <path d="M.375 12.894c-.003.91.058 1.613.214 1.938.756 1.566 23.668 1.079 25.154 1.003 1.3-.068 1.08-4.45-5.042-6.94-.888-.364-1.904-.684-3.06-.952C11.542 6.543 11.71.16 11.71.16L1.321.252S.397 9.472.375 12.894z" transform="translate(160.024 141.585) translate(100.756 306.22)"/>
                <path d="M.375 12.894c-.003.91.058 1.613.214 1.938.756 1.566 23.668 1.079 25.154 1.003 1.3-.068 1.08-4.45-5.042-6.94-1.485.31-3.078 1.545-3.7 5.169 0 0-10.827.214-16.626-1.17z" transform="translate(160.024 141.585) translate(100.756 306.22)"/>
            </g>
            <path fill="#31146A" d="M51.712 227.781c1.372.328 3.548.636 6.355.924v.006c10.855 1.118 31.14 1.915 50.656 2.03 6.938.042 13.775-.002 20.06-.146.027 0 .054.005.08 0 5.46-.13 10.498-.338 14.813-.628 4.78-.32 8.678-.755 11.27-1.307 1.887-.397 3.088-.862 3.452-1.398 3.086-4.498 10.763-13.519 9.747-20.333-.206-1.391-.768-2.69-1.81-3.833 0 0-5.312-1.976-13.667-4.762h-.005c-16.553-5.514-45.05-14.192-67.849-16.935h-.005c-13.459-1.624-24.932-1.18-30.787 3.209-20.788 15.569-15.63 40-2.31 43.173z" transform="translate(160.024 141.585)"/>
            <path fill="#220E49" d="M143.796 229.246v.012c-.037.233-.08.471-.118.71-.033.216-.07.426-.108.648-.2 1.16-.42 2.362-.669 3.616-.118.631-.248 1.275-.39 1.93-.129.63-.264 1.269-.41 1.923-1.42 6.499-3.455 14.142-6.275 23.118v.006c-3.785 12.017-8.994 26.428-16.078 43.7-1.007 2.458-2.053 4.973-3.143 7.549-.925 2.197-1.884 4.446-2.875 6.733l-8.619.042c-1.593-.68-3.166-1.624-4.44-2.937-.746-.76-1.393-1.654-1.874-2.688-1.097-2.35-1.442-16.334.135-33.69.568-6.285 1.388-13.008 2.518-19.782 1.227-7.4 2.82-14.865 4.857-21.876.19-.66.381-1.315.583-1.963.19-.633.392-1.265.594-1.892.399-1.238.814-2.464 1.24-3.662l.202-.566v-.006c.716-1.964 1.471-3.874 2.271-5.706v-.005c3.895-8.937 8.817-16.151 14.992-20.07 4.335-2.741 9.287-3.868 14.931-2.815.128.02.255.048.377.07-.001 0 6.154 3.636 2.3 27.601z" transform="translate(160.024 141.585)"/>
            <path fill="#6930D8" d="M64.356 66.633s-1.005.165-2.51.523c-3.639.867-13.69 7.8-16.063 11.312-3.355 4.965-16.843 63.258-15.868 72.918.974 9.66 20.89 24.414 27.64 25.523l7.016-110.53-.215.254z" transform="translate(160.024 141.585)"/>
            <path fill="#31146A" d="M46.366 204.748s15.467 12.49 14.61 21.19c-.857 8.7 12.17-1.797 12.17-1.797l-6.055-19.494-20.725.1z" transform="translate(160.024 141.585)"/>
            <path fill="#31146A" d="M178.926 263.513c-4.67 14.812-11.438 33.048-21.084 55.462l-8.519.042c-1.293-.547-2.582-1.267-3.71-2.22-1.074-.892-2.005-1.995-2.654-3.355-.016-.028-.028-.06-.045-.088-.542-1.15-.894-5.097-.934-10.874-.06-10.098.85-25.773 3.464-41.817 1.086-6.691 2.471-13.45 4.207-19.89.245-.915.5-1.824.763-2.728.376-1.304.768-2.59 1.177-3.856.01-.038.022-.077.038-.116.393-1.221.802-2.425 1.223-3.606-1.866.048-3.783.085-5.738.11h-.017c-1.163.017-2.337.029-3.528.04-4.775.04-9.738.03-14.707-.023-.028.006-.056 0-.083 0-6.736-.06-13.495-.21-19.855-.424-6.033-.198-11.712-.452-16.666-.755-1.418-.082-2.776-.174-4.067-.268-5.984-.43-10.534-.93-12.83-1.477-1.57-.375-3.024-1.044-4.336-1.957-.494-.34-.973-.72-1.423-1.134l-.011-.01c-4.184-3.814-6.51-10.383-5.741-17.627 0-.005 0-.005.005-.01.074-.749.186-1.508.338-2.268.08-.433.178-.87.287-1.309.358-1.463.844-2.945 1.468-4.422 2.147-5.068 5.923-10.093 11.729-14.437 1.623-1.215 3.64-2.14 5.997-2.8.37-.107.746-.202 1.134-.293.005 0 .005-.005.005-.005h.011c.171-.04.343-.08.514-.114 1.184-.266 2.441-.472 3.759-.628 7.053-.848 15.84-.226 25.243 1.18h.005c.976.144 1.962.295 2.949.461 9.086 1.485 18.619 3.616 27.625 5.798.016.006.028.006.039.011 2.773.663 5.485 1.341 8.13 1.999.6.152 1.193.299 1.78.452 3.162.793 6.196 1.565 9.058 2.276 1.957.484 3.81 1.023 5.558 1.585l.06.016c9.776 3.132 16.054 6.957 16.07 6.962.001 0 10.016 9.18-6.688 62.117z" transform="translate(160.024 141.585)"/>
            <path fill="#5F27CD" d="M39.847 199.967c1.331 1.838 3.589 3.435 6.514 4.78h.005c20.932 9.638 70.822-12.154 68.377-26.565-.86-5.073-4.817-5.026-7.943-13.304-2.427-6.43-4.183-12.453-4.13-18.356.02-2.504.375-4.993 1.134-7.478 1.854-6.03 3.534-15.718 4.579-26.038 1.781-17.582-3.111-36.554-7.34-42.781-.598-.882-9.726-12.695-36.472-3.846 0 0-23.98 34.617-17.704 67.05.84 4.329.474 8.798-1.07 12.927-4.816 12.88-14.277 42.089-5.95 53.61z" transform="translate(160.024 141.585)"/>
            <path fill="#5724BD" d="M92.379 139.55c-3.662-11.259-4.777-25.229 2.493-39.714 0 0 7.472 4.485 13.51 13.169-1.046 10.32-2.725 20.008-4.579 26.038-.784 2.55-1.127 5.102-1.133 7.677 0 .147.003.294.004.441.005.338.015.677.03 1.016.007.143.012.287.02.431.027.443.062.886.107 1.33.015.145.034.29.05.434.038.33.08.66.126.99.024.172.049.342.075.514.063.401.13.804.206 1.207l.087.45c.072.363.148.727.229 1.093.04.182.083.366.125.549.077.329.158.657.243.987l.114.454c.118.445.243.891.372 1.34l.164.551c.095.317.191.635.291.954l.168.533c.147.455.298.912.454 1.372.052.153.107.307.16.46.124.357.249.714.377 1.073l.182.504c.179.489.36.98.546 1.474 3.126 8.278 10.564 12.475 10.574 16.656.023 10.815-50.075 32.85-71.007 23.213C95.084 212 92.39 139.852 92.379 139.55z" transform="translate(160.024 141.585)"/>
            <path fill="#FAB201" d="M152.397 234.186l-.722.004-.002-.01c-.098-.334-3.479-10.23-59.46-10.131-.525-32.944-5.066-62.32-10.78-80.958-6.868-22.4-13.014-35.277-13.085-35.414-.466-.901-2.063-1.453-4.632-1.216-2.938.27-3.015 2.286-2.55 3.187.09.173 2.993 5.88 6.865 15.874-15.897-2.66-42.036.34-52.759 1.789-4.43-12.374-7.705-19.238-7.757-19.338-.465-.9-2.062-1.453-4.631-1.216-2.939.27-3.016 2.287-2.55 3.188.277.537 27.732 54.474 27.028 124.857-.496.022-.946.229-1.276.566-.346.352-.558.828-.555 1.356.005 1.058.871 1.922 1.92 1.917h.148c.02.432 2.996 35.406-5.643 85.867l5.81-.029c11.439-40.874 10.669-78.85 9.92-85.887l46.34-.226c.447 6.286 1.94 40.37-5.781 85.868l5.777-.029c10.937-39.415 10.79-76.618 10.097-85.888l7.135-.035c-.29 3.004-.54 10.771.195 21.852.963 14.53 3.61 39.64 10.056 62.353.147.526.3 1.051.457 1.582l5.81-.028c-.416-2.28-.803-9.388-1.168-11.585-7.726-46.326-5.272-73.813-5.263-74.223l24.206-.119v.002c-.305 3.12-.559 11.347.279 23.085v.006c.785 11.08 2.543 25.286 6.155 41.271.527 2.336 1.092 4.704 1.702 7.11.598 2.367 1.242 9.646 1.93 12.08.202.74.417 1.482.636 2.234l5.81-.028c-.204-1.135-.404-2.259-.598-3.365-4.023-23.118-5.537-46.633-6.017-59.847-.524-14.427.18-22.374.184-22.596l6.788-.033c.525-.003 1-.221 1.341-.573.346-.353.559-.834.556-1.363-.005-1.05-.867-1.915-1.916-1.91zm-120.986.589l12.756-.063-5.473.027-7.283.036zm38.121-105.29c.89 2.408 1.816 5.017 2.758 7.807-16.33-2.571-42.88.59-52.976 1.977-.967-3.033-1.91-5.86-2.818-8.484 11.462-1.508 38.724-4.522 53.036-1.3zm-48.93 13.903l-.195-.63c10.704-1.437 38.278-4.618 53.167-1.576 6.603 20.478 13.56 49.522 14.52 82.893-3.647.036-7.492.109-11.57.23-5.734.174-10.804.435-15.291.776l.002.02c-17.164 1.304-25.632 3.654-29.804 5.713.01-35.547-4.744-67.577-10.83-87.426z" transform="translate(160.024 141.585)"/>
            <path fill="#FFB27D" d="M154.924 182.602s8.486 2.335 10.925 4.571c2.44 2.236 3.695 7.26 3.695 7.26l-16.472-4.252 1.852-7.579z" transform="translate(160.024 141.585)"/>
            <path fill="#6930D8" d="M154.818 190.632c-8.14-.94-26.078-8.021-32.754-16.178-7.652-9.36-38.2-61.155-32.625-76.82 1.984-5.577 5.61-28.098 10.275-27.744 4.25.318 10.386 8.926 11.79 14.37 5.705 22.128 13.546 64.985 19.443 69.875 5.35 4.435 17.883 18.902 23.978 28.465 0 .004.005.008.005.013 1.893 4.184 1.023 6.317-.112 8.019z" transform="translate(160.024 141.585)"/>
        </g>
        <g>
            <path fill="#F5F5F5" d="M35.627 119.585L44.37 162.718 76.719 162.718 85.171 122.363z" transform="translate(476.78 303.585)"/>
            <g fill="#E1E1E1">
                <path d="M0.361 0.749H61.101V9.095H0.361z" transform="translate(476.78 303.585) translate(29.634 113.268)"/>
                <path d="M61.204 9.198H.257V.645h60.947v8.553zM.464 8.991h60.533V.853H.465V8.99z" transform="translate(476.78 303.585) translate(29.634 113.268)"/>
            </g>
            <path fill="#E1E1E1" d="M35.627 158.638L40.29 165.049 79.61 165.049 85.171 158.638zM58.084 120.845c-.119 0-.272-19.982-.342-44.626-.069-24.652-.029-44.631.091-44.631s.273 19.977.342 44.63c.07 24.644.03 44.627-.09 44.627zM71.615 70.84c.013.007-.044.167-.164.465l-.542 1.293c-.12.286-.253.596-.396.932l-.405 1.134c-.146.408-.302.842-.468 1.3-.162.462-.29.965-.449 1.485-.663 2.07-1.19 4.61-1.699 7.436-.442 2.84-.774 5.986-.94 9.3-.296 6.637.08 12.654.48 16.988.195 2.169.392 3.921.536 5.132l.153 1.395c.03.32.04.489.025.492-.015.001-.052-.163-.111-.48l-.234-1.384c-.195-1.204-.439-2.954-.673-5.123-.48-4.335-.905-10.371-.608-17.039.167-3.33.513-6.492.98-9.345.532-2.84 1.094-5.389 1.8-7.461.169-.52.307-1.022.48-1.483l.503-1.298.44-1.126c.15-.34.303-.645.433-.921l.618-1.264c.144-.288.227-.435.24-.428z" transform="translate(476.78 303.585)"/>
            <path fill="#E1E1E1" d="M70.062 54.678c.014.006-.054.233-.193.659l-.632 1.858-.465 1.338-.489 1.614c-.355 1.157-.767 2.47-1.133 3.949l-.61 2.31-.568 2.527c-.425 1.74-.73 3.629-1.123 5.602-.669 3.968-1.259 8.356-1.665 12.984-.384 4.631-.551 9.057-.61 13.083-.012 4.026.039 7.654.204 10.696.054 1.522.152 2.897.23 4.104.07 1.208.146 2.248.223 3.096l.149 1.958c.029.447.037.684.022.685-.015.001-.052-.232-.11-.677l-.23-1.95c-.102-.847-.203-1.886-.296-3.094-.101-1.208-.22-2.583-.293-4.107-.205-3.045-.288-6.68-.298-10.715.037-4.035.192-8.473.577-13.117.408-4.641 1.011-9.04 1.704-13.018.404-1.977.724-3.87 1.165-5.611l.596-2.528.638-2.31c.386-1.477.82-2.79 1.197-3.942l.524-1.606c.182-.483.35-.926.501-1.33l.71-1.832c.167-.415.26-.631.275-.626zM54.242 124.38c-.007 0-.019-.08-.034-.234l-.057-.688-.179-2.646-.609-9.733c-.527-8.216-1.29-19.568-2.672-32.052-.707-6.242-1.526-12.17-2.377-17.543-.454-2.683-.864-5.236-1.33-7.61-.427-2.382-.888-4.588-1.311-6.602-.4-2.02-.844-3.827-1.203-5.422-.351-1.597-.692-2.963-.976-4.078l-.631-2.575-.154-.673c-.032-.152-.045-.23-.038-.233.007-.002.034.073.081.222l.195.661.71 2.556c.31 1.11.674 2.471 1.05 4.065.38 1.59.846 3.396 1.265 5.414.443 2.011.922 4.217 1.365 6.599.482 2.374.906 4.928 1.37 7.612.875 5.378 1.707 11.312 2.415 17.56 1.384 12.497 2.098 23.859 2.547 32.082.224 4.113.38 7.442.472 9.743l.097 2.65c.006.283.01.51.015.69 0 .154-.003.235-.01.235z" transform="translate(476.78 303.585)"/>
            <path fill="#F5F5F5" d="M57.589 41.194c-.264-2.831-3.125-4.967-5.968-4.996-2.843-.029-5.492 1.676-7.231 3.925-1.739 2.25-2.697 4.996-3.482 7.729-1.915 6.669-2.962 13.676-2.143 20.567.818 6.89 3.614 13.674 8.558 18.542.804.792 1.845 1.583 2.948 1.347.604-.128 1.098-.547 1.556-.96 9.713-8.775 15.321-21.916 14.937-35-.077-2.62-.421-5.346-1.872-7.53-1.45-2.182-4.833-4.5-7.303-3.624" transform="translate(476.78 303.585)"/>
            <g>
                <path fill="#F5F5F5" d="M15.945 18.52l-4.004 7.252c-.094.17-.217.358-.41.374-.21.017-.367-.181-.483-.358L.462 9.54l2.44-1.382L15.945 18.52z" transform="translate(476.78 303.585) translate(20.415)"/>
                <path fill="#000" d="M15.945 18.52l-4.004 7.252c-.094.17-.217.358-.41.374-.21.017-.367-.181-.483-.358L.462 9.54l2.44-1.382L15.945 18.52z" opacity=".2" transform="translate(476.78 303.585) translate(20.415)"/>
                <path fill="#F5F5F5" d="M37.418 31.587L1.306 10.277c-.368-.217-.768-.473-.88-.886-.143-.534.258-1.05.643-1.448C6.036 2.82 13.25-.15 20.368.362c7.117.512 13.962 4.623 17.446 10.85 3.486 6.229 3.601 14.464-.396 20.375" transform="translate(476.78 303.585) translate(20.415)"/>
                <path fill="#E1E1E1" d="M6.51 3.476c0-.015.163-.035.474-.059.311-.016.77-.072 1.364-.065 1.187-.029 2.912.049 5.011.398 2.098.344 4.562 1.02 7.136 2.168 2.573 1.142 5.235 2.796 7.66 4.97 2.404 2.196 4.316 4.681 5.71 7.128 1.399 2.447 2.316 4.831 2.868 6.885.556 2.053.806 3.762.894 4.945.066.59.056 1.053.07 1.365.008.312.004.476-.01.476-.04.002-.085-.651-.227-1.822-.14-1.171-.434-2.858-1.023-4.88-1.141-4.022-3.792-9.444-8.574-13.775-4.785-4.325-10.443-6.422-14.56-7.157-2.07-.384-3.778-.508-4.957-.531-1.178-.028-1.833-.007-1.835-.046z" transform="translate(476.78 303.585) translate(20.415)"/>
                <path fill="#E1E1E1" d="M32.53 16.88c.02.054-.675.376-1.825.83-1.15.453-2.759 1.032-4.556 1.604-1.8.571-3.447 1.026-4.648 1.32-1.202.293-1.956.431-1.97.375-.015-.06.71-.302 1.887-.67l4.6-1.438 4.584-1.48c1.174-.379 1.907-.599 1.928-.541zM26.844 1.605c.116-.01.372 1.79.427 4.028.059 2.24-.106 4.05-.222 4.046-.123-.005-.152-1.81-.21-4.035-.055-2.224-.117-4.03.005-4.04zM.991 9.874c-.017-.055.983-.417 2.623-.923 1.64-.506 3.926-1.146 6.473-1.76 2.548-.614 4.874-1.084 6.565-1.38 1.69-.298 2.745-.43 2.756-.373.01.06-1.024.3-2.696.673-1.673.372-3.982.89-6.524 1.501-2.54.612-4.831 1.204-6.49 1.635-1.66.428-2.69.686-2.707.627z" transform="translate(476.78 303.585) translate(20.415)"/>
            </g>
            <g>
                <path fill="#F5F5F5" d="M41.182 2.884C38.077.528 34.792.064 30.898.219c-3.895.154-7.686 1.341-11.256 2.905C13.552 5.791 7.829 9.722 4.19 15.286.55 20.849-.715 28.215 2.01 34.279c.27.604.623 1.236 1.233 1.497.64.274 1.375.06 2.038-.156 6.926-2.26 13.9-4.54 20.268-8.078 6.368-3.538 12.165-8.456 15.582-14.89.82-1.544 1.506-3.199 1.64-4.942.133-1.743-.348-3.595-1.589-4.826" transform="translate(476.78 303.585) translate(0 31.61)"/>
                <path fill="#E1E1E1" d="M41.244 2.153c.003.015-.168.084-.499.203l-1.451.5-1.051.35c-.381.137-.787.308-1.228.478-.876.354-1.893.708-2.965 1.228l-1.698.773c-.59.272-1.177.607-1.8.923-1.255.617-2.525 1.405-3.877 2.204-2.656 1.678-5.466 3.699-8.2 6.081-2.712 2.41-5.075 4.94-7.078 7.36-.965 1.241-1.908 2.4-2.68 3.567-.394.577-.8 1.117-1.145 1.667l-.983 1.585c-.652.997-1.133 1.96-1.597 2.784-.225.416-.446.796-.63 1.157l-.482.998-.68 1.375c-.16.313-.25.475-.264.469-.014-.006.05-.18.184-.504l.607-1.413.45-1.017c.173-.367.385-.755.6-1.178.445-.838.91-1.816 1.548-2.828l.966-1.61c.339-.557.74-1.105 1.131-1.69.764-1.183 1.702-2.357 2.664-3.613 2-2.45 4.371-5.007 7.103-7.434 2.754-2.399 5.592-4.425 8.276-6.096 1.368-.795 2.653-1.575 3.923-2.182.63-.312 1.224-.641 1.82-.906l1.72-.753c1.084-.504 2.115-.84 3.003-1.174.446-.16.858-.32 1.244-.447.386-.114.741-.22 1.067-.315l1.478-.423c.34-.092.52-.133.524-.119zM16.979 15.291c.034.115-3.35 1.205-7.555 2.434-4.206 1.23-7.643 2.134-7.677 2.02-.033-.115 3.349-1.205 7.555-2.435 4.207-1.23 7.643-2.133 7.677-2.019z" transform="translate(476.78 303.585) translate(0 31.61)"/>
                <path fill="#E1E1E1" d="M16.668 31.963c-.058.001-.126-.898-.166-2.354-.04-1.455-.046-3.467.016-5.688.063-2.22.181-4.23.302-5.68.122-1.451.24-2.345.297-2.34.06.003.051.904.008 2.357-.048 1.595-.108 3.532-.175 5.676l-.142 5.676c-.038 1.453-.079 2.353-.14 2.353zM30.95 24.688c-.12.008-.5-4.08-.848-9.13-.35-5.051-.536-9.152-.416-9.16.119-.008.499 4.08.848 9.131.349 5.049.535 9.15.416 9.159z" transform="translate(476.78 303.585) translate(0 31.61)"/>
                <path fill="#E1E1E1" d="M13.173 6.001c.003-.06.928-.083 2.421-.073 1.494.01 3.554.054 5.83.13 2.276.074 4.336.166 5.827.255 1.49.089 2.412.174 2.411.234 0 .06-.924.082-2.418.073-1.493-.01-3.556-.054-5.834-.13-2.277-.075-4.338-.168-5.829-.256-1.491-.089-2.41-.173-2.408-.233z" transform="translate(476.78 303.585) translate(0 31.61)"/>
            </g>
            <path fill="#E1E1E1" d="M48.872 88.906c-.015 0-.032-.17-.051-.494l-.064-1.418c-.055-1.233-.067-3.018-.02-5.224.039-2.206.185-4.83.445-7.737.281-2.903.688-6.088 1.271-9.405.599-3.316 1.317-6.445 2.055-9.268.76-2.818 1.529-5.332 2.254-7.415.718-2.086 1.346-3.757 1.823-4.895l.549-1.31c.13-.297.205-.45.219-.445.013.006-.035.17-.138.478-.124.35-.28.793-.474 1.337-.427 1.155-1.01 2.839-1.69 4.932-.685 2.09-1.421 4.605-2.157 7.42-.716 2.818-1.419 5.939-2.015 9.243-.581 3.305-.999 6.476-1.3 9.368-.281 2.894-.459 5.509-.537 7.707-.085 2.199-.12 3.98-.117 5.212l-.018 1.419c-.009.324-.02.494-.035.495z" transform="translate(476.78 303.585)"/>
            <path fill="#E1E1E1" d="M50.776 64.267c.041.041-.505.649-1.44 1.58-.934.932-2.26 2.183-3.774 3.51-1.514 1.327-2.928 2.479-3.974 3.283-1.046.805-1.72 1.267-1.756 1.22-.038-.047.568-.594 1.562-1.457l3.883-3.372 3.85-3.407c.986-.872 1.607-1.402 1.65-1.357zM62.207 73.474c-.052.033-.625-.789-1.534-2.125l-3.569-5.208-3.643-5.157c-.937-1.317-1.508-2.14-1.459-2.177.046-.035.703.722 1.704 1.994 1.002 1.273 2.341 3.065 3.754 5.093 1.41 2.029 2.626 3.908 3.47 5.29.845 1.38 1.327 2.26 1.277 2.29zM56.22 44.516c.064.101-3.733 2.658-8.48 5.71-4.75 3.052-8.65 5.445-8.715 5.345-.065-.101 3.731-2.657 8.48-5.71 4.748-3.052 8.65-5.445 8.714-5.345zM66.926 56.072c-.084.086-2.655-2.29-5.743-5.306-3.09-3.017-5.525-5.532-5.442-5.617.084-.086 2.655 2.29 5.744 5.307 3.088 3.016 5.524 5.53 5.44 5.616z" transform="translate(476.78 303.585)"/>
            <g>
                <path fill="#F5F5F5" d="M.472 24.23l3.26-.27c2.313-.19 4.56-.876 6.582-2.014 1-.563 2.005-1.114 3.068-1.541 4.03-1.618 8.526-1.329 12.863-1.546 7.079-.355 14.083-2.146 20.463-5.233.369-.179.694-.45.892-.81.67-1.22-.575-2.305-1.645-2.964-5.491-3.384-11.08-6.81-17.308-8.49-6.228-1.68-13.297-1.396-18.61 2.26C3.798 7.917 1.526 16.733.472 24.232" transform="translate(476.78 303.585) translate(69.146 31.61)"/>
                <path fill="#E1E1E1" d="M47.673 12.417c-.007.014-.198-.075-.553-.257l-1.545-.81c-1.34-.704-3.269-1.744-5.706-2.913-2.44-1.156-5.394-2.461-8.833-3.404-3.424-.951-7.375-1.45-11.448-.928C15.53 4.64 11.795 6.22 9.15 8.587c-2.661 2.361-4.286 5.211-5.434 7.633-1.145 2.444-1.851 4.522-2.365 5.944l-.58 1.643c-.136.376-.214.57-.228.566-.014-.005.036-.209.145-.593l.503-1.67c.466-1.44 1.128-3.539 2.246-6.019 1.122-2.457 2.74-5.369 5.448-7.803 2.694-2.443 6.517-4.07 10.645-4.612 4.143-.531 8.158-.01 11.611.973 3.469.974 6.43 2.317 8.86 3.513 2.43 1.208 4.339 2.29 5.654 3.041l1.506.88c.342.207.518.321.511.334z" transform="translate(476.78 303.585) translate(69.146 31.61)"/>
                <path fill="#E1E1E1" d="M39.845 16.623c-.067.1-4.33-2.659-9.52-6.159-5.193-3.501-9.347-6.42-9.28-6.518.067-.1 4.33 2.658 9.522 6.16 5.19 3.5 9.344 6.418 9.278 6.517zM35.75 3.538c.022.113-1.457.498-3.328.667-1.871.174-3.395.066-3.393-.05 0-.123 1.507-.209 3.354-.382 1.847-.166 3.344-.356 3.366-.235zM16.636.113c.103.06-.523 1.313-1.398 2.796-.875 1.485-1.668 2.638-1.772 2.577-.102-.06.523-1.312 1.4-2.797.874-1.483 1.667-2.636 1.77-2.576zM20.455 19.134c-.03.049-.82-.365-2.052-1.112-1.231-.748-2.895-1.843-4.673-3.134-1.778-1.293-3.346-2.513-4.473-3.407-1.125-.895-1.806-1.47-1.77-1.518.035-.047.78.44 1.954 1.273l4.543 3.3c1.773 1.287 3.4 2.417 4.586 3.227 1.185.812 1.918 1.317 1.885 1.37z" transform="translate(476.78 303.585) translate(69.146 31.61)"/>
            </g>
            <g>
                <path fill="#F5F5F5" d="M7.905 1.86C4.796 1.039 1.091 4.063.45 7.214c-.64 3.15.54 6.374 1.925 9.276 3.063 6.426 7.29 12.386 12.857 16.822 5.567 4.437 12.54 7.273 19.658 7.238-1.315-6.105.348-12.483-.385-18.685-.64-5.413-3.164-10.585-7.036-14.42-3.874-3.834-9.07-6.306-14.49-6.892C10.994.338 8.697.027 7.905 1.86" transform="translate(476.78 303.585) translate(66.512 67.83)"/>
                <path fill="#E1E1E1" d="M34.889 40.549c-.008.013-.16-.058-.443-.206-.28-.153-.685-.4-1.163-.78-.976-.742-2.094-2.17-3.07-4.106-.496-.962-1.05-2.008-1.591-3.164l-1.673-3.698c-.593-1.295-1.245-2.64-2.055-3.952-.806-1.314-1.766-2.598-2.828-3.847-2.129-2.5-4.413-4.663-6.393-6.73-1.99-2.058-3.664-4.04-4.874-5.847-1.221-1.8-1.96-3.412-2.38-4.548-.201-.574-.345-1.022-.416-1.334-.079-.31-.113-.473-.099-.477.04-.012.217.635.67 1.749.466 1.108 1.238 2.678 2.478 4.436 1.228 1.766 2.91 3.709 4.907 5.743 1.988 2.045 4.285 4.202 6.436 6.728 1.074 1.261 2.045 2.566 2.86 3.906.82 1.338 1.471 2.702 2.056 4.008l1.636 3.712c.521 1.152 1.06 2.207 1.537 3.175.936 1.941 1.981 3.348 2.906 4.116.91.784 1.525 1.074 1.499 1.116z" transform="translate(476.78 303.585) translate(66.512 67.83)"/>
                <path fill="#E1E1E1" d="M18.812 35.476c-.057-.011.041-.813.285-2.093.244-1.28.643-3.038 1.181-4.953.54-1.915 1.117-3.622 1.578-4.842.46-1.22.795-1.954.849-1.934.059.022-.174.792-.56 2.033-.385 1.24-.912 2.954-1.45 4.86-.537 1.906-.981 3.642-1.3 4.902-.319 1.26-.522 2.039-.583 2.027zM34.3 20.49c-.019.06-.851-.152-2.19-.503-1.34-.35-3.19-.829-5.248-1.293-2.058-.463-3.935-.824-5.296-1.081-1.36-.258-2.202-.423-2.194-.484.008-.057.865 0 2.243.181 1.377.181 3.272.496 5.342.962 2.07.467 3.917.994 5.238 1.42 1.322.428 2.122.744 2.105.798zM7.275 24.845c-.057-.012.063-.938.336-2.422.274-1.484.709-3.525 1.29-5.754.583-2.23 1.2-4.223 1.687-5.651.487-1.428.835-2.295.89-2.277.059.019-.187.92-.598 2.368-.41 1.449-.98 3.448-1.56 5.67-.58 2.22-1.06 4.242-1.41 5.707-.348 1.465-.575 2.37-.635 2.359zM27.167 7.432c-.012.118-3.894-.195-8.667-.702-4.776-.506-8.636-1.013-8.623-1.132.012-.118 3.893.195 8.669.702 4.773.506 8.634 1.012 8.621 1.132z" transform="translate(476.78 303.585) translate(66.512 67.83)"/>
            </g>
            <path fill="#E1E1E1" d="M90.836 122.328c0 .12-13.644.216-30.47.216-16.83 0-30.472-.096-30.472-.216s13.64-.217 30.473-.217c16.825 0 30.469.098 30.469.217zM81.344 139.885c0 .12-9.193.217-20.53.217-11.34 0-20.53-.097-20.53-.217s9.19-.216 20.53-.216c11.337 0 20.53.097 20.53.216zM81.703 142.395c0 .12-9.193.217-20.53.217-11.34 0-20.53-.097-20.53-.217 0-.119 9.19-.216 20.53-.216 11.337 0 20.53.097 20.53.216zM81.703 137.816c0 .12-9.509.217-21.235.217-11.73 0-21.236-.097-21.236-.217s9.506-.217 21.236-.217c11.726 0 21.235.098 21.235.217z" transform="translate(476.78 303.585)"/>
        </g>
    </g>
</svg>
