<svg xmlns="http://www.w3.org/2000/svg" width="176" height="50" viewBox="0 0 176 50">
    <g fill="none" fill-rule="evenodd">
        <path fill="#000" fill-rule="nonzero" d="M9.099 49.561v-1.039H6.554v-.056l.751-.707c.5-.458.85-.81 1.049-1.058.198-.248.345-.49.44-.726.094-.235.141-.488.141-.757 0-.309-.077-.583-.232-.823-.154-.24-.371-.426-.65-.559-.28-.133-.603-.2-.968-.2-.277 0-.527.028-.75.082-.224.055-.43.133-.62.234-.189.101-.427.274-.715.52l.671.794c.232-.191.454-.34.667-.443.213-.104.433-.156.66-.156.215 0 .388.057.517.172.129.114.194.289.194.523 0 .157-.03.31-.088.456-.059.146-.155.305-.288.477-.133.172-.417.48-.85.925l-1.467 1.482v.859h4.083zm4.548 0v-5.84h-1.014l-1.882 1.497.595.743.671-.539c.08-.064.223-.198.428-.403l-.02.607-.012.555v3.38h1.234zm4.05.08c.634 0 1.11-.12 1.428-.36.318-.24.477-.588.477-1.046 0-.221-.038-.412-.116-.572-.077-.16-.197-.3-.36-.423-.162-.123-.417-.254-.766-.396-.392-.157-.645-.275-.761-.355-.116-.08-.174-.175-.174-.284 0-.194.18-.291.54-.291.202 0 .4.03.595.091.194.062.403.14.627.236l.367-.879c-.508-.234-1.032-.351-1.57-.351-.564 0-1 .108-1.308.325-.308.217-.462.524-.462.921 0 .232.037.427.11.585.074.159.19.3.352.422.161.122.413.256.757.4.24.1.431.19.575.265.144.076.245.144.304.204.058.06.088.138.088.233 0 .256-.221.384-.663.384-.216 0-.466-.036-.75-.108-.283-.072-.538-.161-.765-.268v1.007c.2.085.415.15.644.194.229.044.506.066.83.066zm5.295 0c.442 0 .815-.068 1.119-.204v-.907c-.298.093-.554.14-.767.14-.16 0-.288-.041-.386-.124-.097-.082-.145-.21-.145-.383v-2.154h1.25v-.914h-1.25v-.951h-.78l-.351.943-.671.407v.515h.583v2.154c0 .492.111.862.334 1.108.222.247.577.37 1.064.37zm8.426 0c.591 0 1.127-.1 1.606-.3v-1.038c-.583.205-1.08.307-1.49.307-.977 0-1.466-.651-1.466-1.953 0-.626.128-1.114.383-1.465.256-.35.617-.525 1.083-.525.213 0 .43.039.651.116.221.077.441.168.66.272l.399-1.007c-.573-.274-1.143-.412-1.71-.412-.557 0-1.042.122-1.456.366-.414.244-.732.594-.953 1.05-.221.457-.331.99-.331 1.597 0 .964.225 1.703.675 2.219.45.515 1.1.773 1.95.773zm7.122-.08v-1.023h-2.126v-1.506h1.978v-1.015h-1.978v-1.282h2.126V43.72h-3.364v5.841h3.364zm3.234 0v-2.749c0-.333-.026-.89-.076-1.67h.036l2.54 4.419h1.575v-5.84h-1.115v2.83c.003.32.023.835.06 1.544h-.028L42.23 43.72h-1.562v5.841h1.107zm8.707 0v-4.81h1.586v-1.03h-4.41v1.03h1.586v4.81h1.238zm5.727.08c.498 0 .93-.087 1.295-.26.365-.173.644-.422.837-.747.193-.325.29-.703.29-1.134v-3.78h-1.235v3.568c0 .453-.091.785-.274.997-.182.211-.476.317-.88.317-.419 0-.719-.105-.9-.315-.18-.21-.271-.541-.271-.991V43.72h-1.235v3.764c0 .668.208 1.195.623 1.58.416.384 1 .577 1.75.577zm5.999-.08V47.32h.66l1.393 2.241h1.375c-.267-.384-.84-1.232-1.718-2.545.346-.152.614-.361.803-.63.189-.267.284-.572.284-.916 0-.589-.19-1.027-.572-1.316-.38-.29-.968-.434-1.762-.434H60.97v5.841h1.238zm.4-3.248h-.4v-1.578h.376c.4 0 .694.059.884.176.19.117.286.314.286.591 0 .28-.093.485-.28.615-.186.13-.475.196-.866.196zm7.105 3.248v-2.273l1.938-3.568h-1.335l-1.218 2.405-1.21-2.405h-1.343l1.937 3.608v2.233h1.23zm7.91.08c.677 0 1.205-.152 1.585-.456.38-.303.569-.719.569-1.246 0-.38-.101-.702-.304-.965-.202-.262-.576-.524-1.122-.785-.413-.197-.675-.333-.785-.41-.11-.075-.192-.154-.242-.235-.05-.081-.076-.176-.076-.286 0-.175.063-.318.188-.427.125-.11.305-.164.54-.164.196 0 .397.025.6.076.204.05.462.14.773.268l.4-.963c-.301-.13-.59-.232-.865-.304-.276-.072-.565-.108-.869-.108-.618 0-1.102.148-1.452.444-.35.295-.526.702-.526 1.218 0 .275.054.514.16.72.107.204.25.384.428.539.178.154.446.315.803.483.38.181.633.313.757.396.124.082.218.168.281.257.064.09.096.191.096.306 0 .205-.072.36-.217.463-.146.104-.354.156-.626.156-.226 0-.476-.036-.749-.108-.273-.072-.606-.195-1-.371v1.15c.479.235 1.03.352 1.654.352zm5.36-.08v-2.085l.523-.376 1.53 2.461h1.407l-2.054-3.256 2.038-2.585H85.05l-1.582 1.986-.487.687V43.72h-1.238v5.841h1.238zm6.342 0v-5.84h-1.238v5.84h1.238zm5.987 0v-1.023h-2.369V43.72h-1.238v5.841h3.607zm5.532 0v-1.023h-2.37V43.72h-1.238v5.841h3.608zm3.218.08c.676 0 1.204-.152 1.584-.456.38-.303.569-.719.569-1.246 0-.38-.101-.702-.304-.965-.202-.262-.576-.524-1.122-.785-.413-.197-.675-.333-.785-.41-.11-.075-.191-.154-.242-.235-.05-.081-.076-.176-.076-.286 0-.175.063-.318.188-.427.125-.11.305-.164.54-.164.196 0 .397.025.6.076.204.05.462.14.774.268l.4-.963c-.302-.13-.59-.232-.866-.304-.276-.072-.565-.108-.869-.108-.618 0-1.102.148-1.452.444-.35.295-.525.702-.525 1.218 0 .275.053.514.16.72.106.204.249.384.427.539.178.154.446.315.803.483.38.181.633.313.757.396.124.082.218.168.282.257.064.09.096.191.096.306 0 .205-.073.36-.218.463-.145.104-.354.156-.625.156-.227 0-.476-.036-.75-.108-.272-.072-.606-.195-1-.371v1.15c.48.235 1.03.352 1.654.352zm7.755-.08l.423-1.39h2.13l.423 1.39h1.334l-2.07-5.865h-1.513l-2.062 5.865h1.335zm2.257-2.429h-1.522c.415-1.345.667-2.188.755-2.529.021.096.056.227.106.392l.023.079.024.077c.093.303.297.964.614 1.981zm4.992 2.509c.676 0 1.204-.152 1.584-.456.38-.303.569-.719.569-1.246 0-.38-.101-.702-.304-.965-.202-.262-.576-.524-1.122-.785-.413-.197-.675-.333-.785-.41-.11-.075-.191-.154-.242-.235-.05-.081-.076-.176-.076-.286 0-.175.063-.318.188-.427.125-.11.305-.164.54-.164.196 0 .397.025.6.076.204.05.462.14.774.268l.4-.963c-.302-.13-.59-.232-.866-.304-.276-.072-.565-.108-.869-.108-.618 0-1.102.148-1.452.444-.35.295-.525.702-.525 1.218 0 .275.053.514.16.72.106.204.249.384.427.539.178.154.446.315.803.483.38.181.633.313.757.396.124.082.218.168.282.257.064.09.096.191.096.306 0 .205-.073.36-.218.463-.145.104-.354.156-.625.156-.227 0-.476-.036-.75-.108-.272-.072-.606-.195-1-.371v1.15c.48.235 1.03.352 1.654.352zm5.415 0c.677 0 1.205-.152 1.584-.456.38-.303.57-.719.57-1.246 0-.38-.102-.702-.304-.965-.203-.262-.577-.524-1.123-.785-.413-.197-.674-.333-.785-.41-.11-.075-.19-.154-.241-.235-.051-.081-.076-.176-.076-.286 0-.175.062-.318.187-.427.126-.11.305-.164.54-.164.197 0 .397.025.601.076.204.05.461.14.773.268l.4-.963c-.301-.13-.59-.232-.865-.304-.276-.072-.566-.108-.87-.108-.617 0-1.101.148-1.451.444-.35.295-.526.702-.526 1.218 0 .275.053.514.16.72.107.204.249.384.427.539.179.154.447.315.803.483.381.181.634.313.758.396.123.082.217.168.281.257.064.09.096.191.096.306 0 .205-.073.36-.218.463-.145.104-.353.156-.625.156-.226 0-.476-.036-.749-.108-.273-.072-.607-.195-1-.371v1.15c.479.235 1.03.352 1.653.352zm7.485-.08v-1.023h-2.125v-1.506h1.977v-1.015h-1.977v-1.282h2.125V43.72h-3.364v5.841h3.364zm3.422.08c.677 0 1.205-.152 1.584-.456.38-.303.57-.719.57-1.246 0-.38-.102-.702-.304-.965-.203-.262-.577-.524-1.123-.785-.413-.197-.674-.333-.785-.41-.11-.075-.191-.154-.242-.235-.05-.081-.075-.176-.075-.286 0-.175.062-.318.187-.427.125-.11.305-.164.54-.164.197 0 .397.025.6.076.205.05.462.14.774.268l.4-.963c-.302-.13-.59-.232-.865-.304-.276-.072-.566-.108-.87-.108-.617 0-1.101.148-1.452.444-.35.295-.525.702-.525 1.218 0 .275.053.514.16.72.106.204.249.384.427.539.179.154.446.315.803.483.381.181.634.313.757.396.124.082.218.168.282.257.064.09.096.191.096.306 0 .205-.073.36-.218.463-.145.104-.353.156-.625.156-.226 0-.476-.036-.75-.108-.272-.072-.606-.195-1-.371v1.15c.48.235 1.03.352 1.654.352zm5.416 0c.676 0 1.204-.152 1.584-.456.38-.303.569-.719.569-1.246 0-.38-.101-.702-.304-.965-.202-.262-.576-.524-1.122-.785-.413-.197-.675-.333-.785-.41-.11-.075-.191-.154-.242-.235-.05-.081-.076-.176-.076-.286 0-.175.063-.318.188-.427.125-.11.305-.164.54-.164.196 0 .397.025.6.076.204.05.462.14.773.268l.4-.963c-.301-.13-.59-.232-.865-.304-.276-.072-.565-.108-.869-.108-.618 0-1.102.148-1.452.444-.35.295-.525.702-.525 1.218 0 .275.053.514.16.72.106.204.248.384.427.539.178.154.446.315.803.483.38.181.633.313.757.396.124.082.218.168.282.257.063.09.095.191.095.306 0 .205-.072.36-.217.463-.145.104-.354.156-.626.156-.226 0-.476-.036-.749-.108-.273-.072-.606-.195-1-.371v1.15c.479.235 1.03.352 1.654.352zm5.227-.08v-2.775c-.003-.327-.028-.93-.076-1.807h.036l1.407 4.582h1.134l1.506-4.574h.036c-.032.735-.05 1.188-.054 1.358-.004.17-.006.32-.006.451v2.765h1.155v-5.84h-1.686l-1.466 4.466h-.024l-1.382-4.467h-1.686v5.841h1.106zm10.881 0v-1.023h-2.125v-1.506h1.977v-1.015h-1.977v-1.282h2.125V43.72h-3.364v5.841h3.364zm3.234 0v-2.749c0-.333-.025-.89-.076-1.67h.036l2.541 4.419h1.574v-5.84h-1.115v2.83c.003.32.023.835.06 1.544h-.028l-2.536-4.375h-1.562v5.841h1.106zm8.708 0v-4.81h1.586v-1.03h-4.41v1.03h1.585v4.81h1.239z"/>
        <path fill="#000" d="M39.393 29.68l7.576 4.386v1.285h.505c.14 0 .253.113.253.253v.76h-9.09v-.76c0-.14.113-.253.253-.253h.504v-5.672zm0-6.585l7.576 4.387v2.782l-7.576-4.387v-2.782zm0-6.225l7.576 4.387v2.422l-7.576-4.387V16.87zm7.577-4.312v4.898l-7.577-4.387v-.51h7.577zM44.444.91c.14 0 .253.113.253.253v.76h.757c.14 0 .253.113.253.253v.76h.252c.14 0 .253.113.253.253v.76c.14 0 .253.113.253.253v.76h-.001c.14 0 .253.113.253.253v.76h-.252v4.305h-.001c.14 0 .253.114.253.253v.76c.14 0 .253.114.253.253v.76h-7.576v-.76c0-.12.083-.22.195-.246l.057-.007v-.76c0-.14.114-.253.254-.253l-.001-4.305h-.253v-.76c0-.12.084-.22.196-.246l.057-.007v-.76c0-.14.113-.253.253-.253v-.76c0-.14.113-.253.253-.253h.252v-.76c0-.14.113-.253.253-.253h.757v-.76c0-.14.113-.253.253-.253h2.524zm-2.525 5.318h-1.767v3.799h1.767V6.227zm2.147 0h-1.768v3.799h1.768V6.227zm2.146 0h-1.768v3.799h1.768V6.227z"/>
        <path fill="#5F27CD" fill-rule="nonzero" d="M47.727 6.607L175 7.694 175 25.336z"/>
        <path fill="#000" fill-rule="nonzero" d="M22.057 36.323L13.466 36.323 0 0.949 9.647 0.949 17.887 26.031 18.088 26.031 26.278 0.949 35.774 0.949z"/>
        <path fill="#FFF" fill-rule="nonzero" d="M118.025 0c2.78 0 5.36.433 7.738 1.299 2.378.866 4.43 2.099 6.154 3.697 1.726 1.6 3.074 3.54 4.045 5.821.972 2.282 1.457 4.838 1.457 7.67 0 2.797-.485 5.354-1.457 7.669-.971 2.315-2.32 4.297-4.044 5.946-1.726 1.648-3.777 2.922-6.155 3.822-2.379.9-4.958 1.349-7.738 1.349-2.78 0-5.351-.45-7.713-1.35-2.361-.899-4.405-2.173-6.13-3.821-1.725-1.65-3.073-3.631-4.044-5.946-.972-2.315-1.457-4.872-1.457-7.67 0-2.83.485-5.387 1.457-7.669.971-2.282 2.32-4.222 4.044-5.82 1.725-1.6 3.769-2.832 6.13-3.698C112.674.433 115.245 0 118.025 0zM67.278.05c2.01 0 4.061.366 6.155 1.1 2.093.732 3.927 1.814 5.501 3.247l-5.476 5.746c-.737-.933-1.7-1.674-2.89-2.224-1.188-.55-2.336-.824-3.441-.824-.57 0-1.147.05-1.734.15-.586.1-1.113.291-1.582.574-.47.283-.863.65-1.181 1.1-.318.45-.477 1.024-.477 1.723 0 .6.125 1.1.377 1.5.25.399.62.749 1.105 1.048.486.3 1.063.575 1.733.825.67.25 1.424.508 2.261.774 1.206.4 2.462.841 3.769 1.324 1.306.483 2.495 1.124 3.567 1.924 1.072.8 1.96 1.79 2.663 2.973.704 1.182 1.055 2.656 1.055 4.421 0 2.032-.377 3.79-1.13 5.272-.754 1.482-1.767 2.706-3.04 3.672-1.273.966-2.73 1.682-4.371 2.148-1.642.467-3.333.7-5.075.7-2.546 0-5.008-.442-7.386-1.324-2.378-.883-4.355-2.14-5.929-3.773l5.627-5.695c.871 1.066 2.019 1.957 3.442 2.673 1.424.716 2.839 1.074 4.246 1.074.636 0 1.256-.067 1.859-.2s1.13-.35 1.583-.65c.452-.3.812-.699 1.08-1.199.268-.5.402-1.099.402-1.798 0-.666-.168-1.233-.503-1.699-.335-.466-.812-.891-1.432-1.274-.62-.383-1.39-.733-2.31-1.05-.922-.316-1.969-.657-3.141-1.024-1.139-.366-2.253-.799-3.341-1.299-1.089-.5-2.06-1.14-2.915-1.923-.854-.783-1.54-1.732-2.06-2.848-.519-1.116-.778-2.473-.778-4.072 0-1.965.402-3.647 1.205-5.046.804-1.4 1.86-2.549 3.166-3.448 1.306-.9 2.78-1.557 4.421-1.973 1.642-.417 3.3-.625 4.975-.625zm25.725.9v35.373h-8.642V.95h8.642zm59.892 0l14.27 23.082h.15L167.114.95h8.34v35.374h-9.747l-14.32-23.133h-.15l.2 23.133h-8.34V.95h9.798zm-34.87 6.744c-1.508 0-2.88.275-4.12.825-1.24.55-2.311 1.299-3.216 2.248-.904.95-1.6 2.09-2.085 3.423-.486 1.332-.729 2.764-.729 4.296 0 1.6.252 3.073.754 4.422.503 1.35 1.198 2.507 2.085 3.473.888.966 1.951 1.723 3.19 2.273 1.24.55 2.613.824 4.12.824 1.508 0 2.882-.274 4.12-.824 1.24-.55 2.312-1.307 3.217-2.273.904-.966 1.607-2.124 2.11-3.473.502-1.349.754-2.823.754-4.422 0-1.532-.252-2.964-.754-4.296-.503-1.333-1.198-2.474-2.085-3.423-.888-.95-1.96-1.699-3.216-2.248-1.256-.55-2.638-.825-4.145-.825z"/>
        <path fill="#000" fill-rule="nonzero" d="M99.132 14.012l9.122 1.315c-.252 1.001-.379 2.054-.379 3.16 0 1.598.252 3.072.754 4.421.503 1.35 1.198 2.507 2.085 3.473.888.966 1.951 1.723 3.19 2.273 1.24.55 2.613.824 4.12.824 1.508 0 2.882-.274 4.12-.824 1.24-.55 2.312-1.307 3.217-2.273.904-.966 1.607-2.124 2.11-3.473.502-1.349.754-2.823.754-4.422l-.006-.283 9.177 1.323c-.106 2.395-.584 4.605-1.434 6.63-.971 2.315-2.32 4.297-4.044 5.946-1.726 1.648-3.777 2.922-6.155 3.822-2.379.9-4.958 1.349-7.738 1.349-2.78 0-5.351-.45-7.713-1.35-2.361-.899-4.405-2.173-6.13-3.821-1.725-1.65-3.073-3.631-4.044-5.946-.972-2.315-1.457-4.872-1.457-7.67 0-1.576.15-3.068.451-4.474zM54.07 7.522l8.671 1.247c-.038.049-.075.099-.111.15-.318.45-.477 1.024-.477 1.723 0 .6.125 1.1.377 1.5.25.399.62.749 1.105 1.048.486.3 1.063.575 1.733.825.67.25 1.424.508 2.261.774 1.206.4 2.462.841 3.769 1.324 1.306.483 2.495 1.124 3.567 1.924 1.072.8 1.96 1.79 2.663 2.973.704 1.182 1.055 2.656 1.055 4.421 0 2.032-.377 3.79-1.13 5.272-.754 1.482-1.767 2.706-3.04 3.672-1.273.966-2.73 1.682-4.371 2.148-1.642.467-3.333.7-5.075.7-2.546 0-5.008-.442-7.386-1.324-2.378-.883-4.355-2.14-5.929-3.773l5.627-5.695c.871 1.066 2.019 1.957 3.442 2.673 1.424.716 2.839 1.074 4.246 1.074.636 0 1.256-.067 1.859-.2s1.13-.35 1.583-.65c.452-.3.812-.699 1.08-1.199.268-.5.402-1.099.402-1.798 0-.666-.168-1.233-.503-1.699-.335-.466-.812-.891-1.432-1.274-.62-.383-1.39-.733-2.31-1.05-.922-.316-1.969-.657-3.141-1.024-1.139-.366-2.253-.799-3.341-1.299-1.089-.5-2.06-1.14-2.915-1.923-.854-.783-1.54-1.732-2.06-2.848-.519-1.116-.778-2.473-.778-4.072 0-1.338.186-2.545.559-3.62zm30.29 4.362l8.642 1.245.001 23.194h-8.642V11.884zm72.702 10.474l9.954 1.434.148.24h.15l-.002-.197 8.142 1.173v11.315h-9.747l-8.645-13.965zm-13.966-2.012l8.212 1.183.13 14.794h-8.341V20.346zM175.455.949v6.726l-8.284-.069-.057-6.657h8.34zm-22.56 0l4.061 6.571-13.86-.116V.949h9.799zM118.025 0c2.78 0 5.36.433 7.738 1.299 2.378.866 4.43 2.099 6.154 3.697.766.71 1.458 1.487 2.075 2.332l-31.687-.264c.566-.743 1.192-1.432 1.877-2.068 1.725-1.598 3.769-2.83 6.13-3.697C112.674.433 115.245 0 118.025 0zM93.003.95v6.036l-8.643-.073V.949h8.643zM67.278.05c2.01 0 4.061.366 6.155 1.1 2.093.732 3.927 1.814 5.501 3.247l-2.338 2.451-22.176-.185c.092-.194.19-.383.296-.567.804-1.4 1.86-2.549 3.166-3.448 1.306-.9 2.78-1.557 4.421-1.973 1.642-.417 3.3-.625 4.975-.625z"/>
    </g>
</svg>
