<svg xmlns="http://www.w3.org/2000/svg" width="594" height="416" viewBox="0 0 594 416">
    <defs>
        <linearGradient id="a2nmr7ofla" x1="46.724%" x2="50.102%" y1="60.598%" y2="45.678%">
            <stop offset="0%" stop-color="#6930D8"/>
            <stop offset="100%" stop-color="#8C61E1"/>
        </linearGradient>
        <linearGradient id="7pysli1wfb" x1="54.296%" x2="27.822%" y1="58.505%" y2="26.199%">
            <stop offset="0%" stop-color="#6930D8"/>
            <stop offset="100%" stop-color="#8C61E1"/>
        </linearGradient>
        <linearGradient id="j6armh6emc" x1="53.534%" x2="50.157%" y1="60.304%" y2="46.72%">
            <stop offset="0%" stop-color="#6930D8"/>
            <stop offset="100%" stop-color="#8C61E1"/>
        </linearGradient>
        <linearGradient id="pq4d56v5ed" x1="46.434%" x2="70.512%" y1="57.518%" y2="28.398%">
            <stop offset="0%" stop-color="#6930D8"/>
            <stop offset="100%" stop-color="#8C61E1"/>
        </linearGradient>
        <linearGradient id="qsq3v6v0ye" x1="32.602%" x2="45.365%" y1="63.386%" y2="49.538%">
            <stop offset="0%" stop-color="#6930D8"/>
            <stop offset="100%" stop-color="#8C61E1"/>
        </linearGradient>
        <linearGradient id="lut20h2ghf" x1="66.951%" x2="54.348%" y1="61.198%" y2="49.329%">
            <stop offset="0%" stop-color="#6930D8"/>
            <stop offset="100%" stop-color="#8C61E1"/>
        </linearGradient>
        <linearGradient id="u4prjsztgg" x1="60.827%" x2="43.943%" y1="62.042%" y2="45.209%">
            <stop offset="0%" stop-color="#6930D8"/>
            <stop offset="100%" stop-color="#8C61E1"/>
        </linearGradient>
        <linearGradient id="a63h4yuugh" x1=".002%" x2="100.001%" y1="49.999%" y2="49.999%">
            <stop offset="0%" stop-color="#6930D8"/>
            <stop offset="100%" stop-color="#8C61E1"/>
        </linearGradient>
        <linearGradient id="d0g5watbyi" x1="60.823%" x2="42.201%" y1="61.519%" y2="46.892%">
            <stop offset="0%" stop-color="#6930D8"/>
            <stop offset="100%" stop-color="#8C61E1"/>
        </linearGradient>
        <linearGradient id="afolf5k3uj" x1="53.605%" x2="48.355%" y1="92.116%" y2="3.519%">
            <stop offset="0%" stop-color="#6930D8"/>
            <stop offset="100%" stop-color="#8C61E1"/>
        </linearGradient>
        <linearGradient id="ja17m30eqk" x1="54.235%" x2="47.11%" y1="112.945%" y2="-2.473%">
            <stop offset="0%" stop-color="#6930D8"/>
            <stop offset="100%" stop-color="#8C61E1"/>
        </linearGradient>
    </defs>
    <g fill="none">
        <g transform="translate(147.406 .784)">
            <ellipse cx="153.802" cy="400.291" fill="#E5E5E5" rx="144.672" ry="14.56"/>
            <g>
                <path fill="url(#a2nmr7ofla)" d="M10.883 30.443s1.937 1.323 5.414 3.34c11.387 6.628 39.287 20.77 69.847 20.592.968 0 1.936-.027 2.905-.068 1.09-.041 2.182-.096 3.273-.178 2.932-.218 5.864-.572 8.823-1.077l3.832-29.4-10.146.49-2.782.137-1.65.082-26.892 1.323-40.623-12.928-5.809-1.855s-7.269 5.087-6.192 19.542z" transform="translate(6.618 135.975)"/>
                <path fill="#FAFCFF" stroke="#0C6BF4" stroke-width=".711" d="M10.883 30.443s1.937 1.323 5.414 3.34c.41-7.977 3.832-15.859 6.586-21.027L17.074 10.9s-7.268 5.087-6.19 19.542z" transform="translate(6.618 135.975)"/>
                <path fill="#5724BD" d="M89.049 54.307c1.09-.041 2.182-.096 3.273-.178 2.932-.218 5.864-.572 8.823-1.077l3.832-29.4-10.146.49-2.782.137c-.75 2.932-1.404 6.082-1.923 9.505-1.118 7.295-1.391 14.168-1.077 20.523z" transform="translate(6.618 135.975)"/>
                <g>
                    <path fill="#FEB911" d="M3.703 3.182H40.509V52.348H3.703z" transform="translate(6.618 135.975) translate(1.805) rotate(-9.097 22.106 27.765)"/>
                    <path fill="#FFEDC0" d="M3.698 3.198H40.505V52.365H3.698z" transform="translate(6.618 135.975) translate(1.805)"/>
                    <g fill="#FEB911">
                        <path d="M7.424 3.951c0 2.024-1.64 3.665-3.664 3.665S.095 5.976.095 3.95C.095 1.927 1.735.286 3.76.286c2.024 0 3.664 1.641 3.664 3.665zM21.8 15.57H1.173c-.596 0-1.08-.482-1.08-1.078 0-.597.484-1.08 1.08-1.08h20.625c.596 0 1.08.483 1.08 1.08 0 .595-.484 1.079-1.08 1.079zM26.617 21.253H1.174c-.596 0-1.079-.483-1.079-1.08 0-.596.483-1.079 1.08-1.079h25.442c.597 0 1.08.483 1.08 1.08 0 .595-.483 1.079-1.08 1.079zM26.617 26.523H1.174c-.596 0-1.079-.483-1.079-1.08 0-.596.483-1.079 1.08-1.079h25.442c.597 0 1.08.483 1.08 1.08 0 .595-.483 1.079-1.08 1.079zM26.617 31.48H1.174c-.596 0-1.079-.483-1.079-1.079s.483-1.08 1.08-1.08h25.442c.597 0 1.08.484 1.08 1.08 0 .596-.483 1.08-1.08 1.08z" transform="translate(6.618 135.975) translate(1.805) translate(8.423 9.627)"/>
                    </g>
                </g>
                <path fill="#FFCACA" d="M4.3 21.729s7.898-.85 8.125 1.31c.228 2.158-4.773 2.726-4.773 2.726s7.273.395 7.5 2.016c.228 1.62-7.5 3.098-7.5 3.098s6.194-.045 6.336 1.533c.142 1.577-6.222 2.657-6.222 2.657s4.887.242 5 1.606c.114 1.364-7.954 3.863-9.545 2.273-1.591-1.591.568-4.549-1.25-6.309-1.818-1.76-1.818-4.6-.795-5.85 1.021-1.25-2.387-5.014 3.124-5.06z" transform="translate(6.618 135.975)"/>
            </g>
            <g>
                <g>
                    <path fill="#BF8801" d="M55.59 18.203l-21.248-7.25 2.487-7.288C37.78.873 40.825-.622 43.617.33l11.126 3.797c2.791.952 4.287 3.997 3.334 6.788l-2.486 7.288zm-17.667-9.01l15.909 5.428 1.575-4.617c.45-1.318-.257-2.758-1.575-3.207L42.706 3c-1.319-.449-2.758.257-3.207 1.576l-1.576 4.618z" transform="translate(0 194.335) translate(0 86.037)"/>
                    <path fill="#FEB911" d="M55.818 62.808L3.395 44.922c-2.252-.768-3.455-3.217-2.687-5.47L11.616 7.484l60.578 20.669L61.287 60.12c-.769 2.252-3.217 3.455-5.47 2.687z" transform="translate(0 194.335) translate(0 86.037)"/>
                    <path fill="#BF8801" d="M68.156 32.362l-28.85-3.415c-1.014-.12-1.992-.454-2.87-.98l-24.92-14.93c-1.26-.755-1.821-2.287-1.347-3.678l2.394-7.017C13.12.714 14.89-.156 16.517.4l55.406 18.904c1.628.555 2.498 2.326 1.942 3.954l-2.394 7.017c-.475 1.39-1.857 2.26-3.315 2.087z" transform="translate(0 194.335) translate(0 86.037)"/>
                </g>
                <path fill="#FFCACA" d="M58.994 78.434s3.97 10.934 1.755 12.553c-2.216 1.619-6.307-4.432-7.586-2.13-1.278 2.3 2.898 6.647-2.813 6.988-5.71.341-10.824-4.006-10.227-10.057.597-6.052 5.48-9.817 5.467-11.642l1.18-3.785 13.126 4.432-.902 3.64z" transform="translate(0 194.335)"/>
                <path fill="url(#7pysli1wfb)" d="M44.543 73.811l15.86 5.074 3.34-6.996.056-.123 15.75-32.905 16.623-4.077 7.132-1.746 1.159-.286 8.468-2.073 6.941-1.704L111.118.092s-2.973.464-7.61 1.718c-1.65.45-3.518.996-5.536 1.664-.518.177-1.064.354-1.61.546-1.118.382-2.277.818-3.477 1.282C84.062 8.71 73.562 14.138 65.04 22.51c-12.695 12.491-17.646 32.21-19.473 43.2-.027.15-.055.301-.068.45-.764 4.664-.955 7.65-.955 7.65z" transform="translate(0 194.335)"/>
                <path fill="#5724BD" d="M97.972 3.473c-.519.177-1.064.355-1.61.546 1.555 12.205 5.046 22.037 8.1 28.732l8.469-2.072 6.94-1.705L111.118.091s-2.973.464-7.609 1.719c-1.65.45-3.519.996-5.536 1.663z" transform="translate(0 194.335)"/>
                <path fill="#9872E4" d="M45.498 66.161c-.764 4.664-.954 7.65-.954 7.65l15.86 5.074 3.34-6.996.055-.123c-8.633-1.418-14.892-3.941-18.301-5.605z" transform="translate(0 194.335)"/>
            </g>
            <g>
                <g>
                    <path fill="#FAB201" d="M26.067 37.03L8.99 40.576c-.769.16-1.521-.334-1.681-1.102L.297 5.707c-.16-.77.334-1.521 1.102-1.681L18.477.48c.769-.16 1.52.333 1.68 1.102L27.17 35.35c.16.77-.334 1.522-1.103 1.681z" transform="translate(181.7 126.348) translate(98.672)"/>
                    <path fill="#FFEDC0" d="M23.626 30.754L8.73 33.847 3.238 7.4c-.11-.533.232-1.056.765-1.166l12.964-2.692c.533-.11 1.056.232 1.166.765l5.493 26.447z" transform="translate(181.7 126.348) translate(98.672)"/>
                </g>
                <path fill="#FFCACA" d="M93.229 35.757l3.664-1.272s3.048 1.602 7.917-.65l-2.954-14.226s5.095-3.54 5.01-5.671c-.086-2.13-10.058-1.62-14.063 8.097l-4.432 1.874 4.858 11.848z" transform="translate(181.7 126.348)"/>
                <path fill="url(#j6armh6emc)" d="M94.316 40.07s-1.936 1.322-5.413 3.34C77.516 50.037 49.616 64.18 19.056 64.001c-.968 0-1.937-.027-2.905-.068-1.09-.04-2.182-.095-3.273-.177-2.931-.219-5.863-.573-8.822-1.078l-3.832-29.4 10.146.49 2.782.137 1.65.082 26.891 1.323 40.623-12.928 5.81-1.854s7.268 5.086 6.19 19.541z" transform="translate(181.7 126.348)"/>
                <path fill="#5724BD" d="M16.15 63.933c-1.09-.04-2.18-.095-3.272-.177-2.931-.219-5.863-.573-8.822-1.078l-3.832-29.4 10.146.49 2.782.137c.75 2.932 1.405 6.082 1.923 9.505 1.117 7.296 1.39 14.169 1.076 20.523z" transform="translate(181.7 126.348)"/>
                <path fill="#9872E4" d="M88.125 20.528l-5.809 1.854c2.755 5.169 6.178 13.05 6.587 21.028 3.477-2.018 5.413-3.34 5.413-3.34 1.078-14.456-6.19-19.542-6.19-19.542z" transform="translate(181.7 126.348)"/>
            </g>
            <g>
                <g fill="#FAB201">
                    <path d="M44.268 1.252c.382.895-.035 1.93-.93 2.313l-18.555 7.91-1.382-3.244L41.955.321c.896-.38 1.932.036 2.313.931z" transform="translate(173.277 194.335) translate(35.498 84.232)"/>
                    <path d="M1.514 19.47c2.76 6.473 10.238 9.482 16.699 6.728 6.46-2.754 9.469-10.233 6.709-16.706C22.168 3.032 14.689.023 8.229 2.778 1.769 5.532-1.24 13.01 1.514 19.47zm21.113-9c2.22 5.207-.204 11.206-5.398 13.42-5.193 2.214-11.2-.193-13.419-5.398-2.214-5.194.204-11.205 5.398-13.419 5.193-2.214 11.204.204 13.419 5.398z" transform="translate(173.277 194.335) translate(35.498 84.232)"/>
                </g>
                <path fill="#FFCACA" d="M61.026 76.498l1.273 3.832s.33 4.198.145 6.298c-.184 2.1-1.738 5.647.31 6.152 2.048.506 1.608 4.982 6.032 3.973 4.424-1.01 11.123-5.045 10.958-8.64-.165-3.596-5.442-10.094-5.442-10.094l-.771-3.406-12.505 1.885z" transform="translate(173.277 194.335)"/>
                <path fill="url(#pq4d56v5ed)" d="M75.698 73.811l-15.86 5.074-3.34-6.996-.055-.123-15.75-32.905-16.624-4.077-7.132-1.746-1.16-.286-8.467-2.073-6.942-1.704L9.123.092s2.973.464 7.61 1.718c1.649.45 3.517.996 5.536 1.664.518.177 1.063.354 1.609.546 1.118.382 2.277.818 3.478 1.282C36.178 8.71 46.679 14.138 55.2 22.51c12.696 12.491 17.646 32.21 19.474 43.2.027.15.054.301.068.45.764 4.664.955 7.65.955 7.65z" transform="translate(173.277 194.335)"/>
                <path fill="#5724BD" d="M22.27 3.473c.518.177 1.063.355 1.61.546-1.555 12.205-5.046 22.037-8.1 28.732L7.31 30.68.37 28.974 9.123.091s2.973.464 7.61 1.719c1.649.45 3.517.996 5.536 1.663z" transform="translate(173.277 194.335)"/>
                <path fill="#9872E4" d="M56.443 71.766l.055.123 3.341 6.996L75.7 73.81s-.191-2.986-.955-7.65c-3.41 1.664-9.669 4.187-18.3 5.605z" transform="translate(173.277 194.335)"/>
            </g>
            <g>
                <path fill="#FFCACA" d="M21.796 58.345s-7.013-3.077-7.592-5.651c-.58-2.574-1.565-8.492-3.576-8.886-2.01-.393-.848 9.147-.848 9.147s-.537-9.065-3.24-10.014c-2.703-.95-.446 11.211-.726 10.8-.28-.41-1.57-9.213-3.011-9.042-1.442.17-1.944 8.995.105 13.313 2.048 4.318 2.7 8.155 2.7 8.155l12.688.837 3.5-8.66z" transform="translate(70.996)"/>
                <path fill="#FFCACA" d="M19.156 66.954s6.174-3.696 7.92-12.337c1.17-5.797-4.255-.858-6.026 3.26 0 0-9.245-.549-10.833 8.46l8.939.617z" transform="translate(70.996)"/>
                <path fill="url(#qsq3v6v0ye)" d="M6.193 121.007c6.083 12.641 16.147 22.419 24.028 28.678.177.137.341.26.505.395.068.055.123.096.19.15 6.274 4.882 11.033 7.473 11.033 7.473l18.027-24.205-5.96-3.955-2.618-1.746-1.527-1.008-24.491-16.255-3.669-36.437-.777-7.691-16.65-.614s-.873 3.054-1.773 7.977c-2.004 10.965-4.036 31.175 3.682 47.238z" transform="translate(70.996)"/>
                <path fill="#5724BD" d="M41.949 157.703l18.027-24.205-5.96-3.955-2.618-1.745-1.527-1.009c-5.209 2.918-13.268 9.45-18.955 23.441 6.274 4.883 11.033 7.473 11.033 7.473z" transform="translate(70.996)"/>
                <path fill="#9872E4" d="M2.508 73.764c7.405-.684 14.288-.245 19.2.339l-.77-7.7L4.29 65.79s-.885 3.058-1.782 7.974z" transform="translate(70.996)"/>
                <g>
                    <path fill="#FAB201" d="M20.656 10.306c0-5.623-4.559-10.181-10.182-10.181S.274 4.718.293 10.34c.01 2.793 1.143 5.32 2.972 7.153 1.424 1.427 2.465 3.19 2.992 5.136l.82 3.036h6.674l.778-2.875c.537-1.988 1.614-3.782 3.083-5.226 1.879-1.847 3.044-4.417 3.044-7.26z" transform="translate(70.996) translate(5.415 6.017)"/>
                    <g fill="#FFF">
                        <path d="M1.541.58C.811.58.216 1.173.216 1.904c0 .73.594 1.325 1.325 1.325.283 0 .544-.089.76-.24v10.644h.565V1.904c0-.73-.594-1.325-1.325-1.325zm0 2.084c-.418 0-.759-.34-.759-.76 0-.418.34-.758.76-.758.418 0 .759.34.759.759s-.34.76-.76.76zM5.484 1.733c-.732 0-1.326.595-1.326 1.326l-.064 10.575h.566l.064-9.49c.216.151.477.24.76.24.73 0 1.325-.594 1.325-1.325s-.595-1.326-1.325-1.326zm0 2.085c-.42 0-.76-.34-.76-.76 0-.418.34-.758.76-.758.418 0 .759.34.759.759s-.34.76-.76.76z" transform="translate(70.996) translate(5.415 6.017) translate(6.618 12.033)"/>
                    </g>
                    <path fill="#000" d="M10.432 29.489c-1.92 0-3.476-1.556-3.476-3.476v-.811h6.951v.811c0 1.92-1.556 3.476-3.475 3.476z" transform="translate(70.996) translate(5.415 6.017)"/>
                    <path fill="#FAB201" d="M13.926 26.814h-7.01c-.148 0-.268-.12-.268-.268 0-.148.12-.267.268-.267h7.01c.148 0 .268.12.268.267 0 .148-.12.268-.268.268zM13.98 27.946H6.968c-.147 0-.267-.12-.267-.267 0-.148.12-.267.267-.267h7.012c.148 0 .267.12.267.267 0 .147-.12.267-.267.267z" transform="translate(70.996) translate(5.415 6.017)"/>
                </g>
                <path fill="#FAB201" d="M3.531 15.872H.86c-.284 0-.514-.23-.514-.514 0-.284.23-.514.514-.514h2.672c.284 0 .514.23.514.514 0 .284-.23.514-.514.514zM4.35 11.09L1.983 9.854c-.252-.131-.35-.442-.218-.693.131-.252.442-.35.693-.218l2.369 1.237c.251.131.349.442.218.693-.131.251-.442.349-.693.217zM4.521 19.562L2.153 20.8c-.252.131-.35.442-.218.693.131.252.442.35.693.218l2.369-1.236c.251-.131.349-.442.218-.693-.132-.252-.441-.35-.694-.219zM7.234 7.128l-1.89-1.89c-.2-.2-.2-.525 0-.726.2-.201.526-.201.727 0L7.961 6.4c.2.2.2.526 0 .727-.201.2-.527.2-.727 0zM10.502 4.614L9.58 2.105c-.098-.266.039-.562.305-.66.267-.097.562.04.66.306l.921 2.508c.098.267-.038.562-.305.66-.266.098-.561-.039-.66-.305zM28.352 15.53h2.672c.284 0 .514-.23.514-.514 0-.284-.23-.514-.514-.514h-2.672c-.284 0-.514.23-.514.514 0 .284.23.513.514.513zM27.533 10.747l2.369-1.236c.251-.131.349-.442.218-.694-.132-.251-.442-.349-.694-.218l-2.368 1.237c-.252.131-.35.442-.218.693.131.253.442.35.693.218zM27.362 19.22l2.368 1.236c.252.132.35.442.218.693-.131.252-.442.35-.694.218l-2.368-1.236c-.252-.131-.35-.442-.218-.693.132-.252.442-.35.694-.218zM24.65 6.785l1.89-1.89c.2-.2.2-.525 0-.726-.201-.201-.527-.201-.728 0l-1.89 1.89c-.2.2-.2.525 0 .726.201.201.527.201.728 0zM21.381 4.271l.922-2.508c.098-.267-.039-.562-.305-.66-.267-.098-.562.039-.66.305l-.921 2.509c-.098.266.038.562.305.66.266.097.562-.04.66-.306zM15.375 3.48V.806c0-.284.23-.513.514-.513.284 0 .514.23.514.513V3.48c0 .284-.23.514-.514.514-.283 0-.514-.23-.514-.514z" transform="translate(70.996)"/>
            </g>
            <g>
                <path fill="#FFCACA" d="M38.604 15.888s7.012-3.078 7.592-5.65c.58-2.575 1.565-8.493 3.576-8.886 2.01-.394.848 9.147.848 9.147s.537-9.065 3.24-10.015c2.702-.95.446 11.211.726 10.8.28-.41 1.57-9.212 3.011-9.042 1.442.171 1.944 8.995-.105 13.313-2.049 4.319-2.7 8.156-2.7 8.156l-12.689.837-3.499-8.66z" transform="translate(162.448 42.116)"/>
                <path fill="url(#lut20h2ghf)" d="M53.882 78.891C47.8 91.532 37.736 101.31 29.854 107.57c-.177.137-.34.26-.505.395-.068.055-.122.096-.19.15-6.273 4.882-11.032 7.473-11.032 7.473L.099 91.382l5.96-3.955 2.618-1.746 1.528-1.009 24.491-16.255 3.669-36.436.777-7.691 16.65-.614s.873 3.054 1.773 7.977c2.003 10.965 4.035 31.174-3.683 47.238z" transform="translate(162.448 42.116)"/>
                <path fill="#5724BD" d="M18.126 115.587L.1 91.382l5.96-3.955 2.618-1.745 1.527-1.009c5.21 2.918 13.268 9.45 18.955 23.441-6.273 4.883-11.033 7.473-11.033 7.473z" transform="translate(162.448 42.116)"/>
                <path fill="#9872E4" d="M39.138 24.287l-.77 7.7c4.911-.584 11.795-1.023 19.2-.34-.898-4.915-1.783-7.973-1.783-7.973l-16.647.613z" transform="translate(162.448 42.116)"/>
            </g>
            <g>
                <g>
                    <g>
                        <path fill="#1A0B39" d="M31.402 150.531H5.492S-1.911 80.117.72.343h32.727l4.805 79.609s-6.168 35.465-6.85 70.58z" transform="translate(86.037 84.232) translate(12.033 146.804) translate(16.846)"/>
                        <path fill="#6930D8" d="M25.401 150.58c-2.906-40.836 6.995-104.337 7.078-105.19l1.359.133c-.086.853-9.973 64.24-7.076 104.96l-1.36.096z" transform="translate(86.037 84.232) translate(12.033 146.804) translate(16.846)"/>
                    </g>
                    <g>
                        <path fill="url(#u4prjsztgg)" d="M47.566 15.676c.014 1.446-.081 2.564-.34 3.082-1.255 2.496-43.529 1.923-46.024 1.814-2.182-.096-1.855-7.064 8.4-11.073 1.487-.586 3.191-1.105 5.127-1.54C24.957 5.68 24.616.116 24.616.116L45.86.172s1.637 10.063 1.705 15.504z" transform="translate(86.037 84.232) translate(12.033 146.804) translate(0 150.414)"/>
                        <path fill="#9872E4" d="M47.566 15.676c.014 1.446-.081 2.564-.34 3.082-1.255 2.496-43.529 1.923-46.024 1.814-2.182-.096-1.855-7.064 8.4-11.073 2.496.477 5.182 2.427 6.259 8.182 0 0 21.983.245 31.705-2.005z" transform="translate(86.037 84.232) translate(12.033 146.804) translate(0 150.414)"/>
                    </g>
                    <g>
                        <g>
                            <path fill="url(#a63h4yuugh)" d="M26.542 18.69c-3.204 1.418-14.182 1.854-20.687 1.118-2.154-.231-3.818-.613-4.541-1.118C-1.591 16.644 1.478.17 1.478.17H17.16s-.341 6.083 3.764 7.964c1.336.614 2.85 1.745 4.131 3.068.082.082.164.164.232.246.914.94 1.391 1.691 1.391 1.691 1.582 2.264 2.073 4.581-.136 5.55z" transform="translate(86.037 84.232) translate(12.033 146.804) translate(42.718) translate(25.871 150.414)"/>
                            <path fill="#9872E4" d="M26.542 18.69c-3.204 1.418-14.182 1.854-20.687 1.118-.681-8.1 5.973-12.027 11.469-12.027 3.545 0 6.177 1.895 7.731 3.422.082.082.164.164.232.246.914.94 1.391 1.691 1.391 1.691 1.582 2.264 2.073 4.581-.136 5.55z" transform="translate(86.037 84.232) translate(12.033 146.804) translate(42.718) translate(25.871 150.414)"/>
                        </g>
                        <path fill="#2A115A" d="M.21 3.612l22.367 146.92h24.22S43.667 13.467 43.264.341L.21 3.613z" transform="translate(86.037 84.232) translate(12.033 146.804) translate(42.718)"/>
                        <path fill="#6930D8" d="M40.781 150.554l-1.364-.045C41.011 103.592 32.07 3.622 32.048 3.544l1.316-.362c.09.325 9.014 100.375 7.417 147.372z" transform="translate(86.037 84.232) translate(12.033 146.804) translate(42.718)"/>
                    </g>
                </g>
                <g>
                    <path fill="url(#d0g5watbyi)" d="M22.726 44.916s-4.889 13.636-17.161 6.477C-6.708 44.233 7.47 12.685 7.47 12.685l15.256 32.23z" transform="translate(86.037 84.232) translate(0 75.207)"/>
                    <path fill="#FFCACA" d="M12.724 5.966S11.53 1.96 17.327.767c5.795-1.193 8.267 2.472 9.801 5.966l-14.404-.767z" transform="translate(86.037 84.232) translate(0 75.207)"/>
                </g>
                <g>
                    <path fill="url(#afolf5k3uj)" d="M79.1 61.959c-4.418 10.99-4.104 13.309-4.104 13.309l4.735 36.028s-54.747 17.387-71.465 0l-.158-29.073-.832-14.796-.164-.791L.594 35.258l6.682.354c-1.159-2.632-2.863-5.387-6.123-6.054 2.1-5.264 6.969-16.119 12.792-20.374 7.813-5.7 23.918-12.6 47.455-5.877 23.51 6.736 22.105 47.66 17.7 58.652z" transform="translate(86.037 84.232) translate(19.855 46.328)"/>
                    <path fill="#5724BD" d="M74.996 75.268s-.709 19.214-18.205 24.437c-17.496 5.223-31.473-15.682-34.433-17.36-2.455-1.377-11.291-.477-14.25-.122l-.832-14.796-.164-.791 14.755-2.768 22.324 21.069 30.805-9.669z" transform="translate(86.037 84.232) translate(19.855 46.328)"/>
                    <path fill="#5724BD" d="M67.979 22.476c-17.561.359-9.952 69.665-38.08 36.007l-5.973 6.633 29.712 18.452S80.3 19.497 67.978 22.476z" transform="translate(86.037 84.232) translate(19.855 46.328)"/>
                </g>
                <g>
                    <path fill="#735441" d="M42.29 52.519s8.829-6.24 3.81-31.603C43.286 9.666 41.58 4.893 33.74 1.313c-7.842-3.58-19.262 1.364-25.91 8.523C1.18 16.996-4.478 29.43 5.92 29.26l36.37 23.26z" transform="translate(86.037 84.232) translate(24.668)"/>
                    <path fill="#FFCACA" d="M46.1 50.916s-.395 1.487-1.241 3.532c-1.977 4.732-6.423 12.532-14.277 12.233-2.687-.096-3.573-2.36-3.846-5.237-.395-3.941.314-9.028-.927-11.387l7.637-9.832 5.073-6.532.859-1.105s2.031 8.96 6.722 18.328z" transform="translate(86.037 84.232) translate(24.668)"/>
                    <path fill="#D69D9D" d="M44.86 54.448c-1.977 4.732-6.423 12.532-14.278 12.233-2.686-.096-3.572-2.36-3.845-5.237-.395-3.941.314-9.028-.927-11.387l7.636-9.832 5.823-2.018s-.159 11.626-9.337 18.922c0 0 4.692 1.66 10.933-4.63 1.299-1.311 2.658-.137 3.995 1.95z" transform="translate(86.037 84.232) translate(24.668)"/>
                    <path fill="#23406D" d="M42.964 43.828l.835 2.063s-2.646 10.907-11.85 14.145l.87 10.398s13.533-6.56 16.005-20.795c0 0-2.682-6-5.86-5.81zM28.284 59.567L27.16 70.293s-8.076-5.81-5.394-17.792c0 0 3.063 1.883 5.35 1.457 0 0-1.134 2.115 1.167 5.61z" transform="translate(86.037 84.232) translate(24.668)"/>
                    <path fill="#FFCACA" d="M9.136 28.416c2.415 10.27 5.268 20.131 13.766 24.757 2.19 1.192 4.816 1.128 6.938-.18 4.125-2.545 10.397-8.373 9.543-20.031 0 0 2.822 1.023 3.277-4.546.455-5.568-1.46-6.534-3.523-6.08-2.064.455-1.875 7.898-1.875 7.898S19.136 27.65 9.136 28.416z" transform="translate(86.037 84.232) translate(24.668)"/>
                </g>
                <g>
                    <g>
                        <path fill="#FAB201" d="M31.438 41.467L6.241 43.255c-.93.066-1.737-.634-1.803-1.564L1.758 3.916c-.066-.93.634-1.738 1.564-1.804L28.52.325c.93-.066 1.737.635 1.803 1.564l2.68 37.775c.066.93-.634 1.737-1.565 1.803z" transform="translate(86.037 84.232) translate(6.618 67.987) translate(0 10.83)"/>
                        <path fill="#FED05F" d="M30.167 41.467L4.969 43.255c-.93.066-1.737-.634-1.803-1.564L.486 3.916C.42 2.986 1.12 2.18 2.05 2.113L27.248.325c.93-.066 1.737.635 1.803 1.565l2.68 37.775c.066.929-.634 1.736-1.564 1.802z" transform="translate(86.037 84.232) translate(6.618 67.987) translate(0 10.83)"/>
                        <path fill="#FFEDC0" d="M18.095 21.74c.171 2.42-1.034 4.48-2.693 4.597-1.659.117-3.143-1.75-3.315-4.172-.172-2.422 1.033-4.48 2.693-4.598 1.66-.117 3.143 1.75 3.315 4.172z" transform="translate(86.037 84.232) translate(6.618 67.987) translate(0 10.83)"/>
                    </g>
                    <path fill="#FFCACA" d="M39.312 35.214s-1.414-8.914-8.05-9.25v3.585s-4.334 1.023-6.977-1.96c-2.642-2.983-5.454-5.25-4.773 3 .682 8.25 6.478 12.256 12.7 11.83l2.386 2.045 6.82-6.92-2.106-2.33z" transform="translate(86.037 84.232) translate(6.618 67.987)"/>
                    <path fill="url(#ja17m30eqk)" d="M72.986 71.908c-15.981 6.164-30.49-11.086-37.118-20.768-2.427-3.532-3.791-6.055-3.791-6.055l9.763-9.313 5.469 4.445 16.84 13.732s2.919-13.404 5.428-29.086C72.073 9.18 76.177-.72 84.796.549c17.046 2.494 10.009 62.946-11.81 71.36z" transform="translate(86.037 84.232) translate(6.618 67.987)"/>
                    <path fill="#9872E4" d="M47.309 40.217c-1.691 2.687-5.155 7.077-11.441 10.923-2.427-3.531-3.791-6.054-3.791-6.054l9.763-9.314 5.469 4.445z" transform="translate(86.037 84.232) translate(6.618 67.987)"/>
                </g>
            </g>
            <g>
                <path fill="#FEB911" d="M12.46 4.3H49.269V53.468999999999994H12.46z" transform="translate(181.7 13.838) rotate(-68.026 30.864 28.884)"/>
                <path fill="#FFEDC0" d="M12.429 4.282H49.236000000000004V53.449H12.429z" transform="translate(181.7 13.838) rotate(-58.936 30.832 28.866)"/>
                <g fill="#FEB911">
                    <path d="M5.82 9.466c1.733 1.044 2.292 3.296 1.247 5.03-1.044 1.734-3.296 2.293-5.03 1.248C.303 14.7-.256 12.448.789 10.714 1.833 8.98 4.085 8.42 5.819 9.466zM23.19 3.148L12.547 20.816c-.307.51-.971.675-1.482.367-.51-.307-.675-.97-.368-1.482L21.341 2.034c.307-.51.97-.675 1.482-.367.51.307.675.97.367 1.481zM30.543 1.954l-13.13 21.793c-.307.511-.97.675-1.481.368-.51-.307-.675-.971-.368-1.482L28.694.84c.307-.51.97-.675 1.482-.367.51.308.675.97.367 1.482zM35.057 4.673L21.928 26.467c-.307.51-.971.675-1.482.368-.51-.308-.676-.972-.367-1.482L33.208 3.559c.307-.511.971-.675 1.482-.368.51.308.675.971.367 1.482zM39.304 7.231l-13.13 21.794c-.307.511-.97.675-1.481.368-.511-.308-.675-.971-.368-1.482l13.13-21.794c.307-.51.97-.675 1.481-.368.51.308.675.972.368 1.482z" transform="translate(181.7 13.838) translate(9.627 17.448)"/>
                </g>
            </g>
            <path fill="#FFCACA" d="M203.691 66.613s-6.175-3.696-7.92-12.337c-1.17-5.797 4.254-.858 6.025 3.26 0 0 9.245-.549 10.833 8.46l-8.938.617z"/>
        </g>
        <g>
            <g>
                <path fill="#F5F5F5" d="M11.93 48.184s-4.515 3.412-4.515 7.929v23.098h33.678V55.08s-.47-5.922-4.43-6.897H11.932z" transform="translate(0 145.182) translate(19.855)"/>
                <path fill="#E1E1E1" d="M9.97 77.957c-.21-2.176-.55-4.866-.498-7.1.055-2.316 1.711-4.619 3.946-5.232 1.775-.488 3.634.162 5.45.463 2.946.488 6.042.026 8.717-1.3 2.275-1.13 4.353-2.895 6.882-3.129 1.655-.153 3.565.623 4.023 2.22.218.757.079 1.564-.039 2.342-.538 3.562.154 7.984.154 11.404-9.43.44-19.197.128-28.636.332M5.28 82.473L10.355 79.21 41.093 79.21 46.029 82.473 5.28 82.473" transform="translate(0 145.182) translate(19.855)"/>
                <path fill="#F5F5F5" d="M4.327 7.343v34.381h41.702v40.75H5.28v9.77h70.299v-84.9C75.578 3.3 72.3.021 68.257.021h-56.61c-4.043 0-7.32 3.277-7.32 7.321z" transform="translate(0 145.182) translate(19.855)"/>
                <path fill="#E1E1E1" d="M75.578 8.124c0 .167-15.952.302-35.624.302-19.68 0-35.628-.135-35.628-.302 0-.166 15.948-.302 35.628-.302 19.673 0 35.624.136 35.624.302z" transform="translate(0 145.182) translate(19.855)"/>
                <path fill="#E1E1E1" d="M55.799 92.244c-.167 0-.302-20.593-.302-45.99 0-25.405.135-45.994.302-45.994.167 0 .302 20.589.302 45.994 0 25.397-.135 45.99-.302 45.99zM.553 68.072l-.42-10.416c-.122-2.997.575-6.02 2.262-8.498 1.341-1.97 3.325-3.721 6.139-3.721h28.13v2.747H9.057s-4.972.524-5.626 7.327c-.654 6.804 0 12.56 0 12.56H.553z" transform="translate(0 145.182) translate(19.855)"/>
            </g>
            <g>
                <path fill="#F5F5F5" d="M.15.19H99.661V133.503H.15zM8.945 133.504H21.28V155.742H8.945zM79.869 133.504H92.20400000000001V155.742H79.869z" transform="translate(0 145.182) translate(0 92.054)"/>
                <g fill="#E1E1E1">
                    <path d="M85.727 33.44s-.01-.204-.015-.589l-.015-1.703-.034-6.534L85.588.532l.139.139L.329.733H.323l.201-.2L.516 33.44l-.193-.193 61.178.09 17.791.055 4.77.024 1.237.012c.279.003.428.011.428.011s-.133.008-.404.012l-1.214.012-4.73.025-17.746.054-61.31.09-.192.001v-.193L.123.532V.331H.33l85.398.062h.14v.14l-.076 24.166-.035 6.503-.015 1.678c-.006.375-.015.56-.015.56z" transform="translate(0 145.182) translate(0 92.054) translate(6.017 84.834)"/>
                    <path d="M45.603 16.986c-.035.001-.04-.23-.156-.61-.115-.375-.382-.916-.948-1.327-.549-.412-1.437-.634-2.29-.31-.846.297-1.571 1.198-1.562 2.247-.01 1.05.716 1.95 1.562 2.248.853.324 1.742.1 2.29-.31.567-.411.833-.952.948-1.327.116-.382.12-.612.156-.611.02-.002.07.231-.005.649-.074.408-.318 1.024-.927 1.514-.588.49-1.594.787-2.59.434-.985-.322-1.85-1.368-1.838-2.598-.011-1.228.853-2.274 1.839-2.596.994-.353 2-.056 2.588.433.609.49.854 1.106.928 1.515.076.418.025.65.005.649z" transform="translate(0 145.182) translate(0 92.054) translate(6.017 84.834)"/>
                </g>
                <g fill="#E1E1E1">
                    <path d="M85.727 33.138s-.01-.204-.015-.589l-.015-1.703-.034-6.534L85.588.23l.139.139L.329.43H.323l.201-.2-.008 32.908-.193-.193 61.178.09 17.791.055 4.77.024 1.237.012c.279.003.428.011.428.011s-.133.008-.404.012l-1.214.012-4.73.025-17.746.054-61.31.09H.132v-.193L.123.23V.028H.33l85.398.063h.14V.23l-.076 24.166-.035 6.503-.015 1.678c-.006.376-.015.561-.015.561z" transform="translate(0 145.182) translate(0 92.054) translate(6.017 45.726)"/>
                    <path d="M45.603 16.684c-.035.001-.04-.23-.156-.61-.115-.375-.382-.916-.948-1.327-.549-.412-1.437-.635-2.29-.31-.846.297-1.571 1.198-1.562 2.247-.01 1.05.716 1.95 1.562 2.248.853.324 1.742.1 2.29-.31.567-.411.833-.953.948-1.327.116-.382.12-.612.156-.611.02-.002.07.231-.005.649-.074.408-.318 1.024-.927 1.514-.588.49-1.594.787-2.59.434-.985-.322-1.85-1.368-1.838-2.598-.011-1.228.853-2.275 1.839-2.596.994-.353 2-.056 2.588.433.609.49.854 1.106.928 1.515.076.418.025.65.005.649z" transform="translate(0 145.182) translate(0 92.054) translate(6.017 45.726)"/>
                </g>
                <g fill="#E1E1E1">
                    <path d="M85.727 33.368s-.01-.204-.015-.59l-.015-1.702-.034-6.534L85.588.46l.139.139L.329.66H.323L.524.46.516 33.368l-.193-.193 61.178.09 17.791.055 4.77.024 1.237.012c.279.004.428.012.428.012s-.133.008-.404.012l-1.214.012-4.73.025-17.746.054-61.31.09-.192.001v-.193L.123.46V.26H.33L85.728.32h.14V.46l-.076 24.166-.035 6.503-.015 1.678c-.006.376-.015.56-.015.56z" transform="translate(0 145.182) translate(0 92.054) translate(6.017 6.618)"/>
                    <path d="M45.603 16.913c-.035.001-.04-.229-.156-.61-.115-.375-.382-.916-.948-1.327-.549-.412-1.437-.634-2.29-.31-.846.297-1.571 1.198-1.562 2.247-.01 1.05.716 1.95 1.562 2.249.853.323 1.742.1 2.29-.311.567-.41.833-.952.948-1.327.116-.381.12-.611.156-.61.02-.003.07.23-.005.648-.074.408-.318 1.024-.927 1.514-.588.49-1.594.787-2.59.434-.985-.321-1.85-1.368-1.838-2.597-.011-1.229.853-2.275 1.839-2.597.994-.353 2-.056 2.588.434.609.49.854 1.105.928 1.514.076.419.025.651.005.65z" transform="translate(0 145.182) translate(0 92.054) translate(6.017 6.618)"/>
                </g>
            </g>
            <path fill="#E1E1E1" d="M94.41 92.244c0 .166-15.493.302-34.602.302-19.115 0-34.605-.135-34.605-.302 0-.167 15.49-.302 34.605-.302 19.109 0 34.603.135 34.603.302z" transform="translate(0 145.182)"/>
        </g>
        <g>
            <path fill="#F5F5F5" d="M45.15 152.432L56.316 207.515 97.627 207.515 108.421 155.98z" transform="translate(443.422 182.485)"/>
            <g fill="#E1E1E1">
                <path d="M0.655 0.322H78.224V10.979999999999999H0.655z" transform="translate(443.422 182.485) translate(37.303 145)"/>
                <path d="M78.356 11.113H.523V.19h77.833v10.923zM.788 10.848h77.304V.455H.788v10.393z" transform="translate(443.422 182.485) translate(37.303 145)"/>
            </g>
            <path fill="#E1E1E1" d="M45.15 202.305L51.105 210.493 101.32 210.493 108.421 202.305zM73.83 154.041c-.153 0-.348-25.518-.437-56.99-.089-31.482-.037-56.996.116-56.996s.348 25.512.437 56.995c.088 31.472.036 56.991-.117 56.991zM91.109 90.182c.017.008-.055.213-.208.594l-.693 1.651-.506 1.19-.516 1.448-.599 1.662c-.207.59-.37 1.231-.574 1.894-.847 2.645-1.52 5.888-2.17 9.497-.563 3.628-.988 7.644-1.2 11.877-.377 8.475.102 16.16.613 21.695.25 2.77.5 5.008.685 6.553l.195 1.782c.039.409.05.625.031.627-.019.002-.067-.208-.141-.611l-.299-1.77c-.25-1.537-.56-3.77-.86-6.542-.613-5.536-1.156-13.244-.777-21.76.214-4.252.655-8.29 1.25-11.934.68-3.627 1.4-6.882 2.3-9.528.216-.664.392-1.305.614-1.894l.642-1.657.561-1.44c.192-.434.387-.822.553-1.175l.79-1.613c.186-.367.292-.555.309-.546z" transform="translate(443.422 182.485)"/>
            <path fill="#E1E1E1" d="M89.125 69.542c.018.008-.068.297-.246.842l-.808 2.372-.593 1.71-.624 2.06c-.454 1.477-.98 3.155-1.447 5.043l-.778 2.95-.727 3.227c-.542 2.22-.933 4.634-1.433 7.154-.855 5.068-1.608 10.672-2.127 16.581-.49 5.915-.704 11.566-.779 16.708-.015 5.142.05 9.775.261 13.66.069 1.944.193 3.7.294 5.241.089 1.543.186 2.87.285 3.955l.19 2.5c.037.571.048.873.029.875-.02.002-.067-.295-.14-.864-.073-.62-.17-1.45-.294-2.491-.131-1.082-.26-2.409-.378-3.951-.13-1.542-.282-3.299-.376-5.244-.261-3.889-.367-8.53-.38-13.684.048-5.154.246-10.82.738-16.751.52-5.927 1.292-11.545 2.176-16.624.516-2.526.924-4.943 1.487-7.166l.76-3.23c.284-1.024.555-2.008.815-2.95.493-1.886 1.047-3.561 1.53-5.033l.669-2.05.64-1.699.906-2.34c.213-.53.333-.807.35-.8zM68.923 158.556c-.01 0-.024-.1-.043-.298l-.074-.879-.228-3.38-.778-12.43c-.673-10.492-1.647-24.99-3.412-40.932-.903-7.97-1.95-15.54-3.037-22.404-.578-3.426-1.103-6.686-1.698-9.719-.546-3.042-1.133-5.86-1.674-8.43-.51-2.58-1.078-4.888-1.536-6.925-.45-2.039-.884-3.783-1.247-5.208l-.806-3.289-.196-.859c-.04-.194-.057-.295-.048-.298.009-.002.043.094.103.283l.25.845.905 3.263c.396 1.417.861 3.156 1.34 5.19.486 2.032 1.082 4.337 1.617 6.914.566 2.569 1.177 5.386 1.743 8.428.615 3.032 1.157 6.294 1.75 9.722 1.117 6.868 2.18 14.446 3.083 22.425 1.768 15.959 2.68 30.469 3.254 40.97.285 5.252.483 9.504.602 12.442l.124 3.385.02.88c0 .201-.004.304-.014.304z" transform="translate(443.422 182.485)"/>
            <path fill="#F5F5F5" d="M73.197 52.323c-.337-3.616-3.99-6.343-7.621-6.38-3.631-.038-7.015 2.14-9.236 5.012-2.22 2.873-3.445 6.38-4.446 9.87-2.446 8.517-3.782 17.466-2.737 26.265 1.045 8.8 4.616 17.462 10.93 23.68 1.026 1.01 2.357 2.02 3.765 1.72.77-.164 1.402-.699 1.987-1.227 12.404-11.206 19.566-27.988 19.075-44.696-.098-3.346-.537-6.828-2.39-9.616-1.853-2.787-6.172-5.748-9.327-4.628" transform="translate(443.422 182.485)"/>
            <g>
                <path fill="#F5F5F5" d="M20.215 23.366l-5.113 9.26c-.12.217-.277.459-.523.479-.269.022-.47-.232-.616-.458L.443 11.898l3.116-1.764 16.656 13.232z" transform="translate(443.422 182.485) translate(25.871)"/>
                <path fill="#000" d="M20.215 23.366l-5.113 9.26c-.12.217-.277.459-.523.479-.269.022-.47-.232-.616-.458L.443 11.898l3.116-1.764 16.656 13.232z" opacity=".2" transform="translate(443.422 182.485) translate(25.871)"/>
                <path fill="#F5F5F5" d="M47.637 40.054L1.52 12.841c-.47-.278-.98-.606-1.122-1.133-.184-.682.328-1.34.82-1.848C7.561 3.316 16.774-.477 25.864.177c9.09.654 17.83 5.905 22.28 13.858 4.45 7.953 4.598 18.47-.507 26.02" transform="translate(443.422 182.485) translate(25.871)"/>
                <path fill="#E1E1E1" d="M8.167 4.154c-.001-.019.206-.044.604-.075.398-.02.985-.092 1.743-.083 1.515-.038 3.719.062 6.399.508 2.679.44 5.825 1.302 9.112 2.768 3.286 1.46 6.685 3.572 9.782 6.347 3.072 2.806 5.513 5.979 7.292 9.103 1.787 3.125 2.958 6.17 3.663 8.792.71 2.623 1.029 4.805 1.143 6.316.084.754.07 1.345.09 1.743.01.399.005.607-.015.608-.048.003-.106-.833-.29-2.328-.178-1.495-.553-3.65-1.305-6.231-1.457-5.136-4.843-12.06-10.95-17.593-6.11-5.522-13.337-8.2-18.593-9.14-2.643-.49-4.825-.648-6.331-.677-1.505-.035-2.342-.009-2.344-.058z" transform="translate(443.422 182.485) translate(25.871)"/>
                <path fill="#E1E1E1" d="M41.395 21.272c.027.07-.861.48-2.331 1.06-1.47.578-3.523 1.318-5.82 2.048s-4.401 1.31-5.935 1.685c-1.535.375-2.497.552-2.516.48-.02-.076.907-.386 2.41-.857 1.7-.53 3.684-1.15 5.874-1.835l5.855-1.89c1.5-.483 2.436-.765 2.463-.691zM34.134 1.764c.148-.014.475 2.286.545 5.144.075 2.86-.136 5.172-.285 5.167-.156-.006-.193-2.313-.267-5.152-.07-2.84-.149-5.145.007-5.159zM1.118 12.325c-.022-.07 1.254-.533 3.35-1.179C6.563 10.5 9.48 9.683 12.733 8.9c3.254-.784 6.225-1.385 8.385-1.763 2.159-.38 3.506-.55 3.519-.477.014.078-1.307.383-3.443.86-2.136.476-5.085 1.135-8.331 1.916-3.244.783-6.17 1.539-8.29 2.087-2.118.548-3.432.879-3.455.803z" transform="translate(443.422 182.485) translate(25.871)"/>
            </g>
            <g>
                <path fill="#F5F5F5" d="M52.244 3.454C48.278.446 44.084-.146 39.11.051c-4.974.197-9.815 1.712-14.375 3.71C16.96 7.165 9.65 12.186 5.003 19.29.356 26.398-1.26 35.804 2.218 43.548c.347.772.798 1.579 1.575 1.911.82.351 1.757.077 2.603-.199 8.845-2.885 17.752-5.797 25.884-10.316 8.133-4.518 15.535-10.8 19.899-19.016 1.047-1.972 1.923-4.085 2.094-6.31.172-2.225-.443-4.59-2.029-6.163" transform="translate(443.422 182.485) translate(0 40.311)"/>
                <path fill="#E1E1E1" d="M52.323 2.522c.006.018-.214.107-.636.258l-1.854.637-1.342.448c-.486.175-1.005.394-1.568.61-1.119.453-2.418.906-3.786 1.57l-2.168.987c-.752.347-1.503.775-2.298 1.18-1.603.787-3.226 1.793-4.952 2.813-3.391 2.143-6.98 4.724-10.473 7.766-3.463 3.078-6.48 6.309-9.04 9.4-1.23 1.583-2.435 3.064-3.421 4.554-.503.737-1.022 1.427-1.462 2.13L8.067 36.9c-.833 1.272-1.447 2.503-2.038 3.555-.288.53-.57 1.017-.806 1.478l-.615 1.273-.868 1.757c-.204.4-.32.606-.338.599-.017-.007.064-.229.236-.643l.776-1.804.573-1.3c.223-.468.492-.964.768-1.503.568-1.07 1.161-2.32 1.976-3.612l1.233-2.055c.434-.712.947-1.412 1.445-2.16.975-1.51 2.173-3.011 3.403-4.613 2.553-3.13 5.581-6.395 9.07-9.494 3.518-3.065 7.141-5.652 10.57-7.785 1.746-1.015 3.387-2.012 5.009-2.787.804-.398 1.564-.818 2.325-1.158l2.196-.96c1.385-.644 2.7-1.073 3.834-1.5.57-.205 1.096-.41 1.59-.57l1.361-.403 1.888-.54c.434-.12.663-.172.668-.153zM21.336 19.3c.043.146-4.277 1.538-9.648 3.108-5.372 1.571-9.76 2.725-9.804 2.579-.042-.147 4.277-1.538 9.65-3.109 5.37-1.57 9.76-2.725 9.802-2.579z" transform="translate(443.422 182.485) translate(0 40.311)"/>
                <path fill="#E1E1E1" d="M20.94 40.59c-.075.001-.162-1.147-.213-3.006-.051-1.858-.059-4.427.02-7.263.08-2.837.231-5.402.386-7.255.155-1.853.305-2.994.38-2.989.077.005.065 1.155.01 3.012l-.224 7.248-.181 7.248c-.05 1.855-.1 3.005-.179 3.006zM39.178 31.3c-.153.01-.638-5.21-1.083-11.66-.447-6.45-.685-11.687-.532-11.698.152-.01.637 5.21 1.083 11.66.445 6.449.684 11.687.532 11.697z" transform="translate(443.422 182.485) translate(0 40.311)"/>
                <path fill="#E1E1E1" d="M16.475 7.435c.004-.076 1.186-.106 3.093-.093 1.906.013 4.539.07 7.445.165 2.906.097 5.537.215 7.44.328 1.904.113 3.08.22 3.08.297-.002.076-1.18.106-3.088.093-1.907-.013-4.541-.069-7.451-.165-2.908-.096-5.54-.214-7.444-.327-1.903-.114-3.078-.221-3.075-.298z" transform="translate(443.422 182.485) translate(0 40.311)"/>
            </g>
            <path fill="#E1E1E1" d="M62.065 113.253c-.02 0-.041-.217-.066-.63l-.081-1.812c-.07-1.574-.085-3.854-.026-6.67.05-2.818.238-6.17.57-9.881.358-3.709.878-7.775 1.622-12.011.765-4.234 1.681-8.23 2.625-11.836.97-3.598 1.952-6.809 2.878-9.47.916-2.663 1.718-4.798 2.327-6.25l.702-1.673c.166-.38.262-.575.28-.568.017.007-.044.217-.176.61l-.605 1.707c-.545 1.475-1.29 3.625-2.157 6.297-.876 2.67-1.816 5.883-2.756 9.476-.914 3.6-1.811 7.585-2.574 11.804-.742 4.221-1.275 8.27-1.66 11.963-.359 3.697-.586 7.035-.686 9.843-.109 2.808-.152 5.084-.149 6.656l-.022 1.811c-.012.415-.027.634-.046.634z" transform="translate(443.422 182.485)"/>
            <path fill="#E1E1E1" d="M64.498 81.788c.051.053-.646.83-1.84 2.019-1.193 1.19-2.887 2.787-4.82 4.481-1.933 1.695-3.74 3.166-5.074 4.193-1.336 1.027-2.196 1.618-2.243 1.56-.049-.062.726-.76 1.995-1.862l4.958-4.306 4.917-4.351c1.259-1.115 2.053-1.791 2.107-1.734zM79.095 93.546c-.067.042-.798-1.007-1.96-2.714l-4.556-6.65-4.653-6.586c-1.196-1.682-1.925-2.733-1.863-2.781.059-.045.897.922 2.176 2.546 1.279 1.625 2.99 3.914 4.793 6.505 1.802 2.59 3.353 4.99 4.432 6.754 1.08 1.764 1.694 2.887 1.631 2.926zM71.448 56.565c.082.13-4.766 3.393-10.83 7.291-6.064 3.9-11.046 6.955-11.128 6.827-.082-.128 4.765-3.392 10.83-7.291 6.063-3.898 11.046-6.955 11.128-6.827zM85.12 71.323c-.106.109-3.39-2.925-7.333-6.777-3.946-3.853-7.056-7.064-6.949-7.173.106-.11 3.39 2.925 7.335 6.778 3.944 3.851 7.054 7.063 6.948 7.172z" transform="translate(443.422 182.485)"/>
            <g>
                <path fill="#F5F5F5" d="M.116 31.317l4.162-.344c2.955-.245 5.823-1.12 8.406-2.574 1.277-.718 2.56-1.422 3.918-1.967 5.146-2.066 10.888-1.697 16.427-1.975 9.04-.453 17.985-2.739 26.133-6.682.47-.228.886-.575 1.138-1.033.855-1.557-.733-2.944-2.1-3.787-7.013-4.32-14.15-8.697-22.104-10.842C28.143-.032 19.116.331 12.33 5.001 4.364 10.483 1.461 21.742.116 31.317" transform="translate(443.422 182.485) translate(88.444 39.71)"/>
                <path fill="#E1E1E1" d="M60.394 16.23c-.01.018-.252-.096-.706-.328l-1.973-1.033c-1.71-.9-4.174-2.228-7.287-3.72-3.115-1.477-6.89-3.144-11.28-4.348-4.373-1.216-9.418-1.852-14.62-1.185-5.181.683-9.952 2.698-13.328 5.723-3.398 3.015-5.474 6.655-6.94 9.748-1.463 3.12-2.364 5.774-3.02 7.59-.307.87-.554 1.568-.74 2.1-.174.479-.274.727-.292.722-.018-.006.047-.266.185-.757l.643-2.133c.594-1.84 1.44-4.52 2.87-7.686 1.432-3.137 3.497-6.856 6.957-9.965 3.44-3.12 8.321-5.197 13.593-5.89 5.291-.678 10.418-.013 14.828 1.242 4.43 1.244 8.21 2.96 11.315 4.487 3.103 1.543 5.54 2.925 7.22 3.883l1.924 1.125c.435.263.66.41.651.426z" transform="translate(443.422 182.485) translate(88.444 39.71)"/>
                <path fill="#E1E1E1" d="M50.397 21.601c-.085.127-5.529-3.395-12.158-7.865-6.632-4.471-11.936-8.197-11.85-8.323.085-.127 5.528 3.394 12.159 7.865 6.629 4.47 11.935 8.197 11.85 8.323zM45.168 4.891c.03.145-1.86.636-4.25.853-2.39.223-4.335.085-4.333-.063 0-.157 1.924-.267 4.283-.487 2.359-.215 4.27-.457 4.3-.303zM20.758.518c.132.078-.668 1.677-1.786 3.57-1.118 1.896-2.13 3.37-2.262 3.292-.131-.078.668-1.676 1.786-3.572 1.117-1.895 2.13-3.368 2.262-3.29zM25.636 24.809c-.038.062-1.047-.467-2.62-1.42-1.572-.955-3.698-2.354-5.969-4.002-2.27-1.65-4.273-3.209-5.712-4.35-1.437-1.144-2.307-1.877-2.26-1.939.045-.06.997.563 2.495 1.626l5.802 4.215c2.264 1.643 4.343 3.085 5.857 4.12 1.512 1.036 2.45 1.681 2.407 1.75z" transform="translate(443.422 182.485) translate(88.444 39.71)"/>
            </g>
            <g>
                <path fill="#F5F5F5" d="M9.855 2.073C5.885 1.025 1.152 4.887.333 8.911c-.818 4.024.691 8.14 2.458 11.846C6.702 28.964 12.1 36.574 19.21 42.24c7.109 5.666 16.014 9.289 25.104 9.243-1.678-7.797.445-15.941-.491-23.862-.817-6.912-4.04-13.517-8.986-18.414C29.89 4.308 23.253 1.152 16.333.404 13.8.13 10.865-.267 9.855 2.074" transform="translate(443.422 182.485) translate(84.834 86.639)"/>
                <path fill="#E1E1E1" d="M44.314 51.482c-.01.017-.203-.074-.565-.263-.359-.195-.875-.51-1.485-.997-1.247-.946-2.674-2.77-3.92-5.243-.634-1.229-1.34-2.563-2.032-4.041l-2.136-4.722c-.758-1.654-1.59-3.372-2.625-5.047-1.03-1.678-2.254-3.318-3.612-4.912-2.719-3.193-5.635-5.955-8.164-8.594-2.541-2.629-4.679-5.16-6.224-7.468-1.56-2.298-2.505-4.357-3.041-5.808-.256-.733-.44-1.305-.53-1.704-.101-.395-.145-.604-.126-.61.052-.014.276.812.856 2.235.593 1.415 1.579 3.42 3.163 5.666 1.57 2.254 3.716 4.735 6.267 7.334 2.54 2.61 5.473 5.365 8.22 8.592 1.37 1.61 2.61 3.276 3.652 4.987 1.047 1.709 1.879 3.452 2.627 5.12l2.089 4.74c.666 1.47 1.355 2.818 1.963 4.054 1.195 2.48 2.53 4.275 3.71 5.257 1.161 1 1.947 1.37 1.913 1.424z" transform="translate(443.422 182.485) translate(84.834 86.639)"/>
                <path fill="#E1E1E1" d="M23.783 45.003c-.072-.014.053-1.038.365-2.673.31-1.635.82-3.88 1.508-6.325.69-2.446 1.427-4.627 2.015-6.183.588-1.558 1.015-2.495 1.084-2.47.075.027-.223 1.012-.715 2.597-.492 1.584-1.166 3.772-1.852 6.206-.685 2.434-1.252 4.652-1.66 6.26-.407 1.608-.667 2.603-.745 2.588zM43.562 25.866c-.024.076-1.087-.196-2.797-.643-1.711-.447-4.074-1.059-6.702-1.651-2.629-.592-5.025-1.052-6.763-1.382-1.737-.328-2.813-.539-2.802-.618.01-.072 1.105.002 2.864.233 1.759.23 4.18.633 6.823 1.228 2.642.596 5.002 1.27 6.69 1.815 1.687.546 2.71.949 2.687 1.018zM9.05 31.427c-.073-.014.08-1.198.43-3.094.348-1.895.904-4.5 1.646-7.347.744-2.847 1.533-5.393 2.154-7.217.623-1.824 1.067-2.931 1.137-2.908.075.025-.238 1.175-.764 3.024-.524 1.85-1.252 4.404-1.992 7.24-.74 2.837-1.354 5.419-1.8 7.29-.445 1.87-.734 3.026-.811 3.012zM34.453 9.19c-.016.15-4.972-.25-11.069-.897C17.285 7.646 12.356 7 12.372 6.848c.016-.152 4.971.25 11.07.896 6.097.646 11.027 1.293 11.011 1.445z" transform="translate(443.422 182.485) translate(84.834 86.639)"/>
            </g>
            <path fill="#E1E1E1" d="M115.655 155.935c0 .153-17.423.276-38.91.276-21.496 0-38.915-.123-38.915-.276 0-.153 17.42-.276 38.914-.276 21.488 0 38.911.123 38.911.276zM103.534 178.357c0 .152-11.74.276-26.217.276-14.483 0-26.22-.124-26.22-.276 0-.153 11.737-.277 26.22-.277 14.477 0 26.217.124 26.217.277zM103.992 181.563c0 .153-11.74.276-26.218.276-14.482 0-26.22-.124-26.22-.276 0-.152 11.738-.276 26.22-.276 14.478 0 26.218.123 26.218.276zM103.992 175.714c0 .153-12.143.276-27.118.276-14.98 0-27.121-.124-27.121-.276 0-.152 12.14-.276 27.12-.276 14.976 0 27.119.124 27.119.276z" transform="translate(443.422 182.485)"/>
        </g>
    </g>
</svg>
