<svg width="257" height="56" viewBox="0 0 257 56" fill="none" xmlns="http://www.w3.org/2000/svg">
<rect width="257" height="56" rx="28" fill="#25D366"/>
<path fill-rule="evenodd" clip-rule="evenodd" d="M32 40L38.5357 37.9107C40.3571 38.875 42.25 39.3571 44.2143 39.3571C47.4643 39.3571 50.2411 38.2232 52.5446 35.9554C54.8482 33.6875 56 30.9286 56 27.6786C56 24.4286 54.8482 21.6696 52.5446 19.4018C50.2411 17.1339 47.4643 16 44.2143 16C40.9643 16 38.1786 17.1429 35.8571 19.4286C33.5714 21.6786 32.4286 24.4286 32.4286 27.6786C32.4286 29.8214 33 31.8393 34.1429 33.7321L32 40ZM44.2143 37.6429C42.5 37.6429 40.875 37.2321 39.3393 36.4107L38.6964 36.0893L38 36.3036L34.7321 37.3214L35.75 34.2679L36.0179 33.5179L35.5893 32.8214C34.625 31.25 34.1429 29.5357 34.1429 27.6786C34.1429 24.9643 35.125 22.625 37.0893 20.6607C39.125 18.6964 41.5 17.7143 44.2143 17.7143C46.9286 17.7143 49.3036 18.6964 51.3393 20.6607C53.3036 22.625 54.2857 24.9643 54.2857 27.6786C54.2857 30.4286 53.3036 32.7857 51.3393 34.75C49.3393 36.6786 46.9643 37.6429 44.2143 37.6429ZM48.0179 33.4643C47.9821 33.5714 47.6964 33.5893 47.1607 33.5179C46.625 33.4464 45.7143 33.1429 44.4286 32.6071C44.0357 32.4286 43.6339 32.2143 43.2232 31.9643C42.8125 31.7143 42.4554 31.4464 42.1518 31.1607C41.8482 30.875 41.5536 30.5893 41.2679 30.3036C40.9821 30.0179 40.7321 29.7321 40.5179 29.4464C40.3036 29.1607 40.125 28.9107 39.9821 28.6964C39.8393 28.4821 39.7143 28.2857 39.6071 28.1071L39.4464 27.8929C38.6607 26.8571 38.2857 25.8214 38.3214 24.7857C38.3571 23.8929 38.75 23.0714 39.5 22.3214C39.75 22.0714 40.0179 21.9464 40.3036 21.9464H40.8393C41.1607 21.9464 41.3929 22.1429 41.5357 22.5357C41.6071 22.7143 41.7054 22.9821 41.8304 23.3393C41.9554 23.6964 42.0804 24.0179 42.2054 24.3036C42.3304 24.5893 42.3929 24.75 42.3929 24.7857C42.4643 25 42.4643 25.1786 42.3929 25.3214C42.2857 25.5357 42.1786 25.6964 42.0714 25.8036L41.5893 26.2857C41.375 26.5 41.3214 26.7143 41.4286 26.9286C41.7857 27.6429 42.3214 28.3393 43.0357 29.0179C43.6786 29.625 44.4643 30.1607 45.3929 30.625C45.6786 30.7679 45.8929 30.75 46.0357 30.5714C46.1071 30.5 46.2768 30.3125 46.5446 30.0089C46.8125 29.7054 46.9821 29.5179 47.0536 29.4464C47.2321 29.2321 47.4643 29.1786 47.75 29.2857C47.8571 29.3214 48.1964 29.5 48.7679 29.8214C49.3393 30.1429 49.6607 30.3214 49.7321 30.3571C50.0893 30.5357 50.2857 30.6607 50.3214 30.7321C50.4286 30.9464 50.3393 31.4107 50.0536 32.125C49.9464 32.4464 49.6607 32.7411 49.1964 33.0089C48.7321 33.2768 48.3393 33.4286 48.0179 33.4643Z" fill="white"/>
<path d="M78.7061 35H75.9814V24.418H72.4922V22.1504H82.1953V24.418H78.7061V35Z" fill="white"/>
<path d="M90.2021 35L89.6836 33.6641H89.6133C89.1621 34.2324 88.6963 34.6279 88.2158 34.8506C87.7412 35.0674 87.1201 35.1758 86.3525 35.1758C85.4092 35.1758 84.665 34.9062 84.1201 34.3672C83.5811 33.8281 83.3115 33.0605 83.3115 32.0645C83.3115 31.0215 83.6748 30.2539 84.4014 29.7617C85.1338 29.2637 86.2354 28.9883 87.7061 28.9355L89.4111 28.8828V28.4521C89.4111 27.4561 88.9014 26.958 87.8818 26.958C87.0967 26.958 86.1738 27.1953 85.1133 27.6699L84.2256 25.8594C85.3564 25.2676 86.6104 24.9717 87.9873 24.9717C89.3057 24.9717 90.3164 25.2588 91.0195 25.833C91.7227 26.4072 92.0742 27.2803 92.0742 28.4521V35H90.2021ZM89.4111 30.4473L88.374 30.4824C87.5947 30.5059 87.0146 30.6465 86.6338 30.9043C86.2529 31.1621 86.0625 31.5547 86.0625 32.082C86.0625 32.8379 86.4961 33.2158 87.3633 33.2158C87.9844 33.2158 88.4795 33.0371 88.8486 32.6797C89.2236 32.3223 89.4111 31.8477 89.4111 31.2559V30.4473Z" fill="white"/>
<path d="M97.5234 35H94.8428V21.3242H97.5234V35Z" fill="white"/>
<path d="M102.92 29.6562L104.089 28.1621L106.84 25.1738H109.863L105.961 29.4365L110.101 35H107.007L104.177 31.0186L103.025 31.9414V35H100.345V21.3242H103.025V27.4238L102.885 29.6562H102.92Z" fill="white"/>
<path d="M120.322 33.04C120.791 33.04 121.354 32.9375 122.01 32.7324V34.7275C121.342 35.0264 120.521 35.1758 119.549 35.1758C118.477 35.1758 117.694 34.9062 117.202 34.3672C116.716 33.8223 116.473 33.0078 116.473 31.9238V27.1865H115.189V26.0527L116.666 25.1562L117.439 23.082H119.153V25.1738H121.904V27.1865H119.153V31.9238C119.153 32.3047 119.259 32.5859 119.47 32.7676C119.687 32.9492 119.971 33.04 120.322 33.04Z" fill="white"/>
<path d="M126.141 30.0693C126.141 31.042 126.299 31.7773 126.615 32.2754C126.938 32.7734 127.459 33.0225 128.18 33.0225C128.895 33.0225 129.407 32.7764 129.718 32.2842C130.034 31.7861 130.192 31.0479 130.192 30.0693C130.192 29.0967 130.034 28.3672 129.718 27.8809C129.401 27.3945 128.883 27.1514 128.162 27.1514C127.447 27.1514 126.932 27.3945 126.615 27.8809C126.299 28.3613 126.141 29.0908 126.141 30.0693ZM132.935 30.0693C132.935 31.6689 132.513 32.9199 131.669 33.8223C130.825 34.7246 129.65 35.1758 128.145 35.1758C127.201 35.1758 126.369 34.9707 125.648 34.5605C124.928 34.1445 124.374 33.5498 123.987 32.7764C123.601 32.0029 123.407 31.1006 123.407 30.0693C123.407 28.4639 123.826 27.2158 124.664 26.3252C125.502 25.4346 126.68 24.9893 128.197 24.9893C129.141 24.9893 129.973 25.1943 130.693 25.6045C131.414 26.0146 131.968 26.6035 132.354 27.3711C132.741 28.1387 132.935 29.0381 132.935 30.0693Z" fill="white"/>
<path d="M146.065 35L145.547 33.6641H145.477C145.025 34.2324 144.56 34.6279 144.079 34.8506C143.604 35.0674 142.983 35.1758 142.216 35.1758C141.272 35.1758 140.528 34.9062 139.983 34.3672C139.444 33.8281 139.175 33.0605 139.175 32.0645C139.175 31.0215 139.538 30.2539 140.265 29.7617C140.997 29.2637 142.099 28.9883 143.569 28.9355L145.274 28.8828V28.4521C145.274 27.4561 144.765 26.958 143.745 26.958C142.96 26.958 142.037 27.1953 140.977 27.6699L140.089 25.8594C141.22 25.2676 142.474 24.9717 143.851 24.9717C145.169 24.9717 146.18 25.2588 146.883 25.833C147.586 26.4072 147.938 27.2803 147.938 28.4521V35H146.065ZM145.274 30.4473L144.237 30.4824C143.458 30.5059 142.878 30.6465 142.497 30.9043C142.116 31.1621 141.926 31.5547 141.926 32.082C141.926 32.8379 142.359 33.2158 143.227 33.2158C143.848 33.2158 144.343 33.0371 144.712 32.6797C145.087 32.3223 145.274 31.8477 145.274 31.2559V30.4473Z" fill="white"/>
<path d="M159.776 35H157.096V29.2607C157.096 28.5518 156.97 28.0215 156.718 27.6699C156.466 27.3125 156.064 27.1338 155.514 27.1338C154.764 27.1338 154.222 27.3857 153.888 27.8896C153.554 28.3877 153.387 29.2168 153.387 30.377V35H150.706V25.1738H152.754L153.114 26.4307H153.264C153.562 25.9561 153.973 25.5986 154.494 25.3584C155.021 25.1123 155.619 24.9893 156.287 24.9893C157.43 24.9893 158.297 25.2998 158.889 25.9209C159.48 26.5361 159.776 27.4268 159.776 28.5928V35Z" fill="white"/>
<path d="M171.281 26.8965C170.713 26.8965 170.268 27.0781 169.945 27.4414C169.623 27.7988 169.438 28.3086 169.392 28.9707H173.153C173.142 28.3086 172.969 27.7988 172.635 27.4414C172.301 27.0781 171.85 26.8965 171.281 26.8965ZM171.659 35.1758C170.077 35.1758 168.841 34.7393 167.95 33.8662C167.06 32.9932 166.614 31.7568 166.614 30.1572C166.614 28.5107 167.024 27.2393 167.845 26.3428C168.671 25.4404 169.811 24.9893 171.264 24.9893C172.652 24.9893 173.733 25.3848 174.507 26.1758C175.28 26.9668 175.667 28.0596 175.667 29.4541V30.7549H169.33C169.359 31.5166 169.585 32.1113 170.007 32.5391C170.429 32.9668 171.021 33.1807 171.782 33.1807C172.374 33.1807 172.934 33.1191 173.461 32.9961C173.988 32.873 174.539 32.6768 175.113 32.4072V34.4814C174.645 34.7158 174.144 34.8887 173.61 35C173.077 35.1172 172.427 35.1758 171.659 35.1758Z" fill="white"/>
<path d="M179.859 29.9814L176.695 25.1738H179.736L181.644 28.3027L183.568 25.1738H186.609L183.41 29.9814L186.759 35H183.709L181.644 31.6338L179.569 35H176.528L179.859 29.9814Z" fill="white"/>
<path d="M193.649 35.1758C192.495 35.1758 191.59 34.7568 190.934 33.9189H190.793C190.887 34.7393 190.934 35.2139 190.934 35.3428V39.3242H188.253V25.1738H190.433L190.811 26.4482H190.934C191.561 25.4756 192.489 24.9893 193.72 24.9893C194.88 24.9893 195.788 25.4375 196.444 26.334C197.101 27.2305 197.429 28.4756 197.429 30.0693C197.429 31.1182 197.273 32.0293 196.963 32.8027C196.658 33.5762 196.222 34.165 195.653 34.5693C195.085 34.9736 194.417 35.1758 193.649 35.1758ZM192.858 27.1338C192.196 27.1338 191.713 27.3389 191.408 27.749C191.104 28.1533 190.945 28.8242 190.934 29.7617V30.0518C190.934 31.1064 191.089 31.8623 191.399 32.3193C191.716 32.7764 192.214 33.0049 192.894 33.0049C194.095 33.0049 194.695 32.0146 194.695 30.0342C194.695 29.0674 194.546 28.3438 194.247 27.8633C193.954 27.377 193.491 27.1338 192.858 27.1338Z" fill="white"/>
<path d="M203.713 26.8965C203.145 26.8965 202.699 27.0781 202.377 27.4414C202.055 27.7988 201.87 28.3086 201.823 28.9707H205.585C205.573 28.3086 205.4 27.7988 205.066 27.4414C204.732 27.0781 204.281 26.8965 203.713 26.8965ZM204.091 35.1758C202.509 35.1758 201.272 34.7393 200.382 33.8662C199.491 32.9932 199.046 31.7568 199.046 30.1572C199.046 28.5107 199.456 27.2393 200.276 26.3428C201.103 25.4404 202.242 24.9893 203.695 24.9893C205.084 24.9893 206.165 25.3848 206.938 26.1758C207.712 26.9668 208.099 28.0596 208.099 29.4541V30.7549H201.762C201.791 31.5166 202.017 32.1113 202.438 32.5391C202.86 32.9668 203.452 33.1807 204.214 33.1807C204.806 33.1807 205.365 33.1191 205.893 32.9961C206.42 32.873 206.971 32.6768 207.545 32.4072V34.4814C207.076 34.7158 206.575 34.8887 206.042 35C205.509 35.1172 204.858 35.1758 204.091 35.1758Z" fill="white"/>
<path d="M215.763 24.9893C216.126 24.9893 216.428 25.0156 216.668 25.0684L216.466 27.582C216.249 27.5234 215.985 27.4941 215.675 27.4941C214.819 27.4941 214.151 27.7139 213.671 28.1533C213.196 28.5928 212.959 29.208 212.959 29.999V35H210.278V25.1738H212.309L212.704 26.8262H212.836C213.141 26.2754 213.551 25.833 214.066 25.499C214.588 25.1592 215.153 24.9893 215.763 24.9893Z" fill="white"/>
<path d="M222.592 33.04C223.061 33.04 223.623 32.9375 224.279 32.7324V34.7275C223.611 35.0264 222.791 35.1758 221.818 35.1758C220.746 35.1758 219.964 34.9062 219.472 34.3672C218.985 33.8223 218.742 33.0078 218.742 31.9238V27.1865H217.459V26.0527L218.936 25.1562L219.709 23.082H221.423V25.1738H224.174V27.1865H221.423V31.9238C221.423 32.3047 221.528 32.5859 221.739 32.7676C221.956 32.9492 222.24 33.04 222.592 33.04Z" fill="white"/>
</svg>
