<svg width="594" height="341" viewBox="0 0 594 341" fill="none" xmlns="http://www.w3.org/2000/svg">
<path d="M488.6 259.4L499.8 314.5H541.1L551.9 263L488.6 259.4Z" fill="#1E1E1E"/>
<path d="M559 252.301H481.4V263.001H559V252.301Z" fill="#383838"/>
<path fill-rule="evenodd" clip-rule="evenodd" d="M481.3 263.101H559.1V252.201H481.3V263.101ZM558.9 262.801H481.6V252.401H558.9V262.801Z" fill="#383838"/>
<path d="M488.6 309.301L494.6 317.501H544.8L551.9 309.301H488.6Z" fill="#383838"/>
<path d="M517.3 261C517.1 261 517 235.5 516.9 204C516.8 172.5 516.9 147 517 147C517.2 147 517.3 172.5 517.4 204C517.5 235.5 517.5 261 517.3 261Z" fill="#383838"/>
<path d="M534.6 197.2C534.6 197.2 534.5 197.4 534.4 197.8C534.2 198.2 534 198.8 533.7 199.5C533.5 199.9 533.4 200.3 533.2 200.7C533 201.2 532.9 201.6 532.7 202.1C532.5 202.6 532.3 203.2 532.1 203.8C531.9 204.4 531.7 205 531.5 205.7C530.7 208.3 530 211.6 529.3 215.2C528.7 218.8 528.3 222.8 528.1 227.1C527.7 235.6 528.2 243.3 528.7 248.8C528.9 251.6 529.2 253.8 529.4 255.4C529.5 256.1 529.5 256.7 529.6 257.2C529.6 257.6 529.6 257.8 529.6 257.8C529.6 257.8 529.5 257.6 529.5 257.2C529.4 256.7 529.3 256.2 529.2 255.4C528.9 253.9 528.6 251.6 528.3 248.9C527.7 243.4 527.1 235.7 527.5 227.1C527.7 222.8 528.2 218.8 528.8 215.2C529.5 211.6 530.2 208.3 531.1 205.7C531.3 205 531.5 204.4 531.7 203.8C531.9 203.2 532.1 202.7 532.3 202.1C532.5 201.6 532.7 201.1 532.9 200.7C533.1 200.3 533.3 199.9 533.5 199.5C533.8 198.8 534.1 198.3 534.3 197.9C534.5 197.3 534.6 197.1 534.6 197.2Z" fill="#383838"/>
<path d="M532.6 176.5C532.6 176.5 532.5 176.8 532.4 177.3C532.2 177.9 531.9 178.7 531.6 179.7C531.4 180.2 531.2 180.8 531 181.4C530.8 182 530.6 182.7 530.4 183.5C529.9 185 529.4 186.7 529 188.5C528.8 189.4 528.5 190.4 528.2 191.5C528 192.5 527.7 193.6 527.5 194.7C527 196.9 526.6 199.3 526.1 201.9C525.2 207 524.5 212.6 524 218.5C523.5 224.4 523.3 230.1 523.2 235.2C523.2 240.3 523.2 245 523.5 248.9C523.6 250.8 523.7 252.6 523.8 254.1C523.9 255.6 524 257 524.1 258.1C524.2 259.1 524.2 260 524.3 260.6C524.3 261.2 524.3 261.5 524.3 261.5C524.3 261.5 524.2 261.2 524.2 260.6C524.1 260 524 259.2 523.9 258.1C523.8 257 523.6 255.7 523.5 254.1C523.4 252.6 523.2 250.8 523.1 248.9C522.8 245 522.7 240.4 522.7 235.2C522.7 230 522.9 224.4 523.4 218.4C523.9 212.5 524.7 206.9 525.6 201.8C526.1 199.3 526.5 196.9 527.1 194.6C527.4 193.5 527.6 192.4 527.9 191.4C528.2 190.4 528.5 189.4 528.7 188.5C529.2 186.6 529.7 184.9 530.2 183.5C530.4 182.8 530.7 182.1 530.9 181.4C531.1 180.8 531.3 180.2 531.5 179.7C531.9 178.7 532.2 177.9 532.4 177.4C532.5 176.8 532.6 176.5 532.6 176.5Z" fill="#383838"/>
<path d="M512.4 265.5C512.4 265.5 512.4 265.4 512.4 265.2C512.4 265 512.4 264.7 512.3 264.3C512.2 263.5 512.2 262.4 512.1 260.9C511.9 257.9 511.6 253.7 511.3 248.5C510.6 238 509.7 223.5 507.9 207.6C507 199.6 506 192.1 504.9 185.2C504.3 181.8 503.8 178.5 503.2 175.5C502.7 172.5 502.1 169.6 501.5 167.1C501 164.5 500.4 162.2 500 160.2C499.6 158.2 499.1 156.4 498.8 155C498.5 153.6 498.2 152.5 498 151.7C497.9 151.3 497.9 151.1 497.8 150.8C497.8 150.6 497.7 150.5 497.8 150.5C497.8 150.5 497.8 150.6 497.9 150.8C498 151 498 151.3 498.1 151.6C498.3 152.4 498.6 153.5 499 154.9C499.4 156.3 499.9 158.1 500.3 160.1C500.8 162.1 501.4 164.4 501.9 167C502.5 169.6 503.1 172.4 503.6 175.4C504.2 178.4 504.8 181.7 505.4 185.1C506.5 192 507.6 199.5 508.5 207.5C510.3 223.5 511.2 238 511.8 248.5C512.1 253.8 512.3 258 512.4 260.9C512.5 262.3 512.5 263.5 512.5 264.3C512.5 264.7 512.5 265 512.5 265.2C512.4 265.4 512.4 265.5 512.4 265.5Z" fill="#383838"/>
<path d="M516.7 159.3C516.4 155.7 512.7 153 509.1 152.9C505.5 152.9 502.1 155 499.9 157.9C497.7 160.8 496.5 164.3 495.5 167.8C493.1 176.3 491.7 185.3 492.8 194.1C493.8 202.9 497.4 211.6 503.7 217.8C504.7 218.8 506.1 219.8 507.5 219.5C508.3 219.3 508.9 218.8 509.5 218.3C521.9 207.1 529.1 190.3 528.6 173.6C528.5 170.3 528.1 166.8 526.2 164C524.1 161.1 519.8 158.2 516.7 159.3Z" fill="#1E1E1E"/>
<path d="M517 147.001C501.6 137.901 486.3 128.901 470.9 119.801C470.4 119.501 469.9 119.201 469.8 118.701C469.6 118.001 470.1 117.401 470.6 116.901C476.9 110.401 486.2 106.601 495.2 107.201C504.3 107.901 513 113.101 517.5 121.101C521.9 129.001 522.1 139.501 517 147.001Z" fill="#1E1E1E"/>
<path d="M477.5 111.1C477.5 111.1 477.7 111.1 478.1 111C478.5 111 479.1 110.9 479.8 110.9C481.3 110.9 483.5 111 486.2 111.4C488.9 111.8 492 112.7 495.3 114.2C498.6 115.7 502 117.8 505.1 120.5C508.2 123.3 510.6 126.5 512.4 129.6C514.2 132.7 515.4 135.8 516.1 138.4C516.8 141 517.1 143.2 517.2 144.7C517.3 145.5 517.3 146 517.3 146.4C517.3 146.8 517.3 147 517.3 147C517.3 147 517.2 146.2 517 144.7C516.8 143.2 516.4 141.1 515.7 138.5C514.2 133.4 510.9 126.4 504.8 120.9C498.7 115.4 491.5 112.7 486.2 111.8C483.6 111.3 481.4 111.2 479.9 111.1C478.3 111.1 477.5 111.2 477.5 111.1Z" fill="#383838"/>
<path d="M510.7 128.201C510.7 128.301 509.8 128.701 508.4 129.301C506.9 129.901 504.9 130.601 502.6 131.301C500.3 132.001 498.2 132.601 496.7 133.001C495.2 133.401 494.2 133.601 494.2 133.501C494.2 133.401 495.1 133.101 496.6 132.601C498.3 132.101 500.3 131.501 502.5 130.801C504.7 130.101 506.7 129.501 508.4 128.901C509.8 128.401 510.7 128.201 510.7 128.201Z" fill="#383838"/>
<path d="M503.5 108.701C503.6 108.701 504 111.001 504 113.801C504.1 116.701 503.9 119.001 503.7 119.001C503.5 119.001 503.5 116.701 503.4 113.801C503.4 111.101 503.3 108.701 503.5 108.701Z" fill="#383838"/>
<path d="M470.5 119.302C470.5 119.202 471.8 118.802 473.8 118.102C475.9 117.502 478.8 116.602 482.1 115.902C485.4 115.102 488.3 114.502 490.5 114.102C492.7 113.702 494 113.602 494 113.602C494 113.702 492.7 114.002 490.6 114.502C488.5 115.002 485.5 115.602 482.3 116.402C479.1 117.202 476.1 117.902 474 118.502C471.8 119.002 470.5 119.402 470.5 119.302Z" fill="#383838"/>
<path d="M495.7 150.7C491.7 147.7 487.5 147.1 482.6 147.3C477.7 147.5 472.8 149 468.2 151C460.4 154.4 453.1 159.4 448.5 166.5C443.9 173.6 442.2 183 445.7 190.8C446 191.6 446.5 192.4 447.3 192.7C448.1 193.1 449.1 192.8 449.9 192.5C458.7 189.6 467.7 186.7 475.8 182.2C483.9 177.7 491.3 171.4 495.7 163.2C496.7 161.2 497.6 159.1 497.8 156.9C497.9 154.7 497.3 152.3 495.7 150.7Z" fill="#1E1E1E"/>
<path d="M495.8 149.801C495.8 149.801 495.6 149.901 495.2 150.101C494.7 150.301 494.1 150.501 493.3 150.701C492.9 150.801 492.4 151.001 492 151.101C491.5 151.301 491 151.501 490.4 151.701C489.3 152.201 488 152.601 486.6 153.301C485.9 153.601 485.2 153.901 484.4 154.301C483.6 154.601 482.9 155.101 482.1 155.501C480.5 156.301 478.9 157.301 477.1 158.301C473.7 160.401 470.1 163.001 466.6 166.101C463.1 169.201 460.1 172.401 457.6 175.501C456.4 177.101 455.2 178.601 454.2 180.101C453.7 180.801 453.2 181.501 452.7 182.201C452.3 182.901 451.8 183.601 451.4 184.201C450.6 185.501 450 186.701 449.4 187.801C449.1 188.301 448.8 188.801 448.6 189.301C448.4 189.801 448.2 190.201 448 190.601C447.6 191.301 447.4 191.901 447.1 192.401C446.9 192.801 446.8 193.001 446.8 193.001C446.8 193.001 446.9 192.801 447 192.401C447.2 191.901 447.5 191.301 447.8 190.601C448 190.201 448.2 189.801 448.4 189.301C448.6 188.801 448.9 188.301 449.2 187.801C449.8 186.701 450.4 185.501 451.2 184.201C451.6 183.501 452 182.901 452.4 182.101C452.8 181.401 453.3 180.701 453.8 179.901C454.8 178.401 456 176.901 457.2 175.301C459.8 172.201 462.8 168.901 466.3 165.801C469.8 162.701 473.4 160.101 476.9 158.001C478.6 157.001 480.3 156.001 481.9 155.201C482.7 154.801 483.5 154.401 484.2 154.001C485 153.701 485.7 153.301 486.4 153.001C487.8 152.401 489.1 151.901 490.2 151.501C490.8 151.301 491.3 151.101 491.8 150.901C492.3 150.801 492.7 150.601 493.2 150.501C494 150.301 494.6 150.101 495.1 150.001C495.6 149.801 495.8 149.801 495.8 149.801Z" fill="#383838"/>
<path d="M464.8 166.6C464.8 166.7 460.5 168.1 455.2 169.7C449.8 171.3 445.4 172.4 445.4 172.3C445.4 172.2 449.7 170.8 455 169.2C460.4 167.6 464.8 166.4 464.8 166.6Z" fill="#383838"/>
<path d="M464.4 187.901C464.3 187.901 464.2 186.801 464.2 184.901C464.1 183.001 464.1 180.501 464.2 177.601C464.3 174.801 464.4 172.201 464.6 170.301C464.8 168.401 464.9 167.301 465 167.301C465.1 167.301 465.1 168.501 465 170.301C464.9 172.301 464.9 174.801 464.8 177.501C464.7 180.201 464.7 182.701 464.6 184.701C464.5 186.701 464.5 187.901 464.4 187.901Z" fill="#383838"/>
<path d="M482.6 178.601C482.4 178.601 482 173.401 481.5 166.901C481.1 160.401 480.8 155.201 481 155.201C481.2 155.201 481.6 160.401 482.1 166.901C482.6 173.301 482.8 178.601 482.6 178.601Z" fill="#383838"/>
<path d="M459.9 154.7C459.9 154.6 461.1 154.6 463 154.6C464.9 154.6 467.5 154.7 470.4 154.8C473.3 154.9 475.9 155 477.8 155.1C479.7 155.2 480.9 155.3 480.9 155.4C480.9 155.5 479.7 155.5 477.8 155.5C475.9 155.5 473.3 155.4 470.3 155.3C467.4 155.2 464.8 155.1 462.9 155C461.1 154.9 459.9 154.8 459.9 154.7Z" fill="#383838"/>
<path d="M505.5 220.201C505.5 220.201 505.5 220.001 505.4 219.601C505.4 219.101 505.4 218.501 505.3 217.801C505.2 216.201 505.2 213.901 505.3 211.101C505.4 208.301 505.5 204.901 505.9 201.201C506.3 197.501 506.8 193.401 507.5 189.201C508.3 185.001 509.2 181.001 510.1 177.401C511.1 173.801 512.1 170.601 513 167.901C513.9 165.201 514.7 163.101 515.3 161.601C515.6 160.901 515.8 160.401 516 159.901C516.2 159.501 516.3 159.301 516.3 159.301C516.3 159.301 516.3 159.501 516.1 159.901C515.9 160.301 515.7 160.901 515.5 161.601C515 163.101 514.2 165.201 513.3 167.901C512.4 170.601 511.5 173.801 510.5 177.401C509.6 181.001 508.7 185.001 507.9 189.201C507.2 193.401 506.6 197.501 506.2 201.201C505.8 204.901 505.6 208.201 505.5 211.001C505.4 213.801 505.3 216.101 505.4 217.701C505.4 218.401 505.4 219.001 505.4 219.501C505.6 220.001 505.6 220.201 505.5 220.201Z" fill="#383838"/>
<path d="M508 188.8C508.1 188.9 507.4 189.6 506.2 190.8C505 192 503.3 193.6 501.4 195.3C499.5 197 497.7 198.5 496.3 199.5C495 200.5 494.1 201.1 494.1 201.1C494.1 201 494.8 200.3 496.1 199.2C497.5 198 499.2 196.5 501.1 194.9C502.9 193.3 504.6 191.8 506 190.5C507.1 189.4 507.9 188.7 508 188.8Z" fill="#383838"/>
<path d="M522.6 200.501C522.5 200.501 521.8 199.501 520.6 197.801C519.3 196.001 517.8 193.701 516 191.101C514.2 188.601 512.6 186.301 511.3 184.501C510.1 182.801 509.4 181.801 509.4 181.701C509.5 181.701 510.3 182.601 511.6 184.201C512.9 185.801 514.6 188.101 516.4 190.701C518.2 193.301 519.8 195.701 520.8 197.501C522 199.301 522.6 200.501 522.6 200.501Z" fill="#383838"/>
<path d="M514.9 163.5C515 163.6 510.1 166.9 504.1 170.8C498 174.7 493.1 177.8 493 177.6C492.9 177.5 497.8 174.2 503.8 170.3C509.9 166.5 514.8 163.4 514.9 163.5Z" fill="#383838"/>
<path d="M528.6 178.301C528.5 178.401 525.2 175.401 521.3 171.501C517.4 167.601 514.2 164.401 514.4 164.301C514.5 164.201 517.8 167.201 521.7 171.101C525.6 175.001 528.7 178.201 528.6 178.301Z" fill="#383838"/>
<path d="M532 177.999L536.2 177.699C539.2 177.499 542 176.599 544.6 175.099C545.9 174.399 547.2 173.699 548.5 173.099C553.6 170.999 559.4 171.399 564.9 171.099C573.9 170.599 582.9 168.399 591 164.399C591.5 164.199 591.9 163.799 592.1 163.399C593 161.799 591.4 160.499 590 159.599C583 155.299 575.8 150.899 567.9 148.799C559.9 146.699 550.9 146.999 544.1 151.699C536.3 157.199 533.4 168.399 532 177.999Z" fill="#1E1E1E"/>
<path d="M592.3 162.9C592.3 162.9 592 162.8 591.6 162.6C591.1 162.3 590.4 162 589.6 161.6C587.9 160.7 585.4 159.4 582.3 157.9C579.2 156.4 575.4 154.8 571 153.6C566.6 152.4 561.6 151.7 556.4 152.4C551.2 153.1 546.4 155.1 543.1 158.1C539.7 161.1 537.6 164.8 536.2 167.8C534.7 170.9 533.8 173.6 533.2 175.4C532.9 176.3 532.6 177 532.5 177.5C532.3 178 532.2 178.2 532.2 178.2C532.2 178.2 532.2 177.9 532.4 177.4C532.6 176.9 532.8 176.2 533 175.3C533.6 173.5 534.4 170.8 535.9 167.6C537.3 164.5 539.4 160.7 542.9 157.6C546.3 154.5 551.2 152.4 556.5 151.7C561.8 151 566.9 151.7 571.3 152.9C575.7 154.1 579.5 155.9 582.6 157.4C585.7 158.9 588.1 160.3 589.8 161.3C590.6 161.8 591.2 162.1 591.7 162.4C592.1 162.7 592.3 162.9 592.3 162.9Z" fill="#383838"/>
<path d="M582.3 168.3C582.2 168.4 576.8 164.9 570.1 160.4C563.5 155.9 558.2 152.2 558.2 152.1C558.3 152 563.7 155.5 570.4 160C577.1 164.4 582.4 168.2 582.3 168.3Z" fill="#383838"/>
<path d="M577.1 151.599C577.1 151.699 575.2 152.199 572.9 152.499C570.5 152.699 568.6 152.599 568.6 152.399C568.6 152.199 570.5 152.099 572.9 151.899C575.1 151.699 577 151.399 577.1 151.599Z" fill="#383838"/>
<path d="M552.7 147.2C552.8 147.3 552 148.9 550.9 150.8C549.8 152.7 548.8 154.2 548.6 154.1C548.5 154 549.3 152.4 550.4 150.5C551.5 148.6 552.5 147.1 552.7 147.2Z" fill="#383838"/>
<path d="M557.5 171.501C557.5 171.601 556.5 171.001 554.9 170.101C553.3 169.101 551.2 167.701 548.9 166.101C546.6 164.501 544.6 162.901 543.2 161.701C541.8 160.601 540.9 159.801 540.9 159.801C540.9 159.701 541.9 160.401 543.4 161.401C545 162.601 547 164.001 549.2 165.601C551.5 167.201 553.5 168.701 555.1 169.701C556.7 170.801 557.6 171.401 557.5 171.501Z" fill="#383838"/>
<path d="M538.2 195.7C534.2 194.7 529.5 198.5 528.7 202.5C527.9 206.5 529.4 210.6 531.2 214.3C535.1 222.5 540.5 230.1 547.6 235.8C554.7 241.5 563.6 245.1 572.7 245C571 237.2 573.1 229.1 572.2 221.1C571.4 214.2 568.2 207.6 563.2 202.7C558.3 197.8 551.6 194.6 544.7 193.9C542.1 193.7 539.2 193.3 538.2 195.7Z" fill="#1E1E1E"/>
<path d="M572.6 245.099C572.6 245.099 572.4 244.999 572 244.799C571.6 244.599 571.1 244.299 570.5 243.799C569.3 242.899 567.8 240.999 566.6 238.599C566 237.399 565.3 235.999 564.6 234.599C563.9 233.099 563.2 231.499 562.5 229.899C561.7 228.199 560.9 226.499 559.9 224.899C558.9 223.199 557.6 221.599 556.3 219.999C553.6 216.799 550.7 213.999 548.1 211.399C545.6 208.799 543.4 206.199 541.9 203.899C540.3 201.599 539.4 199.499 538.9 198.099C538.6 197.399 538.5 196.799 538.4 196.399C538.3 195.999 538.3 195.799 538.3 195.799C538.4 195.799 538.6 196.599 539.2 197.999C539.8 199.399 540.8 201.399 542.4 203.699C544 205.999 546.1 208.399 548.7 210.999C551.2 213.599 554.2 216.399 556.9 219.599C558.3 221.199 559.5 222.899 560.6 224.599C561.6 226.299 562.5 228.099 563.2 229.699C563.9 231.399 564.6 232.999 565.3 234.399C566 235.899 566.7 237.199 567.3 238.499C568.5 240.999 569.8 242.799 571 243.799C571.9 244.699 572.6 244.999 572.6 245.099Z" fill="#383838"/>
<path d="M552.1 238.6C552 238.6 552.2 237.6 552.5 235.9C552.8 234.3 553.3 232 554 229.6C554.7 227.2 555.4 225 556 223.4C556.6 221.8 557 220.9 557.1 220.9C557.2 220.9 556.9 221.9 556.4 223.5C555.9 225.1 555.2 227.3 554.5 229.7C553.8 232.1 553.2 234.4 552.8 236C552.4 237.6 552.2 238.6 552.1 238.6Z" fill="#383838"/>
<path d="M571.9 219.499C571.9 219.599 570.8 219.299 569.1 218.899C567.4 218.499 565 217.799 562.4 217.199C559.8 216.599 557.4 216.099 555.6 215.799C553.9 215.499 552.8 215.299 552.8 215.199C552.8 215.099 553.9 215.199 555.7 215.399C557.5 215.599 559.9 215.999 562.5 216.599C565.1 217.199 567.5 217.899 569.2 218.399C570.9 218.999 571.9 219.399 571.9 219.499Z" fill="#383838"/>
<path d="M537.4 225C537.3 225 537.5 223.8 537.8 221.9C538.1 220 538.7 217.4 539.4 214.6C540.1 211.8 540.9 209.2 541.6 207.4C542.2 205.6 542.7 204.5 542.7 204.5C542.8 204.5 542.5 205.7 541.9 207.5C541.3 209.3 540.6 211.9 539.9 214.7C539.2 217.5 538.5 220.1 538.1 222C537.7 223.9 537.4 225 537.4 225Z" fill="#383838"/>
<path d="M562.8 202.799C562.8 202.999 557.8 202.599 551.7 201.899C545.6 201.299 540.7 200.599 540.7 200.499C540.7 200.299 545.7 200.699 551.8 201.399C557.8 201.999 562.8 202.599 562.8 202.799Z" fill="#383838"/>
<path d="M559.1 262.902C559.1 263.102 541.7 263.202 520.2 263.202C498.7 263.202 481.3 263.102 481.3 262.902C481.3 262.702 498.7 262.602 520.2 262.602C541.7 262.602 559.1 262.802 559.1 262.902Z" fill="#383838"/>
<path d="M547 285.3C547 285.5 535.3 285.6 520.8 285.6C506.3 285.6 494.6 285.5 494.6 285.3C494.6 285.1 506.3 285 520.8 285C535.3 285 547 285.2 547 285.3Z" fill="#383838"/>
<path d="M547.5 288.501C547.5 288.701 535.8 288.801 521.3 288.801C506.8 288.801 495.1 288.701 495.1 288.501C495.1 288.301 506.8 288.201 521.3 288.201C535.7 288.301 547.5 288.401 547.5 288.501Z" fill="#383838"/>
<path d="M547.5 282.7C547.5 282.9 535.4 283 520.4 283C505.4 283 493.3 282.9 493.3 282.7C493.3 282.5 505.4 282.4 520.4 282.4C535.3 282.4 547.5 282.5 547.5 282.7Z" fill="#383838"/>
<path d="M289.4 340.402C391.186 340.402 473.7 335.298 473.7 329.002C473.7 322.706 391.186 317.602 289.4 317.602C187.614 317.602 105.1 322.706 105.1 329.002C105.1 335.298 187.614 340.402 289.4 340.402Z" fill="#1E1E1E"/>
<path d="M366.6 213.102H358V283.402H366.6V213.102Z" fill="#ECCE63"/>
<path d="M366.4 305.801H358.1C356.7 305.801 355.6 304.701 355.6 303.301V248.201C355.6 246.801 356.7 245.701 358.1 245.701H366.4C367.8 245.701 368.9 246.801 368.9 248.201V303.301C368.9 304.701 367.8 305.801 366.4 305.801Z" fill="#C29D17"/>
<path d="M396.2 300.801H394.1H330.5H325.5V308.001V316.101H330.5V308.001H394.1V316.101H399.1V308.001V300.801H396.2Z" fill="#C29D17"/>
<path d="M396.4 330.002C401.757 330.002 406.1 325.659 406.1 320.302C406.1 314.944 401.757 310.602 396.4 310.602C391.043 310.602 386.7 314.944 386.7 320.302C386.7 325.659 391.043 330.002 396.4 330.002Z" fill="#1E1E1E"/>
<path d="M400.1 320.302C400.1 322.302 398.4 324.002 396.4 324.002C394.4 324.002 392.7 322.302 392.7 320.302C392.7 318.302 394.4 316.602 396.4 316.602C398.5 316.602 400.1 318.302 400.1 320.302Z" fill="#C29D17"/>
<path d="M327.8 330.002C333.157 330.002 337.5 325.659 337.5 320.302C337.5 314.944 333.157 310.602 327.8 310.602C322.443 310.602 318.1 314.944 318.1 320.302C318.1 325.659 322.443 330.002 327.8 330.002Z" fill="#1E1E1E"/>
<path d="M331.6 320.302C331.6 322.302 329.9 324.002 327.9 324.002C325.9 324.002 324.2 322.302 324.2 320.302C324.2 318.302 325.9 316.602 327.9 316.602C329.9 316.602 331.6 318.302 331.6 320.302Z" fill="#C29D17"/>
<path d="M408.4 211.901C408.4 211.901 426.4 200.401 431 174.501C435.6 148.701 425.9 110.801 414.4 92.8013C402.9 74.8013 372 76.2013 368.7 98.3013C365.5 120.401 357.2 174.401 333.2 180.001C309.2 185.501 294 191.101 296.3 209.501C298.6 228.001 389.1 237.501 408.4 211.901Z" fill="#C29D17"/>
<path d="M260.4 148.302C260.4 148.302 251.7 147.102 246.2 147.402C240.7 147.702 222.7 155.502 222.6 158.202C222.5 160.902 260.7 162.502 260.7 162.502V160.802L260.4 148.302Z" fill="#FFCACA"/>
<path d="M226.4 159.801L245.4 152.701" stroke="#1A2E35" stroke-width="0.5"/>
<path d="M264 140.701L255.4 144.601L255.7 163.001L269.9 164.001L264 140.701Z" fill="#06396B"/>
<path d="M350.3 76.0008C350.3 76.0008 336.3 71.4008 318.2 101.601C302 128.701 301.5 128.701 301.5 128.701C301.5 128.701 264.9 135.501 263.3 141.801C261.7 148.101 264.7 164.501 264.7 164.501L323.9 161.501L350.3 76.0008Z" fill="#F181A9"/>
<path d="M308.4 152C308.4 155.5 308.5 158.9 308.7 162.3L264.7 164.5C264.7 164.5 261.7 148.1 263.3 141.8C264.9 135.5 301.5 128.7 301.5 128.7C301.5 128.7 301.9 128.7 315.9 105.4C311.2 118.4 308.4 134.5 308.4 152Z" fill="url(#paint0_linear)"/>
<path d="M350.3 76.0015L323.9 161.501L299.8 162.301C299.6 158.901 299.5 155.501 299.5 152.001C299.5 134.501 311.2 118.401 315.9 105.501C316.6 104.301 317.4 103.001 318.2 101.701C336.3 71.4015 350.3 76.0015 350.3 76.0015Z" fill="#06396B"/>
<path d="M389.1 166.602C389.5 161.902 389.8 157.002 389.8 152.002C389.8 109.002 372.8 74.1016 351.9 74.1016C330.9 74.1016 314 109.002 314 152.002C314 157.002 314.2 161.902 314.7 166.602H389.1Z" fill="url(#paint1_linear)"/>
<path d="M337.7 150.1C337.7 150.1 329.1 148.8 323.5 148.9C317.9 149.1 299.8 156.5 299.7 159.2C299.6 161.9 325.4 163.6 325.4 163.6L337.7 161.7V150.1Z" fill="#FFCACA"/>
<path d="M308.4 162.301L325.4 157.301" stroke="#1A2E35" stroke-width="0.5"/>
<path d="M323.2 152.699L313.6 156.099L301 160.399" stroke="#1A2E35" stroke-width="0.5"/>
<path d="M346.4 142.4L334.6 145.8L335 162.2L350.3 162.5L346.4 142.4Z" fill="#06396B"/>
<path d="M361.5 95.6005L370.1 130.6C370.1 130.6 350.3 134.2 346.1 140.7C344.1 143.8 342.6 162.5 342.6 162.5C342.6 162.5 391.9 166.2 410.3 161.8C428.7 157.4 428.4 133.9 400 103.6C371.6 73.2005 352.9 74.1005 352.9 74.1005L361.5 95.6005Z" fill="#06396B"/>
<path d="M363.8 101.5L380.6 133.1C380.6 133.1 350.3 134.2 346.1 140.8C344.1 143.9 342.6 162.6 342.6 162.6C342.6 162.6 391.9 166.3 410.3 161.9C428.7 157.5 428.4 134 400 103.7C371.6 73.3001 352.9 74.2001 352.9 74.2001L363.8 101.5Z" fill="url(#paint2_linear)"/>
<path d="M360.6 75.7C360.6 78.8 356 81.4 350.3 81.4C344.6 81.4 340 78.9 340 75.7C340 72.6 344.6 70 350.3 70C356 70 360.6 72.5 360.6 75.7Z" fill="#06396B"/>
<path d="M338.5 27.5996H347C352.7 27.5996 357.3 32.8996 357.3 39.2996V52.4996C357.3 52.8996 357.3 53.1996 357.2 53.5996C357.3 53.9996 357.3 54.3996 357.3 54.7996V62.7996V63.1996V71.1996C357.3 74.0996 354.9 76.4996 352 76.4996H348.6C345.7 76.4996 343.3 74.0996 343.3 71.1996V64.0996H338.4C332.7 64.0996 328.1 58.7996 328.1 52.3996V39.2996C328.2 32.8996 332.8 27.5996 338.5 27.5996Z" fill="#FFCACA"/>
<path d="M355.1 48.3L353.5 38C353.5 38 324.9 41.6 315.6 27.7C306.3 13.8 361.6 16.3 368 27.7C374.4 39.1 369.2 47.2 357.5 59L356.4 52.4L355.1 48.3Z" fill="#735441"/>
<path d="M368 48.5008C368 52.2008 365 55.2008 361.2 55.2008C357.4 55.2008 354.4 52.2008 354.4 48.5008C354.4 44.8008 357.4 41.8008 361.2 41.8008C365 41.8008 368 44.8008 368 48.5008Z" fill="#FFCACA"/>
<path d="M234 262.4L224.4 300L238.2 312.1L249.5 273.2L234 262.4Z" fill="#FFCACA"/>
<path d="M222.7 274.3L257.5 277.5L292.3 207.9L318.8 174.3L291.5 168C291.5 168 257.8 173.4 251.2 189.5C244.6 205.6 222.7 274.3 222.7 274.3Z" fill="#06396B"/>
<path d="M222.7 274.301L257.5 277.501L292.3 207.901L318.8 174.301" stroke="#1A2E35" stroke-width="0.5717"/>
<path d="M297.2 270.6L303.7 300.1L322.9 300.3L321.9 270L297.2 270.6Z" fill="#FFCACA"/>
<path d="M325.2 323.2C325.2 324.9 325.1 326.3 324.8 326.9C323.3 329.9 277.1 329.2 274.1 329.1C271.5 329 271.9 320.6 284.2 315.8C286 315.1 288 314.5 290.4 314C302.7 311.3 302.3 299.1 302.3 299.1L323.2 299.2C323.1 299.1 325.1 316.6 325.2 323.2Z" fill="url(#paint3_linear)"/>
<path d="M243.9 321.5C243.8 323.2 243.5 324.6 243.1 325.1C241.3 327.9 195.4 322.9 192.4 322.4C189.8 322 191 313.7 203.7 310.1C205.5 309.6 207.6 309.1 210 308.8C222.5 307.2 223.2 295.1 223.2 295.1L244 297.2C244.1 297.3 244.4 315 243.9 321.5Z" fill="url(#paint4_linear)"/>
<path d="M387.4 166.601C387.4 166.601 390 202.201 372.7 205.101C355.4 208.101 312.2 207.701 312.2 207.701L325.7 273.901L290.9 275.601C290.9 275.601 267.2 208.101 267.2 196.301C267.2 178.601 286.1 169.301 309 166.701C331.9 163.901 387.4 166.601 387.4 166.601Z" fill="#06396B"/>
<path d="M325.6 273.8L290.8 275.5C290.8 275.5 267.1 208 267.1 196.2C267.1 178.5 286 169.2 308.9 166.6C331.9 163.9 387.3 166.6 387.3 166.6" stroke="#1A2E35" stroke-width="2"/>
<path d="M273.1 142.602H162.1C157.4 142.602 153.6 138.802 153.6 134.102V65.1016C153.6 60.4016 157.4 56.6016 162.1 56.6016H273C277.7 56.6016 281.5 60.4016 281.5 65.1016V134.102C281.5 138.802 277.7 142.602 273.1 142.602Z" fill="#E4B91C"/>
<path d="M199.9 94.9023L182.6 161.802H209.6L225 94.9023H199.9Z" fill="#EAC951"/>
<path d="M183.7 157.303L182.6 161.803H232.6V157.303H183.7Z" fill="#EAC951"/>
<path d="M320.6 157.301H229.5V162.501H320.6V157.301Z" fill="#BF8801"/>
<path d="M455.5 161.801H116.8V173.001H455.5V161.801Z" fill="#1E1E1E"/>
<path d="M163.7 167.4H153.6V330.2H163.7V167.4Z" fill="#1E1E1E"/>
<path d="M419.2 167.4H409.1V330.2H419.2V167.4Z" fill="#1E1E1E"/>
<path d="M343.8 64.2012H343.4V66.5012L354.8 64.2012H343.8Z" fill="#D69D9D"/>
<path d="M312.9 274.701L295 200.301C294.8 199.801 293.7 195.901 295.8 192.401C297.4 189.701 300.5 188.001 304.9 187.201C309.4 186.501 318.6 187.101 329.3 187.801C347 189.001 371.2 190.601 376.6 185.301C380.1 181.801 381.8 172.901 381.8 172.801L384.1 173.201C384 173.601 382.3 182.901 378.3 186.901C372.2 192.901 349.4 191.401 329.3 190.001C318.8 189.301 309.7 188.701 305.5 189.401C301.8 190.001 299.3 191.401 298 193.501C296.3 196.301 297.4 199.501 297.4 199.601V199.701L315.3 274.201L312.9 274.701Z" fill="url(#paint5_linear)"/>
<path d="M329.3 15.0007C329.3 15.0007 309.6 13.3007 305 18.0007C299.5 23.5007 386 50.7007 387.4 48.3007C388.8 45.9007 382.5 37.1007 365.9 27.0007C366.1 27.0007 350.7 17.8007 329.3 15.0007Z" fill="#E4B91C"/>
<path d="M370.2 21.3C365 21.5 359.7 20.1 354.4 19C345.7 17.2 336.3 14.5 328.6 10C325.8 12.7 324.2 15 324.2 15C345.6 29.3 371.6 30.5 371.6 30.5C371.6 30.5 371.5 26.5 370.2 21.3Z" fill="#EAC951"/>
<path d="M370.7 23.4009C369.1 15.7009 365 4.10095 353.8 1.30095C342.5 -1.59905 333.2 5.30095 328.2 10.3009C340.5 17.2009 356 22.4009 370.7 23.4009Z" fill="#E4B91C"/>
<path d="M35.2002 122.6C35.2002 122.6 30.7002 126 30.7002 130.5C30.7002 135 30.7002 153.6 30.7002 153.6H64.4002V129.5C64.4002 129.5 63.9002 123.6 60.0002 122.6H35.2002Z" fill="#1E1E1E"/>
<path d="M33.2002 152.4C33.0002 150.2 32.7002 147.5 32.7002 145.3C32.8002 143 34.4002 140.7 36.6002 140.1C38.4002 139.6 40.2002 140.3 42.1002 140.6C45.0002 141.1 48.1002 140.6 50.8002 139.3C53.1002 138.2 55.2002 136.4 57.7002 136.2C59.4002 136 61.3002 136.8 61.7002 138.4C61.9002 139.2 61.8002 140 61.7002 140.7C61.2002 144.3 61.9002 148.7 61.9002 152.1C52.4002 152.5 42.7002 152.2 33.2002 152.4Z" fill="#383838"/>
<path d="M28.5 156.9L33.6 153.6H64.3L69.2 156.9H28.5Z" fill="#383838"/>
<path d="M27.6001 81.8V116.2H69.3001V156.9H28.5001V166.7H98.8001V81.8C98.8001 77.8 95.5001 74.5 91.5001 74.5H34.9001C30.9001 74.5 27.6001 77.8 27.6001 81.8Z" fill="#1E1E1E"/>
<path d="M98.8001 82.6008C98.8001 82.8008 82.8001 82.9008 63.2001 82.9008C43.5001 82.9008 27.6001 82.8008 27.6001 82.6008C27.6001 82.4008 43.5001 82.3008 63.2001 82.3008C82.9001 82.3008 98.8001 82.4008 98.8001 82.6008Z" fill="#383838"/>
<path d="M79.0998 166.699C78.8998 166.699 78.7998 146.099 78.7998 120.699C78.7998 95.2992 78.8998 74.6992 79.0998 74.6992C79.2998 74.6992 79.3998 95.2992 79.3998 120.699C79.3998 146.099 79.1998 166.699 79.0998 166.699Z" fill="#383838"/>
<path d="M23.8 142.5L23.4 132.1C23.3 129.1 24 126.1 25.7 123.6C27 121.6 29 119.9 31.8 119.9C38.7 119.9 59.9 119.9 59.9 119.9V122.6H32.3C32.3 122.6 27.3 123.1 26.7 129.9C26 136.7 26.7 142.5 26.7 142.5H23.8Z" fill="#383838"/>
<path d="M103 166.699H3.5V299.999H103V166.699Z" fill="#1E1E1E"/>
<path d="M24.5998 300H12.2998V322.2H24.5998V300Z" fill="#1E1E1E"/>
<path d="M95.5998 300H83.2998V322.2H95.5998V300Z" fill="#1E1E1E"/>
<path d="M95.1001 284.799C95.1001 284.799 95.1001 284.599 95.1001 284.199C95.1001 283.799 95.1001 283.199 95.1001 282.499C95.1001 280.999 95.1001 278.799 95.1001 275.999C95.1001 270.299 95.1001 262.099 95.0001 251.899L95.1001 251.999C73.7001 251.999 43.3001 251.999 9.7001 252.099L9.9001 251.899C9.9001 263.399 9.9001 274.499 9.9001 284.799L9.7001 284.599C34.4001 284.599 55.7001 284.699 70.9001 284.699C78.5001 284.699 84.5001 284.699 88.7001 284.799C90.8001 284.799 92.4001 284.799 93.5001 284.799C94.0001 284.799 94.4001 284.799 94.7001 284.799C95.0001 284.799 95.1001 284.799 95.1001 284.799C95.1001 284.799 95.0001 284.799 94.7001 284.799C94.4001 284.799 94.0001 284.799 93.5001 284.799C92.4001 284.799 90.8001 284.799 88.8001 284.799C84.6001 284.799 78.6001 284.799 71.1001 284.899C55.9001 284.899 34.5001 284.999 9.8001 284.999H9.6001V284.799C9.6001 274.499 9.6001 263.399 9.6001 251.899V251.699H9.8001C43.4001 251.699 73.8001 251.699 95.2001 251.799H95.3001V251.899C95.3001 262.099 95.2001 270.399 95.2001 276.099C95.2001 278.899 95.2001 281.099 95.2001 282.599C95.2001 283.299 95.2001 283.899 95.2001 284.299C95.1001 284.599 95.1001 284.799 95.1001 284.799Z" fill="#383838"/>
<path d="M55 268.299C55 268.299 55 268.099 54.8 267.699C54.7 267.299 54.4 266.799 53.9 266.399C53.4 265.999 52.5 265.799 51.6 266.099C50.8 266.399 50 267.299 50 268.299C50 269.299 50.7 270.299 51.6 270.499C52.5 270.799 53.3 270.599 53.9 270.199C54.5 269.799 54.7 269.199 54.8 268.899C55 268.599 55 268.299 55 268.299C55 268.299 55.1 268.499 55 268.899C54.9 269.299 54.7 269.899 54.1 270.399C53.5 270.899 52.5 271.199 51.5 270.799C50.5 270.499 49.6 269.399 49.7 268.199C49.7 266.999 50.6 265.899 51.5 265.599C52.5 265.199 53.5 265.499 54.1 265.999C54.7 266.499 55 267.099 55 267.499C55.1 268.099 55 268.299 55 268.299Z" fill="#383838"/>
<path d="M95.1 245.399C95.1 245.399 95.1 245.199 95.1 244.799C95.1 244.399 95.1 243.799 95.1 243.099C95.1 241.599 95.1 239.399 95.1 236.599C95.1 230.899 95.1 222.699 95 212.499L95.1 212.599C73.7 212.599 43.3 212.599 9.7 212.699L9.9 212.499C9.9 223.999 9.9 235.099 9.9 245.399L9.7 245.199C34.4 245.199 55.7 245.299 70.9 245.299C78.5 245.299 84.5 245.299 88.7 245.399C90.8 245.399 92.4 245.399 93.5 245.399C94 245.399 94.4 245.399 94.7 245.399C95 245.399 95.1 245.399 95.1 245.399C95.1 245.399 95 245.399 94.7 245.399C94.4 245.399 94 245.399 93.5 245.399C92.4 245.399 90.8 245.399 88.8 245.399C84.6 245.399 78.6 245.399 71.1 245.499C55.9 245.499 34.5 245.599 9.8 245.599H9.5V245.399C9.5 235.099 9.5 223.999 9.5 212.499V212.299H9.7C43.3 212.299 73.7 212.299 95.1 212.399H95.2V212.499C95.2 222.699 95.1 230.999 95.1 236.699C95.1 239.499 95.1 241.699 95.1 243.199C95.1 243.899 95.1 244.499 95.1 244.899C95.1 245.199 95.1 245.399 95.1 245.399Z" fill="#383838"/>
<path d="M55 228.899C55 228.899 55 228.699 54.8 228.299C54.7 227.899 54.4 227.399 53.9 226.999C53.4 226.599 52.5 226.399 51.6 226.699C50.8 226.999 50 227.899 50 228.899C50 229.899 50.7 230.899 51.6 231.099C52.5 231.399 53.3 231.199 53.9 230.799C54.5 230.399 54.7 229.799 54.8 229.499C55 229.099 55 228.899 55 228.899C55 228.899 55.1 229.099 55 229.499C54.9 229.899 54.7 230.499 54.1 230.999C53.5 231.499 52.5 231.799 51.5 231.399C50.5 231.099 49.6 229.999 49.7 228.799C49.7 227.599 50.6 226.499 51.5 226.199C52.5 225.799 53.5 226.099 54.1 226.599C54.7 227.099 55 227.699 55 228.099C55.1 228.699 55 228.899 55 228.899Z" fill="#383838"/>
<path d="M95.1001 206.498C95.1001 206.498 95.1001 206.298 95.1001 205.898C95.1001 205.498 95.1001 204.898 95.1001 204.198C95.1001 202.698 95.1001 200.498 95.1001 197.698C95.1001 191.998 95.1001 183.798 95.0001 173.598L95.1001 173.698C73.7001 173.698 43.3001 173.698 9.7001 173.798L9.9001 173.598C9.9001 185.098 9.9001 196.198 9.9001 206.498L9.7001 206.298C34.4001 206.298 55.7001 206.398 70.9001 206.398C78.5001 206.398 84.5001 206.398 88.7001 206.498C90.8001 206.498 92.4001 206.498 93.5001 206.498C94.0001 206.498 94.4001 206.498 94.7001 206.498C95.0001 206.498 95.1001 206.498 95.1001 206.498C95.1001 206.498 95.0001 206.498 94.7001 206.498C94.4001 206.498 94.0001 206.498 93.5001 206.498C92.4001 206.498 90.8001 206.498 88.8001 206.498C84.6001 206.498 78.6001 206.498 71.1001 206.598C55.9001 206.598 34.5001 206.698 9.8001 206.698H9.6001V206.498C9.6001 196.198 9.6001 185.098 9.6001 173.598V173.398H9.8001C43.4001 173.398 73.8001 173.398 95.2001 173.498H95.3001V173.598C95.3001 183.798 95.2001 192.098 95.2001 197.798C95.2001 200.598 95.2001 202.798 95.2001 204.298C95.2001 204.998 95.2001 205.598 95.2001 205.998C95.1001 206.298 95.1001 206.498 95.1001 206.498Z" fill="#383838"/>
<path d="M55 189.999C55 189.999 55 189.799 54.8 189.399C54.7 188.999 54.4 188.499 53.9 188.099C53.4 187.699 52.5 187.499 51.6 187.799C50.8 188.099 50 188.999 50 189.999C50 190.999 50.7 191.999 51.6 192.199C52.5 192.499 53.3 192.299 53.9 191.899C54.5 191.499 54.7 190.899 54.8 190.599C55 190.299 55 189.999 55 189.999C55 189.999 55.1 190.199 55 190.599C54.9 190.999 54.7 191.599 54.1 192.099C53.5 192.599 52.5 192.899 51.5 192.499C50.5 192.199 49.6 191.099 49.7 189.899C49.7 188.699 50.6 187.599 51.5 187.299C52.5 186.899 53.5 187.199 54.1 187.699C54.7 188.199 55 188.799 55 189.199C55.1 189.799 55 189.999 55 189.999Z" fill="#383838"/>
<path d="M97.8001 166.7C97.8001 166.9 82.3001 167 63.2001 167C44.1001 167 28.6001 166.9 28.6001 166.7C28.6001 166.5 44.1001 166.4 63.2001 166.4C82.3001 166.4 97.8001 166.5 97.8001 166.7Z" fill="#383838"/>
<defs>
<linearGradient id="paint0_linear" x1="285.975" y1="151.74" x2="329.079" y2="116.993" gradientUnits="userSpaceOnUse">
<stop stop-color="#094C90"/>
<stop offset="1" stop-color="#0C69C8"/>
</linearGradient>
<linearGradient id="paint1_linear" x1="351.888" y1="166.554" x2="351.888" y2="89.8919" gradientUnits="userSpaceOnUse">
<stop stop-color="#094C90"/>
<stop offset="1" stop-color="#0C69C8"/>
</linearGradient>
<linearGradient id="paint2_linear" x1="382.772" y1="162.505" x2="382.772" y2="95.9317" gradientUnits="userSpaceOnUse">
<stop stop-color="#094C90"/>
<stop offset="1" stop-color="#0C69C8"/>
</linearGradient>
<linearGradient id="paint3_linear" x1="300.643" y1="331.786" x2="296.972" y2="306.418" gradientUnits="userSpaceOnUse">
<stop stop-color="#094C90"/>
<stop offset="1" stop-color="#0C69C8"/>
</linearGradient>
<linearGradient id="paint4_linear" x1="219.813" y1="327.916" x2="216.961" y2="302.057" gradientUnits="userSpaceOnUse">
<stop stop-color="#094C90"/>
<stop offset="1" stop-color="#0C69C8"/>
</linearGradient>
<linearGradient id="paint5_linear" x1="294.509" y1="223.742" x2="383.898" y2="223.742" gradientUnits="userSpaceOnUse">
<stop stop-color="#2F91F3"/>
<stop offset="1" stop-color="#7AB8F7"/>
</linearGradient>
</defs>
</svg>
