<svg width="34" height="34" viewBox="0 0 34 34" fill="none" xmlns="http://www.w3.org/2000/svg">
<path opacity="0.4" d="M9.91667 15.5834C9.13426 15.5834 8.5 16.2176 8.5 17V22.6667C8.5 27.3611 12.3056 31.1667 17 31.1667H18.4167C23.1111 31.1667 26.9167 27.3611 26.9167 22.6667V17C26.9167 16.2176 26.2824 15.5834 25.5 15.5834H9.91667Z" fill="#200E32"/>
<path d="M17 5.66667C17 4.88427 16.361 4.23763 15.5893 4.36653C11.5663 5.03853 8.5 8.53618 8.5 12.75C8.5 13.5324 9.13426 14.1667 9.91667 14.1667H15.5833C16.3657 14.1667 17 13.5324 17 12.75V5.66667Z" fill="#200E32"/>
<path opacity="0.4" d="M18.416 12.75C18.416 13.5324 19.0503 14.1667 19.8327 14.1667H25.4993C26.2818 14.1667 26.916 13.5324 26.916 12.75C26.916 8.53618 23.8498 5.03853 19.8268 4.36653C19.055 4.23763 18.416 4.88426 18.416 5.66667V12.75Z" fill="#200E32"/>
</svg>
