<svg width="14" height="14" viewBox="0 0 14 14" fill="none" xmlns="http://www.w3.org/2000/svg">
<path d="M0.583496 11.667V8.16699H4.0835" stroke="#696969" stroke-linecap="round" stroke-linejoin="round"/>
<path d="M13.4165 2.33301V5.83301H9.9165" stroke="#696969" stroke-linecap="round" stroke-linejoin="round"/>
<path d="M2.04766 5.25057C2.34351 4.41453 2.84632 3.66706 3.50918 3.0779C4.17205 2.48874 4.97335 2.0771 5.83833 1.88139C6.70331 1.68568 7.60377 1.71227 8.45569 1.95869C9.30761 2.20511 10.0832 2.66332 10.7102 3.29057L13.4168 5.83391M0.583496 8.16724L3.29016 10.7106C3.9171 11.3378 4.69271 11.796 5.54463 12.0425C6.39656 12.2889 7.29702 12.3155 8.162 12.1198C9.02697 11.924 9.82828 11.5124 10.4911 10.9232C11.154 10.3341 11.6568 9.58662 11.9527 8.75057" stroke="#696969" stroke-linecap="round" stroke-linejoin="round"/>
</svg>
