<svg width="24" height="24" viewBox="0 0 24 24" fill="none" xmlns="http://www.w3.org/2000/svg">
<path fill-rule="evenodd" clip-rule="evenodd" d="M18.865 5.12352C19.302 5.27652 19.594 5.68852 19.594 6.15152V12.9245C19.594 14.8175 18.906 16.6245 17.691 18.0245C17.08 18.7295 16.307 19.2785 15.486 19.7225L11.928 21.6445L8.364 19.7215C7.542 19.2775 6.768 18.7295 6.156 18.0235C4.94 16.6235 4.25 14.8155 4.25 12.9205V6.15152C4.25 5.68852 4.542 5.27652 4.979 5.12352L11.561 2.81052C11.795 2.72852 12.05 2.72852 12.283 2.81052L18.865 5.12352Z" stroke="#F50A5F" stroke-width="1.5" stroke-linecap="round" stroke-linejoin="round"/>
<path d="M9.32227 11.9171L11.2143 13.8101L15.1123 9.91211" stroke="#F50A5F" stroke-width="1.5" stroke-linecap="round" stroke-linejoin="round"/>
</svg>
