<svg width="594" height="474" viewBox="0 0 594 474" fill="none" xmlns="http://www.w3.org/2000/svg">
<path d="M100.4 467.7C150.05 467.7 190.3 465.507 190.3 462.8C190.3 460.094 150.05 457.9 100.4 457.9C50.7496 457.9 10.5 460.094 10.5 462.8C10.5 465.507 50.7496 467.7 100.4 467.7Z" fill="#1E1E1E"/>
<path d="M261.2 472.999C310.85 472.999 351.1 470.805 351.1 468.099C351.1 465.393 310.85 463.199 261.2 463.199C211.549 463.199 171.3 465.393 171.3 468.099C171.3 470.805 211.549 472.999 261.2 472.999Z" fill="#1E1E1E"/>
<path d="M440.8 411.999C490.45 411.999 530.7 409.805 530.7 407.099C530.7 404.393 490.45 402.199 440.8 402.199C391.149 402.199 350.9 404.393 350.9 407.099C350.9 409.805 391.149 411.999 440.8 411.999Z" fill="#1E1E1E"/>
<path d="M178.2 421.101C227.85 421.101 268.1 418.907 268.1 416.201C268.1 413.495 227.85 411.301 178.2 411.301C128.549 411.301 88.2998 413.495 88.2998 416.201C88.2998 418.907 128.549 421.101 178.2 421.101Z" fill="#1E1E1E"/>
<path d="M539.6 2.5H161.3V262.6H539.6V2.5Z" fill="#1E1E1E"/>
<path fill-rule="evenodd" clip-rule="evenodd" d="M207.9 152.701L211.4 156.201L211.8 155.801L208.3 152.301L207.9 152.701ZM218.6 163.301L215.1 159.801L215.5 159.401L219 162.901L218.6 163.301ZM222.1 166.901L225.6 170.401L226 170.001L222.5 166.501L222.1 166.901ZM232.7 177.501L229.2 174.001L229.6 173.601L233.1 177.101L232.7 177.501ZM236.5 180.801H241.5V180.301H236.5V180.801ZM251.6 180.801H246.6V180.301H251.6V180.801ZM256.6 180.801H261.6V180.301H256.6V180.801ZM271.6 180.801H266.6V180.301H271.6V180.801ZM276.6 180.801H281.6V180.301H276.6V180.801ZM291.6 180.801H286.6V180.301H291.6V180.801ZM296.6 180.801H301.6V180.301H296.6V180.801ZM311.6 180.801H306.6V180.301H311.6V180.801ZM316.6 180.801H321.6V180.301H316.6V180.801ZM331.7 180.801H326.7V180.301H331.7V180.801ZM341.7 180.801H336.7V180.301H341.7V180.801Z" fill="#1E1E1E"/>
<path fill-rule="evenodd" clip-rule="evenodd" d="M285.8 139.5H290.8V139H285.8V139.5ZM300.8 139.5H295.8V139H300.8V139.5ZM305.8 139.5H310.8V139H305.8V139.5ZM320.8 139.5H315.8V139H320.8V139.5ZM325.8 139.5H330.8V139H325.8V139.5ZM340.8 139.5H335.8V139H340.8V139.5ZM345.8 139.5H350.8V139H345.8V139.5ZM360.9 139.5H355.9V139H360.9V139.5ZM365.9 139.5H370.9V139H365.9V139.5ZM380.9 139.5H375.9V139H380.9V139.5ZM385.9 139.5H390.9V139H385.9V139.5ZM400.9 139.5H395.9V139H400.9V139.5ZM405.9 139.5H410.9V139H405.9V139.5ZM415.9 139.5H419.4V139H415.9V139.5Z" fill="#1E1E1E"/>
<path fill-rule="evenodd" clip-rule="evenodd" d="M403.5 48.3008H408.5V47.8008H403.5V48.3008ZM296.4 55.0008L296 54.6008L299.5 51.1008L299.9 51.5008L296.4 55.0008ZM288.9 61.7008L289.3 62.1008L292.8 58.6008L292.4 58.2008L288.9 61.7008ZM282.2 69.2008L281.8 68.8008L285.3 65.3008L285.7 65.7008L282.2 69.2008ZM275.1 76.2008L274.7 75.8008L278.2 72.3008L278.6 72.7008L275.1 76.2008ZM398.5 48.3008H393.5V47.8008H398.5V48.3008ZM383.5 48.3008H388.5V47.8008H383.5V48.3008ZM378.5 48.3008H373.5V47.8008H378.5V48.3008ZM363.4 48.3008H368.4V47.8008H363.4V48.3008ZM358.4 48.3008H353.4V47.8008H358.4V48.3008ZM343.4 48.3008H348.4V47.8008H343.4V48.3008ZM338.4 48.3008H333.4V47.8008H338.4V48.3008ZM323.4 48.3008H328.4V47.8008H323.4V48.3008ZM318.4 48.3008H313.4V47.8008H318.4V48.3008ZM303.4 48.3008H308.4V47.8008H303.4V48.3008Z" fill="#121212"/>
<path fill-rule="evenodd" clip-rule="evenodd" d="M414.3 83.1016H419.3V82.6016H414.3V83.1016ZM307.2 89.9016L306.8 89.5016L310.3 86.0016L310.7 86.4016L307.2 89.9016ZM299.7 96.6016L300.1 97.0016L303.6 93.5016L303.2 93.1016L299.7 96.6016ZM293 104.002L292.6 103.602L296.1 100.102L296.5 100.502L293 104.002ZM285.9 111.102L285.5 110.702L289 107.202L289.4 107.602L285.9 111.102ZM409.3 83.1016H404.3V82.6016H409.3V83.1016ZM394.3 83.1016H399.3V82.6016H394.3V83.1016ZM389.3 83.1016H384.3V82.6016H389.3V83.1016ZM374.3 83.1016H379.3V82.6016H374.3V83.1016ZM369.3 83.1016H364.3V82.6016H369.3V83.1016ZM354.2 83.1016H359.2V82.6016H354.2V83.1016ZM349.2 83.1016H344.2V82.6016H349.2V83.1016ZM334.2 83.1016H339.2V82.6016H334.2V83.1016ZM329.2 83.1016H324.2V82.6016H329.2V83.1016ZM314.2 83.1016H319.2V82.6016H314.2V83.1016Z" fill="#121212"/>
<path d="M429.8 46.6016H506.6C507.7 46.6016 508.6 45.7016 508.6 44.6016C508.6 43.5016 507.7 42.6016 506.6 42.6016H429.8C428.7 42.6016 427.8 43.5016 427.8 44.6016C427.8 45.7016 428.7 46.6016 429.8 46.6016Z" fill="#121212"/>
<path d="M506.5 51.002H429.7C428.6 51.002 427.7 51.902 427.7 53.002C427.7 54.102 428.6 55.002 429.7 55.002H506.5C507.6 55.002 508.5 54.102 508.5 53.002C508.5 51.902 507.6 51.002 506.5 51.002Z" fill="#121212"/>
<path d="M429.8 80.7012H506.6C507.7 80.7012 508.6 79.8012 508.6 78.7012C508.6 77.6012 507.7 76.7012 506.6 76.7012H429.8C428.7 76.7012 427.8 77.6012 427.8 78.7012C427.8 79.8012 428.7 80.7012 429.8 80.7012Z" fill="#121212"/>
<path d="M506.5 85.1016H429.7C428.6 85.1016 427.7 86.0016 427.7 87.1016C427.7 88.2016 428.6 89.1016 429.7 89.1016H506.5C507.6 89.1016 508.5 88.2016 508.5 87.1016C508.5 86.0016 507.6 85.1016 506.5 85.1016Z" fill="#121212"/>
<path d="M339.8 187.5H263C261.9 187.5 261 188.4 261 189.5C261 190.6 261.9 191.5 263 191.5H339.8C340.9 191.5 341.8 190.6 341.8 189.5C341.8 188.4 340.9 187.5 339.8 187.5Z" fill="#121212"/>
<path d="M339.8 195.801H263C261.9 195.801 261 196.701 261 197.801C261 198.901 261.9 199.801 263 199.801H339.8C340.9 199.801 341.8 198.901 341.8 197.801C341.8 196.701 340.9 195.801 339.8 195.801Z" fill="#121212"/>
<path d="M340.7 152.4H417.5C418.6 152.4 419.5 151.5 419.5 150.4C419.5 149.3 418.6 148.4 417.5 148.4H340.7C339.6 148.4 338.7 149.3 338.7 150.4C338.7 151.5 339.6 152.4 340.7 152.4Z" fill="#121212"/>
<path d="M417.4 156.801H340.6C339.5 156.801 338.6 157.701 338.6 158.801C338.6 159.901 339.5 160.801 340.6 160.801H417.4C418.5 160.801 419.4 159.901 419.4 158.801C419.4 157.701 418.5 156.801 417.4 156.801Z" fill="#121212"/>
<path d="M238.2 13.8008H181.2C179.1 13.8008 177.4 15.5008 177.4 17.6008C177.4 19.7008 179.1 21.4008 181.2 21.4008H238.2C240.3 21.4008 242 19.7008 242 17.6008C242 15.5008 240.3 13.8008 238.2 13.8008Z" fill="#121212"/>
<path d="M314.3 13.8008H257.3C255.2 13.8008 253.5 15.5008 253.5 17.6008C253.5 19.7008 255.2 21.4008 257.3 21.4008H314.3C316.4 21.4008 318.1 19.7008 318.1 17.6008C318.1 15.5008 316.4 13.8008 314.3 13.8008Z" fill="#121212"/>
<path d="M444.9 224.201H187.6C185.9 224.201 184.6 225.601 184.6 227.201C184.6 228.901 186 230.201 187.6 230.201H444.9C446.6 230.201 447.9 228.801 447.9 227.201C447.9 225.601 446.6 224.201 444.9 224.201Z" fill="#121212"/>
<path d="M369.5 235.4H187.2C185.8 235.4 184.7 236.5 184.7 237.9V238.8C184.7 240.2 185.8 241.3 187.2 241.3H369.5C370.9 241.3 372 240.2 372 238.8V237.9C372 236.5 370.9 235.4 369.5 235.4Z" fill="#121212"/>
<path d="M234.7 151.301C252.925 151.301 267.7 136.526 267.7 118.301C267.7 100.075 252.925 85.3008 234.7 85.3008C216.474 85.3008 201.7 100.075 201.7 118.301C201.7 136.526 216.474 151.301 234.7 151.301Z" fill="#121212"/>
<path d="M128.8 296.7C128.1 279.3 126.5 264.2 124.7 253.7C121.8 236.9 119.1 227.2 119.1 227.1C118.7 225.6 113.1 219.6 100.6 219.8C88.1002 220 89.3002 227.8 89.3002 227.8C89.3002 228.1 89.3002 228.3 89.4002 228.5C89.5002 228.9 101 269.8 100.5 322.7C100.5 323.4 100.4 324.7 100.5 325.6C100.5 325.6 129.4 326.3 129.4 325.6C130.3 321 129.8 308.2 128.8 296.7Z" fill="#E6BE2E"/>
<path d="M132.4 322.4C132.4 323.1 132 323.7 131.5 323.7C131 323.7 130.6 323.1 130.6 322.4H105.8C105.8 323.1 105.4 323.7 104.9 323.7C104.4 323.7 104 323.1 104 322.3C104.1 307.2 103.3 293.1 101.9 280.6C98.6002 249.5 92.5002 228.7 92.4002 228.5C92.3002 228.3 92.3002 228.1 92.3002 227.8C92.3002 227.8 91.1002 220 103.6 219.8C116.1 219.6 121.7 225.6 122.1 227.1C122.1 227.2 123.6 232.7 125.6 242.5C126.3 245.8 127 249.5 127.7 253.7C129.5 264.2 131.1 279.4 131.8 296.7C133.1 308.2 133.4 317.8 132.4 322.4Z" fill="#E6BE2E"/>
<path d="M132.4 322.4C132.4 323.1 132 323.7 131.5 323.7C131 323.7 130.6 323.1 130.6 322.4H105.8C105.8 323.1 105.4 323.7 104.9 323.7C104.4 323.7 104 323.1 104 322.3C104.1 307.2 103.3 293.1 101.9 280.6C106 260.9 121.8 245.8 125.6 242.4C126.3 245.7 127 249.4 127.7 253.6C129.5 264.1 131.1 279.3 131.8 296.6C133.1 308.2 133.4 317.8 132.4 322.4Z" fill="#E6BE2E"/>
<path fill-rule="evenodd" clip-rule="evenodd" d="M107.3 322.001V322.201H107.4C107.5 322.201 107.5 322.101 107.5 322.001C107.5 321.001 109.6 320.801 112.9 320.801C113.6 320.801 114.3 320.801 115.1 320.801H115.2C116.2 320.801 117.2 320.801 118.2 320.801C121.3 320.801 125.5 320.701 129.6 320.001C132.3 319.501 130.5 299.401 128.6 280.501C128.3 277.301 128 274.801 127.9 273.301C126.7 257.301 119.6 228.701 119.5 228.501C119.2 227.301 114.9 222.801 105.6 223.001C102.1 223.101 99.6 223.901 98.2 225.601C96.8 227.301 97 229.101 97.1 229.201C97.1 229.401 97.1 229.601 97.2 229.801C97.2 230.001 103.6 266.801 104.7 275.701C106.6 290.301 107.3 321.501 107.3 322.001ZM105.8 223.201C105.9 223.201 106.1 223.201 106.2 223.201C115 223.201 119.1 227.401 119.4 228.501C119.5 228.801 126.6 257.201 127.8 273.201C127.9 274.701 128.2 277.201 128.5 280.401C129.8 293.001 132.4 319.101 129.8 319.601C125.7 320.301 121.6 320.401 118.4 320.401C117.3 320.401 116.3 320.401 115.4 320.401C114.6 320.401 113.8 320.401 113 320.401C110.1 320.401 108.2 320.501 107.6 321.201C107.5 316.701 106.8 289.301 105.2 275.301C104.1 266.201 97.7 229.501 97.7 229.401C97.7 229.301 97.6 229.101 97.6 228.901C97.6 228.801 97.4 227.101 98.7 225.501C100 224.101 102.4 223.301 105.8 223.201Z" fill="#E6BE2E"/>
<path d="M102.3 323.799H199.3C199.3 323.799 197 314.799 140.8 316.099C101.1 316.999 102.3 323.799 102.3 323.799Z" fill="#E6BE2E"/>
<path d="M94.4004 418C105.7 361.8 102.8 327.3 102.7 326.9C102.7 326 104.3 325.2 105.2 325.2C106.1 325.2 110 324.9 110.4 325.7C111 326.7 113.3 369.1 96.5004 418H94.4004Z" fill="#E6BE2E"/>
<path d="M185 418C173.7 361.8 176.6 327.3 176.7 326.9C176.7 326 175.1 325.2 174.2 325.2C173.3 325.2 169.4 324.9 169 325.7C168.4 326.7 166.1 369.1 182.9 418H185Z" fill="#E6BE2E"/>
<path d="M203 418C191.7 361.8 194.6 327.3 194.7 326.9C194.7 326 193.1 325.2 192.2 325.2C191.3 325.2 187.4 324.9 187 325.7C186.4 326.7 184.1 369.1 200.9 418H203Z" fill="#E6BE2E"/>
<path d="M112.5 413.1C123.8 356.9 120.9 327.3 120.8 326.9C120.8 326 122.4 325.2 123.3 325.2C124.2 325.2 128.1 324.9 128.5 325.7C129.1 326.7 131.4 364.3 114.6 413.1H112.5Z" fill="#E6BE2E"/>
<path d="M198.9 326.7H102.9C101.5 326.7 100.4 325.6 100.4 324.2V324C100.4 322.6 101.5 321.5 102.9 321.5H198.9C200.3 321.5 201.4 322.6 201.4 324V324.2C201.4 325.5 200.3 326.7 198.9 326.7Z" fill="#E6BE2E"/>
<path d="M179.4 262.4C179.4 262.4 197.1 282.7 200.8 282.3C204.5 282 206.8 280.8 210 282.3C212.3 283.4 219.7 289.3 217.7 288.9C215.7 288.5 212.2 288.1 211.2 288C209.9 287.9 207.8 287.8 206.4 287.6C205.5 287.4 202.3 287.4 201.2 287.3C196.5 287.1 174.4 274.2 174.4 274.2L179.4 262.4Z" fill="#EFB1B1"/>
<path d="M167.1 159.5C167.1 159.5 166.3 149.3 151.7 152C147.8 152.7 145.2 145.8 138.8 148.3C125.2 153.6 124.4 146.6 120.4 156.4C118.7 160.5 108.3 165.3 111.5 172.4C114.7 179.5 109.3 184.3 113.1 189.8C115.1 192.7 114.3 197.8 123.5 198C128.1 198.1 135.2 206.6 140.4 208.1C145.5 209.6 161 207.4 160.4 200.4C159.9 194.9 166.4 195.4 170.3 189C173.7 183.5 167.6 182.1 170.9 173.1C173.2 166.6 166.9 165 167.1 159.5Z" fill="#735441"/>
<path d="M247.6 409.901C247.3 413.301 252 414.101 257.5 414.401C263 414.701 261.3 415.801 268.9 417.201C276.4 418.601 279.4 416.501 280 415.501C280.5 414.601 277 413.201 273.3 411.601C272.8 411.401 272.4 411.201 271.9 411.001C267.7 409.201 265.4 405.401 262.1 401.901C259 398.601 256.1 388.001 256.1 388.001L245.9 385.801C245.9 385.801 248.8 395.301 249.8 399.401C250.4 401.801 249.5 404.501 248.8 406.501C248.1 407.601 247.7 408.701 247.6 409.901Z" fill="#FFCACA"/>
<path d="M257.501 414.4C263.001 414.7 261.301 415.8 268.901 417.2C276.401 418.6 279.401 416.5 280.001 415.5C280.501 414.6 277.001 413.2 273.301 411.6L273.201 411.7C273.201 411.7 267.901 413.5 261.801 411.8C256.801 410.4 252.001 407.5 248.601 406.5C248.201 407.6 247.801 408.7 247.701 409.9C247.301 413.3 252.001 414.1 257.501 414.4Z" fill="url(#paint0_linear)"/>
<path d="M148.5 278C148.5 278 213.7 283.5 226.5 291.6C239.3 299.7 259.8 393.7 259.8 393.7C259.8 393.7 258.5 394.7 255.7 395C253.1 395.3 247.3 393.7 247.3 393.7C247.3 393.7 217.8 351.6 215.7 341C213.6 330.4 214.1 320.9 209.4 320.7C204.7 320.4 145.7 327.9 136.8 312.2C127.9 296.5 135.3 280.9 135.3 280.9L148.5 278Z" fill="#06396B"/>
<path d="M224.2 410.301C223.9 413.701 228.6 414.501 234.1 414.801C239.6 415.101 237.9 416.201 245.5 417.601C253 419.001 256 416.901 256.6 415.901C257.1 415.001 253.6 413.601 249.9 412.001C249.4 411.801 249 411.601 248.5 411.401C244.3 409.601 242 405.801 238.7 402.301C235.6 399.001 232.7 388.401 232.7 388.401L222.5 386.201C222.5 386.201 225.4 395.701 226.4 399.801C227 402.201 226.1 404.901 225.4 406.901C224.7 407.901 224.3 409.101 224.2 410.301Z" fill="#FFCACA"/>
<path d="M234.1 414.8C239.6 415.1 237.9 416.2 245.5 417.6C253 419 256 416.9 256.6 415.9C257.1 415 253.6 413.6 249.9 412L249.8 412.1C249.8 412.1 244.5 413.9 238.4 412.2C233.4 410.8 228.6 407.9 225.2 406.9C224.8 408 224.4 409.1 224.3 410.3C223.9 413.7 228.6 414.5 234.1 414.8Z" fill="url(#paint1_linear)"/>
<path d="M135.1 282.301C135.1 282.301 195.4 285.201 207.9 293.701C220.4 302.301 237.2 397.001 237.2 397.001C237.2 397.001 235.9 398.001 233.1 398.201C230.5 398.401 224.7 396.601 224.7 396.601C224.7 396.601 196.9 353.401 195.2 342.801C193.5 332.101 194.4 322.701 189.7 322.301C185 321.901 125.8 327.001 117.5 310.901C109.2 294.801 135.1 282.301 135.1 282.301Z" fill="#06396B"/>
<path d="M117 205.201C117.1 205.201 117.1 205.201 117 205.201C117.6 204.601 118.1 204.101 118.8 203.601C123.7 200.201 132.5 199.401 132.5 199.401C132.5 199.401 133.5 199.301 135 199.201C136.2 196.201 137.5 191.801 137.9 185.301L138.8 185.501L153.5 189.401C153.5 189.401 152.8 194.101 152.5 198.501C152.4 199.501 152.4 200.401 152.4 201.301C152.8 201.501 153.2 201.601 153.6 201.801C153.6 201.801 162 202.801 164 204.901C166 207.001 170 221.301 171 223.801L114.5 224.701C114.4 224.901 112.9 210.101 117 205.201Z" fill="#FFCACA"/>
<path d="M114.9 306.4C121.6 307 144.1 293.4 151.7 289C151.8 288.9 152 288.8 152.1 288.8C155.2 287 159.6 286.1 163.8 285.4C169.1 284.5 174.1 283.9 175.7 282C177.6 279.7 172 277.2 167.5 274.6C165.2 273.3 163.3 271.9 162.6 270.6C162.1 269.5 162.2 267.2 162.5 264.3C162.6 263.7 162.6 263.2 162.7 262.6C163.1 263.4 163.5 264.1 164 264.9C165.3 266.9 167.1 268.9 168.8 270.5C170.9 272.5 173 274 174.4 274.3C175.3 274.5 176.2 274.4 177.1 274.1C179.4 273.2 181.7 270.6 183.5 268.1C183.9 267.5 184.3 266.9 184.7 266.4C185.9 264.5 186.8 263 187.1 262.6C188.1 261.5 183.1 259.3 181 257.6C178.9 255.9 170.8 223.9 170.8 223.9C169.8 221.4 165.8 207.2 163.8 205C163.8 205 156.1 214.5 146 213.9C136 213.4 118.9 203.7 118.7 203.6L116.9 205.2C112.8 210 114.2 224.8 114.2 224.8C114.2 224.8 122 259.3 122 262.7C122 269.1 116.7 283.7 114.2 294.3C112.8 301.1 112.3 306.1 114.9 306.4Z" fill="#0A56A3"/>
<path d="M153.5 189.601C153.5 189.601 152.8 194.301 152.5 198.701C144.2 197.901 140.3 190.001 138.8 185.701L153.5 189.601Z" fill="#EFB1B1"/>
<path d="M156 194C156 194 136.3 193 137.1 180.7C137.9 168.4 135.9 160 148.5 160.1C161.1 160.2 163.3 165.1 164 169.2C164.7 173.4 161.1 193.9 156 194Z" fill="#FFCACA"/>
<path d="M156.8 164.501C156.8 164.501 152.1 163.401 150.5 165.701C149 168.001 150.1 169.301 146.6 170.201C143.2 171.201 142 171.101 142.3 173.501C142.6 175.901 138.8 177.701 138.7 179.601C138.5 181.501 137 182.501 135.4 182.601C133.9 182.701 134.6 157.801 140.4 156.701C146.2 155.601 151.9 156.901 153.6 158.301C155.5 159.701 156.8 164.501 156.8 164.501Z" fill="#735441"/>
<path d="M156.8 164.499C156.8 164.499 161.4 164.199 162.2 166.799C163 169.399 161.9 169.999 163.1 171.599C164.3 173.199 163.6 175.999 163.6 175.999C163.6 175.999 172.7 159.299 163.1 158.199C153.6 157.099 153.8 159.099 156.8 164.499Z" fill="#735441"/>
<path d="M162.6 261.4C162.7 260.5 162.7 259.5 162.8 258.5C164.1 262.4 166.5 266.8 168.9 270.4C171 272.4 173.1 273.9 174.5 274.2C175.4 274.4 176.3 274.3 177.2 274C179.5 273.1 181.8 270.5 183.6 268C184 267.4 184.4 266.8 184.8 266.3C178.5 261.3 166.7 249.8 165.4 234C163.7 212.5 162.6 261.4 162.6 261.4Z" fill="#0A56A3"/>
<path d="M177.1 274.001C174.9 270.701 170.5 267.401 164.1 264.801C167 269.201 172.1 273.701 174.5 274.201C175.4 274.501 176.2 274.401 177.1 274.001Z" fill="#6930D8"/>
<path d="M125 232.701C125 232.701 114.4 294.401 151.7 289.001C151.8 288.901 152 288.801 152.1 288.801C155.2 287.001 159.6 286.101 163.8 285.401C169.1 284.501 174.1 283.901 175.7 282.001C177.6 279.701 172 277.201 167.5 274.601C165.2 273.301 159.8 272.701 159.2 271.401C158.7 270.301 154.6 265.401 155 262.501L153.3 259.901C134.9 245.401 125 232.701 125 232.701Z" fill="#06396B"/>
<path d="M135.5 219.7C135.5 219.7 126.5 211.9 122.3 221.5C118.1 231.1 133.4 274.7 142.8 279.3C148 281.8 190.6 287.1 190.6 287.1L190.9 281.6C190.9 281.6 161.5 270.9 159.6 269.6C157.7 268.2 139.2 219.6 135.5 219.7Z" fill="#FFCACA"/>
<path d="M190.9 281.601C190.9 281.601 199.7 279.401 203 281.601C206.3 283.801 210.2 289.101 208.4 288.901C206.7 288.801 191.3 288.801 190.6 287.001C189.8 285.301 190.9 281.601 190.9 281.601Z" fill="#FFCACA"/>
<path d="M118.8 203.701C118.8 203.701 122.5 259.701 131 272.901C139.5 286.201 155.5 280.301 155.5 280.301C155.5 280.301 161.9 273.601 160.8 270.301C160.8 270.201 147 216.701 118.8 203.701Z" fill="#0A56A3"/>
<path d="M445.8 230.7C445.8 230.7 445.2 230.5 444 230.9C442.9 231 441.7 231 441 230.8C439.8 230.4 438.8 231.5 439.6 232.4C439.8 232.7 440.2 233 440.6 233.1C438.8 234.8 436.6 237.6 434.3 242.3C434.3 242.3 432.3 245.9 436.5 244.8C439.3 244.1 439.9 242.7 443.9 241.5C447.8 240.4 450.9 237.6 451.3 234.5L453 231.5L448.9 227.4L445.8 230.7Z" fill="#F9C29D"/>
<path d="M454.8 116.1C454.8 116.1 487.5 133.3 483.5 183.2C482.4 196.7 452.1 236.1 452.1 236.1C452.1 236.1 446.4 233.4 446.4 229.2C446.4 229.2 461.2 186.6 464.3 183.8C467.1 181.3 450.9 143.4 450 133C449.2 122.6 454.8 116.1 454.8 116.1Z" fill="url(#paint2_linear)"/>
<path d="M509.8 381.699C509.8 381.699 515.5 386.899 514.4 390.599C513.3 394.299 508.1 396.799 507.5 401.299C506.8 405.799 504 408.299 501.5 408.299C499 408.299 489.6 408.299 489.6 408.299C489.6 408.299 487.8 405.099 492.2 404.199C496.6 403.199 498.3 397.899 498 392.999C497.7 388.099 498.4 381.499 498.4 381.499L507.8 379.299L509.8 381.699Z" fill="url(#paint3_linear)"/>
<path d="M509.8 378.499C508.8 381.599 497.3 386.099 497.3 386.099C497.3 386.099 491.1 376.299 471 340.999C469.3 337.999 467.5 334.599 465.6 331.099C446 293.399 420.6 230.699 420.6 230.699L469.1 217.199C469.1 217.199 471.4 236.699 471.8 246.499C472.1 252.499 475.5 265.399 479.8 276.599C482.6 283.699 485.7 290.199 488.7 293.899C502.2 310.399 509.8 378.499 509.8 378.499Z" fill="#06396B"/>
<path d="M479.9 276.5C476.8 292 471.2 317.9 465.7 331C446.1 293.3 420.7 230.6 420.7 230.6L469.2 217.1C469.2 217.1 471.5 236.6 471.9 246.4C472.2 252.4 475.6 265.2 479.9 276.5Z" fill="#052F59"/>
<path d="M440 395.2C440 395.2 441 407 438.5 408.3L406.5 408.2C406.5 408.2 406.5 404.5 411.6 403.7C416.7 402.9 425.8 399.9 427.3 393.2C428.8 386.4 440 395.2 440 395.2Z" fill="url(#paint4_linear)"/>
<path d="M412.9 228.099C412.9 228.099 414.6 248.799 416.6 273.799C419.3 307.699 422.5 349.199 422.9 357.099C423.5 370.799 425.7 392.699 425.7 392.699C425.7 392.699 431 397.899 441.5 395.699C441.5 395.699 450.9 364.499 453.6 331.399C453.6 330.899 453.7 330.299 453.7 329.799C456.2 296.199 460.1 225.299 460.1 225.299L412.9 228.099Z" fill="#06396B"/>
<path d="M457.2 114.9C457.2 114.9 438.2 127.4 426.3 123.7C426.3 123.7 429.6 118.7 432.7 114.7C432.3 112.3 432 110.3 431.8 108.5C431.3 104.5 431.3 102.2 431.3 102.2L439.2 96L446.7 90C446.2 106.7 457.2 114.9 457.2 114.9Z" fill="#FFCACA"/>
<path d="M484 267.299C459.9 283.599 411.1 278.899 410.7 278.599C409.9 268.199 409.4 251.099 409.2 235.299C409.1 228.699 409 222.299 409 216.799C408.9 205.799 408.9 197.899 408.9 197.599C408.9 197.599 408.9 196.999 408.9 195.999C409 192.799 409.2 185.499 409.4 179.999C409.4 178.999 409.5 177.999 409.5 177.199V177.099C409.7 174.599 411.2 168.099 413.3 160.499V160.399C416.4 149.199 420.8 135.799 424.1 129.599C425.8 126.399 431.7 116.999 431.7 116.999C435.8 117.799 438.8 116.599 443.1 114.499C447.8 112.199 453 109.699 453.8 110.399C460 114.899 464.2 125.099 466.4 138.199C467.7 145.599 485.2 266.499 484 267.299Z" fill="url(#paint5_linear)"/>
<path d="M447 96.2984C447 96.2984 441.8 105.798 431.9 108.398C431.4 104.398 431.4 102.098 431.4 102.098L439.3 95.8984L447 96.2984Z" fill="#D69D9D"/>
<path d="M427.7 101.899C427.7 101.899 447.3 105.099 449.2 92.9991C451 80.8991 454.8 73.1991 442.4 70.6991C429.9 68.0991 426.8 72.3991 425.2 76.2991C423.6 80.0991 422.7 100.699 427.7 101.899Z" fill="#FFCACA"/>
<path d="M454.4 66.1993C451.9 63.5993 446.4 61.6994 431.4 62.8994C411.6 64.4994 418.1 77.1993 420.7 78.6993C423.3 80.1993 429.7 76.0994 434.5 76.3994C439.3 76.7994 440.2 83.6993 441.8 84.5993C443.4 85.4993 442.8 83.8994 445 82.8994C447.2 81.8994 447.4 85.4994 446.8 87.8994C446.2 90.2994 449.2 93.3994 449.2 93.3994C449.2 93.3994 449.2 93.3993 452.2 90.0993C455.2 86.7993 458.1 72.8994 456.7 69.8994C456.6 69.7994 455.4 67.0993 454.4 66.1993Z" fill="#735441"/>
<path d="M409 216.8C408.9 205.8 408.9 197.9 408.9 197.6C408.9 197.6 408.9 197 408.9 196C409 192.8 409.2 185.5 409.4 180C409.4 179 409.5 178 409.5 177.2V177.1C409.7 174.6 411.2 168.1 413.3 160.5V160.4C431.2 140.8 451.5 130 451.5 130C451.5 130 456.8 198.2 409 216.8Z" fill="#06396B"/>
<path d="M453.9 110.298C453.9 110.298 452.1 104.998 450.6 104.398C450.6 104.398 429.9 109.198 423 131.998C423 131.998 431 117.998 453.9 110.298Z" fill="#06396B"/>
<path d="M346.6 156.698C346.6 156.698 340.6 146.898 337.9 145.998C335.2 145.198 334.3 150.698 334.8 154.098C335.4 157.998 336.7 161.898 339.4 162.998C342.1 164.098 344.5 164.498 344.5 164.498L346.6 156.698Z" fill="#F9C29D"/>
<path d="M347.3 156.499C347.3 156.499 346.7 152.999 345.8 152.499C344.9 151.999 341.5 150.999 340.6 151.099C339.7 151.199 344.3 157.499 345.5 157.599C346.8 157.699 347.3 156.499 347.3 156.499Z" fill="#F9C29D"/>
<path d="M457 131.399C457 131.399 450.1 167.699 401.3 178.599C388.1 181.499 341.5 164.099 341.5 164.099C341.5 164.099 342.4 157.799 346.4 156.599C346.4 156.599 391.5 158.199 395.1 160.399C398.3 162.399 429.7 135.699 439.4 131.799C449.2 127.899 457 131.399 457 131.399Z" fill="url(#paint6_linear)"/>
<path d="M146.9 459.601C146.9 460.501 147 461.201 147.1 461.501C147.9 463.101 170.8 462.601 172.3 462.501C173.6 462.401 173.4 458.101 167.3 455.601C166.4 455.201 165.4 454.901 164.2 454.601C158.1 453.201 158.3 446.801 158.3 446.801L147.9 446.901C147.8 447.001 146.9 456.201 146.9 459.601Z" fill="url(#paint7_linear)"/>
<path d="M101.3 459.601C101.3 460.501 101.4 461.201 101.5 461.501C102.3 463.101 125.2 462.601 126.7 462.501C128 462.401 127.8 458.101 121.7 455.601C120.8 455.201 119.8 454.901 118.6 454.601C112.5 453.201 112.7 446.801 112.7 446.801L102.3 446.901C102.3 447.001 101.4 456.201 101.3 459.601Z" fill="url(#paint8_linear)"/>
<path d="M74.9 197.701C74.9 197.701 72.4 192.601 70 193.601C67.7 194.601 70.9 202.901 72.5 202.801C74 202.701 74.9 197.701 74.9 197.701Z" fill="#FFB27D"/>
<path d="M51.9004 368.3C53.3004 368.6 55.4004 368.9 58.3004 369.2C69.2004 370.3 89.4004 371.1 109 371.2C115.9 371.2 122.8 371.2 129.1 371.1H129.2C134.7 371 139.7 370.8 144 370.5C148.8 370.2 152.7 369.7 155.3 369.2C157.2 368.8 158.4 368.3 158.8 367.8C161.9 363.3 169.6 354.3 168.5 347.5C168.3 346.1 167.7 344.8 166.7 343.7C166.7 343.7 161.4 341.7 153 338.9C136.4 333.4 108 324.7 85.2004 322C71.7004 320.4 60.3004 320.8 54.4004 325.2C33.4004 340.7 38.6004 365.1 51.9004 368.3Z" fill="#06396B"/>
<path d="M144 369.801C144 370.001 143.9 370.301 143.9 370.501C143.9 370.701 143.8 370.901 143.8 371.101C143.6 372.301 143.4 373.501 143.1 374.701C143 375.301 142.9 376.001 142.7 376.601C142.6 377.201 142.4 377.901 142.3 378.501C140.9 385.001 138.8 392.601 136 401.601C132.2 413.601 127 428.001 119.9 445.301C118.9 447.801 117.8 450.301 116.8 452.801C115.9 455.001 114.9 457.201 113.9 459.501H105.3C103.7 458.801 102.1 457.901 100.9 456.601C100.2 455.801 99.5002 454.901 99.0002 453.901C97.9002 451.601 97.6002 437.601 99.1002 420.201C99.7002 413.901 100.5 407.201 101.6 400.401C102.8 393.001 104.4 385.501 106.5 378.501C106.7 377.801 106.9 377.201 107.1 376.501C107.3 375.901 107.5 375.201 107.7 374.601C108.1 373.401 108.5 372.101 108.9 370.901C109 370.701 109 370.501 109.1 370.301C109.8 368.301 110.6 366.401 111.4 364.601C115.3 355.701 120.2 348.501 126.4 344.501C130.7 341.801 135.7 340.601 141.3 341.701C141.4 341.701 141.6 341.701 141.7 341.801C141.7 342.201 147.9 345.801 144 369.801Z" fill="#06396B"/>
<path d="M65 203.701C65 203.701 64 203.901 62.5 204.201C58.9 205.101 52.3 207.101 49.9 210.601C46.5 215.601 29.1 282.301 30.1 292.001C31.1 301.701 51 316.401 57.7 317.501L65 203.701Z" fill="#0A56A3"/>
<path d="M84.9003 214.201C85.0003 214.301 84.9003 224.401 76.1003 222.201C70.4003 220.801 59.2003 211.301 61.3003 206.601C62.3003 204.301 67.9003 199.101 71.5003 185.301L72.5003 185.801L89.3003 194.101C89.3003 194.101 87.4003 199.601 86.0003 204.801C84.9003 209.201 84.1003 213.401 84.9003 214.201Z" fill="#FFCACA"/>
<path d="M96.6001 197.5C96.6001 197.5 71.4001 203.3 68.0001 187.6C64.6001 171.9 59.1001 162 75.0001 157.6C90.9001 153.2 95.4001 158.6 97.8001 163.5C100.3 168.5 103.1 195.6 96.6001 197.5Z" fill="#FFCACA"/>
<path d="M46.6001 345.301C46.6001 345.301 62.1001 357.801 61.2001 366.501C60.3001 375.201 73.4001 364.701 73.4001 364.701L67.3001 345.201L46.6001 345.301Z" fill="#06396B"/>
<path d="M179.1 404.001C174.4 418.801 167.7 437.001 158 459.501H149.5C148.2 459.001 146.9 458.2 145.8 457.3C144.7 456.4 143.8 455.3 143.1 453.9V453.8C142.6 452.6 142.2 448.701 142.2 442.9C142.1 432.8 143 417.101 145.7 401.101C146.8 394.401 148.2 387.601 149.9 381.201C150.1 380.301 150.4 379.401 150.7 378.501C151.1 377.201 151.5 375.901 151.9 374.601V374.501C152.3 373.301 152.7 372.101 153.1 370.901C151.2 370.901 149.3 371.001 147.4 371.001C146.2 371.001 145.1 371.001 143.9 371.001C139.1 371.001 134.2 371.001 129.2 371.001H129.1C122.4 370.901 115.6 370.801 109.2 370.601C103.2 370.401 97.5 370.1 92.5 369.8C91.1 369.7 89.7 369.601 88.4 369.501C82.4 369.101 77.9 368.601 75.6 368.001C74 367.601 72.6 367.001 71.3 366.001C70.8 365.701 70.3 365.301 69.9 364.901C65.7 361.101 63.4 354.5 64.2 347.3C64.3 346.6 64.4 345.801 64.5 345.001C64.6 344.601 64.7 344.101 64.8 343.701C65.2 342.201 65.6 340.8 66.3 339.3C68.4 334.2 72.2 329.201 78 324.9C79.6 323.7 81.6 322.801 84 322.101C84.4 322.001 84.7 321.9 85.1 321.8C85.3 321.8 85.4 321.701 85.6 321.701C86.8 321.401 88 321.201 89.4 321.101C96.5 320.301 105.2 320.9 114.6 322.3C115.6 322.4 116.6 322.6 117.5 322.8C126.6 324.3 136.1 326.401 145.1 328.601C147.9 329.301 150.6 329.901 153.2 330.601C153.8 330.801 154.4 330.901 155 331.101C158.2 331.901 161.2 332.701 164.1 333.401C166.1 333.901 167.9 334.401 169.7 335.001H169.8C179.6 338.101 185.9 342.001 185.9 342.001C185.8 341.901 195.8 351.101 179.1 404.001Z" fill="#06396B"/>
<path d="M40.0002 340.5C41.3002 342.3 43.6002 343.9 46.5002 345.3C67.4002 354.9 117.3 333.1 114.9 318.7C114 313.6 110.1 313.7 107 305.4C104.6 299 102.8 292.9 102.9 287C102.9 284.5 103.3 282 104 279.5C105.9 273.5 107.5 263.8 108.6 253.5C110.4 235.9 105.5 216.9 101.3 210.7C100.7 209.8 69.6002 201.5 42.8002 210.3C42.8002 210.3 40.8002 241.4 47.1002 273.9C47.9002 278.2 47.6002 282.7 46.0002 286.8C41.2002 299.8 31.7002 329 40.0002 340.5Z" fill="#0A56A3"/>
<path d="M92.6002 280.1C88.9002 268.8 87.8002 254.9 95.1002 240.4C95.1002 240.4 102.6 244.9 108.6 253.6C107.6 263.9 105.9 273.6 104 279.6C103.2 282.2 102.9 284.7 102.9 287.3C102.9 287.4 102.9 287.6 102.9 287.7C102.9 288 102.9 288.4 102.9 288.7C102.9 288.8 102.9 289 102.9 289.1C102.9 289.5 103 290 103 290.4C103 290.5 103 290.7 103.1 290.8C103.1 291.1 103.2 291.5 103.2 291.8C103.2 292 103.2 292.1 103.3 292.3C103.4 292.7 103.4 293.1 103.5 293.5C103.5 293.6 103.6 293.8 103.6 293.9C103.7 294.3 103.7 294.6 103.8 295C103.8 295.2 103.9 295.4 103.9 295.5C104 295.8 104.1 296.2 104.1 296.5C104.1 296.7 104.2 296.8 104.2 297C104.3 297.4 104.4 297.9 104.6 298.3C104.7 298.5 104.7 298.7 104.8 298.8C104.9 299.1 105 299.4 105.1 299.8C105.2 300 105.2 300.2 105.3 300.3C105.4 300.8 105.6 301.2 105.8 301.7C105.9 301.9 105.9 302 106 302.2C106.1 302.6 106.2 302.9 106.4 303.3C106.5 303.5 106.5 303.6 106.6 303.8C106.8 304.3 107 304.8 107.1 305.3C110.2 313.6 117.7 317.8 117.7 322C117.7 332.8 67.6002 354.9 46.7002 345.2C95.3002 352.5 92.6002 280.4 92.6002 280.1Z" fill="#0A56A3"/>
<path d="M93.5003 152.501C88.1003 149.001 82.5003 148.601 82.5003 148.601C78.4003 148.101 74.8003 148.501 71.7003 149.401C71.2003 148.901 70.7003 148.501 70.2003 148.301C53.9003 141.601 38.4003 164.701 43.8003 183.601C46.1003 191.801 34.8003 201.401 24.2003 209.201C15.2003 215.801 13.4003 224.401 14.4003 231.901C15.7003 242.001 21.4003 250.801 30.2003 253.901C25.7003 247.201 25.8003 240.501 25.8003 240.501C26.1003 243.801 28.3003 247.201 30.7003 249.901C32.5003 251.901 34.6003 253.701 36.9003 255.101C39.1003 256.401 41.4003 257.401 43.9003 258.101C44.1003 258.201 44.4003 258.201 44.6003 258.301C51.8003 260.201 57.2003 261.201 61.3003 261.501C63.4003 261.701 65.1003 261.701 66.6003 261.701C70.9003 261.501 72.7003 260.401 73.4003 259.601C73.9003 259.101 73.9003 258.701 73.9003 258.701C85.7003 239.001 58.9003 237.701 69.6003 218.701C70.3003 217.401 71.3003 215.901 72.4003 214.401C73.7003 212.101 74.6003 209.201 75.3003 206.401C76.4003 202.001 76.8003 197.901 76.9003 197.201C76.7003 201.001 76.3003 204.001 75.9003 206.501C75.4003 209.401 74.8003 211.401 74.2003 212.801C75.7003 211.201 76.8003 209.101 77.7003 206.601C78.6003 204.101 79.3003 201.101 79.8003 198.001C80.2003 195.401 80.4003 192.601 80.4003 189.701C80.4003 188.101 80.4003 186.501 80.4003 184.801C83.0003 180.701 85.0003 174.301 88.9003 171.301C87.5003 179.001 83.4003 188.401 83.4003 188.401C98.0003 181.501 100.6 162.501 100.6 162.501C102 157.901 96.2003 154.301 93.5003 152.501Z" fill="#735441"/>
<path fill-rule="evenodd" clip-rule="evenodd" d="M151.9 374.701H152.6C153.6 374.701 154.5 375.601 154.5 376.601C154.5 377.101 154.3 377.601 153.9 378.001C153.6 378.401 153.1 378.601 152.6 378.601H145.8C145.8 378.601 145.8 378.701 145.8 378.801C145.7 380.101 145.1 387.901 145.6 401.201C146.1 414.401 147.6 437.901 151.6 461.001C151.8 462.101 152 463.201 152.2 464.401H146.4C146.2 463.601 146 462.901 145.8 462.201C145.4 460.901 145.1 458.301 144.7 455.701C144.4 453.401 144.1 451.201 143.8 450.101C143.2 447.701 142.6 445.301 142.1 443.001C138.5 427.001 136.7 412.801 135.9 401.701C135.1 390.001 135.3 381.701 135.6 378.601L111.4 378.701C111.4 378.701 111.4 378.801 111.4 378.901C111.2 381.401 109.3 408.501 116.7 452.901C116.9 453.901 117.1 456.101 117.2 458.301C117.4 460.801 117.6 463.301 117.8 464.501H112C111.8 464.001 111.7 463.401 111.5 462.901C105.1 440.201 102.4 415.101 101.4 400.501C100.7 389.401 100.9 381.701 101.2 378.601H94.1001C94.8001 387.901 94.9001 425.101 84.0001 464.501H78.2001C85.9001 419.001 84.4001 384.901 84.0001 378.601L37.7001 378.801C38.4001 385.801 39.2001 423.801 27.8001 464.701H22.0001C30.4001 415.801 27.8001 381.501 27.7001 379.001C27.7001 378.901 27.7001 378.901 27.7001 378.901H27.6001C26.6001 378.901 25.7001 378.001 25.7001 377.001C25.7001 376.501 25.9001 376.001 26.3001 375.601C26.6001 375.301 27.1001 375.101 27.6001 375.001C28.3001 304.601 0.800134 250.701 0.600134 250.101C0.100134 249.201 0.200134 247.201 3.20013 246.901C5.80013 246.701 7.40013 247.201 7.80013 248.101C7.90013 248.201 11.1001 255.101 15.6001 267.401C26.3001 266.001 52.5001 263.001 68.4001 265.601C64.5001 255.601 61.6001 249.901 61.5001 249.701C61.0001 248.801 61.1001 246.801 64.0001 246.501C66.6001 246.301 68.2001 246.801 68.6001 247.701C68.7001 247.801 74.8001 260.701 81.7001 283.101C87.4001 301.701 92.0001 331.101 92.5001 364.101C148.4 364.501 151.8 374.401 151.9 374.701ZM44.4001 375.201L31.6001 375.301H38.9001L44.4001 375.201ZM69.7001 270.001C70.6001 272.401 71.5001 275.001 72.5001 277.801C56.2001 275.201 29.6001 278.401 19.5001 279.801C18.5001 276.801 17.6001 273.901 16.7001 271.301C28.2001 269.801 55.4001 266.801 69.7001 270.001ZM20.7001 283.501C20.7001 283.601 20.8001 283.801 20.8001 283.901C26.9001 303.701 31.6001 335.801 31.6001 371.301C35.8001 369.201 44.2001 366.901 61.4001 365.601C65.9001 365.301 71.0001 365.001 76.7001 364.801C80.8001 364.701 84.6001 364.601 88.3001 364.601C87.3001 331.201 80.4001 302.201 73.8001 281.701C58.9001 278.701 31.3001 281.801 20.6001 283.301C20.6001 283.401 20.7001 283.401 20.7001 283.501Z" fill="#E6BE2E"/>
<path d="M155.1 323.102C155.1 323.102 163.6 325.402 166 327.702C168.4 329.902 169.7 335.002 169.7 335.002L153.2 330.702L155.1 323.102Z" fill="#FFB27D"/>
<path d="M155 331.201C146.9 330.301 128.9 323.201 122.2 315.001C114.5 305.601 84 253.801 89.6 238.201C91.6 232.601 95.2 210.101 99.9 210.501C104.1 210.801 110.3 219.401 111.7 224.901C117.4 247.001 125.2 289.901 131.1 294.801C136.4 299.201 149 313.701 155.1 323.301C157 327.301 156.2 329.501 155 331.201Z" fill="#0A56A3"/>
<path d="M226.4 216.899L239.5 226.599L258.5 222.599C258.2 220.899 257 213.699 255.8 207.199C255.7 206.799 255.7 206.399 255.6 206.099C254.6 200.599 253.8 195.799 253.8 195.799L236.1 186.999L229.5 183.699C229.5 183.799 230 189.799 230.1 190.699C231.3 206.299 226.4 216.899 226.4 216.899Z" fill="#FFCACA"/>
<path d="M231.4 191C235.3 198.4 249.8 204.9 255.8 207.2C255.7 206.8 255.7 206.4 255.6 206.1C254.6 200.6 253.8 195.8 253.8 195.8L236.1 187C232.2 187 229.8 188 231.4 191Z" fill="#D69D9D"/>
<path d="M259.5 196.299C259.5 196.299 233.3 204.499 228.4 188.099C223.6 171.699 216.9 161.699 233.4 155.799C249.9 149.899 255.1 155.199 258 160.299C261.1 165.299 266.2 193.699 259.5 196.299Z" fill="#FFCACA"/>
<path d="M257.1 158.6C257.1 158.6 255.4 177.7 251.5 176.9C247.6 176.1 244 175.5 244.5 181.2C245.1 187 250.6 193.6 238.4 194.6C226.2 195.6 208.7 164.2 212.1 158.3C221.7 141.1 271 137.7 257.1 158.6Z" fill="#735441"/>
<path d="M306.7 462.7C306.7 463.6 306.8 464.3 306.9 464.6C307.7 466.2 330.6 465.7 332.1 465.6C333.4 465.5 333.2 461.1 327.1 458.7C326.2 458.3 325.2 458 324 457.7C317.9 456.3 318.1 449.9 318.1 449.9L307.7 450C307.6 450.1 306.7 459.3 306.7 462.7Z" fill="url(#paint9_linear)"/>
<path d="M261.2 462.7C261.2 463.6 261.3 464.3 261.4 464.6C262.2 466.2 285.1 465.7 286.6 465.6C287.9 465.5 287.7 461.1 281.6 458.7C280.7 458.3 279.7 458 278.5 457.7C272.4 456.3 272.6 449.9 272.6 449.9L262.2 450C262.1 450.1 261.2 459.3 261.2 462.7Z" fill="url(#paint10_linear)"/>
<path d="M211.7 371.4C213.1 371.7 215.2 372 218.1 372.3C229 373.4 249.2 374.2 268.8 374.3C275.7 374.3 282.6 374.3 288.9 374.2H289C294.5 374.1 299.5 373.9 303.8 373.6C308.6 373.3 312.5 372.8 315.1 372.3C317 371.9 318.2 371.4 318.6 370.9C321.7 366.4 329.4 357.4 328.3 350.6C328.1 349.2 327.5 347.9 326.5 346.8C326.5 346.8 321.2 344.8 312.8 342C296.2 336.5 267.7 327.8 245 325.1C231.5 323.5 220.1 323.9 214.2 328.3C193.3 343.8 198.4 368.2 211.7 371.4Z" fill="#06396B"/>
<path d="M303.8 372.799C303.8 372.999 303.7 373.299 303.7 373.499C303.7 373.699 303.6 373.899 303.6 374.099C303.4 375.299 303.2 376.499 302.9 377.699C302.8 378.299 302.7 378.999 302.5 379.599C302.4 380.199 302.2 380.899 302.1 381.499C300.7 387.999 298.6 395.599 295.8 404.599C292 416.599 286.8 430.999 279.7 448.299C278.7 450.799 277.6 453.299 276.6 455.799C275.7 457.999 274.7 460.199 273.7 462.499H265.1C263.5 461.799 261.9 460.899 260.7 459.599C260 458.799 259.3 457.899 258.8 456.899C257.7 454.599 257.4 440.599 258.9 423.199C259.5 416.899 260.3 410.199 261.4 403.399C262.6 395.999 264.2 388.499 266.3 381.499C266.5 380.799 266.7 380.199 266.9 379.499C267.1 378.899 267.3 378.199 267.5 377.599C267.9 376.399 268.3 375.099 268.7 373.899C268.8 373.699 268.8 373.499 268.9 373.299C269.6 371.299 270.4 369.399 271.2 367.599C275.1 358.699 280 351.399 286.2 347.499C290.5 344.799 295.5 343.599 301.1 344.699C301.2 344.699 301.4 344.699 301.5 344.799C301.5 345.199 307.7 348.899 303.8 372.799Z" fill="#06396B"/>
<path d="M224.4 210.2C224.4 210.2 223.4 210.4 221.9 210.7C218.3 211.6 208.2 218.5 205.8 222C202.4 227 189 285.3 189.9 294.9C190.9 304.6 210.8 319.3 217.5 320.4L224.5 209.9L224.4 210.2Z" fill="#0A56A3"/>
<path d="M206.4 348.299C206.4 348.299 221.9 360.799 221 369.499C220.1 378.199 233.2 367.699 233.2 367.699L227.1 348.199L206.4 348.299Z" fill="#06396B"/>
<path d="M339 407.1C334.3 421.9 327.6 440.1 317.9 462.6H309.4C308.1 462.1 306.8 461.3 305.7 460.4C304.6 459.5 303.7 458.4 303 457V456.9C302.5 455.8 302.1 451.8 302.1 446C302 435.9 302.9 420.2 305.6 404.2C306.7 397.5 308.1 390.7 309.8 384.3C310 383.4 310.3 382.5 310.6 381.6C311 380.3 311.4 379 311.8 377.7V377.6C312.2 376.4 312.6 375.2 313 374C311.1 374 309.2 374.1 307.3 374.1C306.1 374.1 305 374.1 303.8 374.1C299 374.1 294.1 374.1 289.1 374.1H289C282.3 374 275.5 373.9 269.1 373.7C263.1 373.5 257.4 373.2 252.4 372.9C251 372.8 249.6 372.7 248.3 372.6C242.3 372.2 237.8 371.7 235.5 371.1C233.9 370.7 232.5 370.1 231.2 369.1C230.7 368.8 230.2 368.4 229.8 368C225.6 364.2 223.3 357.6 224.1 350.4C224.2 349.7 224.3 348.9 224.4 348.1C224.5 347.7 224.6 347.2 224.7 346.8C225.1 345.3 225.5 343.9 226.2 342.4C228.3 337.3 232.1 332.3 237.9 328C239.5 326.8 241.5 325.9 243.9 325.2C244.3 325.1 244.6 325 245 324.9C245.2 324.9 245.3 324.8 245.5 324.8C246.7 324.5 247.9 324.3 249.3 324.2C256.4 323.4 265.1 324 274.5 325.4C275.5 325.5 276.5 325.7 277.4 325.9C286.5 327.4 296 329.5 305 331.7C307.8 332.4 310.5 333 313.1 333.7C313.7 333.9 314.3 334 314.9 334.2C318.1 335 321.1 335.8 324 336.5C326 337 327.8 337.5 329.6 338.1H329.7C339.5 341.2 345.8 345.1 345.8 345.1C345.6 345 355.7 354.2 339 407.1Z" fill="#06396B"/>
<path d="M199.9 343.599C201.2 345.399 203.5 346.999 206.4 348.399C227.3 357.999 277.2 336.199 274.8 321.799C273.9 316.699 270 316.799 266.9 308.499C264.5 302.099 262.7 295.999 262.8 290.099C262.8 287.599 263.2 285.099 263.9 282.599C265.8 276.599 267.4 266.899 268.5 256.599C270.3 238.999 265.4 219.999 261.2 213.799C260.6 212.899 251.5 201.099 224.7 209.999C224.7 209.999 200.7 244.599 207 276.999C207.8 281.299 207.5 285.799 205.9 289.899C201 302.799 191.5 331.999 199.9 343.599Z" fill="url(#paint11_linear)"/>
<path d="M252.4 283.1C248.7 271.8 247.6 257.9 254.9 243.4C254.9 243.4 262.4 247.9 268.4 256.6C267.4 266.9 265.7 276.6 263.8 282.6C263 285.2 262.7 287.7 262.7 290.3C262.7 290.4 262.7 290.6 262.7 290.7C262.7 291 262.7 291.4 262.7 291.7C262.7 291.8 262.7 292 262.7 292.1C262.7 292.5 262.8 293 262.8 293.4C262.8 293.5 262.8 293.7 262.9 293.8C262.9 294.1 263 294.5 263 294.8C263 295 263 295.1 263.1 295.3C263.2 295.7 263.2 296.1 263.3 296.5C263.3 296.6 263.4 296.8 263.4 296.9C263.5 297.3 263.5 297.6 263.6 298C263.6 298.2 263.7 298.4 263.7 298.5C263.8 298.8 263.9 299.2 263.9 299.5C263.9 299.7 264 299.8 264 300C264.1 300.4 264.2 300.9 264.4 301.3C264.5 301.5 264.5 301.7 264.6 301.9C264.7 302.2 264.8 302.5 264.9 302.9C265 303.1 265 303.3 265.1 303.4C265.2 303.9 265.4 304.3 265.6 304.8C265.7 305 265.7 305.1 265.8 305.3C265.9 305.7 266 306 266.2 306.4C266.3 306.6 266.3 306.7 266.4 306.9C266.6 307.4 266.8 307.9 266.9 308.4C270 316.7 277.5 320.9 277.5 325.1C277.5 335.9 227.4 358 206.5 348.3C255.1 355.6 252.4 283.4 252.4 283.1Z" fill="url(#paint12_linear)"/>
<path fill-rule="evenodd" clip-rule="evenodd" d="M311.7 377.8H312.4C313.4 377.8 314.3 378.7 314.3 379.7C314.3 380.2 314.1 380.7 313.7 381.1C313.4 381.5 312.9 381.7 312.4 381.7H305.6C305.6 381.7 305.6 381.8 305.6 381.9C305.5 383.2 304.9 391 305.4 404.3C305.9 417.5 307.4 441 311.4 464.1C311.6 465.2 311.8 466.3 312 467.5H306.2C306 466.7 305.8 466 305.6 465.3C305.2 464 304.9 461.4 304.5 458.8C304.2 456.5 303.9 454.3 303.6 453.2C303 450.8 302.4 448.4 301.9 446.1C298.3 430.1 296.5 415.9 295.7 404.8C294.9 393.1 295.1 384.8 295.4 381.7L271.2 381.8C271.2 381.8 271.2 381.9 271.2 382C271 384.5 269.1 411.6 276.5 456C276.7 457 276.9 459.2 277 461.4C277.2 463.9 277.4 466.4 277.6 467.6H271.8C271.6 467.1 271.5 466.5 271.3 466C264.9 443.3 262.2 418.2 261.2 403.6C260.5 392.5 260.7 384.8 261 381.7H253.9C254.6 391 254.7 428.2 243.8 467.6H238C245.7 422.1 244.2 388 243.8 381.7L197.5 381.9C198.2 388.9 199 426.9 187.6 467.8H181.8C190.2 418.9 187.6 384.6 187.5 382.1C187.5 382 187.5 382 187.5 382H187.4C186.3 382 185.5 381.1 185.5 380.1C185.5 379.6 185.7 379.1 186.1 378.7C186.4 378.4 186.9 378.2 187.4 378.1C188.1 307.7 160.6 253.8 160.4 253.2C159.9 252.3 160 250.3 163 250C165.6 249.8 167.2 250.3 167.6 251.2C167.7 251.3 170.9 258.2 175.4 270.5C186.1 269.1 212.3 266.1 228.2 268.7C224.3 258.7 221.4 253 221.3 252.8C220.8 251.9 220.9 249.9 223.8 249.6C226.4 249.4 228 249.9 228.4 250.8C228.5 250.9 234.6 263.8 241.5 286.2C247.2 304.8 251.8 334.2 252.3 367.2C308.2 367.5 311.6 377.4 311.7 377.8ZM204.2 378.3L191.4 378.4H198.7L204.2 378.3ZM229.6 273.1C230.5 275.5 231.4 278.1 232.4 280.9C216.1 278.3 189.5 281.5 179.4 282.9C178.4 279.9 177.5 277 176.6 274.4C188 272.9 215.2 269.8 229.6 273.1ZM180.5 286.6C180.5 286.7 180.6 286.9 180.6 287C186.7 306.8 191.4 338.9 191.4 374.4C195.6 372.3 204 370 221.2 368.7C225.7 368.4 230.8 368.1 236.5 367.9C240.6 367.8 244.4 367.7 248.1 367.7C247.1 334.3 240.2 305.3 233.6 284.8C218.7 281.8 191.1 284.9 180.4 286.4C180.5 286.4 180.5 286.5 180.5 286.6Z" fill="#E6BE2E"/>
<path d="M314.9 326.199C314.9 326.199 323.4 328.499 325.8 330.799C328.2 332.999 329.5 338.099 329.5 338.099L313 333.799L314.9 326.199Z" fill="#FFB27D"/>
<path d="M314.8 334.199C306.7 333.299 288.7 326.199 282 317.999C274.3 308.599 243.8 256.799 249.4 241.199C251.4 235.599 255 213.099 259.7 213.499C264 213.799 270.1 222.399 271.5 227.899C277.2 249.999 285 292.899 290.9 297.799C296.3 302.199 308.8 316.699 314.9 326.299C316.8 330.399 316 332.499 314.8 334.199Z" fill="#0A56A3"/>
<path d="M511.1 425L519.9 468.2H552.3L560.8 427.8L511.1 425Z" fill="#1E1E1E"/>
<path d="M566.2 419.4H505.4V427.8H566.2V419.4Z" fill="#383838"/>
<path fill-rule="evenodd" clip-rule="evenodd" d="M505.3 427.901H566.3V419.301H505.3V427.901ZM566.1 427.701H505.5V419.601H566.1V427.701Z" fill="#383838"/>
<path d="M511.1 464.102L515.8 470.502H555.2L560.8 464.102H511.1Z" fill="#383838"/>
<path d="M533.6 426.3C533.5 426.3 533.3 406.3 533.3 381.6C533.2 356.9 533.3 336.9 533.4 336.9C533.5 336.9 533.7 356.9 533.7 381.6C533.7 406.3 533.7 426.3 533.6 426.3Z" fill="#383838"/>
<path d="M547.1 376.201C547.1 376.201 547.1 376.401 546.9 376.701C546.8 377.001 546.6 377.501 546.4 378.001C546.3 378.301 546.1 378.601 546 378.901C545.9 379.301 545.7 379.601 545.6 380.001C545.5 380.401 545.3 380.801 545.1 381.301C544.9 381.801 544.8 382.301 544.7 382.801C544 384.901 543.5 387.401 543 390.201C542.6 393.001 542.2 396.201 542.1 399.501C541.8 406.101 542.2 412.201 542.6 416.501C542.8 418.701 543 420.401 543.1 421.601C543.2 422.201 543.2 422.601 543.3 423.001C543.3 423.301 543.3 423.501 543.3 423.501C543.3 423.501 543.2 423.301 543.2 423.001C543.1 422.601 543.1 422.201 543 421.601C542.8 420.401 542.6 418.601 542.3 416.501C541.8 412.201 541.4 406.101 541.7 399.401C541.9 396.101 542.2 392.901 542.7 390.001C543.2 387.201 543.8 384.601 544.5 382.501C544.7 382.001 544.8 381.501 545 381.001C545.2 380.501 545.3 380.101 545.5 379.701C545.7 379.301 545.8 378.901 545.9 378.601C546 378.301 546.2 378.001 546.3 377.701C546.6 377.201 546.8 376.801 546.9 376.401C547 376.301 547.1 376.201 547.1 376.201Z" fill="#383838"/>
<path d="M545.5 360C545.5 360 545.4 360.2 545.3 360.7C545.1 361.2 544.9 361.8 544.7 362.6C544.6 363 544.4 363.5 544.2 363.9C544 364.4 543.9 364.9 543.7 365.5C543.3 366.7 542.9 368 542.6 369.5C542.4 370.2 542.2 371 542 371.8C541.8 372.6 541.6 373.5 541.4 374.3C541 376 540.7 377.9 540.3 379.9C539.6 383.9 539 388.3 538.6 392.9C538.2 397.5 538 402 538 406C538 410 538 413.7 538.2 416.7C538.3 418.2 538.4 419.6 538.4 420.8C538.5 422 538.5 423.1 538.6 423.9C538.7 424.7 538.7 425.4 538.7 425.9C538.7 426.3 538.7 426.6 538.7 426.6C538.7 426.6 538.6 426.4 538.6 425.9C538.5 425.4 538.5 424.8 538.4 423.9C538.3 423.1 538.2 422 538.1 420.8C538 419.6 537.9 418.2 537.8 416.7C537.6 413.7 537.5 410 537.5 406C537.5 402 537.7 397.5 538.1 392.9C538.5 388.3 539.1 383.8 539.8 379.9C540.2 377.9 540.5 376 541 374.3C541.2 373.4 541.4 372.6 541.6 371.8C541.8 371 542 370.2 542.2 369.5C542.6 368 543 366.7 543.4 365.6C543.6 365 543.8 364.5 543.9 364C544.1 363.5 544.2 363.1 544.4 362.7C544.7 361.9 544.9 361.3 545.1 360.9C545.4 360.2 545.5 360 545.5 360Z" fill="#383838"/>
<path d="M529.7 429.801C529.7 429.801 529.7 429.701 529.7 429.601C529.7 429.401 529.7 429.201 529.6 428.901C529.6 428.301 529.5 427.401 529.4 426.301C529.3 424.001 529 420.601 528.8 416.601C528.3 408.401 527.5 397.001 526.1 384.501C525.4 378.301 524.6 372.301 523.7 366.901C523.2 364.201 522.8 361.701 522.4 359.301C522 356.901 521.5 354.701 521.1 352.701C520.7 350.701 520.3 348.901 519.9 347.301C519.5 345.701 519.2 344.301 518.9 343.201C518.6 342.101 518.4 341.201 518.3 340.601C518.2 340.301 518.2 340.101 518.1 339.901C518.1 339.701 518.1 339.701 518.1 339.701C518.1 339.701 518.1 339.801 518.2 339.901C518.3 340.101 518.3 340.301 518.4 340.601C518.6 341.201 518.8 342.101 519.1 343.201C519.4 344.301 519.8 345.701 520.2 347.301C520.6 348.901 521 350.701 521.5 352.701C521.9 354.701 522.4 356.901 522.9 359.301C523.4 361.701 523.8 364.201 524.3 366.901C525.2 372.301 526 378.201 526.7 384.501C528.1 397.001 528.8 408.401 529.2 416.601C529.4 420.701 529.6 424.101 529.7 426.401C529.7 427.501 529.8 428.401 529.8 429.101C529.8 429.401 529.8 429.601 529.8 429.801C529.7 429.701 529.7 429.801 529.7 429.801Z" fill="#383838"/>
<path d="M533.1 346.5C532.8 343.7 530 341.5 527.1 341.5C524.3 341.5 521.6 343.2 519.9 345.4C518.2 347.6 517.2 350.4 516.4 353.1C514.5 359.8 513.4 366.8 514.3 373.7C515.1 380.6 517.9 387.4 522.9 392.3C523.7 393.1 524.7 393.9 525.9 393.6C526.5 393.5 527 393.1 527.5 392.6C537.2 383.8 542.8 370.7 542.5 357.6C542.4 355 542.1 352.2 540.6 350.1C538.9 348 535.5 345.6 533.1 346.5Z" fill="#1E1E1E"/>
<path d="M533.3 336.901C521.3 329.801 509.2 322.701 497.1 315.601C496.7 315.401 496.3 315.101 496.2 314.701C496.1 314.201 496.5 313.601 496.8 313.301C501.8 308.201 509 305.201 516.1 305.701C523.2 306.201 530.1 310.301 533.6 316.601C537.2 322.701 537.3 331.001 533.3 336.901Z" fill="#1E1E1E"/>
<path d="M502.4 308.802C502.4 308.802 502.6 308.802 502.9 308.702C503.2 308.702 503.7 308.602 504.3 308.602C505.5 308.602 507.2 308.602 509.3 309.002C511.4 309.302 513.9 310.002 516.4 311.202C519 312.302 521.6 314.002 524.1 316.202C526.5 318.402 528.4 320.902 529.8 323.302C531.2 325.702 532.1 328.102 532.7 330.202C533.3 332.302 533.5 334.002 533.6 335.202C533.7 335.802 533.7 336.302 533.7 336.602C533.7 336.902 533.7 337.102 533.7 337.102C533.7 337.102 533.6 336.402 533.5 335.302C533.4 334.102 533.1 332.402 532.5 330.402C531.4 326.402 528.7 320.902 523.9 316.602C519.1 312.302 513.4 310.202 509.3 309.402C507.2 309.002 505.5 308.902 504.3 308.902C503 308.802 502.4 308.802 502.4 308.802Z" fill="#383838"/>
<path d="M528.4 322.201C528.4 322.301 527.7 322.601 526.6 323.001C525.4 323.501 523.8 324.001 522 324.601C520.2 325.201 518.5 325.601 517.3 325.901C516.1 326.201 515.3 326.301 515.3 326.301C515.3 326.201 516 326.001 517.2 325.601C518.5 325.201 520.1 324.701 521.8 324.201C523.5 323.601 525.1 323.101 526.4 322.701C527.7 322.301 528.4 322.101 528.4 322.201Z" fill="#383838"/>
<path d="M522.7 306.9C522.8 306.9 523.1 308.7 523.1 310.9C523.2 313.1 523 315 522.9 315C522.8 315 522.7 313.2 522.7 311C522.7 308.7 522.6 306.9 522.7 306.9Z" fill="#383838"/>
<path d="M496.8 315.201C496.8 315.101 497.8 314.801 499.4 314.301C501 313.801 503.3 313.201 505.9 312.501C508.4 311.901 510.8 311.401 512.5 311.101C514.2 310.801 515.2 310.701 515.3 310.701C515.3 310.801 514.3 311.001 512.6 311.401C510.9 311.801 508.6 312.301 506.1 312.901C503.6 313.501 501.3 314.101 499.6 314.501C497.9 315.001 496.9 315.201 496.8 315.201Z" fill="#383838"/>
<path d="M516.6 339.8C513.5 337.4 510.2 337 506.3 337.1C502.4 337.3 498.6 338.4 495 340C488.9 342.7 483.2 346.6 479.5 352.2C475.9 357.8 474.6 365.1 477.3 371.2C477.6 371.8 477.9 372.4 478.5 372.7C479.1 373 479.9 372.8 480.5 372.5C487.4 370.2 494.4 368 500.8 364.4C507.2 360.9 513 355.9 516.4 349.5C517.2 348 517.9 346.3 518 344.6C518.4 342.9 517.9 341 516.6 339.8Z" fill="#1E1E1E"/>
<path d="M516.7 339.1C516.7 339.1 516.5 339.2 516.2 339.3C515.8 339.4 515.3 339.6 514.7 339.8C514.4 339.9 514 340 513.6 340.2C513.2 340.3 512.8 340.5 512.4 340.7C511.5 341.1 510.5 341.4 509.4 341.9C508.9 342.1 508.3 342.4 507.7 342.7C507.1 343 506.5 343.3 505.9 343.6C504.6 344.2 503.4 345 502 345.8C499.3 347.5 496.5 349.5 493.8 351.9C491.1 354.3 488.7 356.8 486.7 359.3C485.7 360.5 484.8 361.7 484 362.9C483.6 363.5 483.2 364 482.9 364.6C482.6 365.2 482.2 365.7 481.9 366.2C481.2 367.2 480.8 368.2 480.3 369C480.1 369.4 479.9 369.8 479.7 370.2C479.5 370.6 479.4 370.9 479.2 371.2C478.9 371.8 478.7 372.2 478.5 372.6C478.3 372.9 478.2 373.1 478.2 373.1C478.2 373.1 478.3 372.9 478.4 372.6C478.6 372.2 478.8 371.8 479 371.2C479.1 370.9 479.3 370.6 479.4 370.2C479.6 369.8 479.8 369.4 480 369C480.4 368.2 480.9 367.2 481.5 366.2C481.8 365.7 482.1 365.1 482.5 364.6C482.8 364 483.2 363.5 483.6 362.9C484.4 361.7 485.3 360.5 486.3 359.3C488.3 356.8 490.7 354.3 493.4 351.9C496.2 349.5 499 347.5 501.7 345.8C503.1 345 504.4 344.2 505.6 343.6C506.2 343.3 506.8 343 507.4 342.7C508 342.4 508.6 342.2 509.1 341.9C510.2 341.4 511.2 341.1 512.1 340.7C512.5 340.5 513 340.4 513.3 340.3C513.7 340.2 514 340.1 514.4 340C515 339.8 515.5 339.7 515.9 339.6C516.5 339.1 516.7 339.1 516.7 339.1Z" fill="#383838"/>
<path d="M492.4 352.199C492.4 352.299 489 353.399 484.8 354.599C480.6 355.799 477.1 356.699 477.1 356.599C477.1 356.499 480.5 355.399 484.7 354.199C488.9 352.999 492.4 352.099 492.4 352.199Z" fill="#383838"/>
<path d="M492.1 368.899C492 368.899 492 367.999 491.9 366.499C491.9 364.999 491.9 362.999 491.9 360.799C492 358.599 492.1 356.599 492.2 355.099C492.3 353.599 492.4 352.799 492.5 352.799C492.6 352.799 492.6 353.699 492.5 355.199C492.5 356.799 492.4 358.699 492.3 360.899C492.2 362.999 492.2 364.999 492.2 366.599C492.2 367.999 492.2 368.899 492.1 368.899Z" fill="#383838"/>
<path d="M506.4 361.599C506.3 361.599 505.9 357.499 505.6 352.499C505.3 347.399 505.1 343.299 505.2 343.299C505.3 343.299 505.7 347.399 506 352.399C506.3 357.499 506.5 361.599 506.4 361.599Z" fill="#383838"/>
<path d="M488.6 342.899C488.6 342.799 489.5 342.799 491 342.799C492.5 342.799 494.6 342.899 496.8 342.899C499.1 342.999 501.1 343.099 502.6 343.199C504.1 343.299 505 343.399 505 343.399C505 343.499 504.1 343.499 502.6 343.499C501.1 343.499 499 343.399 496.8 343.399C494.5 343.299 492.5 343.199 491 343.099C489.5 343.099 488.6 342.999 488.6 342.899Z" fill="#383838"/>
<path d="M524.3 394.301C524.3 394.301 524.3 394.101 524.2 393.801C524.2 393.401 524.2 393.001 524.1 392.401C524 391.201 524 389.401 524.1 387.201C524.1 385.001 524.3 382.401 524.5 379.501C524.8 376.601 525.2 373.401 525.8 370.101C526.4 366.801 527.1 363.601 527.9 360.801C528.7 358.001 529.4 355.501 530.2 353.401C530.9 351.301 531.5 349.601 532 348.501C532.2 348.001 532.4 347.501 532.6 347.201C532.7 346.901 532.8 346.701 532.8 346.801C532.8 346.801 532.8 347.001 532.7 347.301C532.6 347.701 532.4 348.101 532.2 348.601C531.8 349.801 531.2 351.401 530.5 353.501C529.8 355.601 529.1 358.101 528.3 360.901C527.6 363.701 526.9 366.801 526.3 370.201C525.7 373.501 525.3 376.701 525 379.601C524.7 382.501 524.5 385.101 524.5 387.301C524.4 389.501 524.4 391.301 524.4 392.501C524.4 393.101 524.4 393.501 524.4 393.901C524.4 394.101 524.4 394.301 524.3 394.301Z" fill="#383838"/>
<path d="M526.2 369.602C526.2 369.602 525.7 370.302 524.8 371.202C523.9 372.102 522.5 373.402 521 374.702C519.5 376.002 518.1 377.202 517 378.002C516 378.802 515.3 379.302 515.2 379.202C515.2 379.202 515.8 378.602 516.8 377.702C517.9 376.702 519.2 375.602 520.7 374.302C522.1 373.002 523.5 371.902 524.6 370.902C525.6 370.102 526.2 369.602 526.2 369.602Z" fill="#383838"/>
<path d="M537.7 378.802C537.6 378.802 537.1 378.002 536.2 376.702C535.2 375.302 534 373.502 532.6 371.502C531.2 369.502 530 367.802 529 366.302C528.1 365.002 527.5 364.202 527.5 364.102C527.5 364.102 528.2 364.802 529.2 366.102C530.2 367.402 531.5 369.202 533 371.202C534.4 373.202 535.6 375.102 536.5 376.502C537.3 377.902 537.7 378.802 537.7 378.802Z" fill="#383838"/>
<path d="M531.7 349.8C531.8 349.9 528 352.5 523.2 355.5C518.4 358.6 514.5 361 514.5 360.9C514.4 360.8 518.2 358.2 523 355.2C527.7 352.1 531.6 349.7 531.7 349.8Z" fill="#383838"/>
<path d="M542.4 361.401C542.3 361.501 539.7 359.101 536.7 356.101C533.6 353.101 531.2 350.601 531.3 350.501C531.4 350.401 534 352.801 537 355.801C540.1 358.801 542.5 361.301 542.4 361.401Z" fill="#383838"/>
<path d="M545.1 361.199L548.4 360.899C550.7 360.699 553 359.999 555 358.899C556 358.299 557 357.799 558.1 357.399C562.1 355.799 566.6 356.099 571 355.899C578.1 355.499 585.1 353.799 591.5 350.699C591.9 350.499 592.2 350.199 592.4 349.899C593.1 348.699 591.8 347.599 590.8 346.899C585.3 343.499 579.7 340.099 573.5 338.399C567.3 336.699 560.2 336.999 554.9 340.699C548.4 344.799 546.2 353.699 545.1 361.199Z" fill="#1E1E1E"/>
<path d="M592.4 349.4C592.4 349.4 592.2 349.3 591.8 349.1C591.4 348.9 590.9 348.6 590.3 348.3C589 347.6 587 346.6 584.6 345.4C582.2 344.2 579.2 342.9 575.8 342C572.4 341 568.4 340.5 564.3 341.1C560.2 341.6 556.5 343.2 553.9 345.6C551.2 348 549.6 350.8 548.5 353.2C547.4 355.6 546.6 357.7 546.1 359.1C545.9 359.8 545.7 360.3 545.5 360.7C545.4 361.1 545.3 361.3 545.3 361.3C545.3 361.3 545.3 361.1 545.4 360.7C545.5 360.3 545.7 359.7 545.9 359C546.4 357.6 547 355.5 548.1 353C549.2 350.5 550.8 347.6 553.6 345.2C556.3 342.8 560.1 341.1 564.3 340.6C568.4 340.1 572.5 340.6 575.9 341.6C579.4 342.6 582.3 343.9 584.8 345.1C587.2 346.3 589.1 347.4 590.5 348.1C591.1 348.5 591.6 348.8 592 349C592.2 349.2 592.4 349.3 592.4 349.4Z" fill="#383838"/>
<path d="M584.5 353.599C584.4 353.699 580.2 350.899 575 347.399C569.8 343.899 565.6 340.999 565.7 340.899C565.8 340.799 570 343.599 575.2 347.099C580.4 350.499 584.6 353.499 584.5 353.599Z" fill="#383838"/>
<path d="M580.4 340.5C580.4 340.6 578.9 341 577.1 341.2C575.2 341.4 573.7 341.3 573.7 341.2C573.7 341.1 575.2 341 577.1 340.8C578.9 340.5 580.4 340.3 580.4 340.5Z" fill="#383838"/>
<path d="M561.3 337C561.4 337.1 560.8 338.3 559.9 339.8C559 341.3 558.2 342.4 558.1 342.4C558 342.3 558.6 341.1 559.5 339.6C560.4 338.1 561.2 337 561.3 337Z" fill="#383838"/>
<path d="M565.1 356.1C565.1 356.1 564.3 355.7 563 355C561.8 354.3 560.1 353.2 558.3 351.9C556.5 350.6 554.9 349.4 553.8 348.5C552.7 347.6 552 347 552 347C552 347 552.8 347.4 554 348.3C555.3 349.2 556.8 350.4 558.5 351.6C560.3 352.9 561.9 354 563.1 354.8C564.4 355.5 565.1 356 565.1 356.1Z" fill="#383838"/>
<path d="M549.9 375.001C546.8 374.201 543.1 377.201 542.4 380.401C541.8 383.601 542.9 386.801 544.3 389.701C547.4 396.101 551.6 402.101 557.2 406.501C562.8 410.901 569.8 413.801 576.9 413.701C575.6 407.601 577.2 401.201 576.5 395.001C575.9 389.601 573.3 384.401 569.5 380.601C565.6 376.801 560.4 374.301 555 373.701C553 373.501 550.7 373.201 549.9 375.001Z" fill="#1E1E1E"/>
<path d="M576.9 413.8C576.9 413.8 576.7 413.7 576.5 413.6C576.2 413.4 575.8 413.2 575.3 412.8C574.3 412.1 573.2 410.6 572.2 408.7C571.7 407.7 571.1 406.7 570.6 405.5C570.1 404.3 569.5 403.1 568.9 401.8C568.3 400.5 567.7 399.2 566.8 397.8C566 396.5 565 395.2 564 393.9C561.9 391.4 559.6 389.2 557.6 387.2C555.6 385.1 553.9 383.2 552.7 381.3C551.5 379.5 550.7 377.9 550.3 376.7C550.1 376.1 550 375.7 549.9 375.4C549.8 375.1 549.8 374.9 549.8 374.9C549.8 374.9 550 375.5 550.5 376.7C551 377.8 551.7 379.4 553 381.1C554.2 382.9 555.9 384.8 557.9 386.8C559.9 388.8 562.2 391 564.3 393.5C565.4 394.8 566.3 396.1 567.2 397.4C568 398.7 568.7 400.1 569.3 401.4C569.9 402.7 570.4 403.9 570.9 405.1C571.4 406.3 572 407.3 572.4 408.3C573.3 410.2 574.4 411.7 575.3 412.4C576.3 413.4 576.9 413.7 576.9 413.8Z" fill="#383838"/>
<path d="M560.8 408.701C560.7 408.701 560.8 407.901 561.1 406.601C561.3 405.301 561.7 403.601 562.3 401.601C562.8 399.701 563.4 398.001 563.9 396.801C564.4 395.601 564.7 394.801 564.8 394.901C564.9 394.901 564.6 395.701 564.2 396.901C563.8 398.101 563.3 399.901 562.7 401.801C562.2 403.701 561.7 405.401 561.4 406.701C561.1 407.901 560.9 408.701 560.8 408.701Z" fill="#383838"/>
<path d="M576.3 393.701C576.3 393.801 575.4 393.501 574.1 393.201C572.8 392.801 570.9 392.401 568.8 391.901C566.7 391.401 564.9 391.101 563.5 390.801C562.1 390.501 561.3 390.401 561.3 390.301C561.3 390.201 562.2 390.301 563.5 390.501C564.8 390.701 566.8 391.001 568.8 391.501C570.9 392.001 572.7 392.501 574 392.901C575.5 393.301 576.4 393.601 576.3 393.701Z" fill="#383838"/>
<path d="M549.3 398.1C549.2 398.1 549.4 397.2 549.6 395.7C549.9 394.2 550.3 392.2 550.9 389.9C551.5 387.7 552.1 385.7 552.6 384.2C553.1 382.8 553.4 381.9 553.5 381.9C553.6 381.9 553.3 382.8 552.9 384.3C552.5 385.8 551.9 387.8 551.3 390C550.7 392.2 550.2 394.2 549.9 395.7C549.6 397.2 549.3 398.1 549.3 398.1Z" fill="#383838"/>
<path d="M569.2 380.6C569.2 380.7 565.3 380.4 560.5 379.9C555.7 379.4 551.9 378.9 551.9 378.8C551.9 378.7 555.8 379 560.6 379.5C565.3 380 569.2 380.5 569.2 380.6Z" fill="#383838"/>
<path d="M566.3 427.7C566.3 427.8 552.6 427.9 535.8 427.9C519 427.9 505.3 427.8 505.3 427.7C505.3 427.6 519 427.5 535.8 427.5C552.7 427.5 566.3 427.6 566.3 427.7Z" fill="#383838"/>
<path d="M556.8 445.302C556.8 445.402 547.6 445.502 536.2 445.502C524.8 445.502 515.6 445.402 515.6 445.302C515.6 445.202 524.8 445.102 536.2 445.102C547.6 445.102 556.8 445.202 556.8 445.302Z" fill="#383838"/>
<path d="M557.2 447.802C557.2 447.902 548 448.002 536.6 448.002C525.2 448.002 516 447.902 516 447.802C516 447.702 525.2 447.602 536.6 447.602C548 447.602 557.2 447.702 557.2 447.802Z" fill="#383838"/>
<path d="M557.2 443.2C557.2 443.3 547.7 443.4 535.9 443.4C524.2 443.4 514.6 443.3 514.6 443.2C514.6 443.1 524.1 443 535.9 443C547.7 443 557.2 443.1 557.2 443.2Z" fill="#383838"/>
<defs>
<linearGradient id="paint0_linear" x1="247.556" y1="412.023" x2="279.964" y2="412.023" gradientUnits="userSpaceOnUse">
<stop stop-color="#094C90"/>
<stop offset="1" stop-color="#0C69C8"/>
</linearGradient>
<linearGradient id="paint1_linear" x1="224.183" y1="412.406" x2="256.591" y2="412.406" gradientUnits="userSpaceOnUse">
<stop stop-color="#094C90"/>
<stop offset="1" stop-color="#0C69C8"/>
</linearGradient>
<linearGradient id="paint2_linear" x1="465.103" y1="188.553" x2="465.103" y2="131.797" gradientUnits="userSpaceOnUse">
<stop stop-color="#094C90"/>
<stop offset="1" stop-color="#0C69C8"/>
</linearGradient>
<linearGradient id="paint3_linear" x1="489.195" y1="393.777" x2="514.554" y2="393.777" gradientUnits="userSpaceOnUse">
<stop stop-color="#094C90"/>
<stop offset="1" stop-color="#0C69C8"/>
</linearGradient>
<linearGradient id="paint4_linear" x1="406.488" y1="399.427" x2="440.169" y2="399.427" gradientUnits="userSpaceOnUse">
<stop stop-color="#094C90"/>
<stop offset="1" stop-color="#0C69C8"/>
</linearGradient>
<linearGradient id="paint5_linear" x1="446.471" y1="277.22" x2="446.471" y2="162.039" gradientUnits="userSpaceOnUse">
<stop stop-color="#094C90"/>
<stop offset="1" stop-color="#0C69C8"/>
</linearGradient>
<linearGradient id="paint6_linear" x1="384.957" y1="201.38" x2="405.315" y2="125.116" gradientUnits="userSpaceOnUse">
<stop stop-color="#094C90"/>
<stop offset="1" stop-color="#0C69C8"/>
</linearGradient>
<linearGradient id="paint7_linear" x1="146.856" y1="454.806" x2="172.864" y2="454.806" gradientUnits="userSpaceOnUse">
<stop stop-color="#094C90"/>
<stop offset="1" stop-color="#0C69C8"/>
</linearGradient>
<linearGradient id="paint8_linear" x1="101.331" y1="454.806" x2="127.34" y2="454.806" gradientUnits="userSpaceOnUse">
<stop stop-color="#094C90"/>
<stop offset="1" stop-color="#0C69C8"/>
</linearGradient>
<linearGradient id="paint9_linear" x1="306.68" y1="457.868" x2="332.689" y2="457.868" gradientUnits="userSpaceOnUse">
<stop stop-color="#094C90"/>
<stop offset="1" stop-color="#0C69C8"/>
</linearGradient>
<linearGradient id="paint10_linear" x1="261.156" y1="457.868" x2="287.164" y2="457.868" gradientUnits="userSpaceOnUse">
<stop stop-color="#094C90"/>
<stop offset="1" stop-color="#0C69C8"/>
</linearGradient>
<linearGradient id="paint11_linear" x1="196.567" y1="278.704" x2="274.854" y2="278.704" gradientUnits="userSpaceOnUse">
<stop stop-color="#094C90"/>
<stop offset="1" stop-color="#0C69C8"/>
</linearGradient>
<linearGradient id="paint12_linear" x1="206.391" y1="297.067" x2="277.398" y2="297.067" gradientUnits="userSpaceOnUse">
<stop stop-color="#094C90"/>
<stop offset="1" stop-color="#0C69C8"/>
</linearGradient>
</defs>
</svg>
