<svg width="24" height="24" viewBox="0 0 24 24" fill="none" xmlns="http://www.w3.org/2000/svg">
<path opacity="0.4" d="M11.9993 21.9981C11.2303 21.9981 10.4623 21.7061 9.87526 21.1231L9.14526 20.3931C8.86226 20.1111 8.48326 19.9551 8.08126 19.9541H7.05426C5.39426 19.9541 4.04326 18.6031 4.04326 16.9431V15.9151C4.04226 15.5141 3.88626 15.1351 3.60326 14.8501L2.88526 14.1331C1.70926 12.9641 1.70426 11.0531 2.87426 9.87615L3.60426 9.14515C3.88626 8.86215 4.04226 8.48315 4.04326 8.08115V7.05515C4.04326 5.39415 5.39426 4.04315 7.05426 4.04315H8.08226C8.48326 4.04315 8.86126 3.88715 9.14626 3.60215L9.86526 2.88515C11.0343 1.70915 12.9443 1.70315 14.1223 2.87415L14.8523 3.60415C15.1363 3.88715 15.5143 4.04315 15.9153 4.04315H16.9433C18.6033 4.04315 19.9543 5.39415 19.9543 7.05515V8.08215C19.9553 8.48315 20.1113 8.86215 20.3943 9.14715L21.1123 9.86515C21.6813 10.4311 21.9963 11.1851 21.9993 11.9901C22.0013 12.7901 21.6933 13.5431 21.1323 14.1121C21.1223 14.1221 21.1133 14.1331 21.1033 14.1421L20.3933 14.8521C20.1113 15.1351 19.9553 15.5141 19.9543 15.9161V16.9431C19.9543 18.6031 18.6033 19.9541 16.9433 19.9541H15.9153C15.5143 19.9551 15.1353 20.1111 14.8513 20.3941L14.1323 21.1121C13.5463 21.7021 12.7723 21.9981 11.9993 21.9981Z" fill="#0081F9"/>
<path fill-rule="evenodd" clip-rule="evenodd" d="M10.0437 10.0508C9.87873 10.2158 9.66473 10.3048 9.42773 10.3048C9.20573 10.3048 8.98773 10.2138 8.81273 10.0498C8.64673 9.88483 8.55273 9.65883 8.55273 9.42983C8.55273 9.21183 8.64473 8.98783 8.80673 8.81483C8.89573 8.72483 9.00173 8.65683 9.10773 8.62083C9.40973 8.48283 9.81073 8.56383 10.0487 8.81383C10.1337 8.89883 10.1987 8.99183 10.2417 9.08883C10.2887 9.19283 10.3127 9.31083 10.3127 9.42983C10.3127 9.66783 10.2177 9.88883 10.0437 10.0508ZM15.1914 8.80973C14.8504 8.46973 14.2954 8.46973 13.9544 8.80973L8.81443 13.9497C8.47343 14.2907 8.47343 14.8457 8.81443 15.1877C8.98043 15.3527 9.19943 15.4437 9.43343 15.4437C9.66743 15.4437 9.88643 15.3527 10.0514 15.1877L15.1914 10.0477C15.5324 9.70573 15.5324 9.15173 15.1914 8.80973ZM14.9067 13.7638C14.5827 13.6278 14.1987 13.7018 13.9427 13.9578C13.8897 14.0198 13.8147 14.1158 13.7637 14.2288C13.7097 14.3508 13.7027 14.4818 13.7027 14.5698C13.7027 14.6578 13.7097 14.7878 13.7637 14.9098C13.8137 15.0218 13.8737 15.1128 13.9527 15.1918C14.1337 15.3598 14.3437 15.4448 14.5777 15.4448C14.7997 15.4448 15.0177 15.3548 15.1967 15.1878C15.3557 15.0288 15.4427 14.8088 15.4427 14.5698C15.4427 14.3298 15.3557 14.1108 15.1957 13.9508C15.1077 13.8638 15.0017 13.7958 14.9067 13.7638Z" fill="#0081F9"/>
</svg>
