<svg width="33" height="33" viewBox="0 0 33 33" fill="none" xmlns="http://www.w3.org/2000/svg">
<path opacity="0.4" d="M2.75 8.86462C2.75 5.4945 5.54158 2.75 8.97123 2.75H15.7928C19.2154 2.75 22 5.48625 22 8.85087V24.1354C22 27.5069 19.2084 30.25 15.7774 30.25H8.95864C5.53458 30.25 2.75 27.5138 2.75 24.1491V22.8566V8.86462Z" fill="#200E32"/>
<path d="M29.9457 15.7504L26.0327 11.7506C25.6283 11.3381 24.9775 11.3381 24.5744 11.7533C24.1727 12.1686 24.174 12.8382 24.5771 13.2507L26.721 15.4411H24.6655H13.1288C12.5597 15.4411 12.0977 15.9154 12.0977 16.4998C12.0977 17.0856 12.5597 17.5586 13.1288 17.5586H26.721L24.5771 19.7489C24.174 20.1614 24.1727 20.8311 24.5744 21.2463C24.7766 21.4539 25.0404 21.5584 25.3056 21.5584C25.568 21.5584 25.8319 21.4539 26.0327 21.2491L29.9457 17.2506C30.1399 17.0512 30.2497 16.7817 30.2497 16.4998C30.2497 16.2193 30.1399 15.9498 29.9457 15.7504Z" fill="#200E32"/>
</svg>
