<svg width="593" height="415" viewBox="0 0 593 415" fill="none" xmlns="http://www.w3.org/2000/svg">
<path d="M301.4 414.8C381.316 414.8 446.1 408.263 446.1 400.2C446.1 392.136 381.316 385.6 301.4 385.6C221.485 385.6 156.7 392.136 156.7 400.2C156.7 408.263 221.485 414.8 301.4 414.8Z" fill="#1E1E1E"/>
<path d="M165.1 166.3C165.1 166.3 167 167.6 170.5 169.6C181.9 176.2 209.8 190.4 240.3 190.2C241.3 190.2 242.2 190.2 243.2 190.1C244.3 190.1 245.4 190 246.5 189.9C249.4 189.7 252.4 189.3 255.3 188.8L259.1 159.4L249 159.9L246.2 160L244.6 160.1L217.7 161.4L177.1 148.5L171.3 146.6C171.3 146.8 164.1 151.9 165.1 166.3Z" fill="url(#paint0_linear)"/>
<path d="M165.1 166.299C165.1 166.299 167 167.599 170.5 169.599C170.9 161.599 174.3 153.699 177.1 148.599L171.3 146.699C171.3 146.799 164.1 151.899 165.1 166.299Z" fill="#FAFCFF" stroke="#0C6BF4" stroke-width="0.7107"/>
<path d="M243.3 190.2C244.4 190.2 245.5 190.1 246.6 190C249.5 189.8 252.5 189.4 255.4 188.9L259.2 159.5L249.1 160L246.3 160.1C245.5 163 244.9 166.2 244.4 169.6C243.3 177 243 183.9 243.3 190.2Z" fill="#06396B"/>
<path d="M192.479 136.491L156.143 142.309L163.921 190.889L200.257 185.071L192.479 136.491Z" fill="#E6BE2E"/>
<path d="M196.5 139.1H159.7V188.3H196.5V139.1Z" fill="#F0D986"/>
<path d="M171.9 149.499C171.9 151.499 170.3 153.199 168.2 153.199C166.2 153.199 164.5 151.599 164.5 149.499C164.5 147.499 166.1 145.799 168.2 145.799C170.3 145.799 171.9 147.499 171.9 149.499Z" fill="#E6BE2E"/>
<path d="M186.3 161.098H165.7C165.1 161.098 164.6 160.598 164.6 159.998C164.6 159.398 165.1 158.898 165.7 158.898H186.3C186.9 158.898 187.4 159.398 187.4 159.998C187.4 160.598 186.9 161.098 186.3 161.098Z" fill="#E6BE2E"/>
<path d="M191.1 166.8H165.7C165.1 166.8 164.6 166.3 164.6 165.7C164.6 165.1 165.1 164.6 165.7 164.6H191.1C191.7 164.6 192.2 165.1 192.2 165.7C192.2 166.3 191.7 166.8 191.1 166.8Z" fill="#E6BE2E"/>
<path d="M191.1 172.098H165.7C165.1 172.098 164.6 171.598 164.6 170.998C164.6 170.398 165.1 169.898 165.7 169.898H191.1C191.7 169.898 192.2 170.398 192.2 170.998C192.2 171.598 191.7 172.098 191.1 172.098Z" fill="#E6BE2E"/>
<path d="M191.1 176.999H165.7C165.1 176.999 164.6 176.499 164.6 175.899C164.6 175.299 165.1 174.799 165.7 174.799H191.1C191.7 174.799 192.2 175.299 192.2 175.899C192.2 176.499 191.7 176.999 191.1 176.999Z" fill="#E6BE2E"/>
<path d="M158.5 157.6C158.5 157.6 166.4 156.7 166.6 158.9C166.8 161.1 161.8 161.6 161.8 161.6C161.8 161.6 169.1 162 169.3 163.6C169.5 165.2 161.8 166.7 161.8 166.7C161.8 166.7 168 166.7 168.1 168.2C168.2 169.8 161.9 170.9 161.9 170.9C161.9 170.9 166.8 171.1 166.9 172.5C167 173.9 158.9 176.4 157.4 174.8C155.8 173.2 158 170.3 156.1 168.5C154.3 166.7 154.3 163.9 155.3 162.6C156.4 161.4 153 157.7 158.5 157.6Z" fill="#FFCACA"/>
<path fill-rule="evenodd" clip-rule="evenodd" d="M182 291.299L203.2 298.599L205.7 291.299C206.7 288.499 205.2 285.499 202.4 284.499L191.3 280.699C188.5 279.699 185.5 281.199 184.5 283.999L182 291.299ZM201.5 294.899L185.6 289.499L187.2 284.899C187.6 283.599 189.1 282.899 190.4 283.299L201.5 287.099C202.8 287.499 203.5 288.999 203.1 290.299L201.5 294.899Z" fill="#C29D17"/>
<path d="M203.4 343.099L151 325.199C148.7 324.399 147.5 321.999 148.3 319.699L159.2 287.699L219.8 308.399L208.9 340.399C208.1 342.699 205.7 343.899 203.4 343.099Z" fill="#E6BE2E"/>
<path d="M215.8 312.698L187 309.298C186 309.198 185 308.798 184.1 308.298L159.2 293.398C157.9 292.598 157.4 291.098 157.9 289.698L160.3 282.698C160.9 281.098 162.6 280.198 164.3 280.798L219.7 299.698C221.3 300.298 222.2 301.998 221.6 303.698L219.2 310.698C218.6 311.998 217.2 312.798 215.8 312.698Z" fill="#C29D17"/>
<path d="M206.6 272.699C206.6 272.699 210.6 283.599 208.4 285.299C206.2 286.899 202.1 280.899 200.8 283.199C199.5 285.499 203.7 289.799 198 290.199C192.3 290.499 187.2 286.199 187.8 280.099C188.4 273.999 193.3 270.299 193.3 268.499L194.5 264.699L207.6 269.099L206.6 272.699Z" fill="#FFCACA"/>
<path d="M192.2 268.098L208.1 273.198L211.4 266.198L211.5 266.098L227.3 233.198L243.9 229.098L251 227.398L252.2 227.098L260.7 224.998L267.6 223.298L258.8 194.398C258.8 194.398 255.8 194.898 251.2 196.098C249.6 196.498 247.7 197.098 245.7 197.798C245.2 197.998 244.6 198.198 244.1 198.298C243 198.698 241.8 199.098 240.6 199.598C231.8 202.998 221.3 208.398 212.8 216.798C200 229.298 195 248.998 193.2 259.998C193.2 260.098 193.1 260.298 193.1 260.498C192.4 265.098 192.2 268.098 192.2 268.098Z" fill="url(#paint1_linear)"/>
<path d="M245.6 197.699C245.1 197.899 244.5 198.099 244 198.199C245.6 210.399 249 220.199 252.1 226.899L260.6 224.799L267.5 223.099L258.7 194.199C258.7 194.199 255.7 194.699 251.1 195.899C249.5 196.499 247.6 197.099 245.6 197.699Z" fill="#06396B"/>
<path d="M193.1 260.398C192.3 265.098 192.1 267.998 192.1 267.998L208 273.098L211.3 266.098L211.4 265.998C202.8 264.598 196.5 262.098 193.1 260.398Z" fill="#094C90"/>
<path d="M454.1 163.298L437 166.798C436.2 166.998 435.5 166.498 435.3 165.698L428.3 131.898C428.1 131.098 428.6 130.398 429.4 130.198L446.5 126.698C447.3 126.498 448 126.998 448.2 127.798L455.2 161.598C455.3 162.398 454.8 163.098 454.1 163.298Z" fill="#E6BE2E"/>
<path d="M451.6 156.998L436.7 160.098L431.2 133.698C431.1 133.198 431.4 132.598 432 132.498L445 129.798C445.5 129.698 446.1 129.998 446.2 130.598L451.6 156.998Z" fill="#F0D986"/>
<path d="M422.6 161.998L426.3 160.698C426.3 160.698 429.3 162.298 434.2 159.998L431.2 145.798C431.2 145.798 436.3 142.298 436.2 140.098C436.1 137.998 426.1 138.498 422.1 148.198L417.7 150.098L422.6 161.998Z" fill="#FFCACA"/>
<path d="M423.6 166.298C423.6 166.298 421.7 167.598 418.2 169.598C406.8 176.198 378.9 190.398 348.4 190.198C347.4 190.198 346.5 190.198 345.5 190.098C344.4 190.098 343.3 189.998 342.2 189.898C339.3 189.698 336.3 189.298 333.4 188.798L329.6 159.398L339.7 159.898L342.5 159.998L344.1 160.098L371 161.398L411.6 148.498L417.4 146.598C417.5 146.798 424.7 151.898 423.6 166.298Z" fill="url(#paint2_linear)"/>
<path d="M345.5 190.198C344.4 190.198 343.3 190.098 342.2 189.998C339.3 189.798 336.3 189.398 333.4 188.898L329.6 159.498L339.7 159.998L342.5 160.098C343.3 162.998 343.9 166.198 344.4 169.598C345.5 176.998 345.8 183.898 345.5 190.198Z" fill="#06396B"/>
<path d="M417.5 146.799L411.7 148.699C414.5 153.899 417.9 161.799 418.3 169.699C421.8 167.699 423.7 166.399 423.7 166.399C424.7 151.899 417.5 146.799 417.5 146.799Z" fill="#094C90"/>
<path d="M400.7 279.699C401.1 280.599 400.7 281.599 399.8 281.999L381.2 289.899L379.8 286.699L398.4 278.799C399.3 278.399 400.3 278.899 400.7 279.699Z" fill="#E6BE2E"/>
<path fill-rule="evenodd" clip-rule="evenodd" d="M374.6 304.698C368.1 307.498 360.7 304.398 357.9 297.998C355.1 291.498 358.2 284.098 364.6 281.298C371.1 278.498 378.5 281.598 381.3 287.998C384.1 294.498 381.1 301.898 374.6 304.698ZM373.6 302.398C378.8 300.198 381.2 294.198 379 288.998C376.8 283.798 370.8 281.398 365.6 283.598C360.4 285.798 358 291.798 360.2 296.998C362.4 302.198 368.4 304.598 373.6 302.398Z" fill="#E6BE2E"/>
<path d="M381.9 270.8L383.2 274.6C383.2 274.6 383.5 278.8 383.3 280.9C383.1 283 381.6 286.5 383.6 287.1C385.6 287.6 385.2 292.1 389.6 291.1C394 290.1 400.7 286.1 400.6 282.5C400.4 278.9 395.2 272.4 395.2 272.4L394.4 269L381.9 270.8Z" fill="#FFCACA"/>
<path d="M396.6 268.099L380.7 273.199L377.4 266.199L377.3 266.099L361.5 233.199L345 228.999L337.9 227.299L336.7 226.999L328.2 224.899L321.3 223.199L330.1 194.299C330.1 194.299 333.1 194.799 337.7 195.999C339.3 196.399 341.2 196.999 343.2 197.699C343.7 197.899 344.3 198.099 344.8 198.199C345.9 198.599 347.1 198.999 348.3 199.499C357.1 202.899 367.6 208.299 376.1 216.699C388.8 229.199 393.7 248.899 395.6 259.899C395.6 259.999 395.7 260.199 395.7 260.399C396.4 265.099 396.6 268.099 396.6 268.099Z" fill="url(#paint3_linear)"/>
<path d="M343.2 197.699C343.7 197.899 344.3 198.099 344.8 198.199C343.2 210.399 339.8 220.199 336.7 226.899L328.2 224.799L321.3 223.099L330.1 194.199C330.1 194.199 333.1 194.699 337.7 195.899C339.3 196.499 341.2 197.099 343.2 197.699Z" fill="#06396B"/>
<path d="M377.3 265.998L377.4 266.098L380.7 273.098L396.6 267.998C396.6 267.998 396.4 264.998 395.6 260.398C392.2 262.098 386 264.598 377.3 265.998Z" fill="#094C90"/>
<path d="M240.4 58.2985C240.4 58.2985 233.4 55.1985 232.8 52.5985C232.2 49.9985 231.2 44.0985 229.2 43.6985C227.2 43.2985 228.4 52.7985 228.4 52.7985C228.4 52.7985 227.9 43.6985 225.2 42.7985C222.5 41.7985 224.8 53.9985 224.5 53.5985C224.2 53.1985 222.9 44.3985 221.5 44.5985C220.1 44.7985 219.6 53.5985 221.6 57.8985C223.6 62.1985 224.3 66.0985 224.3 66.0985L237 66.8985L240.4 58.2985Z" fill="#FFCACA"/>
<path d="M237.8 66.8994C237.8 66.8994 244 63.1994 245.7 54.5994C246.9 48.7994 241.4 53.6994 239.7 57.8994C239.7 57.8994 230.5 57.3994 228.9 66.3994L237.8 66.8994Z" fill="#FFCACA"/>
<path d="M224.8 120.899C230.9 133.499 240.9 143.299 248.8 149.599C249 149.699 249.1 149.899 249.3 149.999C249.4 150.099 249.4 150.099 249.5 150.099C255.8 154.999 260.5 157.599 260.5 157.599L278.5 133.399L272.5 129.399L269.9 127.699L268.4 126.699L244 110.499L240.3 73.9992L239.5 66.2992L222.8 65.6992C222.8 65.6992 221.9 68.7992 221 73.6992C219.1 84.6992 217.1 104.899 224.8 120.899Z" fill="url(#paint4_linear)"/>
<path d="M260.6 157.599L278.6 133.399L272.6 129.399L270 127.699L268.5 126.699C263.3 129.599 255.2 136.199 249.5 150.099C255.8 154.999 260.6 157.599 260.6 157.599Z" fill="#06396B"/>
<path d="M221.1 73.6992C228.5 72.9992 235.4 73.4992 240.3 73.9992L239.5 66.2992L222.9 65.6992C222.9 65.6992 222 68.7992 221.1 73.6992Z" fill="#094C90"/>
<path d="M244.7 16.2996C244.7 10.6996 240.1 6.09961 234.5 6.09961C228.9 6.09961 224.3 10.6996 224.3 16.2996C224.3 19.0996 225.4 21.5996 227.3 23.4996C228.7 24.8996 229.8 26.6996 230.3 28.5996L231.1 31.5996H237.8L238.6 28.6996C239.1 26.6996 240.2 24.8996 241.7 23.4996C243.5 21.6996 244.7 19.0996 244.7 16.2996Z" fill="#E6BE2E"/>
<path fill-rule="evenodd" clip-rule="evenodd" d="M230.9 19.8996C230.9 19.1996 231.5 18.5996 232.2 18.5996C232.9 18.5996 233.5 19.1996 233.5 19.8996V31.5996H233V20.9996C232.8 21.1996 232.5 21.1996 232.2 21.1996C231.5 21.1996 230.9 20.5996 230.9 19.8996ZM231.4 19.8996C231.4 20.2996 231.7 20.6996 232.2 20.6996C232.6 20.6996 233 20.3996 233 19.8996C233 19.4996 232.7 19.0996 232.2 19.0996C231.8 19.0996 231.4 19.4996 231.4 19.8996Z" fill="white"/>
<path fill-rule="evenodd" clip-rule="evenodd" d="M234.8 20.9992C234.8 20.2992 235.4 19.6992 236.1 19.6992C236.8 19.6992 237.4 20.2992 237.4 20.9992C237.4 21.6992 236.8 22.2992 236.1 22.2992C235.8 22.2992 235.6 22.1992 235.3 22.0992L235.2 31.5992H234.6L234.8 20.9992ZM235.4 20.9992C235.4 21.3992 235.7 21.7992 236.2 21.7992C236.6 21.7992 237 21.4992 237 20.9992C237 20.5992 236.7 20.1992 236.2 20.1992C235.7 20.2992 235.4 20.5992 235.4 20.9992Z" fill="white"/>
<path d="M234.5 35.3996C232.6 35.3996 231 33.7996 231 31.8996V31.0996H238V31.9996C237.9 33.8996 236.4 35.3996 234.5 35.3996Z" fill="black"/>
<path d="M238 32.7992H231C230.9 32.7992 230.7 32.6992 230.7 32.4992C230.7 32.3992 230.8 32.1992 231 32.1992H238C238.1 32.1992 238.3 32.2992 238.3 32.4992C238.2 32.5992 238.1 32.7992 238 32.7992Z" fill="#E6BE2E"/>
<path d="M238 33.8988H231C230.9 33.8988 230.7 33.7988 230.7 33.5988C230.7 33.4988 230.8 33.2988 231 33.2988H238C238.1 33.2988 238.3 33.3988 238.3 33.5988C238.3 33.7988 238.2 33.8988 238 33.8988Z" fill="#E6BE2E"/>
<path d="M222.2 15.7988H219.5C219.2 15.7988 219 15.5988 219 15.2988C219 14.9988 219.2 14.7988 219.5 14.7988H222.2C222.5 14.7988 222.7 14.9988 222.7 15.2988C222.7 15.5988 222.4 15.7988 222.2 15.7988Z" fill="#E6BE2E"/>
<path d="M223 10.9997L220.6 9.79965C220.3 9.69965 220.3 9.39965 220.4 9.09965C220.5 8.79965 220.8 8.79965 221.1 8.89965L223.5 10.0997C223.8 10.1997 223.8 10.4997 223.7 10.7997C223.5 11.0997 223.2 11.0997 223 10.9997Z" fill="#E6BE2E"/>
<path d="M223.1 19.5002L220.7 20.7002C220.4 20.8002 220.4 21.1002 220.5 21.4002C220.6 21.7002 220.9 21.7002 221.2 21.6002L223.6 20.4002C223.9 20.3002 223.9 20.0002 223.8 19.7002C223.7 19.5002 223.4 19.4002 223.1 19.5002Z" fill="#E6BE2E"/>
<path d="M225.9 7.09961L224 5.19961C223.8 4.99961 223.8 4.69961 224 4.49961C224.2 4.29961 224.5 4.29961 224.7 4.49961L226.6 6.39961C226.8 6.59961 226.8 6.89961 226.6 7.09961C226.4 7.29961 226.1 7.29961 225.9 7.09961Z" fill="#E6BE2E"/>
<path d="M229.1 4.49922L228.2 1.99922C228.1 1.69922 228.2 1.39922 228.5 1.29922C228.8 1.19922 229.1 1.29922 229.2 1.59922L230.1 4.09922C230.2 4.39922 230.1 4.69922 229.8 4.79922C229.5 4.89922 229.2 4.79922 229.1 4.49922Z" fill="#E6BE2E"/>
<path d="M247 15.5H249.7C250 15.5 250.2 15.3 250.2 15C250.2 14.7 250 14.5 249.7 14.5H247C246.7 14.5 246.5 14.7 246.5 15C246.5 15.2 246.7 15.5 247 15.5Z" fill="#E6BE2E"/>
<path d="M246.2 10.6989L248.6 9.49887C248.9 9.39887 248.9 9.09887 248.8 8.79887C248.7 8.49887 248.4 8.49887 248.1 8.59887L245.7 9.79887C245.4 9.89887 245.4 10.1989 245.5 10.4989C245.6 10.6989 245.9 10.7989 246.2 10.6989Z" fill="#E6BE2E"/>
<path d="M246 19.0998L248.4 20.2998C248.7 20.3998 248.7 20.6998 248.6 20.9998C248.5 21.2998 248.2 21.2998 247.9 21.1998L245.5 19.9998C245.2 19.8998 245.2 19.5998 245.3 19.2998C245.4 19.0998 245.7 18.9998 246 19.0998Z" fill="#E6BE2E"/>
<path d="M243.3 6.69922L245.2 4.79922C245.4 4.59922 245.4 4.29922 245.2 4.09922C245 3.89922 244.7 3.89922 244.5 4.09922L242.5 5.99922C242.3 6.19922 242.3 6.49922 242.5 6.69922C242.7 6.89922 243.1 6.89922 243.3 6.69922Z" fill="#E6BE2E"/>
<path d="M240 4.19844L240.9 1.69844C241 1.39844 240.9 1.09844 240.6 0.998438C240.3 0.898438 240 0.998437 239.9 1.29844L239 3.79844C238.9 4.09844 239 4.39844 239.3 4.49844C239.6 4.59844 239.9 4.49844 240 4.19844Z" fill="#E6BE2E"/>
<path d="M234 3.39922V0.699219C234 0.399219 234.2 0.199219 234.5 0.199219C234.8 0.199219 235 0.399219 235 0.699219V3.39922C235 3.69922 234.8 3.89922 234.5 3.89922C234.2 3.89922 234 3.69922 234 3.39922Z" fill="#E6BE2E"/>
<path d="M348.7 57.9001C348.7 57.9001 355.7 54.8001 356.3 52.2001C356.9 49.6001 357.9 43.7001 359.9 43.3001C361.9 42.9001 360.7 52.4001 360.7 52.4001C360.7 52.4001 361.2 43.3001 363.9 42.4001C366.6 41.4001 364.3 53.6001 364.6 53.2001C364.9 52.8001 366.2 44.0001 367.6 44.2001C369 44.4001 369.5 53.2001 367.5 57.5001C365.5 61.8001 364.8 65.7001 364.8 65.7001L352.1 66.5001L348.7 57.9001Z" fill="#FFCACA"/>
<path d="M364 120.899C357.9 133.499 347.9 143.299 340 149.599C339.8 149.699 339.7 149.899 339.5 149.999C339.4 150.099 339.4 150.099 339.3 150.099C333 154.999 328.3 157.599 328.3 157.599L310.3 133.399L316.3 129.399L318.9 127.699L320.4 126.699L344.9 110.399L348.6 73.9992L349.4 66.2992L366.1 65.6992C366.1 65.6992 367 68.7992 367.9 73.6992C369.6 84.6992 371.7 104.899 364 120.899Z" fill="url(#paint5_linear)"/>
<path d="M328.2 157.599L310.2 133.399L316.2 129.399L318.8 127.699L320.3 126.699C325.5 129.599 333.6 136.199 339.3 150.099C333 154.999 328.2 157.599 328.2 157.599Z" fill="#06396B"/>
<path d="M349.2 66.2992L348.4 73.9992C353.3 73.3992 360.2 72.9992 367.6 73.6992C366.7 68.7992 365.8 65.6992 365.8 65.6992L349.2 66.2992Z" fill="#094C90"/>
<path d="M293.9 381.499H268C268 381.499 260.6 311.099 263.2 231.299H296L300.8 310.899C300.8 310.899 294.6 346.399 293.9 381.499Z" fill="#06396B"/>
<path d="M287.9 381.499C285 340.699 294.9 277.199 295 276.299L296.4 276.399C296.3 277.299 286.4 340.599 289.3 381.399L287.9 381.499Z" fill="url(#paint6_linear)"/>
<path d="M293.3 397.1C293.3 398.5 293.2 399.7 293 400.2C291.7 402.7 249.5 402.1 247 402C244.8 401.9 245.1 394.9 255.4 390.9C256.9 390.3 258.6 389.8 260.5 389.4C270.7 387.1 270.4 381.6 270.4 381.6L291.6 381.7C291.6 381.5 293.2 391.6 293.3 397.1Z" fill="url(#paint7_linear)"/>
<path d="M340.8 400.1C337.6 401.5 326.6 402 320.1 401.2C317.9 401 316.3 400.6 315.6 400.1C312.7 398.1 315.8 381.6 315.8 381.6H331.5C331.5 381.6 331.2 387.7 335.3 389.6C336.6 390.2 338.2 391.3 339.4 392.7C339.5 392.8 339.6 392.9 339.6 392.9C340.5 393.8 341 394.6 341 394.6C342.5 396.8 343 399.1 340.8 400.1Z" fill="url(#paint8_linear)"/>
<path d="M288.6 234.599L311 381.499H335.2C335.2 381.499 332.1 244.399 331.7 231.299L288.6 234.599Z" fill="#06396B"/>
<path d="M329.2 381.5H327.8C329.4 334.6 320.5 234.6 320.4 234.5L321.7 234.1C321.9 234.5 330.8 334.5 329.2 381.5Z" fill="url(#paint9_linear)"/>
<path d="M256.4 204.3C256.4 204.3 251.5 217.9 239.2 210.8C226.9 203.6 241.1 172.1 241.1 172.1L256.4 204.3Z" fill="url(#paint10_linear)"/>
<path d="M246.4 165.3C246.4 165.3 245.2 161.3 251 160.1C256.8 158.9 259.3 162.6 260.8 166.1L246.4 165.3Z" fill="#FFCACA"/>
<path d="M332.6 192.399C328.2 203.399 328.5 205.699 328.5 205.699L333.2 241.699C333.2 241.699 278.5 259.099 261.7 241.699L261.5 212.599L260.7 197.799L260.5 196.999L254 165.599L260.7 165.999C259.5 163.399 257.8 160.599 254.6 159.899C256.7 154.599 261.6 143.799 267.4 139.499C275.2 133.799 291.3 126.899 314.9 133.599C338.4 140.499 337 181.499 332.6 192.399Z" fill="url(#paint11_linear)"/>
<path d="M328.5 205.799C328.5 205.799 327.8 224.999 310.3 230.199C292.8 235.399 278.8 214.499 275.9 212.799C273.4 211.399 264.6 212.299 261.6 212.699L260.8 197.899L260.6 197.099L275.4 194.299L297.7 215.399L328.5 205.799Z" fill="#06396B"/>
<path d="M321.5 152.999C303.9 153.399 311.5 222.699 283.4 188.999L277.4 195.599L307.1 214.099C307.2 214.099 333.8 149.999 321.5 152.999Z" fill="#06396B"/>
<path d="M300.6 136.699C300.6 136.699 309.4 130.499 304.4 105.099C301.6 93.8991 299.9 89.0991 292 85.4991C284.2 81.8991 272.7 86.8991 266.1 93.9991C259.5 101.199 253.8 113.599 264.2 113.399L300.6 136.699Z" fill="#735441"/>
<path d="M304.4 135.1C304.4 135.1 304 136.6 303.2 138.6C301.2 143.3 296.8 151.1 288.9 150.8C286.2 150.7 285.3 148.4 285.1 145.6C284.7 141.7 285.4 136.6 284.2 134.2L291.8 124.4L296.9 117.9L297.8 116.8C297.7 116.7 299.7 125.7 304.4 135.1Z" fill="#FFCACA"/>
<path d="M303.2 138.598C301.2 143.298 296.8 151.098 288.9 150.798C286.2 150.698 285.3 148.398 285.1 145.598C284.7 141.698 285.4 136.598 284.2 134.198L291.8 124.398L297.6 122.398C297.6 122.398 297.4 133.998 288.3 141.298C288.3 141.298 293 142.998 299.2 136.698C300.5 135.298 301.9 136.498 303.2 138.598Z" fill="#D69D9D"/>
<path d="M301.3 127.999L302.1 130.099C302.1 130.099 299.5 140.999 290.2 144.199L291.1 154.599C291.1 154.599 304.6 147.999 307.1 133.799C307.2 133.799 304.5 127.799 301.3 127.999Z" fill="#23406D"/>
<path d="M286.6 143.7L285.5 154.4C285.5 154.4 277.4 148.6 280.1 136.6C280.1 136.6 283.2 138.5 285.5 138.1C285.5 138.1 284.3 140.2 286.6 143.7Z" fill="#23406D"/>
<path d="M267.5 112.598C269.9 122.898 272.8 132.698 281.3 137.398C283.5 138.598 286.1 138.498 288.2 137.198C292.3 134.698 298.6 128.798 297.7 117.198C297.7 117.198 300.5 118.198 301 112.698C301.5 107.098 299.5 106.198 297.5 106.598C295.4 107.098 295.6 114.498 295.6 114.498C295.6 114.498 277.5 111.798 267.5 112.598Z" fill="#FFCACA"/>
<path d="M271.7 204.399L246.5 206.199C245.6 206.299 244.8 205.599 244.7 204.599L242 166.799C241.9 165.899 242.6 165.099 243.6 164.999L268.8 163.199C269.7 163.099 270.5 163.799 270.6 164.799L273.3 202.599C273.4 203.599 272.7 204.399 271.7 204.399Z" fill="#E6BE2E"/>
<path d="M270.4 204.399L245.2 206.199C244.3 206.299 243.5 205.599 243.4 204.599L240.7 166.799C240.6 165.899 241.3 165.099 242.3 164.999L267.5 163.199C268.4 163.099 269.2 163.799 269.3 164.799L272 202.599C272.1 203.599 271.4 204.399 270.4 204.399Z" fill="#FED05F"/>
<path d="M258.4 184.7C258.6 187.1 257.4 189.2 255.7 189.3C254 189.4 252.6 187.5 252.4 185.1C252.2 182.7 253.4 180.6 255.1 180.5C256.7 180.4 258.2 182.3 258.4 184.7Z" fill="#F0D986"/>
<path d="M279.6 187.399C279.6 187.399 278.2 178.499 271.6 178.099V181.699C271.6 181.699 267.3 182.699 264.6 179.699C262 176.699 259.1 174.399 259.8 182.699C260.5 190.999 266.3 194.999 272.5 194.499L274.9 196.499L281.7 189.599L279.6 187.399Z" fill="#FFCACA"/>
<path d="M313.3 224.099C297.3 230.299 282.8 212.999 276.2 203.299C273.8 199.799 272.4 197.199 272.4 197.199L282.2 187.899L287.7 192.299L304.5 205.999C304.5 205.999 307.4 192.599 309.9 176.899C312.4 161.199 316.5 151.299 325.1 152.599C342.1 155.199 335.1 215.599 313.3 224.099Z" fill="url(#paint12_linear)"/>
<path d="M287.6 192.398C285.9 195.098 282.4 199.498 276.2 203.298C273.8 199.798 272.4 197.198 272.4 197.198L282.2 187.898L287.6 192.398Z" fill="#2F91F3"/>
<path d="M344.321 16.3775L330.551 50.5059L376.179 68.9165L389.949 34.7882L344.321 16.3775Z" fill="#E6BE2E"/>
<path d="M348.579 14.1236L329.59 45.6465L371.735 71.0337L390.724 39.5108L348.579 14.1236Z" fill="#F0D986"/>
<path d="M344.8 40.6987C346.5 41.6987 347.1 43.9987 346 45.6987C345 47.3987 342.7 47.9987 341 46.8987C339.3 45.8987 338.7 43.5987 339.8 41.8987C340.8 40.1987 343 39.5987 344.8 40.6987Z" fill="#E6BE2E"/>
<path d="M362.1 34.3992L351.5 51.9992C351.2 52.4992 350.5 52.6992 350 52.3992C349.5 52.0992 349.3 51.3992 349.6 50.8992L360.2 33.1992C360.5 32.6992 361.2 32.4992 361.7 32.7992C362.3 33.1992 362.5 33.8992 362.1 34.3992Z" fill="#E6BE2E"/>
<path d="M369.5 33.1995L356.4 54.9995C356.1 55.4995 355.4 55.6995 354.9 55.3995C354.4 55.0996 354.2 54.3995 354.5 53.8995L367.6 32.0995C367.9 31.5995 368.6 31.3995 369.1 31.6995C369.6 31.9995 369.8 32.6995 369.5 33.1995Z" fill="#E6BE2E"/>
<path d="M374 35.8988L360.9 57.6988C360.6 58.1988 359.9 58.3988 359.4 58.0988C358.9 57.7988 358.7 57.0988 359 56.5988L372.1 34.7988C372.4 34.2988 373.1 34.0988 373.6 34.3988C374.2 34.6988 374.3 35.3988 374 35.8988Z" fill="#E6BE2E"/>
<path d="M378.3 38.3988L365.2 60.1988C364.9 60.6988 364.2 60.8988 363.7 60.5988C363.2 60.2988 363 59.5988 363.3 59.0988L376.4 37.2988C376.7 36.7988 377.4 36.5988 377.9 36.8988C378.4 37.2988 378.6 37.8988 378.3 38.3988Z" fill="#E6BE2E"/>
<path d="M351.3 66.499C351.3 66.499 345.1 62.799 343.4 54.199C342.2 48.399 347.7 53.299 349.4 57.499C349.4 57.499 358.6 56.999 360.2 65.999L351.3 66.499Z" fill="#FFCACA"/>
<path d="M32 192.498C32 192.498 27.5 195.898 27.5 200.398C27.5 204.898 27.5 223.498 27.5 223.498H61.2V199.398C61.2 199.398 60.7 193.498 56.8 192.498H32Z" fill="#1E1E1E"/>
<path d="M30 222.299C29.8 220.099 29.5 217.399 29.5 215.199C29.6 212.899 31.2 210.599 33.4 209.999C35.2 209.499 37 210.199 38.9 210.499C41.8 210.999 44.9 210.499 47.6 209.199C49.9 208.099 52 206.299 54.5 206.099C56.2 205.899 58.1 206.699 58.5 208.299C58.7 209.099 58.6 209.899 58.5 210.599C58 214.199 58.7 218.599 58.7 221.999C49.3 222.399 39.5 222.099 30 222.299Z" fill="#383838"/>
<path d="M25.3999 226.798L30.4999 223.498H61.1999L66.0999 226.798H25.3999Z" fill="#383838"/>
<path d="M24.3999 151.699V185.999H66.0999V226.699H25.3999V236.499H95.6999V151.599C95.6999 147.599 92.3999 144.299 88.3999 144.299H31.6999C27.6999 144.299 24.3999 147.599 24.3999 151.699Z" fill="#1E1E1E"/>
<path d="M95.7 152.4C95.7 152.6 79.7 152.7 60.1 152.7C40.4 152.7 24.5 152.6 24.5 152.4C24.5 152.2 40.4 152.1 60.1 152.1C79.7 152.1 95.7 152.3 95.7 152.4Z" fill="#383838"/>
<path d="M75.8996 236.6C75.6996 236.6 75.5996 216 75.5996 190.6C75.5996 165.2 75.6996 144.6 75.8996 144.6C76.0996 144.6 76.1996 165.2 76.1996 190.6C76.1996 216 75.9996 236.6 75.8996 236.6Z" fill="#383838"/>
<path d="M20.5998 212.399L20.1998 201.999C20.0998 198.999 20.7998 195.999 22.4998 193.499C23.7998 191.499 25.7998 189.799 28.5998 189.799C35.4998 189.799 56.6998 189.799 56.6998 189.799V192.499H29.0998C29.0998 192.499 24.0998 192.999 23.4998 199.799C22.7998 206.599 23.4998 212.399 23.4998 212.399H20.5998Z" fill="#383838"/>
<path d="M99.8999 236.6H0.399902V369.9H99.8999V236.6Z" fill="#1E1E1E"/>
<path d="M21.4997 369.9H9.19971V392.1H21.4997V369.9Z" fill="#1E1E1E"/>
<path d="M92.4001 369.9H80.1001V392.1H92.4001V369.9Z" fill="#1E1E1E"/>
<path d="M92 354.7C92 354.7 92 354.5 92 354.1C92 353.7 92 353.1 92 352.4C92 350.9 92 348.7 92 345.9C92 340.2 92 332 91.9 321.8L92 321.9C70.6 321.9 40.2 321.9 6.6 322L6.8 321.8C6.8 333.3 6.8 344.4 6.8 354.7L6.6 354.5C31.3 354.5 52.6 354.6 67.8 354.6C75.4 354.6 81.4 354.6 85.6 354.7C87.7 354.7 89.3 354.7 90.4 354.7C90.9 354.7 91.3 354.7 91.6 354.7C91.8 354.6 92 354.7 92 354.7C92 354.7 91.9 354.7 91.6 354.7C91.3 354.7 90.9 354.7 90.4 354.7C89.3 354.7 87.7 354.7 85.7 354.7C81.5 354.7 75.5 354.7 68 354.8C52.8 354.8 31.4 354.9 6.7 354.9H6.5V354.7C6.5 344.4 6.5 333.3 6.5 321.8V321.6H6.7C40.3 321.6 70.7 321.6 92.1 321.7H92.2V321.8C92.2 332 92.1 340.3 92.1 346C92.1 348.8 92.1 351 92.1 352.5C92.1 353.2 92.1 353.8 92.1 354.2C92 354.5 92 354.7 92 354.7Z" fill="#383838"/>
<path d="M51.7998 338.2C51.7998 338.2 51.7998 338 51.5998 337.6C51.4998 337.2 51.1998 336.7 50.6998 336.3C50.1998 335.9 49.2998 335.7 48.3998 336C47.5998 336.3 46.7998 337.2 46.7998 338.2C46.7998 339.2 47.4998 340.2 48.3998 340.4C49.2998 340.7 50.0998 340.5 50.6998 340.1C51.2998 339.7 51.4998 339.1 51.5998 338.8C51.7998 338.4 51.7998 338.2 51.7998 338.2C51.7998 338.2 51.8998 338.4 51.7998 338.8C51.6998 339.2 51.4998 339.8 50.8998 340.3C50.2998 340.8 49.2998 341.1 48.2998 340.7C47.2998 340.4 46.3998 339.3 46.4998 338.1C46.4998 336.9 47.3998 335.8 48.2998 335.5C49.2998 335.1 50.2998 335.4 50.8998 335.9C51.4998 336.4 51.7998 337 51.7998 337.4C51.8998 338 51.8998 338.2 51.7998 338.2Z" fill="#383838"/>
<path d="M91.9999 315.2C91.9999 315.2 91.9999 315 91.9999 314.6C91.9999 314.2 91.9999 313.6 91.9999 312.9C91.9999 311.4 91.9999 309.2 91.9999 306.4C91.9999 300.7 91.9999 292.5 91.8999 282.3L91.9999 282.4C70.5999 282.4 40.1999 282.4 6.5999 282.5L6.7999 282.3C6.7999 293.8 6.7999 304.9 6.7999 315.2L6.5999 315C31.2999 315 52.5999 315.1 67.7999 315.1C75.3999 315.1 81.3999 315.1 85.5999 315.2C87.6999 315.2 89.2999 315.2 90.3999 315.2C90.8999 315.2 91.2999 315.2 91.5999 315.2C91.7999 315.2 91.9999 315.2 91.9999 315.2C91.9999 315.2 91.8999 315.2 91.5999 315.2C91.2999 315.2 90.8999 315.2 90.3999 315.2C89.2999 315.2 87.6999 315.2 85.6999 315.2C81.4999 315.2 75.4999 315.2 67.9999 315.3C52.7999 315.3 31.3999 315.4 6.6999 315.4H6.3999V315.2C6.3999 304.9 6.3999 293.8 6.3999 282.3V282.1H6.5999C40.1999 282.1 70.5999 282.1 91.9999 282.2H92.0999V282.3C92.0999 292.5 91.9999 300.8 91.9999 306.5C91.9999 309.3 91.9999 311.5 91.9999 313C91.9999 313.7 91.9999 314.3 91.9999 314.7C91.9999 315.1 91.9999 315.2 91.9999 315.2Z" fill="#383838"/>
<path d="M51.7998 298.799C51.7998 298.799 51.7998 298.599 51.5998 298.199C51.4998 297.799 51.1998 297.299 50.6998 296.899C50.1998 296.499 49.2998 296.299 48.3998 296.599C47.5998 296.899 46.7998 297.799 46.7998 298.799C46.7998 299.799 47.4998 300.799 48.3998 300.999C49.2998 301.299 50.0998 301.099 50.6998 300.699C51.2998 300.299 51.4998 299.699 51.5998 299.399C51.7998 298.999 51.7998 298.799 51.7998 298.799C51.7998 298.799 51.8998 298.999 51.7998 299.399C51.6998 299.799 51.4998 300.399 50.8998 300.899C50.2998 301.399 49.2998 301.699 48.2998 301.299C47.2998 300.999 46.3998 299.899 46.4998 298.699C46.4998 297.499 47.3998 296.399 48.2998 296.099C49.2998 295.699 50.2998 295.999 50.8998 296.499C51.4998 296.999 51.7998 297.599 51.7998 297.999C51.8998 298.599 51.8998 298.799 51.7998 298.799Z" fill="#383838"/>
<path d="M92 276.399C92 276.399 92 276.199 92 275.799C92 275.399 92 274.799 92 274.099C92 272.599 92 270.399 92 267.599C92 261.899 92 253.699 91.9 243.499L92 243.599C70.6 243.599 40.2 243.599 6.6 243.699L6.8 243.499C6.8 254.999 6.8 266.099 6.8 276.399L6.6 276.199C31.3 276.199 52.6 276.299 67.8 276.299C75.4 276.299 81.4 276.299 85.6 276.399C87.7 276.399 89.3 276.399 90.4 276.399C90.9 276.399 91.3 276.399 91.6 276.399C91.8 276.399 92 276.399 92 276.399C92 276.399 91.9 276.399 91.6 276.399C91.3 276.399 90.9 276.399 90.4 276.399C89.3 276.399 87.7 276.399 85.7 276.399C81.5 276.399 75.5 276.399 68 276.499C52.8 276.499 31.4 276.599 6.7 276.599H6.5V276.399C6.5 266.099 6.5 254.999 6.5 243.499V243.299H6.7C40.3 243.299 70.7 243.299 92.1 243.399H92.2V243.499C92.2 253.699 92.1 261.999 92.1 267.699C92.1 270.499 92.1 272.699 92.1 274.199C92.1 274.899 92.1 275.499 92.1 275.899C92 276.199 92 276.399 92 276.399Z" fill="#383838"/>
<path d="M51.7998 259.899C51.7998 259.899 51.7998 259.699 51.5998 259.299C51.4998 258.899 51.1998 258.399 50.6998 257.999C50.1998 257.599 49.2998 257.399 48.3998 257.699C47.5998 257.999 46.7998 258.899 46.7998 259.899C46.7998 260.899 47.4998 261.899 48.3998 262.099C49.2998 262.399 50.0998 262.199 50.6998 261.799C51.2998 261.399 51.4998 260.799 51.5998 260.499C51.7998 260.099 51.7998 259.899 51.7998 259.899C51.7998 259.899 51.8998 260.099 51.7998 260.499C51.6998 260.899 51.4998 261.499 50.8998 261.999C50.2998 262.499 49.2998 262.799 48.2998 262.399C47.2998 262.099 46.3998 260.999 46.4998 259.799C46.4998 258.599 47.3998 257.499 48.2998 257.199C49.2998 256.799 50.2998 257.099 50.8998 257.599C51.4998 258.099 51.7998 258.699 51.7998 259.099C51.8998 259.699 51.8998 259.899 51.7998 259.899Z" fill="#383838"/>
<path d="M94.5999 236.599C94.5999 236.799 79.0999 236.899 59.9999 236.899C40.8999 236.899 25.3999 236.799 25.3999 236.599C25.3999 236.399 40.8999 236.299 59.9999 236.299C79.0999 236.299 94.5999 236.399 94.5999 236.599Z" fill="#383838"/>
<path d="M488.8 334.1L500 389.2H541.3L552.1 337.7L488.8 334.1Z" fill="#1E1E1E"/>
<path d="M559.2 327H481.6V337.7H559.2V327Z" fill="#383838"/>
<path fill-rule="evenodd" clip-rule="evenodd" d="M481.5 337.701H559.3V326.801H481.5V337.701ZM559 337.501H481.7V327.101H559V337.501Z" fill="#383838"/>
<path d="M488.8 383.9L494.8 392.1H545L552.1 383.9H488.8Z" fill="#383838"/>
<path d="M517.5 335.699C517.3 335.699 517.2 310.199 517.1 278.699C517 247.199 517.1 221.699 517.2 221.699C517.4 221.699 517.5 247.199 517.6 278.699C517.7 310.099 517.6 335.699 517.5 335.699Z" fill="#383838"/>
<path d="M534.8 271.801C534.8 271.801 534.7 272.001 534.6 272.401C534.4 272.801 534.2 273.401 533.9 274.101C533.7 274.501 533.6 274.901 533.4 275.301C533.2 275.801 533.1 276.201 532.9 276.701C532.7 277.201 532.5 277.801 532.3 278.401C532.1 279.001 531.9 279.601 531.7 280.301C530.9 282.901 530.2 286.201 529.5 289.801C528.9 293.401 528.5 297.401 528.3 301.701C527.9 310.201 528.4 317.901 528.9 323.401C529.1 326.201 529.4 328.401 529.6 330.001C529.7 330.701 529.7 331.301 529.8 331.801C529.8 332.201 529.8 332.401 529.8 332.401C529.8 332.401 529.7 332.201 529.7 331.801C529.6 331.301 529.5 330.801 529.4 330.001C529.1 328.501 528.8 326.201 528.5 323.501C527.9 318.001 527.3 310.301 527.7 301.701C527.9 297.401 528.4 293.401 529 289.801C529.7 286.201 530.4 282.901 531.3 280.301C531.5 279.601 531.7 279.001 531.9 278.401C532.1 277.801 532.3 277.301 532.5 276.701C532.7 276.201 532.9 275.701 533.1 275.301C533.3 274.901 533.5 274.501 533.7 274.101C534 273.401 534.3 272.901 534.5 272.501C534.6 272.001 534.7 271.801 534.8 271.801Z" fill="#383838"/>
<path d="M532.8 251.199C532.8 251.199 532.7 251.499 532.6 251.999C532.4 252.599 532.1 253.399 531.8 254.399C531.6 254.899 531.4 255.499 531.2 256.099C531 256.699 530.8 257.399 530.6 258.199C530.1 259.699 529.6 261.399 529.2 263.199C529 264.099 528.7 265.099 528.4 266.199C528.2 267.199 527.9 268.299 527.7 269.399C527.2 271.599 526.8 273.999 526.3 276.599C525.4 281.699 524.7 287.299 524.2 293.199C523.7 299.099 523.5 304.799 523.4 309.899C523.4 314.999 523.4 319.699 523.7 323.599C523.8 325.499 523.9 327.299 524 328.799C524.1 330.299 524.2 331.699 524.3 332.799C524.4 333.799 524.4 334.699 524.5 335.299C524.5 335.899 524.5 336.199 524.5 336.199C524.5 336.199 524.4 335.899 524.4 335.299C524.3 334.699 524.2 333.899 524.1 332.799C524 331.699 523.8 330.399 523.7 328.799C523.6 327.299 523.4 325.499 523.3 323.599C523 319.699 522.9 315.099 522.9 309.899C522.9 304.699 523.1 299.099 523.6 293.099C524.1 287.199 524.9 281.599 525.8 276.499C526.3 273.999 526.7 271.599 527.3 269.299C527.6 268.199 527.8 267.099 528.1 266.099C528.4 265.099 528.7 264.099 528.9 263.199C529.4 261.299 529.9 259.599 530.4 258.199C530.6 257.499 530.9 256.799 531.1 256.099C531.3 255.499 531.5 254.899 531.7 254.399C532.1 253.399 532.4 252.599 532.6 252.099C532.6 251.399 532.8 251.199 532.8 251.199Z" fill="#383838"/>
<path d="M512.599 340.199C512.599 340.199 512.599 340.099 512.599 339.899C512.599 339.699 512.6 339.399 512.5 338.999C512.4 338.199 512.4 337.099 512.3 335.599C512.1 332.599 511.8 328.399 511.5 323.199C510.8 312.699 509.9 298.199 508.1 282.299C507.2 274.299 506.2 266.799 505.1 259.899C504.5 256.499 504 253.199 503.4 250.199C502.9 247.199 502.3 244.299 501.7 241.799C501.2 239.199 500.6 236.899 500.2 234.899C499.8 232.899 499.3 231.099 499 229.699C498.7 228.299 498.4 227.199 498.2 226.399C498.1 225.999 498.1 225.799 498 225.499C498 225.299 497.9 225.199 498 225.199C498 225.199 498 225.299 498.1 225.499C498.2 225.699 498.2 225.999 498.3 226.299C498.5 227.099 498.8 228.199 499.2 229.599C499.6 230.999 500.1 232.799 500.5 234.799C501 236.799 501.6 239.099 502.1 241.699C502.7 244.299 503.3 247.099 503.8 250.099C504.4 253.099 505 256.399 505.6 259.799C506.7 266.699 507.8 274.199 508.7 282.199C510.5 298.199 511.4 312.699 512 323.199C512.3 328.499 512.499 332.699 512.599 335.599C512.699 336.999 512.7 338.199 512.7 338.999C512.7 339.399 512.7 339.699 512.7 339.899C512.6 340.099 512.599 340.199 512.599 340.199Z" fill="#383838"/>
<path d="M516.8 233.9C516.5 230.3 512.8 227.6 509.2 227.5C505.6 227.5 502.2 229.6 500 232.5C497.8 235.4 496.6 238.9 495.6 242.4C493.2 250.9 491.8 259.9 492.9 268.7C493.9 277.5 497.5 286.2 503.8 292.4C504.8 293.4 506.2 294.4 507.6 294.1C508.4 293.9 509 293.4 509.6 292.9C522 281.7 529.2 264.9 528.7 248.2C528.6 244.9 528.2 241.4 526.3 238.6C524.3 235.8 520 232.8 516.8 233.9Z" fill="#1E1E1E"/>
<path d="M517.2 221.7C501.8 212.6 486.5 203.6 471.1 194.5C470.6 194.2 470.1 193.9 470 193.4C469.8 192.7 470.3 192.1 470.8 191.6C477.1 185.1 486.4 181.3 495.4 181.9C504.5 182.6 513.2 187.8 517.7 195.8C522.1 203.6 522.3 214.1 517.2 221.7Z" fill="#1E1E1E"/>
<path d="M477.7 185.8C477.7 185.8 477.9 185.8 478.3 185.7C478.7 185.7 479.3 185.6 480 185.6C481.5 185.6 483.7 185.7 486.4 186.1C489.1 186.5 492.2 187.4 495.5 188.9C498.8 190.4 502.2 192.5 505.3 195.2C508.4 198 510.8 201.2 512.6 204.3C514.4 207.4 515.6 210.5 516.3 213.1C517 215.7 517.3 217.9 517.4 219.4C517.5 220.2 517.5 220.7 517.5 221.1C517.5 221.5 517.5 221.7 517.5 221.7C517.5 221.7 517.4 220.9 517.2 219.4C517 217.9 516.6 215.8 515.9 213.2C514.4 208.1 511.1 201.1 505 195.6C498.9 190.1 491.7 187.4 486.4 186.5C483.8 186 481.6 185.9 480.1 185.8C478.5 185.8 477.7 185.8 477.7 185.8Z" fill="#383838"/>
<path d="M510.9 202.9C510.9 203 510 203.4 508.6 204C507.1 204.6 505.1 205.3 502.8 206C500.5 206.7 498.4 207.3 496.9 207.7C495.4 208.1 494.4 208.3 494.4 208.2C494.4 208.1 495.3 207.8 496.8 207.3C498.5 206.8 500.5 206.2 502.7 205.5C504.9 204.8 506.9 204.2 508.6 203.6C509.9 203.1 510.9 202.8 510.9 202.9Z" fill="#383838"/>
<path d="M503.6 183.4C503.7 183.4 504.1 185.7 504.1 188.5C504.2 191.4 504 193.7 503.8 193.7C503.6 193.7 503.6 191.4 503.5 188.5C503.6 185.7 503.5 183.4 503.6 183.4Z" fill="#383838"/>
<path d="M470.6 194.001C470.6 193.901 471.9 193.501 473.9 192.801C476 192.201 478.9 191.301 482.2 190.601C485.5 189.801 488.4 189.201 490.6 188.801C492.8 188.401 494.1 188.301 494.1 188.301C494.1 188.401 492.8 188.701 490.7 189.201C488.6 189.701 485.6 190.301 482.4 191.101C479.2 191.901 476.2 192.601 474.1 193.201C472 193.701 470.7 194.001 470.6 194.001Z" fill="#383838"/>
<path d="M495.9 225.4C491.9 222.4 487.7 221.8 482.8 222C477.9 222.2 473 223.7 468.4 225.7C460.6 229.1 453.3 234.1 448.7 241.2C444.1 248.3 442.4 257.7 445.9 265.5C446.2 266.3 446.7 267.1 447.5 267.4C448.3 267.8 449.3 267.5 450.1 267.2C458.9 264.3 467.9 261.4 476 256.9C484.1 252.4 491.5 246.1 495.9 237.9C496.9 235.9 497.8 233.8 498 231.6C498.1 229.3 497.5 227 495.9 225.4Z" fill="#1E1E1E"/>
<path d="M496 224.5C496 224.5 495.8 224.6 495.4 224.8C494.9 225 494.3 225.2 493.5 225.4C493.1 225.5 492.6 225.7 492.2 225.8C491.7 226 491.2 226.2 490.6 226.4C489.5 226.9 488.2 227.3 486.8 228C486.1 228.3 485.4 228.6 484.6 229C483.8 229.3 483.1 229.8 482.3 230.2C480.7 231 479.1 232 477.3 233C473.9 235.1 470.3 237.7 466.8 240.8C463.3 243.9 460.3 247.1 457.8 250.2C456.6 251.8 455.4 253.3 454.4 254.8C453.9 255.5 453.4 256.2 452.9 256.9C452.5 257.6 452 258.3 451.6 258.9C450.8 260.2 450.2 261.4 449.6 262.5C449.3 263 449 263.5 448.8 264C448.6 264.5 448.4 264.9 448.2 265.3C447.8 266 447.6 266.6 447.3 267.1C447.1 267.5 447 267.7 447 267.7C447 267.7 447.1 267.5 447.2 267.1C447.4 266.6 447.7 266 448 265.3C448.2 264.9 448.4 264.5 448.6 264C448.8 263.5 449.1 263 449.4 262.5C450 261.4 450.6 260.2 451.4 258.9C451.8 258.2 452.2 257.6 452.6 256.8C453 256.1 453.5 255.4 454 254.6C455 253.1 456.2 251.6 457.4 250C460 246.9 463 243.6 466.5 240.5C470 237.4 473.6 234.8 477.1 232.7C478.8 231.7 480.5 230.7 482.1 229.9C482.9 229.5 483.7 229.1 484.4 228.7C485.2 228.4 485.9 228 486.6 227.7C488 227.1 489.3 226.6 490.4 226.2C491 226 491.5 225.8 492 225.6C492.5 225.5 492.9 225.3 493.4 225.2C494.2 225 494.8 224.8 495.3 224.7C495.7 224.5 496 224.4 496 224.5Z" fill="#383838"/>
<path d="M465 241.2C465 241.3 460.7 242.7 455.4 244.3C450 245.9 445.6 247 445.6 246.9C445.6 246.8 449.9 245.4 455.2 243.8C460.5 242.2 464.9 241.1 465 241.2Z" fill="#383838"/>
<path d="M464.6 262.5C464.5 262.5 464.4 261.4 464.4 259.5C464.3 257.6 464.3 255.1 464.4 252.2C464.5 249.4 464.6 246.8 464.8 244.9C465 243 465.1 241.9 465.2 241.9C465.3 241.9 465.3 243.1 465.2 244.9C465.1 246.9 465.1 249.4 465 252.1C464.9 254.8 464.9 257.3 464.8 259.3C464.7 261.4 464.7 262.5 464.6 262.5Z" fill="#383838"/>
<path d="M482.8 253.199C482.6 253.199 482.2 247.999 481.7 241.499C481.3 234.999 481 229.799 481.2 229.799C481.4 229.799 481.8 234.999 482.3 241.499C482.7 247.999 483 253.199 482.8 253.199Z" fill="#383838"/>
<path d="M460.1 229.399C460.1 229.299 461.3 229.299 463.2 229.299C465.1 229.299 467.7 229.399 470.6 229.499C473.5 229.599 476.1 229.699 478 229.799C479.9 229.899 481.1 229.999 481.1 230.099C481.1 230.199 479.9 230.199 478 230.199C476.1 230.199 473.5 230.099 470.5 229.999C467.6 229.899 465 229.799 463.1 229.699C461.3 229.599 460.1 229.399 460.1 229.399Z" fill="#383838"/>
<path d="M505.7 294.9C505.7 294.9 505.7 294.7 505.6 294.3C505.6 293.8 505.6 293.2 505.5 292.5C505.4 290.9 505.4 288.6 505.5 285.8C505.6 283 505.7 279.6 506.1 275.9C506.5 272.2 507 268.1 507.7 263.9C508.5 259.7 509.4 255.7 510.3 252.1C511.3 248.5 512.3 245.3 513.2 242.6C514.1 239.9 514.9 237.8 515.5 236.3C515.8 235.6 516 235.1 516.2 234.6C516.4 234.2 516.5 234 516.5 234C516.5 234 516.5 234.2 516.3 234.6C516.1 235 515.9 235.6 515.7 236.3C515.2 237.8 514.4 239.9 513.5 242.6C512.6 245.3 511.7 248.5 510.7 252.1C509.8 255.7 508.9 259.7 508.1 263.9C507.4 268.1 506.8 272.2 506.4 275.9C506 279.6 505.8 282.9 505.7 285.7C505.6 288.5 505.5 290.8 505.6 292.4C505.6 293.1 505.6 293.7 505.6 294.2C505.7 294.7 505.7 294.9 505.7 294.9Z" fill="#383838"/>
<path d="M508.1 263.4C508.2 263.5 507.5 264.2 506.3 265.4C505.1 266.6 503.4 268.2 501.5 269.9C499.6 271.6 497.8 273.1 496.4 274.1C495.1 275.1 494.2 275.7 494.2 275.7C494.2 275.6 494.9 274.9 496.2 273.8C497.6 272.6 499.3 271.1 501.2 269.5C503 267.9 504.7 266.4 506.1 265.1C507.3 264 508.1 263.4 508.1 263.4Z" fill="#383838"/>
<path d="M522.7 275.2C522.6 275.2 521.9 274.2 520.7 272.5C519.4 270.7 517.9 268.4 516.1 265.8C514.3 263.3 512.7 261 511.4 259.2C510.2 257.5 509.5 256.5 509.5 256.4C509.6 256.4 510.4 257.3 511.7 258.9C513 260.5 514.7 262.8 516.5 265.4C518.3 268 519.9 270.4 520.9 272.2C522.2 274 522.8 275.1 522.7 275.2Z" fill="#383838"/>
<path d="M515.1 238.2C515.2 238.3 510.3 241.6 504.3 245.5C498.2 249.4 493.3 252.5 493.2 252.3C493.1 252.2 498 248.9 504 245C510 241.1 515 238.1 515.1 238.2Z" fill="#383838"/>
<path d="M528.8 253C528.7 253.1 525.4 250.1 521.5 246.2C517.6 242.3 514.4 239.1 514.6 239C514.7 238.9 518 241.9 521.9 245.8C525.8 249.6 528.9 252.8 528.8 253Z" fill="#383838"/>
<path d="M532.2 252.699L536.4 252.399C539.4 252.199 542.2 251.299 544.8 249.799C546.1 249.099 547.4 248.399 548.7 247.799C553.8 245.699 559.6 246.099 565.1 245.799C574.1 245.299 583.1 243.099 591.2 239.099C591.7 238.899 592.1 238.499 592.3 238.099C593.2 236.499 591.6 235.199 590.2 234.299C583.2 229.999 576 225.599 568.1 223.499C560.1 221.399 551.1 221.699 544.3 226.399C536.5 231.799 533.5 243.099 532.2 252.699Z" fill="#1E1E1E"/>
<path d="M592.5 237.6C592.5 237.6 592.2 237.5 591.8 237.3C591.3 237 590.6 236.7 589.8 236.3C588.1 235.4 585.6 234.1 582.5 232.6C579.4 231.1 575.6 229.5 571.2 228.3C566.8 227.1 561.8 226.4 556.6 227.1C551.4 227.8 546.6 229.8 543.3 232.8C539.9 235.8 537.8 239.5 536.4 242.5C534.9 245.6 534 248.3 533.4 250.1C533.1 251 532.8 251.7 532.7 252.2C532.5 252.7 532.4 252.9 532.4 252.9C532.4 252.9 532.4 252.6 532.6 252.1C532.8 251.6 533 250.9 533.2 250C533.8 248.2 534.6 245.5 536.1 242.3C537.5 239.2 539.6 235.4 543.1 232.3C546.5 229.2 551.4 227.1 556.7 226.4C562 225.7 567.1 226.4 571.5 227.6C575.9 228.8 579.7 230.6 582.8 232.1C585.9 233.6 588.3 235 590 236C590.8 236.5 591.4 236.8 591.9 237.1C592.3 237.4 592.5 237.6 592.5 237.6Z" fill="#383838"/>
<path d="M582.5 242.899C582.4 242.999 577 239.499 570.3 234.999C563.7 230.499 558.4 226.799 558.4 226.699C558.5 226.599 563.9 230.099 570.6 234.599C577.3 239.099 582.6 242.799 582.5 242.899Z" fill="#383838"/>
<path d="M577.3 226.198C577.3 226.298 575.4 226.798 573.1 227.098C570.7 227.298 568.8 227.198 568.8 226.998C568.8 226.798 570.7 226.698 573.1 226.498C575.3 226.298 577.2 226.098 577.3 226.198Z" fill="#383838"/>
<path d="M552.8 221.899C552.9 221.999 552.1 223.599 551 225.499C549.9 227.399 548.9 228.899 548.7 228.799C548.6 228.699 549.4 227.099 550.5 225.199C551.7 223.299 552.7 221.799 552.8 221.899Z" fill="#383838"/>
<path d="M557.7 246.1C557.7 246.2 556.7 245.6 555.1 244.7C553.5 243.7 551.4 242.3 549.1 240.7C546.8 239.1 544.8 237.5 543.4 236.3C542 235.2 541.1 234.4 541.1 234.4C541.1 234.3 542.1 235 543.6 236C545.2 237.2 547.2 238.6 549.4 240.2C551.7 241.8 553.7 243.3 555.3 244.3C556.8 245.4 557.8 246.1 557.7 246.1Z" fill="#383838"/>
<path d="M538.3 270.3C534.3 269.3 529.6 273.1 528.8 277.1C528 281.1 529.5 285.2 531.3 288.9C535.2 297.1 540.6 304.7 547.7 310.4C554.8 316.1 563.7 319.7 572.8 319.6C571.1 311.8 573.2 303.7 572.3 295.7C571.5 288.8 568.3 282.2 563.3 277.3C558.4 272.4 551.7 269.2 544.8 268.5C542.3 268.4 539.3 268 538.3 270.3Z" fill="#1E1E1E"/>
<path d="M572.8 319.7C572.8 319.7 572.6 319.6 572.2 319.4C571.8 319.2 571.3 318.9 570.7 318.4C569.5 317.5 568 315.6 566.8 313.2C566.2 312 565.5 310.6 564.8 309.2C564.1 307.7 563.4 306.1 562.7 304.5C561.9 302.8 561.1 301.1 560.1 299.5C559.1 297.8 557.8 296.2 556.5 294.6C553.8 291.4 550.9 288.6 548.3 286C545.8 283.4 543.6 280.8 542.1 278.5C540.5 276.2 539.6 274.1 539.1 272.7C538.8 272 538.7 271.4 538.6 271C538.5 270.6 538.5 270.4 538.5 270.4C538.6 270.4 538.8 271.2 539.4 272.6C540 274 541 276 542.6 278.3C544.2 280.6 546.3 283 548.9 285.6C551.4 288.2 554.4 291 557.1 294.2C558.5 295.8 559.7 297.5 560.8 299.2C561.8 300.9 562.7 302.7 563.4 304.3C564.1 306 564.8 307.6 565.5 309C566.2 310.5 566.9 311.8 567.5 313.1C568.7 315.6 570 317.4 571.2 318.4C572 319.3 572.8 319.7 572.8 319.7Z" fill="#383838"/>
<path d="M552.3 313.3C552.2 313.3 552.4 312.3 552.7 310.6C553 309 553.5 306.7 554.2 304.3C554.9 301.9 555.6 299.7 556.2 298.1C556.8 296.5 557.2 295.6 557.3 295.6C557.4 295.6 557.1 296.6 556.6 298.2C556.1 299.8 555.4 302 554.7 304.4C554 306.8 553.4 309.1 553 310.7C552.6 312.3 552.3 313.3 552.3 313.3Z" fill="#383838"/>
<path d="M572 294.101C572 294.201 570.9 293.901 569.2 293.501C567.5 293.101 565.1 292.401 562.5 291.801C559.9 291.201 557.5 290.701 555.7 290.401C554 290.101 552.9 289.901 552.9 289.801C552.9 289.701 554 289.801 555.8 290.001C557.6 290.201 560 290.601 562.6 291.201C565.2 291.801 567.6 292.501 569.3 293.001C571 293.701 572.1 294.101 572 294.101Z" fill="#383838"/>
<path d="M537.5 299.701C537.4 299.701 537.6 298.501 537.9 296.601C538.2 294.701 538.8 292.101 539.5 289.301C540.2 286.501 541 283.901 541.7 282.101C542.3 280.301 542.8 279.201 542.8 279.201C542.9 279.201 542.6 280.401 542 282.201C541.4 284.001 540.7 286.601 540 289.401C539.3 292.201 538.6 294.801 538.2 296.701C537.9 298.601 537.6 299.701 537.5 299.701Z" fill="#383838"/>
<path d="M562.9 277.5C562.9 277.7 557.9 277.3 551.8 276.6C545.7 276 540.8 275.3 540.8 275.2C540.8 275 545.8 275.4 551.9 276.1C558 276.7 562.9 277.3 562.9 277.5Z" fill="#383838"/>
<path d="M559.3 337.601C559.3 337.801 541.9 337.901 520.4 337.901C498.9 337.901 481.5 337.801 481.5 337.601C481.5 337.401 498.9 337.301 520.4 337.301C541.9 337.301 559.3 337.401 559.3 337.601Z" fill="#383838"/>
<path d="M547.2 359.999C547.2 360.199 535.5 360.299 521 360.299C506.5 360.299 494.8 360.199 494.8 359.999C494.8 359.799 506.5 359.699 521 359.699C535.4 359.699 547.2 359.799 547.2 359.999Z" fill="#383838"/>
<path d="M547.6 363.2C547.6 363.4 535.9 363.5 521.4 363.5C506.9 363.5 495.2 363.4 495.2 363.2C495.2 363 506.9 362.9 521.4 362.9C535.9 362.9 547.6 363 547.6 363.2Z" fill="#383838"/>
<path d="M547.6 357.3C547.6 357.5 535.5 357.6 520.5 357.6C505.5 357.6 493.4 357.5 493.4 357.3C493.4 357.1 505.5 357 520.5 357C535.5 357.1 547.6 357.2 547.6 357.3Z" fill="#383838"/>
<defs>
<linearGradient id="paint0_linear" x1="211.479" y1="190.227" x2="212.158" y2="159.716" gradientUnits="userSpaceOnUse">
<stop stop-color="#094C90"/>
<stop offset="1" stop-color="#0C69C8"/>
</linearGradient>
<linearGradient id="paint1_linear" x1="233.773" y1="240.079" x2="210.862" y2="215.648" gradientUnits="userSpaceOnUse">
<stop stop-color="#094C90"/>
<stop offset="1" stop-color="#0C69C8"/>
</linearGradient>
<linearGradient id="paint2_linear" x1="377.345" y1="189.613" x2="376.666" y2="161.824" gradientUnits="userSpaceOnUse">
<stop stop-color="#094C90"/>
<stop offset="1" stop-color="#0C69C8"/>
</linearGradient>
<linearGradient id="paint3_linear" x1="355.636" y1="239.33" x2="376.464" y2="217.317" gradientUnits="userSpaceOnUse">
<stop stop-color="#094C90"/>
<stop offset="1" stop-color="#0C69C8"/>
</linearGradient>
<linearGradient id="paint4_linear" x1="222.236" y1="117.359" x2="242.414" y2="111.48" gradientUnits="userSpaceOnUse">
<stop stop-color="#094C90"/>
<stop offset="1" stop-color="#0C69C8"/>
</linearGradient>
<linearGradient id="paint5_linear" x1="365.401" y1="116.322" x2="345.932" y2="111.398" gradientUnits="userSpaceOnUse">
<stop stop-color="#094C90"/>
<stop offset="1" stop-color="#0C69C8"/>
</linearGradient>
<linearGradient id="paint6_linear" x1="287.412" y1="328.949" x2="296.383" y2="328.949" gradientUnits="userSpaceOnUse">
<stop stop-color="#2F91F3"/>
<stop offset="1" stop-color="#7AB8F7"/>
</linearGradient>
<linearGradient id="paint7_linear" x1="245.814" y1="391.789" x2="293.266" y2="391.789" gradientUnits="userSpaceOnUse">
<stop stop-color="#094C90"/>
<stop offset="1" stop-color="#0C69C8"/>
</linearGradient>
<linearGradient id="paint8_linear" x1="314.352" y1="391.544" x2="342.323" y2="391.544" gradientUnits="userSpaceOnUse">
<stop stop-color="#094C90"/>
<stop offset="1" stop-color="#0C69C8"/>
</linearGradient>
<linearGradient id="paint9_linear" x1="320.465" y1="307.833" x2="329.388" y2="307.833" gradientUnits="userSpaceOnUse">
<stop stop-color="#2F91F3"/>
<stop offset="1" stop-color="#7AB8F7"/>
</linearGradient>
<linearGradient id="paint10_linear" x1="253.858" y1="193.785" x2="239.359" y2="191.958" gradientUnits="userSpaceOnUse">
<stop stop-color="#2F91F3"/>
<stop offset="1" stop-color="#8CC2F8"/>
</linearGradient>
<linearGradient id="paint11_linear" x1="304.997" y1="239.414" x2="285.936" y2="136.277" gradientUnits="userSpaceOnUse">
<stop stop-color="#094C90"/>
<stop offset="1" stop-color="#0C69C8"/>
</linearGradient>
<linearGradient id="paint12_linear" x1="308.426" y1="234.641" x2="300.158" y2="150.873" gradientUnits="userSpaceOnUse">
<stop stop-color="#094C90"/>
<stop offset="1" stop-color="#0C69C8"/>
</linearGradient>
</defs>
</svg>
