<svg width="21" height="22" viewBox="0 0 21 22" fill="none" xmlns="http://www.w3.org/2000/svg">
<path d="M14.3163 21V17.319C14.352 16.8654 14.2907 16.4095 14.1366 15.9814C13.9824 15.5534 13.7389 15.1631 13.4222 14.8364C16.4089 14.5035 19.5478 13.3716 19.5478 8.17826C19.5475 6.85027 19.0367 5.57321 18.121 4.61139C18.5546 3.44954 18.524 2.16532 18.0354 1.02548C18.0354 1.02548 16.913 0.692576 14.3163 2.43321C12.1363 1.84237 9.83824 1.84237 7.65817 2.43321C5.06148 0.692576 3.93911 1.02548 3.93911 1.02548C3.45057 2.16532 3.41991 3.44954 3.8535 4.61139C2.93099 5.58034 2.41964 6.86895 2.42675 8.2068C2.42675 13.3621 5.5656 14.494 8.55227 14.865C8.23933 15.1883 7.99799 15.574 7.84394 15.9968C7.6899 16.4196 7.6266 16.8701 7.65817 17.319V21M7.65817 18.1465C2.90233 19.5732 2.90233 15.7686 1 15.293L7.65817 18.1465Z" stroke="white" stroke-opacity="0.87" stroke-width="2" stroke-linecap="round" stroke-linejoin="round"/>
</svg>
