<svg width="36" height="36" viewBox="0 0 36 36" fill="none" xmlns="http://www.w3.org/2000/svg">
<path d="M18.7778 25H15.6667V15.6667H18.7778V17.2222C19.4409 16.3785 20.4466 15.8756 21.5194 15.851C23.4488 15.8617 25.0056 17.4317 25 19.3611V25H21.8889V19.75C21.7644 18.8809 21.0191 18.2361 20.1412 18.238C19.7572 18.2501 19.3947 18.4183 19.1374 18.7036C18.8801 18.9889 18.7503 19.3668 18.7778 19.75V25ZM14.1111 25H11V15.6667H14.1111V25ZM12.5556 14.1111C11.6964 14.1111 11 13.4147 11 12.5556C11 11.6964 11.6964 11 12.5556 11C13.4147 11 14.1111 11.6964 14.1111 12.5556C14.1111 12.9681 13.9472 13.3638 13.6555 13.6555C13.3638 13.9472 12.9681 14.1111 12.5556 14.1111Z" fill="white" fill-opacity="0.87"/>
<circle cx="18" cy="18" r="17.4" stroke="white" stroke-opacity="0.87" stroke-width="1.2"/>
</svg>
