<svg width="24" height="22" viewBox="0 0 24 22" fill="none" xmlns="http://www.w3.org/2000/svg">
<path d="M15.7377 7.3158C17.4127 7.3158 19.0192 7.98121 20.2036 9.16565C21.388 10.3501 22.0535 11.9565 22.0535 13.6316V21H17.8429V13.6316C17.8429 13.0732 17.6211 12.5378 17.2263 12.1429C16.8315 11.7481 16.296 11.5263 15.7377 11.5263C15.1793 11.5263 14.6438 11.7481 14.249 12.1429C13.8542 12.5378 13.6324 13.0732 13.6324 13.6316V21H9.42188V13.6316C9.42188 11.9565 10.0873 10.3501 11.2717 9.16565C12.4562 7.98121 14.0626 7.3158 15.7377 7.3158V7.3158Z" stroke="white" stroke-opacity="0.87" stroke-width="2" stroke-linecap="round" stroke-linejoin="round"/>
<path d="M5.21053 8.36841H1V21H5.21053V8.36841Z" stroke="white" stroke-opacity="0.87" stroke-width="2" stroke-linecap="round" stroke-linejoin="round"/>
<path d="M3.10526 5.21053C4.26797 5.21053 5.21053 4.26797 5.21053 3.10526C5.21053 1.94256 4.26797 1 3.10526 1C1.94256 1 1 1.94256 1 3.10526C1 4.26797 1.94256 5.21053 3.10526 5.21053Z" stroke="white" stroke-opacity="0.87" stroke-width="2" stroke-linecap="round" stroke-linejoin="round"/>
</svg>
