<svg width="45" height="35" viewBox="0 0 45 35" fill="none" xmlns="http://www.w3.org/2000/svg">
<path d="M13.696 0L18.048 3.84C15.6587 6.05867 13.6533 8.448 12.032 11.008C10.496 13.568 9.728 15.6587 9.728 17.28C9.728 18.4747 10.2827 19.5413 11.392 20.48C12.5013 21.4187 13.568 22.4 14.592 23.424C15.7013 24.3627 16.256 25.6 16.256 27.136C16.256 29.2693 15.5307 31.0613 14.08 32.512C12.7147 33.9627 10.9227 34.688 8.704 34.688C6.48533 34.688 4.48 33.7067 2.688 31.744C0.896 29.7813 0 27.2213 0 24.064C0 17.408 4.56533 9.38667 13.696 0ZM39.936 0L44.288 3.84C41.8987 6.05867 39.8933 8.448 38.272 11.008C36.736 13.568 35.968 15.6587 35.968 17.28C35.968 18.4747 36.5227 19.5413 37.632 20.48C38.7413 21.4187 39.808 22.4 40.832 23.424C41.9413 24.3627 42.496 25.6 42.496 27.136C42.496 29.2693 41.7707 31.0613 40.32 32.512C38.9547 33.9627 37.1627 34.688 34.944 34.688C32.7253 34.688 30.72 33.7067 28.928 31.744C27.136 29.7813 26.24 27.2213 26.24 24.064C26.24 17.408 30.8053 9.38667 39.936 0Z" fill="#E6BE2E"/>
</svg>
