<svg width="24" height="16" viewBox="0 0 24 16" fill="none" xmlns="http://www.w3.org/2000/svg">
<path fill-rule="evenodd" clip-rule="evenodd" d="M24 5.00977C22.3219 5.13742 21 6.53949 21 8.25029C21 9.9611 22.3219 11.3632 24 11.4908V10.4866C22.875 10.3622 22 9.40843 22 8.25029C22 7.09215 22.875 6.13839 24 6.01403V5.00977Z" fill="#C4C4C4"/>
<path fill-rule="evenodd" clip-rule="evenodd" d="M0 11.4905C0.0825104 11.4968 0.165882 11.5 0.25 11.5C2.04493 11.5 3.5 10.0449 3.5 8.25C3.5 6.45507 2.04493 5 0.25 5C0.165882 5 0.0825104 5.0032 0 5.00947V6.01373C0.0820835 6.00466 0.165498 6 0.25 6C1.49264 6 2.5 7.00736 2.5 8.25C2.5 9.49264 1.49264 10.5 0.25 10.5C0.165498 10.5 0.0820835 10.4953 0 10.4863V11.4905Z" fill="#C4C4C4"/>
<path fill-rule="evenodd" clip-rule="evenodd" d="M24 0H0V5.00947C0.0825104 5.0032 0.165882 5 0.25 5C0.508135 5 0.75924 5.03009 1 5.08697V1H23V5.24908C23.3117 5.11909 23.648 5.03625 24 5.00947V0ZM1 11.413C0.75924 11.4699 0.508135 11.5 0.25 11.5C0.165882 11.5 0.0825104 11.4968 0 11.4905V16H24V11.4905C23.648 11.4638 23.3117 11.3809 23 11.2509V15H1V11.413Z" fill="#C4C4C4"/>
<rect x="6" y="4" width="12" height="8" fill="#C4C4C4"/>
</svg>
