<svg width="36" height="36" viewBox="0 0 36 36" fill="none" xmlns="http://www.w3.org/2000/svg">
<path d="M25 14.4377C24.4738 14.678 23.9174 14.8369 23.348 14.9094C23.9487 14.5315 24.3989 13.9371 24.615 13.2363C24.0505 13.5901 23.4325 13.8394 22.788 13.9733C22.3572 13.4814 21.7835 13.154 21.1569 13.0423C20.5303 12.9307 19.8862 13.0412 19.3257 13.3566C18.7651 13.6719 18.3199 14.1742 18.0597 14.7847C17.7995 15.3952 17.7391 16.0794 17.888 16.7299C16.7466 16.6691 15.6301 16.3562 14.6111 15.8114C13.592 15.2667 12.6932 14.5023 11.973 13.568C11.7204 14.0324 11.5877 14.5584 11.588 15.0937C11.5871 15.5907 11.703 16.0803 11.9252 16.5188C12.1475 16.9573 12.4693 17.3311 12.862 17.607C12.4056 17.5939 11.9589 17.4649 11.56 17.2311V17.2679C11.5634 17.9644 11.7952 18.6382 12.2161 19.1754C12.637 19.7126 13.2213 20.0802 13.87 20.2161C13.6203 20.2961 13.361 20.3383 13.1 20.3414C12.9193 20.3392 12.7391 20.3219 12.561 20.2898C12.7457 20.8889 13.1032 21.4124 13.5838 21.7876C14.0643 22.1628 14.6439 22.3709 15.242 22.383C14.232 23.2198 12.9851 23.6764 11.7 23.6802C11.466 23.681 11.2322 23.6663 11 23.636C12.3121 24.528 13.8412 25.0015 15.403 24.9995C16.4808 25.0113 17.55 24.7969 18.5482 24.3687C19.5464 23.9405 20.4535 23.3072 21.2166 22.5057C21.9798 21.7043 22.5836 20.7508 22.9928 19.7009C23.402 18.6509 23.6084 17.5257 23.6 16.3909C23.6 16.2656 23.6 16.1329 23.6 16.0002C24.1493 15.5689 24.623 15.0402 25 14.4377Z" fill="#1DA1F2"/>
<circle cx="18" cy="18" r="17.4" stroke="#1DA1F2" stroke-width="1.2"/>
</svg>
