<svg width="32" height="33" viewBox="0 0 32 33" fill="none" xmlns="http://www.w3.org/2000/svg">
<path d="M28.1334 13.1833H26.5293V11.566C26.5293 10.8755 25.9923 10.3125 25.3307 10.3125C24.6704 10.3125 24.132 10.8755 24.132 11.566V13.1833H22.5307C21.869 13.1833 21.332 13.7463 21.332 14.4368C21.332 15.1273 21.869 15.6903 22.5307 15.6903H24.132V17.309C24.132 17.9995 24.6704 18.5625 25.3307 18.5625C25.9923 18.5625 26.5293 17.9995 26.5293 17.309V15.6903H28.1334C28.7937 15.6903 29.332 15.1273 29.332 14.4368C29.332 13.7463 28.7937 13.1833 28.1334 13.1833Z" fill="#200E32"/>
<path d="M12.666 20.6464C7.27165 20.6464 2.66602 21.5357 2.66602 25.0891C2.66602 28.6411 7.24362 29.5625 12.666 29.5625C18.059 29.5625 22.666 28.6732 22.666 25.1198C22.666 21.5664 18.0884 20.6464 12.666 20.6464Z" fill="#200E32"/>
<path opacity="0.4" d="M12.6657 17.262C16.3384 17.262 19.2825 14.1868 19.2825 10.3505C19.2825 6.51411 16.3384 3.4375 12.6657 3.4375C8.99291 3.4375 6.04883 6.51411 6.04883 10.3505C6.04883 14.1868 8.99291 17.262 12.6657 17.262Z" fill="#200E32"/>
</svg>
