<svg width="36" height="36" viewBox="0 0 36 36" fill="none" xmlns="http://www.w3.org/2000/svg">
<path d="M12.0414 23.8043L12.9508 20.7888L15.3441 22.9427L12.0414 23.8043Z" fill="black"/>
<path d="M24.2471 17.9647C24.2471 21.4542 21.4183 24.2829 17.9288 24.2829C16.1923 24.2829 14.6194 23.5824 13.4773 22.4485C12.3245 21.3039 11.6106 19.7177 11.6106 17.9647C11.6106 14.4753 14.4394 11.6465 17.9288 11.6465C21.4183 11.6465 24.2471 14.4753 24.2471 17.9647Z" fill="black"/>
<path d="M14.7731 22.8372L14.9868 22.964C15.8843 23.4972 16.9134 23.7793 17.9628 23.7798H17.9651C21.1879 23.7798 23.8108 21.1546 23.8121 17.928C23.8127 16.3644 23.2051 14.8941 22.1011 13.7881C20.9971 12.6821 19.5292 12.0727 17.9673 12.0721C14.742 12.0721 12.1191 14.6969 12.1179 17.9233C12.1174 19.0289 12.4265 20.1057 13.0118 21.0375L13.1509 21.2588L12.5601 23.4181L14.7731 22.8372ZM10.8711 25.0908L11.8692 21.4426C11.2536 20.375 10.9297 19.1637 10.9301 17.9229C10.9317 14.041 14.0873 10.8828 17.9651 10.8828C19.8468 10.8837 21.6131 11.6169 22.9414 12.9476C24.2694 14.2784 25.0007 16.0472 25 17.9286C24.9983 21.8102 21.8422 24.9689 17.9651 24.9689C17.9648 24.9689 17.9653 24.9689 17.9651 24.9689H17.962C16.7848 24.9684 15.628 24.6728 14.6004 24.1118L10.8711 25.0908Z" fill="white" fill-opacity="0.87"/>
<path fill-rule="evenodd" clip-rule="evenodd" d="M16.2415 14.9976C16.1097 14.7046 15.9711 14.6987 15.8459 14.6935C15.7434 14.6892 15.6262 14.6895 15.509 14.6895C15.3918 14.6895 15.2014 14.7335 15.0404 14.9096C14.8792 15.0857 14.425 15.5113 14.425 16.3772C14.425 17.243 15.055 18.0795 15.1427 18.197C15.2306 18.3144 16.3587 20.1479 18.1455 20.8532C19.6303 21.4393 19.9324 21.3227 20.2548 21.2935C20.5771 21.2642 21.2948 20.8678 21.4412 20.4569C21.5877 20.046 21.5877 19.694 21.5438 19.6204C21.4998 19.5469 21.3827 19.503 21.2068 19.415C21.031 19.327 20.1668 18.9013 20.0057 18.8426C19.8445 18.7839 19.7274 18.7546 19.6101 18.9307C19.493 19.1068 19.1563 19.503 19.0537 19.6204C18.9512 19.7379 18.8487 19.7526 18.6728 19.6646C18.497 19.5763 17.9309 19.3907 17.2593 18.7912C16.7367 18.3248 16.384 17.7488 16.2814 17.5727C16.1789 17.3966 16.2704 17.3014 16.3586 17.2137C16.4375 17.1348 16.5344 17.0082 16.6224 16.9054C16.71 16.8027 16.7394 16.7293 16.7979 16.6121C16.8565 16.4946 16.8273 16.3918 16.7833 16.3038C16.7394 16.2158 16.3977 15.3455 16.2415 14.9976Z" fill="white" fill-opacity="0.87"/>
<circle cx="18" cy="18" r="17.4" stroke="white" stroke-opacity="0.87" stroke-width="1.2"/>
</svg>
