<svg viewBox="0 0 35 34" fill="none" xmlns="http://www.w3.org/2000/svg">
<path fill-rule="evenodd" clip-rule="evenodd" d="M4.10547 0H30.8945C33.1621 0 35 1.78516 35 3.98828V30.0117C35 32.2148 33.1621 34 30.8945 34H4.10547C1.83789 34 0 32.2148 0 30.0122V3.98828C0 1.78516 1.83789 0 4.10547 0ZM28 12.7725V6H21.2148C20.7812 6 20.4297 6.35107 20.4297 6.78467C20.4297 7.21777 20.7812 7.56934 21.2148 7.56934H26.4277V12.7725C26.4277 13.2061 26.7793 13.5571 27.2139 13.5571C27.6484 13.5571 28 13.2061 28 12.7725ZM11.1055 26.8857C12.6768 26.582 13.8633 25.2012 13.8633 23.5439C13.8643 21.6641 12.3379 20.1396 10.4541 20.1396C8.77246 20.1396 7.37598 21.3535 7.09473 22.9507L6 28L11.1055 26.8857ZM20.5498 20.2368C20.9844 20.2368 21.3359 19.8853 21.3359 19.4521C21.335 19.0205 20.9834 18.6694 20.5488 18.6694H15.3369V13.4653C15.3369 13.0322 14.9844 12.6812 14.5508 12.6812C14.1162 12.6812 13.7646 13.0322 13.7646 13.4653V17.8228C13.293 17.5063 12.791 17.2339 12.2617 17.0107L12.2119 16.9897C12.1729 16.9702 12.1318 16.9536 12.0898 16.9404C12.0137 16.917 11.9346 16.9048 11.8525 16.9048C11.6338 16.9048 11.4355 16.9927 11.292 17.1362C11.2119 17.2158 11.1494 17.312 11.1094 17.4194C11.0781 17.5054 11.0605 17.5986 11.0605 17.6958C11.0605 17.9141 11.1484 18.1123 11.292 18.2554C11.3506 18.314 11.4189 18.3638 11.4932 18.4019C11.5322 18.4214 11.5732 18.438 11.6162 18.4517C12.5078 18.8232 13.3105 19.3652 13.9824 20.0356C14.6553 20.7075 15.1982 21.5088 15.5703 22.3984L15.6182 22.5151C15.6387 22.5562 15.6631 22.5947 15.6904 22.6313C15.7129 22.6621 15.7383 22.6914 15.7656 22.7188C15.9092 22.8623 16.1074 22.9507 16.3262 22.9507C16.7637 22.9507 17.1191 22.5962 17.1191 22.1587C17.1191 22.0786 17.1074 22.0005 17.085 21.9268L17.0312 21.7944C16.8008 21.2451 16.5186 20.7241 16.1885 20.2368H20.5498ZM22.7764 18.02C23.21 18.02 23.5625 17.6689 23.5625 17.2354C23.5625 17.1567 23.5508 17.082 23.5293 17.0107L23.5361 17.0078L22.8916 15.605L22.2471 14.2026L21.6035 12.7998L20.96 11.3975L19.6719 8.59229L19.6641 8.5957C19.5947 8.48975 19.501 8.40186 19.3916 8.33936C19.2773 8.27441 19.1455 8.2373 19.0049 8.2373C18.7227 8.2373 18.4746 8.38574 18.3359 8.60889C18.2617 8.729 18.2188 8.87061 18.2188 9.02246C18.2188 9.09912 18.2295 9.17285 18.25 9.24268L18.2432 9.24609L18.2793 9.3252L18.2998 9.36865L18.8867 10.6484L19.5312 12.0508L20.1748 13.4536L20.8193 14.856L21.4629 16.2588L22.0518 17.5396L22.0703 17.5811L22.1074 17.6611L22.1143 17.6582C22.2539 17.876 22.498 18.02 22.7764 18.02Z" fill="white"/>
</svg>
