<svg xmlns="http://www.w3.org/2000/svg" width="124" height="40" viewBox="0 0 124 40">
    <g fill="none" fill-rule="evenodd">
        <g fill-rule="nonzero">
            <g>
                <path fill="#FFF" d="M49.771 13.108v4.688h-3.233V4.43h5.237c1.588 0 2.799.394 3.63 1.181.832.788 1.248 1.85 1.248 3.186 0 .832-.186 1.572-.557 2.222-.372.649-.924 1.16-1.655 1.53-.73.373-1.62.558-2.666.558h-2.004zm3.592-4.311c0-1.172-.649-1.758-1.947-1.758h-1.645v3.479h1.645c1.298 0 1.947-.574 1.947-1.721zM62.845 7.7c.636-.377 1.326-.566 2.07-.566v3.46h-.926c-.858 0-1.523.182-1.995.548-.472.366-.709.983-.709 1.853v4.802h-3.233V7.247h3.233v1.985c.403-.643.923-1.154 1.56-1.531zM73.83 7.766c.824.435 1.474 1.063 1.947 1.882.472.82.709 1.777.709 2.874 0 1.096-.237 2.054-.71 2.873-.472.82-1.122 1.446-1.947 1.882-.825.434-1.761.652-2.807.652-1.047 0-1.985-.218-2.817-.652-.832-.435-1.485-1.062-1.957-1.882-.473-.819-.71-1.777-.71-2.873 0-1.097.237-2.055.71-2.874.472-.82 1.125-1.446 1.957-1.882.832-.434 1.77-.652 2.817-.652 1.046 0 1.982.218 2.807.652zm-4.368 2.818c-.422.447-.633 1.093-.633 1.938 0 .844.21 1.487.633 1.928.422.442.942.662 1.56.662.618 0 1.134-.22 1.55-.662.417-.441.624-1.084.624-1.928 0-.845-.207-1.49-.624-1.938-.416-.447-.932-.671-1.55-.671s-1.138.224-1.56.67zM88.378 5.526c1.084.82 1.758 1.93 2.023 3.328h-3.423c-.227-.48-.573-.86-1.04-1.144-.466-.284-1.027-.425-1.682-.425-1.021 0-1.84.344-2.458 1.03-.618.687-.927 1.617-.927 2.79 0 1.272.325 2.249.974 2.93.649.68 1.572 1.02 2.77 1.02.769 0 1.443-.21 2.023-.633.58-.422.989-1.024 1.228-1.805h-4.083V10.29h6.787v3.195c-.252.782-.656 1.507-1.21 2.174-.555.669-1.264 1.21-2.127 1.626-.864.416-1.85.624-2.959.624-1.349 0-2.527-.287-3.535-.86-1.008-.574-1.787-1.377-2.335-2.411s-.822-2.212-.822-3.535c0-1.324.274-2.502.822-3.536.549-1.033 1.324-1.837 2.326-2.41 1.002-.574 2.171-.861 3.507-.861 1.676 0 3.056.41 4.14 1.23zM96.99 7.7c.636-.377 1.326-.566 2.07-.566v3.46h-.927c-.858 0-1.522.182-1.995.548-.472.366-.709.983-.709 1.853v4.802h-3.233V7.247h3.233v1.985c.404-.643.924-1.154 1.56-1.531zM106.32 7.663c.58.366 1.008.863 1.285 1.493v-1.91h3.214v10.55h-3.214v-1.91c-.277.631-.706 1.129-1.285 1.494-.58.366-1.273.549-2.08.549-.87 0-1.648-.218-2.335-.652-.687-.435-1.228-1.062-1.625-1.882-.397-.819-.596-1.777-.596-2.873 0-1.11.199-2.07.596-2.884.397-.813.939-1.437 1.625-1.872.687-.434 1.466-.652 2.335-.652.807 0 1.5.183 2.08.549zm-2.713 2.968c-.423.454-.634 1.085-.634 1.89 0 .807.21 1.438.634 1.891.422.454.98.68 1.673.68.68 0 1.238-.232 1.673-.699.434-.465.652-1.09.652-1.871 0-.794-.218-1.421-.652-1.882-.435-.46-.993-.69-1.673-.69-.694 0-1.251.227-1.673.681zM118.95 7.663c.579.366 1 .863 1.266 1.493v-5.35h3.233v13.99h-3.233v-1.91c-.265.631-.687 1.129-1.267 1.494-.58.366-1.273.549-2.08.549-.869 0-1.647-.218-2.334-.652-.688-.435-1.229-1.062-1.626-1.882-.397-.819-.596-1.777-.596-2.873 0-1.11.199-2.07.596-2.884.397-.813.939-1.437 1.626-1.872.687-.434 1.465-.652 2.334-.652.807 0 1.5.183 2.08.549zm-2.714 2.968c-.423.454-.634 1.085-.634 1.89 0 .807.211 1.438.634 1.891.422.454.98.68 1.673.68.68 0 1.238-.232 1.673-.699.435-.465.652-1.09.652-1.871 0-.794-.217-1.421-.652-1.882-.435-.46-.993-.69-1.673-.69-.693 0-1.25.227-1.673.681zM54.781 22.689v9.131c0 1.4-.381 2.477-1.143 3.233-.763.757-1.818 1.134-3.167 1.134-1.463 0-2.622-.412-3.48-1.238-.857-.825-1.285-2.014-1.285-3.564h3.195c0 1.248.473 1.872 1.418 1.872.82 0 1.229-.48 1.229-1.437v-9.131h3.233zM67.222 25.506v10.55h-3.253v-1.91c-.302.618-.753 1.11-1.351 1.475-.599.366-1.295.548-2.09.548-1.21 0-2.17-.403-2.882-1.21-.712-.806-1.069-1.915-1.069-3.327v-6.126h3.215v5.729c0 .718.185 1.276.557 1.673.372.397.873.596 1.503.596.655 0 1.173-.208 1.55-.624.378-.417.567-1.009.567-1.778v-5.596h3.253zM78.84 26.602c.711.807 1.068 1.917 1.068 3.328v6.126h-3.233v-5.748c0-.706-.186-1.257-.558-1.654-.371-.397-.866-.596-1.484-.596-.656 0-1.176.208-1.56.624-.384.416-.577 1.008-.577 1.777v5.597h-3.233v-10.55h3.233v1.929c.303-.63.754-1.128 1.352-1.494.599-.365 1.301-.548 2.108-.548 1.21 0 2.172.403 2.884 1.21zM82.082 21.318c.353-.322.82-.482 1.399-.482.58 0 1.046.16 1.399.482.352.322.529.728.529 1.22 0 .479-.177.879-.53 1.2-.353.322-.819.482-1.398.482-.58 0-1.046-.16-1.399-.482-.353-.321-.53-.721-.53-1.2 0-.492.177-.898.53-1.22zm3.006 4.188v10.55h-3.233v-10.55h3.233zM94.872 26.026c.825.434 1.475 1.062 1.947 1.881.473.82.71 1.777.71 2.874 0 1.096-.237 2.054-.71 2.873-.472.82-1.122 1.447-1.947 1.882-.826.435-1.762.652-2.808.652-1.046 0-1.985-.217-2.817-.652-.831-.435-1.484-1.062-1.957-1.882-.472-.819-.709-1.777-.709-2.873 0-1.097.237-2.055.71-2.874.472-.819 1.125-1.446 1.956-1.881.832-.435 1.771-.652 2.817-.652 1.046 0 1.982.217 2.808.652zm-4.368 2.817c-.422.447-.633 1.094-.633 1.938 0 .844.21 1.487.633 1.929.422.44.942.661 1.56.661.617 0 1.134-.22 1.55-.661.417-.442.624-1.084.624-1.93 0-.843-.207-1.49-.624-1.937-.416-.447-.933-.671-1.55-.671s-1.138.224-1.56.671zM103.814 25.96c.637-.378 1.327-.567 2.07-.567v3.46h-.926c-.857 0-1.522.182-1.995.548-.472.366-.709.983-.709 1.853v4.802h-3.232v-10.55h3.232v1.985c.404-.642.924-1.153 1.56-1.531z" transform="translate(-286 -12) translate(286 12)"/>
                <path fill="#5F27CD" d="M35.262 0H4.686C2.098 0 0 2.098 0 4.686v30.576c0 2.587 2.098 4.685 4.686 4.685h30.576c2.588 0 4.685-2.098 4.685-4.686V4.686C39.947 2.098 37.85 0 35.262 0z" transform="translate(-286 -12) translate(286 12)"/>
                <path fill="#FFF" d="M32.882 7.006v7.98c0 .511-.414.925-.925.925-.51 0-.924-.414-.924-.925v-6.13h-6.131c-.511 0-.925-.415-.925-.925 0-.511.414-.925.925-.925h7.98zM16.255 27.678c0 1.953-1.396 3.58-3.244 3.938L7.006 32.93l1.287-5.95c.332-1.881 1.974-3.312 3.951-3.312 2.216 0 4.012 1.796 4.011 4.011zM25.044 22.857c0 .51-.414.924-.925.924h-5.13c.388.575.721 1.188.991 1.836l.064.156c.026.087.04.178.04.273 0 .516-.418.933-.933.933-.257 0-.49-.104-.659-.273-.07-.07-.129-.15-.173-.24-.018-.046-.038-.092-.057-.137-.437-1.049-1.076-1.993-1.867-2.784-.79-.79-1.735-1.429-2.782-1.867h-.002c-.05-.016-.098-.035-.144-.059-.087-.045-.168-.103-.236-.172-.17-.17-.274-.402-.274-.66 0-.257.105-.49.274-.659.168-.169.401-.273.659-.273.096 0 .19.015.277.042h.002c.05.016.097.035.143.059l.06.024c.621.263 1.212.585 1.766.957v-5.134c0-.51.414-.925.925-.925.51 0 .924.414.924.925v6.132h6.132c.51 0 .924.414.925.922zM27.662 20.245c0 .51-.413.924-.924.924-.327 0-.615-.17-.779-.426l-.008.004-.043-.095-.022-.048-.693-1.51-.757-1.653-.758-1.652-.757-1.653-.758-1.653-.69-1.508c-.009-.016-.017-.033-.024-.05l-.043-.094.008-.004c-.024-.083-.037-.17-.037-.26 0-.51.414-.924.925-.924.325 0 .61.168.775.422l.01-.005 1.514 3.306.758 1.653.757 1.652.758 1.653.757 1.653-.008.003c.026.084.04.173.04.265z" transform="translate(-286 -12) translate(286 12)"/>
            </g>
        </g>
    </g>
</svg>
