<svg width="142" height="30" viewBox="0 0 142 30" fill="none" xmlns="http://www.w3.org/2000/svg">
<path d="M40.8501 18.5582V24.887H36.4427V6.84348H43.5823C45.7473 6.84348 47.3974 7.37592 48.5317 8.43864C49.666 9.50244 50.2332 10.9356 50.2332 12.7392C50.2332 13.8624 49.9791 14.8625 49.473 15.7384C48.9658 16.6153 48.2143 17.3044 47.2175 17.8055C46.2206 18.3077 45.0089 18.5582 43.5823 18.5582H40.8501ZM45.7473 12.7381C45.7473 11.1559 44.8627 10.3654 43.0926 10.3654H40.8501V15.0612H43.0926C44.8627 15.0612 45.7473 14.2858 45.7473 12.7381ZM58.6739 11.2585C59.542 10.7477 60.4822 10.4917 61.4965 10.4917V15.1638H60.2335C59.0643 15.1638 58.158 15.41 57.5145 15.9036C56.8699 16.3982 56.5471 17.232 56.5471 18.4049V24.8881H52.1408V10.6451H56.5471V13.3256C57.0968 12.4584 57.8057 11.7683 58.6739 11.2585ZM73.6499 11.3471C74.7743 11.9335 75.66 12.7813 76.3045 13.8872C76.948 14.9942 77.2709 16.2859 77.2709 17.7666C77.2709 19.2462 76.948 20.54 76.3045 21.646C75.6611 22.7519 74.7743 23.5986 73.6499 24.1861C72.5232 24.7726 71.2482 25.0663 69.8216 25.0663C68.395 25.0663 67.1157 24.7726 65.9814 24.1861C64.8471 23.5986 63.9571 22.753 63.3136 21.646C62.6701 20.54 62.3472 19.2462 62.3472 17.7666C62.3472 16.287 62.669 14.9932 63.3136 13.8872C63.9571 12.7813 64.8471 11.9346 65.9814 11.3471C67.1157 10.7606 68.395 10.4669 69.8205 10.4669C71.2482 10.4669 72.5243 10.7606 73.6499 11.3471ZM67.6948 15.1508C67.12 15.7546 66.8321 16.6272 66.8321 17.7666C66.8321 18.906 67.1189 19.7754 67.6959 20.3694C68.2718 20.9666 68.9796 21.2636 69.8227 21.2636C70.6636 21.2636 71.3682 20.9666 71.9364 20.3705C72.5036 19.7743 72.7871 18.9071 72.7871 17.7666C72.7871 16.6272 72.5036 15.7546 71.9364 15.1508C71.3693 14.546 70.6636 14.2436 69.8227 14.2436C68.9796 14.2436 68.2707 14.546 67.6948 15.1508ZM93.4837 8.32308C94.9615 9.429 95.881 10.9259 96.242 12.8159H91.5761C91.2664 12.1679 90.7941 11.6538 90.1582 11.2715C89.5224 10.8881 88.7567 10.6969 87.8646 10.6969C86.4718 10.6969 85.356 11.1613 84.5129 12.088C83.6709 13.0157 83.2499 14.2706 83.2499 15.8528C83.2499 17.5722 83.6927 18.8898 84.5773 19.8089C85.4629 20.728 86.7215 21.188 88.3543 21.188C89.4013 21.188 90.3218 20.9029 91.1115 20.3327C91.9022 19.7624 92.4606 18.9503 92.7867 17.8951H87.2189V14.7556H96.4732V19.0691C96.1286 20.1242 95.5789 21.1027 94.823 22.0045C94.0661 22.9063 93.0998 23.6375 91.9229 24.1991C90.745 24.7607 89.4013 25.0415 87.8896 25.0415C86.0497 25.0415 84.4442 24.6538 83.0689 23.8794C81.6946 23.105 80.6334 22.0218 79.8863 20.6254C79.1392 19.23 78.7662 17.6392 78.7662 15.8518C78.7662 14.0654 79.1392 12.4746 79.8863 11.0792C80.6345 9.68388 81.6903 8.59956 83.0569 7.8252C84.4235 7.05084 86.017 6.66312 87.8384 6.66312C90.1233 6.6642 92.0047 7.21716 93.4837 8.32308ZM105.225 11.2585C106.092 10.7477 107.032 10.4917 108.046 10.4917V15.1638H106.783C105.614 15.1638 104.708 15.41 104.064 15.9036C103.421 16.3982 103.098 17.232 103.098 18.4049V24.8881H98.6905V10.6451H103.097V13.3256C103.648 12.4584 104.358 11.7683 105.225 11.2585ZM117.945 11.2078C118.735 11.7013 119.319 12.3731 119.698 13.223V10.6451H124.079V24.8881H119.698V22.3102C119.319 23.1612 118.735 23.833 117.945 24.3254C117.154 24.8201 116.209 25.0663 115.109 25.0663C113.924 25.0663 112.863 24.7726 111.927 24.1861C110.989 23.5986 110.252 22.753 109.711 21.646C109.169 20.54 108.898 19.2462 108.898 17.7666C108.898 16.2697 109.169 14.9716 109.711 13.8743C110.252 12.7759 110.99 11.9335 111.927 11.3471C112.863 10.7606 113.924 10.4669 115.109 10.4669C116.209 10.4669 117.153 10.7131 117.945 11.2078ZM114.246 15.2146C113.671 15.8269 113.382 16.678 113.382 17.7666C113.382 18.8552 113.67 19.7063 114.246 20.3186C114.822 20.931 115.582 21.2377 116.527 21.2377C117.454 21.2377 118.215 20.9234 118.807 20.2938C119.4 19.6642 119.697 18.8218 119.697 17.7666C119.697 16.6942 119.4 15.8485 118.808 15.2264C118.215 14.6054 117.454 14.2955 116.527 14.2955C115.582 14.2955 114.822 14.6033 114.246 15.2146ZM135.163 11.2078C135.953 11.7013 136.529 12.3731 136.889 13.223V6H141.298V24.8881H136.889V22.3102C136.529 23.1612 135.953 23.833 135.163 24.3254C134.373 24.8201 133.428 25.0663 132.327 25.0663C131.142 25.0663 130.08 24.7726 129.144 24.1861C128.207 23.5986 127.469 22.753 126.928 21.646C126.387 20.54 126.115 19.2462 126.115 17.7666C126.115 16.2697 126.387 14.9716 126.928 13.8743C127.469 12.7759 128.208 11.9335 129.144 11.3471C130.081 10.7606 131.142 10.4669 132.328 10.4669C133.427 10.4669 134.372 10.7131 135.163 11.2078ZM131.464 15.2146C130.887 15.8269 130.6 16.678 130.6 17.7666C130.6 18.8552 130.887 19.7063 131.464 20.3186C132.04 20.931 132.799 21.2377 133.745 21.2377C134.673 21.2377 135.433 20.9234 136.026 20.2938C136.619 19.6642 136.915 18.8218 136.915 17.7666C136.915 16.6942 136.619 15.8485 136.026 15.2264C135.433 14.6054 134.673 14.2955 133.745 14.2955C132.799 14.2955 132.04 14.6033 131.464 15.2146Z" fill="white"/>
<path d="M26.8068 0H3.56212C1.59465 0 0 1.57531 0 3.51892V26.4817C0 28.4247 1.59465 30 3.56212 30H26.8068C28.7743 30 30.3689 28.4247 30.3689 26.4811V3.51892C30.3689 1.57531 28.7743 0 26.8068 0Z" fill="#5F27CD"/>
<path d="M24.2951 6V11.8492C24.2951 12.2233 23.9871 12.5264 23.6077 12.5264C23.2278 12.5264 22.9204 12.2233 22.9204 11.8492V7.35559H18.3632C17.9838 7.35559 17.6764 7.05246 17.6764 6.6778C17.6764 6.30372 17.9838 6 18.3632 6H24.2951ZM11.9365 21.1513C11.9365 22.582 10.8989 23.7752 9.5247 24.0372L5.06146 25L6.0188 20.6395C6.26498 19.2598 7.48574 18.2115 8.95505 18.2115C10.6022 18.2115 11.9371 19.5278 11.9365 21.1513V21.1513ZM18.469 17.6175C18.469 17.9922 18.161 18.2953 17.7816 18.2953H13.9689C14.2573 18.7163 14.5041 19.166 14.7051 19.6404L14.7526 19.7547C14.7722 19.8186 14.7824 19.8854 14.7824 19.9552C14.7824 20.3328 14.472 20.6389 14.089 20.6389C13.8982 20.6389 13.7245 20.5627 13.5991 20.4384C13.5473 20.3879 13.5039 20.3287 13.47 20.263C13.4569 20.229 13.4427 20.1956 13.4284 20.1622C13.1031 19.3941 12.6286 18.7017 12.0405 18.1218C11.4525 17.5425 10.7514 17.0746 9.97245 16.7539H9.97126C9.9344 16.7421 9.89812 16.7275 9.86423 16.7105C9.79882 16.6776 9.73936 16.6348 9.68822 16.5838C9.56335 16.4607 9.48546 16.2895 9.48546 16.1007C9.48546 15.9119 9.56276 15.7413 9.68822 15.6176C9.81309 15.4944 9.98672 15.4176 10.1782 15.4176C10.2495 15.4176 10.3197 15.4288 10.3845 15.4481L10.3857 15.4487C10.4226 15.4604 10.4583 15.4739 10.4922 15.4915L10.5362 15.5091C10.9988 15.702 11.4382 15.9371 11.8497 16.2103V12.4479C11.8497 12.0732 12.1571 11.7701 12.5371 11.7701C12.9164 11.7701 13.2238 12.0732 13.2238 12.4479V16.9415H17.781C18.161 16.9415 18.4684 17.2452 18.469 17.6175V17.6175ZM20.4152 15.7032C20.4152 16.0778 20.1078 16.381 19.7278 16.381C19.4846 16.381 19.2712 16.2561 19.1493 16.0684L19.1433 16.0708L19.1112 16.0016L19.0946 15.9664L18.5802 14.86L18.0171 13.6487L17.454 12.4373L16.8909 11.226L16.3278 10.0146L15.8146 8.90937L15.7968 8.87243L15.7647 8.80383L15.7712 8.8009C15.7534 8.73992 15.7439 8.67659 15.7439 8.61034C15.7439 8.23567 16.0513 7.93254 16.4306 7.93254C16.6727 7.93254 16.8849 8.05567 17.0074 8.24212L17.0134 8.23919L18.1396 10.6613L18.7027 11.8727L19.2658 13.084L19.8289 14.2954L20.392 15.5067L20.3861 15.5091C20.4051 15.5707 20.4152 15.6357 20.4152 15.7032V15.7032Z" fill="white"/>
</svg>
