<svg width="608" height="112" viewBox="0 0 608 112" fill="none" xmlns="http://www.w3.org/2000/svg">
<path d="M48.5 23.5L49.5 19.3L50.2 16.5H33.7L17.2 35.6H29.1L27.4 42.8L17.2 85.7L11 111.8C11.5 111.9 11.9 111.9 12.4 111.9H27.4L33.6 85.7L34.7 81L42.4 48.4L48.5 23.5Z" fill="white"/>
<path d="M93.0001 26.6C88.2001 20.4 80.4001 16.5 70.9001 16.5C64.5001 16.5 58.2001 18.2 52.3001 21.2L46.2001 47.1C46.7001 46 47.3001 45 47.9001 44C49.3001 41.8 51.1001 39.9 53.1001 38.2C57.1001 34.9 62.1001 32.9 67.1001 32.9C72.1001 32.9 76.2001 34.9 78.7001 38.2C80.5001 40.6 81.5001 43.6 81.5001 47C81.5001 48.3 81.3001 49.7 81.0001 51.1L80.4001 53.9C79.3001 58.9 76.2001 63.4 72.2001 66.7C68.2001 70 63.2001 72 58.2001 72C53.2001 72 49.1001 70 46.6001 66.7C44.7001 64.2 43.6001 61 43.8001 57.4L37.6001 83.4C42.1001 86.6 47.9001 88.5 54.5001 88.5C73.6001 88.5 92.6001 73 97.0001 53.9L97.6001 51.1C98.2001 48.4 98.5001 45.9 98.5001 43.4C98.4001 36.8 96.5001 31.1 93.0001 26.6Z" fill="white"/>
<path d="M99.3 0H12.6C5.7 0 0 5.7 0 12.6V99.3C0 105.7 4.8 111 11 111.8L17.2 85.7L27.4 42.8L29.1 35.6H17.2L33.6 16.5H50L49.3 19.3L48.3 23.5L42.4 48.5L34.8 81L33.7 85.7L27.5 111.9H99.4C106.4 111.9 112 106.2 112 99.3V12.6C111.9 5.7 106.3 0 99.3 0ZM97.5 51L96.9 53.8C92.5 72.9 73.5 88.4 54.4 88.4C47.8 88.4 42.1 86.5 37.5 83.3L43.7 57.3C43.6 60.9 44.6 64.1 46.5 66.6C49 69.9 53.1 71.9 58.1 71.9C63.1 71.9 68.1 69.9 72.1 66.6C76.1 63.3 79.2 58.8 80.3 53.8L80.9 51C82 46 81.1 41.5 78.5 38.2C76 34.9 71.9 32.9 66.9 32.9C61.9 32.9 56.9 34.9 52.9 38.2C50.9 39.8 49.1 41.8 47.7 44C47.1 45 46.5 46 46 47.1L52.1 21.2C57.9 18.2 64.3 16.5 70.7 16.5C80.2 16.5 88 20.4 92.8 26.6C96.3 31.1 98.2 36.9 98.2 43.3C98.4 45.8 98.2 48.4 97.5 51Z" fill="url(#paint0_linear)"/>
<path d="M186.1 12.6001H147.1V99.3001H165.7V71.2001H186.1C204.9 71.2001 218.8 59.1001 218.8 41.9001C218.7 24.7001 204.9 12.6001 186.1 12.6001ZM184 54.1001H165.6V29.6001H184C193.2 29.6001 199.5 34.4001 199.5 41.8001C199.6 49.3001 193.3 54.1001 184 54.1001Z" fill="black"/>
<path d="M264.3 32.5C254.3 32.5 246.3 37.7 242 46.1V34.1H223.6V99.4H242V68.1C242 55.9 250.7 48 264.3 48V32.5Z" fill="black"/>
<path d="M299.1 32.5C279.7 32.5 263.4 48 263.4 66.6C263.4 85.2 279.7 100.8 299.1 100.8C318.4 100.8 334.6 85.1 334.6 66.6C334.6 48.1 318.5 32.5 299.1 32.5ZM299.1 85.3C289.3 85.3 281.1 76.7 281.1 66.6C281.1 56.5 289.3 48 299.1 48C308.8 48 317 56.5 317 66.6C317.1 76.7 308.9 85.3 299.1 85.3Z" fill="black"/>
<path d="M384.3 28.0001C392.3 28.0001 400.7 31.8001 405.9 37.7001L419.4 25.6001C410.7 16.5001 397.3 11.1001 384.3 11.1001C359.2 11.1001 337.9 31.5001 337.9 55.9001C337.9 80.3001 359.2 100.8 384.3 100.8C397.3 100.8 410.7 95.4001 419.4 86.3001V50.6001H381V65.1001H401.2V78.4001C396.3 81.9001 390.2 84.0001 384.3 84.0001C369.5 84.0001 357 71.1001 357 56.0001C357.1 40.9001 369.6 28.0001 384.3 28.0001Z" fill="black"/>
<path d="M446.7 46.2V34.1H428.3V99.4H446.7V68.1C446.7 55.9 455.4 48 469 48V32.5C459.1 32.5 451 37.7 446.7 46.2Z" fill="black"/>
<path d="M502.5 32.5C493.4 32.5 484.5 35 475.2 39.7L481.4 51.9C486.6 49.2 492.3 47.2 498.3 47.2C509 47.2 513.3 53.3 513.3 60.2V61.5C507.7 59.4 501.9 58.2 496.6 58.2C481.5 58.2 469.5 67 469.5 79.9C469.5 92.4 480.2 100.7 494.1 100.7C501.2 100.7 508.6 97.9 513.3 92.6V99.2H531.1V60.2C531.1 43.3 519.5 32.5 502.5 32.5ZM513.3 78.7C512 84.8 505.3 88 498.3 88C492 88 487.3 84.7 487.3 79.4C487.3 74.1 492.6 70.2 499.3 70.2C504.3 70.2 509.1 71.1 513.3 72.6V78.7Z" fill="black"/>
<path d="M589 11.1001V43.4001C583.8 36.6001 576.3 32.5001 567 32.5001C549.6 32.5001 537 46.6001 537 66.6001C537 86.7001 549.6 100.8 567 100.8C576.2 100.8 583.8 96.8001 589 89.9001V99.2001H607.4V11.1001H589ZM572.4 85.3001C562.2 85.3001 555 77.6001 555 66.6001C555 55.7001 562.2 48.0001 572.4 48.0001C582.1 48.0001 589.1 55.7001 589.1 66.6001C589 77.6001 582.1 85.3001 572.4 85.3001Z" fill="black"/>
<defs>
<linearGradient id="paint0_linear" x1="55.9557" y1="-0.9711" x2="55.9557" y2="113.504" gradientUnits="userSpaceOnUse">
<stop offset="0.0228672" stop-color="#0E7DED"/>
<stop offset="1" stop-color="#1739E6"/>
</linearGradient>
</defs>
</svg>
