<svg width="163" height="30" viewBox="0 0 163 30" fill="none" xmlns="http://www.w3.org/2000/svg">
<path d="M13.0028 6.30026L13.2709 5.17425L13.4586 4.42358H9.03501L4.61142 9.54423H7.80177L7.346 11.4745L4.61142 22.9759L2.94922 29.9732C3.08327 30 3.19051 30 3.32455 30H7.346L9.0082 22.9759L9.30311 21.7158L11.3674 12.9759L13.0028 6.30026Z" fill="white"/>
<path d="M24.9326 7.13136C23.6458 5.46916 21.5546 4.42358 19.0077 4.42358C17.2919 4.42358 15.6029 4.87935 14.0211 5.68364L12.3857 12.6273C12.5198 12.3324 12.6806 12.0643 12.8415 11.7962C13.2168 11.2064 13.6994 10.697 14.2356 10.2413C15.308 9.35656 16.6484 8.82037 17.9889 8.82037C19.3294 8.82037 20.4286 9.35656 21.0988 10.2413C21.5814 10.8847 21.8495 11.689 21.8495 12.6005C21.8495 12.9491 21.7959 13.3244 21.7155 13.6997L21.5546 14.4504C21.2597 15.7909 20.4286 16.9973 19.3562 17.882C18.2838 18.7667 16.9433 19.3029 15.6029 19.3029C14.2624 19.3029 13.1632 18.7667 12.4929 17.882C11.9836 17.2118 11.6887 16.3539 11.7423 15.3887L10.0801 22.3592C11.2865 23.2171 12.8415 23.7265 14.6109 23.7265C19.7316 23.7265 24.8254 19.571 26.005 14.4504L26.1659 13.6997C26.3267 12.9759 26.4072 12.3056 26.4072 11.6354C26.3803 9.86594 25.871 8.33779 24.9326 7.13136Z" fill="white"/>
<path d="M26.622 0H3.37802C1.52815 0 0 1.52815 0 3.37802V26.622C0 28.3378 1.28686 29.7587 2.94906 29.9732L4.61126 22.9759L7.34584 11.4745L7.80161 9.54424H4.61126L9.00804 4.42359H13.4048L13.2172 5.17426L12.9491 6.30027L11.3673 13.0027L9.32976 21.7158L9.03485 22.9759L7.37265 30H26.6488C28.5255 30 30.0268 28.4718 30.0268 26.622V3.37802C30 1.52815 28.4987 0 26.622 0ZM26.1394 13.6729L25.9786 14.4236C24.7989 19.5442 19.7051 23.6997 14.5845 23.6997C12.815 23.6997 11.2869 23.1903 10.0536 22.3324L11.7158 15.3619C11.689 16.3271 11.9571 17.185 12.4665 17.8552C13.1367 18.7399 14.2359 19.2761 15.5764 19.2761C16.9169 19.2761 18.2574 18.7399 19.3298 17.8552C20.4021 16.9705 21.2332 15.7641 21.5282 14.4236L21.689 13.6729C21.9839 12.3324 21.7426 11.126 21.0456 10.2413C20.3753 9.35657 19.2761 8.82038 17.9357 8.82038C16.5952 8.82038 15.2547 9.35657 14.1823 10.2413C13.6461 10.6702 13.1635 11.2064 12.7882 11.7962C12.6273 12.0643 12.4665 12.3324 12.3324 12.6273L13.9678 5.68365C15.5228 4.87936 17.2386 4.42359 18.9544 4.42359C21.5013 4.42359 23.5925 5.46917 24.8794 7.13137C25.8177 8.3378 26.3271 9.89276 26.3271 11.6086C26.3807 12.2788 26.3271 12.9759 26.1394 13.6729Z" fill="url(#paint0_linear)"/>
<path d="M49.8928 3.37817H39.437V26.6221H44.4236V19.0886H49.8928C54.933 19.0886 58.6595 15.8447 58.6595 11.2334C58.6327 6.62214 54.933 3.37817 49.8928 3.37817ZM49.3298 14.5042H44.3968V7.93581H49.3298C51.7963 7.93581 53.4853 9.22268 53.4853 11.2066C53.5121 13.2173 51.8231 14.5042 49.3298 14.5042Z" fill="white"/>
<path d="M70.8578 8.71313C68.1768 8.71313 66.0321 10.1072 64.8793 12.3592V9.14209H59.9463V26.6488H64.8793V18.2574C64.8793 14.9866 67.2117 12.8686 70.8578 12.8686V8.71313Z" fill="white"/>
<path d="M80.1873 8.71313C74.9862 8.71313 70.6162 12.8686 70.6162 17.8552C70.6162 22.8418 74.9862 27.0241 80.1873 27.0241C85.3615 27.0241 89.7047 22.815 89.7047 17.8552C89.7047 12.8954 85.3883 8.71313 80.1873 8.71313ZM80.1873 22.8686C77.5599 22.8686 75.3615 20.563 75.3615 17.8552C75.3615 15.1475 77.5599 12.8686 80.1873 12.8686C82.7878 12.8686 84.9862 15.1475 84.9862 17.8552C85.013 20.563 82.8146 22.8686 80.1873 22.8686Z" fill="white"/>
<path d="M103.03 7.50666C105.174 7.50666 107.426 8.52543 108.82 10.1072L112.44 6.86323C110.107 4.42355 106.515 2.97583 103.03 2.97583C96.3003 2.97583 90.5898 8.445 90.5898 14.9866C90.5898 21.5281 96.3003 27.0241 103.03 27.0241C106.515 27.0241 110.107 25.5764 112.44 23.1367V13.5656H102.145V17.453H107.56V21.0187C106.247 21.9571 104.611 22.5201 103.03 22.5201C99.0617 22.5201 95.7105 19.0616 95.7105 15.0134C95.7373 10.9651 99.0885 7.50666 103.03 7.50666Z" fill="white"/>
<path d="M119.759 12.3861V9.14209H114.826V26.6488H119.759V18.2574C119.759 14.9866 122.091 12.8686 125.737 12.8686V8.71313C123.083 8.71313 120.911 10.1072 119.759 12.3861Z" fill="white"/>
<path d="M134.719 8.71313C132.279 8.71313 129.893 9.38338 127.4 10.6434L129.062 13.9142C130.456 13.1903 131.984 12.6542 133.593 12.6542C136.461 12.6542 137.614 14.2895 137.614 16.1394V16.4879C136.113 15.9249 134.558 15.6032 133.137 15.6032C129.089 15.6032 125.872 17.9625 125.872 21.4209C125.872 24.7721 128.74 26.9973 132.467 26.9973C134.37 26.9973 136.354 26.2466 137.614 24.8257V26.5952H142.386V16.1394C142.386 11.6086 139.276 8.71313 134.719 8.71313ZM137.614 21.0992C137.266 22.7346 135.469 23.5925 133.593 23.5925C131.904 23.5925 130.644 22.7078 130.644 21.2869C130.644 19.8659 132.065 18.8204 133.861 18.8204C135.201 18.8204 136.488 19.0617 137.614 19.4638V21.0992Z" fill="white"/>
<path d="M157.909 2.97583V11.6353C156.515 9.81229 154.504 8.71309 152.011 8.71309C147.346 8.71309 143.968 12.4933 143.968 17.8552C143.968 23.2439 147.346 27.0241 152.011 27.0241C154.477 27.0241 156.515 25.9517 157.909 24.1018V26.5951H162.842V2.97583H157.909ZM153.458 22.8686C150.724 22.8686 148.794 20.8042 148.794 17.8552C148.794 14.9329 150.724 12.8686 153.458 12.8686C156.059 12.8686 157.936 14.9329 157.936 17.8552C157.909 20.8042 156.059 22.8686 153.458 22.8686Z" fill="white"/>
<defs>
<linearGradient id="paint0_linear" x1="15.0015" y1="-0.260349" x2="15.0015" y2="30.4301" gradientUnits="userSpaceOnUse">
<stop offset="0.0228672" stop-color="#0E7DED"/>
<stop offset="1" stop-color="#1739E6"/>
</linearGradient>
</defs>
</svg>
