<?xml version="1.0" encoding="UTF-8"?>
<svg width="128px" height="128px" viewBox="0 0 128 128" version="1.1" xmlns="http://www.w3.org/2000/svg" xmlns:xlink="http://www.w3.org/1999/xlink">
    <title>P Vector</title>
    <g id="Logos-and-Guides" stroke="none" stroke-width="1" fill="none" fill-rule="evenodd">
        <g id="128x128-P" fill-rule="nonzero">
            <g id="P-Vector">
                <path d="M112.986209,0 L15.0137906,0 C6.72118959,0 0,6.72129034 0,15.0140157 L0,112.987903 C0,121.27871 6.72118959,128 15.0137906,128 L112.986209,128 C121.27881,128 128,121.27871 128,112.985984 L128,15.0140157 C128,6.72129034 121.27881,0 112.986209,0 Z" id="Path" fill="#F50A5F"></path>
                <g id="Group-2" transform="translate(23.000000, 23.000000)" fill="#FFFFFF">
                    <path d="M82.8033533,4.20996571e-13 L82.8033533,25.5367665 C82.8033533,27.1712575 81.4792814,28.4953293 79.8447904,28.4953293 C78.2102994,28.4953293 76.8862275,27.1712575 76.8862275,25.5367665 L76.8862275,5.91712575 L57.2665868,5.91712575 C55.6320958,5.91712575 54.308024,4.59305389 54.308024,2.95856287 C54.308024,1.32407186 55.6320958,4.20996571e-13 57.2665868,4.20996571e-13 L82.8033533,4.20996571e-13 Z" id="Path"></path>
                    <path d="M29.5971262,66.1518563 C29.5971262,72.400479 25.1305389,77.6067066 19.2153293,78.7525749 L-9.48574552e-13,82.9547305 L4.11976048,63.9156886 C5.1794012,57.8931737 10.4354491,53.3154491 16.7626347,53.3154491 C23.8524551,53.3154491 29.5990419,59.0620359 29.5971262,66.1518563 Z" id="Path"></path>
                    <path d="M57.7207186,50.7228743 C57.7207186,52.3573653 56.3966467,53.6814371 54.7621557,53.6814371 L38.3482635,53.6814371 C39.588024,55.5190419 40.6534132,57.4831138 41.5176048,59.554491 C41.5865868,59.7211976 41.6536527,59.8879042 41.7207186,60.0546108 C41.8050299,60.3324551 41.851018,60.6256287 41.851018,60.9283832 C41.851018,62.5782036 40.5135329,63.9137725 38.8656287,63.9137725 C38.0416766,63.9137725 37.2962874,63.5803593 36.7559281,63.04 C36.5317365,62.8177246 36.3439521,62.5590419 36.2002395,62.2735329 C36.1427545,62.125988 36.0814371,61.9784431 36.0201198,61.8328144 C34.6194012,58.4776048 32.5767665,55.4558084 30.045509,52.9245509 C27.5142515,50.3952096 24.4943713,48.3525749 21.1410778,46.9518563 C21.1391617,46.9518563 21.1391617,46.9499401 21.1372455,46.9499401 C20.9782036,46.9001198 20.822994,46.8368862 20.6754491,46.7621557 C20.3956886,46.6184431 20.1389222,46.4325749 19.9185629,46.2102994 C19.3782036,45.6699401 19.0447904,44.9245509 19.0447904,44.1005988 C19.0447904,43.2766467 19.3782036,42.5312575 19.9185629,41.9908982 C20.457006,41.4505389 21.2043114,41.1171257 22.0282635,41.1171257 C22.3367665,41.1171257 22.6356886,41.1650299 22.9154491,41.2512575 C22.9173653,41.2512575 22.9192814,41.2531737 22.9211976,41.2531737 C23.0802395,41.302994 23.2335329,41.3643114 23.3791617,41.4390419 C23.4423952,41.4639521 23.5056287,41.4907784 23.5688623,41.5176048 C25.5597605,42.3588024 27.451018,43.3877844 29.2234731,44.5796407 L29.2234731,28.1504192 C29.2234731,26.5159281 30.5475449,25.1918563 32.1820359,25.1918563 C33.8165269,25.1918563 35.1405988,26.5159281 35.1405988,28.1504192 L35.1405988,47.771976 L54.7602395,47.771976 C56.3947305,47.771976 57.7188024,49.0960479 57.7207186,50.7228743 Z" id="Path"></path>
                    <path d="M66.1001198,42.3645509 C66.1001198,43.9990419 64.7760479,45.3231138 63.1415569,45.3231138 C62.0953293,45.3231138 61.1755689,44.7789222 60.6505389,43.9588024 L60.6256287,43.9702994 L60.4857485,43.6675449 C60.4608383,43.6158084 60.4378443,43.5640719 60.4148503,43.5123353 L58.1997605,38.6816766 L55.7758084,33.3930539 L53.3518563,28.1044311 L50.9279042,22.8158084 L48.5039521,17.5271856 L46.2926946,12.7022754 C46.2658683,12.6486228 46.2409581,12.5949701 46.2179641,12.5394012 L46.08,12.240479 L46.1068263,12.2270659 C46.0301796,11.9626347 45.988024,11.6847904 45.988024,11.3954491 C45.988024,9.76095808 47.3120958,8.43688623 48.9465868,8.43688623 C49.9870659,8.43688623 50.9010778,8.97532934 51.428024,9.78778443 L51.4567665,9.77437126 L56.3046707,20.3516168 L58.7286228,25.6402395 L61.1525749,30.9288623 L63.5765269,36.217485 L66.000479,41.5061078 L65.9755689,41.5176048 C66.0560479,41.7858683 66.1001198,42.0694611 66.1001198,42.3645509 Z" id="Path"></path>
                </g>
            </g>
        </g>
    </g>
</svg>