<?xml version="1.0" encoding="UTF-8"?>
<svg width="600px" height="128px" viewBox="0 0 600 128" version="1.1" xmlns="http://www.w3.org/2000/svg" xmlns:xlink="http://www.w3.org/1999/xlink">
    <title>Logo Pink</title>
    <g id="Logo-and-Stuff" stroke="none" stroke-width="1" fill="none" fill-rule="evenodd">
        <g id="Logo-Pink" transform="translate(-10.000000, -10.000000)" fill-rule="nonzero">
            <g transform="translate(10.000000, 10.000000)" id="Group">
                <g transform="translate(148.316940, 22.171089)" fill="#000000">
                    <path d="M52.0600106,10.7568008 C47.1881049,6.1429207 40.1010016,3.83598066 30.7987007,3.83598066 L0.126145851,3.83598066 L0.126145851,82.1247718 L19.0614027,82.1247718 L19.0614027,54.6632023 L30.7987007,54.6632023 C36.926331,54.6632023 42.1288918,53.5756721 46.4121168,51.3967892 C50.6915192,49.2198176 53.9216176,46.2305432 56.1024117,42.4270547 C58.277472,38.6254774 59.3688248,34.288736 59.3688248,29.4168303 C59.3688248,21.5919649 56.9319163,15.3725922 52.0600106,10.7568008 Z M28.6943586,39.4912967 L19.0614027,39.4912967 L19.0614027,19.1168304 L28.6943586,19.1168304 C36.2975131,19.1168304 40.1010016,22.5495266 40.1010016,29.414919 C40.1010016,36.1331412 36.2975131,39.4912967 28.6943586,39.4912967 Z" id="Shape"></path>
                    <path d="M86.4959167,31.9626829 L86.4959167,20.334329 L67.5606599,20.334329 L67.5606599,82.1247718 L86.4959167,82.1247718 L86.4959167,53.9980696 C86.4959167,48.904453 87.8796985,45.2882719 90.6491733,43.1457038 C93.4167368,41.0050469 97.3100565,39.9347185 102.331044,39.9347185 L107.757227,39.9347185 L107.757227,19.6711076 C103.401372,19.6711076 99.358971,20.7777508 95.6319344,22.9929484 C91.9029866,25.208146 88.8582845,28.1974204 86.4959167,31.9626829 Z" id="Path"></path>
                    <path d="M159.96823,23.3790311 C155.130728,20.8312672 149.651028,19.5583409 143.525309,19.5583409 C137.395768,19.5583409 131.896955,20.8312672 127.02505,23.3790311 C122.153144,25.9267951 118.332454,29.5984039 115.56489,34.3976801 C112.797327,39.1969564 111.411634,44.8066241 111.411634,51.2285948 C111.411634,57.6505654 112.795415,63.2621445 115.56489,68.0595094 C118.332454,72.8587857 122.153144,76.5303945 127.02505,79.0781584 C131.896955,81.6259223 137.395768,82.8988487 143.525309,82.8988487 C149.65294,82.8988487 155.13455,81.6259223 159.96823,79.0781584 C164.80191,76.5303945 168.605398,72.860697 171.374873,68.0595094 C174.142437,63.2602332 175.52813,57.6505654 175.52813,51.2285948 C175.52813,44.8066241 174.144348,39.1969564 171.374873,34.3976801 C168.607309,29.6003152 164.80191,25.9267951 159.96823,23.3790311 Z M152.603988,62.5262937 C150.168991,65.1103723 147.139579,66.4024116 143.523398,66.4024116 C139.905306,66.4024116 136.860604,65.1122836 134.38738,62.5262937 C131.912246,59.9441263 130.677546,56.1788638 130.677546,51.2324174 C130.677546,46.2878822 131.912246,42.5035067 134.38738,39.8831133 C136.860604,37.2646313 139.905306,35.9515676 143.523398,35.9515676 C147.139579,35.9515676 150.16708,37.26272 152.603988,39.8831133 C155.038985,42.5035067 156.258397,46.2878822 156.258397,51.2324174 C156.260306,56.1769525 155.040897,59.942215 152.603988,62.5262937 Z" id="Shape"></path>
                    <path d="M218.268638,51.7847833 L242.188567,51.7847833 C240.785672,56.3623486 238.385078,59.8867873 234.990608,62.3600105 C231.594227,64.835145 227.643568,66.0698453 223.142455,66.0698453 C216.127981,66.0698453 210.720911,64.0782699 206.921245,60.0912965 C203.117756,56.104323 201.217923,50.3837998 201.217923,42.9278155 C201.217923,36.0624231 203.026014,30.6190385 206.644106,26.593839 C210.260287,22.5705509 215.061475,20.5598625 221.040024,20.5598625 C224.877916,20.5598625 228.163442,21.3912783 230.894691,23.0521987 C233.625939,24.7131191 235.655741,26.9455184 236.986006,29.7513079 L257.027906,29.7513079 C255.477841,21.5556502 251.527182,15.0629614 245.179753,10.2617739 C238.8285,5.46249762 230.745609,3.06381515 220.929168,3.06381515 C213.102392,3.06381515 206.256112,4.74384853 200.386507,8.102004 C194.516903,11.4620708 189.977563,16.1696046 186.766578,22.2207828 C183.555593,28.2738724 181.948189,35.1774908 181.948189,42.9278155 C181.948189,50.6781401 183.553682,57.5836698 186.766578,63.6348481 C189.977563,69.6879377 194.536016,74.3954715 200.441935,77.753627 C206.347855,81.1136937 213.24765,82.7918158 221.148968,82.7918158 C227.645479,82.7918158 233.42143,81.5724059 238.478732,79.1374087 C243.534123,76.7024115 247.687379,73.5277409 250.93659,69.6133969 C254.18389,65.7009643 256.546258,61.4578765 258.023694,56.8783999 L258.023694,38.1629426 L218.270549,38.1629426 L218.270549,51.7847833 L218.268638,51.7847833 Z" id="Path"></path>
                    <path d="M286.481051,31.9626829 L286.481051,20.334329 L267.545794,20.334329 L267.545794,82.1247718 L286.481051,82.1247718 L286.481051,53.9980696 C286.481051,48.904453 287.864833,45.2882719 290.634308,43.1457038 C293.401871,41.0050469 297.295191,39.9347185 302.316178,39.9347185 L307.742361,39.9347185 L307.742361,19.6711076 C303.386506,19.6711076 299.344105,20.7777508 295.617069,22.9929484 C291.888121,25.208146 288.843419,28.1974204 286.481051,31.9626829 Z" id="Path"></path>
                    <path d="M357.793594,31.5192611 C356.168989,27.8285393 353.657539,24.9138056 350.263069,22.7712375 C346.866688,20.6305806 342.805174,19.5602522 338.082349,19.5602522 C332.988733,19.5602522 328.430281,20.8331785 324.406992,23.3809424 C320.381793,25.9287064 317.209034,29.5812021 314.882981,34.3441637 C312.556928,39.1052139 311.394857,44.735906 311.394857,51.2305061 C311.394857,57.6524767 312.556928,63.2640558 314.882981,68.0614207 C317.209034,72.860697 320.381793,76.5323058 324.406992,79.0800697 C328.430281,81.6278336 332.988733,82.90076 338.082349,82.90076 C342.805174,82.90076 346.866688,81.8323428 350.263069,79.6897746 C353.657539,77.5491178 356.168989,74.6343841 357.793594,70.941751 L357.793594,82.1266831 L376.617996,82.1266831 L376.617996,20.334329 L357.793594,20.334329 L357.793594,31.5192611 Z M353.972904,62.1937273 C351.427051,64.9268874 348.160638,66.2896449 344.173665,66.2896449 C340.112151,66.2896449 336.847649,64.9612909 334.374426,62.3026715 C331.899291,59.6459634 330.664591,55.9552416 330.664591,51.2285948 C330.664591,46.5057705 331.899291,42.8112261 334.374426,40.154518 C336.847649,37.49781 340.114062,36.1675446 344.173665,36.1675446 C348.160638,36.1675446 351.427051,37.5150117 353.972904,40.2099458 C356.520668,42.9067912 357.793594,46.5764887 357.793594,51.2285948 C357.793594,55.8080714 356.520668,59.4624785 353.972904,62.1937273 Z" id="Shape"></path>
                    <path d="M431.653902,0.181573574 L431.653902,31.5192611 C430.103837,27.8285393 427.628702,24.9138056 424.234232,22.7712375 C420.837851,20.6305806 416.776336,19.5602522 412.053512,19.5602522 C406.959896,19.5602522 402.401443,20.8331785 398.378155,23.3809424 C394.352956,25.9287064 391.180196,29.5812021 388.854143,34.3441637 C386.52809,39.1071252 385.366019,44.735906 385.366019,51.2305061 C385.366019,57.6524767 386.52809,63.2640558 388.854143,68.0614207 C391.180196,72.860697 394.352956,76.5323058 398.378155,79.0800697 C402.401443,81.6278336 406.959896,82.90076 412.053512,82.90076 C416.776336,82.90076 420.837851,81.8323428 424.234232,79.6897746 C427.628702,77.5491178 430.103837,74.6343841 431.653902,70.941751 L431.653902,82.1266831 L450.589158,82.1266831 L450.589158,0.181573574 L431.653902,0.181573574 Z M427.942156,62.1937273 C425.394392,64.9268874 422.12989,66.2896449 418.142916,66.2896449 C414.081402,66.2896449 410.816901,64.9612909 408.343677,62.3026715 C405.868543,59.6459634 404.633843,55.9552416 404.633843,51.2285948 C404.633843,46.5057705 405.868543,42.8112261 408.343677,40.154518 C410.816901,37.49781 414.083314,36.1675446 418.142916,36.1675446 C422.12989,36.1675446 425.396303,37.5150117 427.942156,40.2099458 C430.489919,42.9067912 431.762846,46.5764887 431.762846,51.2285948 C431.762846,55.8080714 430.489919,59.4624785 427.942156,62.1937273 Z" id="Shape"></path>
                </g>
                <path d="M112.548858,0 L14.9559286,0 C6.69528663,0 0,6.69528663 0,14.9559286 L0,112.550769 C0,120.811411 6.69528663,127.506698 14.9559286,127.506698 L112.548858,127.506698 C120.8095,127.506698 127.504786,120.811411 127.504786,112.550769 L127.504786,14.9559286 C127.504786,6.69528663 120.8095,0 112.548858,0 Z" id="Path" fill="#F50A5F"></path>
                <g id="Group-2" transform="translate(22.362219, 22.362219)" fill="#FFFFFF">
                    <path d="M57.1211351,-8.1483653e-14 C55.4907955,-8.1483653e-14 54.1700867,1.32070884 54.1700867,2.9510484 L54.1700867,2.9510484 C54.1700867,4.58138797 55.4907955,5.9020968 57.1211351,5.9020968 L76.6909437,5.9020968 L76.6909437,25.4719055 L76.6909437,25.4719055 L76.6909437,25.4719055 C76.6909437,27.102245 78.0116526,28.4229539 79.6419921,28.4229539 L79.6419921,28.4229539 C81.2723317,28.4229539 82.5930405,27.102245 82.5930405,25.4719055 L82.5930405,25.4719055 L82.5930405,25.4719055 L82.5930405,5.9020968 L82.5930405,0.00191130078 L76.692855,0.00191130078 L57.1211351,0.00191130078 L57.1211351,-8.1483653e-14 L57.1211351,-8.1483653e-14 Z" id="Path"></path>
                    <path d="M54.6211536,47.6506397 L54.6211536,47.6506397 L54.6211536,47.6506397 L35.051345,47.6506397 L35.051345,28.0903875 C35.051345,28.0865649 35.051345,28.0846536 35.051345,28.080831 L35.051345,28.080831 C35.051345,26.4504915 33.7306361,25.1297826 32.1002966,25.1297826 L32.1002966,25.1297826 C30.469957,25.1297826 29.1492482,26.4504915 29.1492482,28.080831 L29.1492482,28.080831 L29.1492482,28.080831 L29.1492482,28.080831 L29.1492482,44.4683239 L29.1530708,44.4721465 C27.3832062,43.2814061 25.4967524,42.2531263 23.5089996,41.4140653 C23.4459266,41.3873071 23.3828537,41.3605488 23.3197808,41.3357019 C23.1745219,41.2611612 23.0216179,41.1999996 22.8629799,41.1503058 C22.8610686,41.1503058 22.8591573,41.1483945 22.857246,41.1483945 C22.5781961,41.0623859 22.2800332,41.0146034 21.9723137,41.0146034 C21.1504544,41.0146034 20.4050471,41.3471697 19.8679716,41.8861566 C19.3289848,42.4251434 18.9964184,43.1686394 18.9964184,43.9904987 C18.9964184,44.812358 19.3289848,45.555854 19.8679716,46.0948409 C20.0877712,46.3165518 20.3438855,46.5019479 20.6229354,46.6452955 C20.7701056,46.7198362 20.9249209,46.7829091 21.0835589,46.832603 C21.0854702,46.832603 21.0854702,46.8345143 21.0873815,46.8345143 C24.4321578,48.2316751 27.4443679,50.2691218 29.9691962,52.7920388 C32.4940245,55.3168671 34.5314712,58.3309885 35.928632,61.6776761 C35.9897937,61.822935 36.0509553,61.9701051 36.1082943,62.1172753 C36.2516419,62.4020591 36.4389493,62.6600847 36.6625715,62.8817956 C37.2015583,63.4207824 37.9450543,63.7533488 38.7669137,63.7533488 C40.4106324,63.7533488 41.7447203,62.4211721 41.7447203,60.7755421 C41.7447203,60.4735566 41.6988491,60.1811276 41.6147518,59.903989 C41.5478563,59.7377058 41.4809608,59.5714227 41.412154,59.4051395 C40.5501573,57.3390233 39.4874741,55.37994 38.2508625,53.5470026 L54.6135084,53.5470026 C54.617331,53.5470026 54.6192423,53.5470026 54.6230649,53.5470026 C56.2534045,53.5470026 57.5741133,52.2262938 57.5741133,50.5959542 L57.5741133,50.5959542 C57.572202,48.9713485 56.2514932,47.6506397 54.6211536,47.6506397 Z" id="Path"></path>
                    <path d="M65.832844,41.4006862 L63.4150485,36.125496 L60.997253,30.8503059 L58.5794576,25.5751157 L56.1616621,20.2999256 L53.7438666,15.0247354 L51.3260711,9.74954527 L51.2974016,9.76292438 C50.7717939,8.95253285 49.8601034,8.41545733 48.8222671,8.41545733 L48.8222671,8.41545733 C47.1919275,8.41545733 45.8712187,9.73616616 45.8712187,11.3665057 L45.8712187,11.3665057 C45.8712187,11.6551121 45.9132673,11.9322508 45.9897193,12.1960103 L45.9629611,12.2093894 L46.1005748,12.5075523 C46.1235104,12.56298 46.1483573,12.6164964 46.1751155,12.6700129 L48.3807566,17.4826682 L50.7985521,22.7578584 L53.2163476,28.0330485 L55.6341431,33.3082387 L58.0519385,38.5834288 L60.2614022,43.4018181 C60.2843378,43.4534232 60.3072735,43.5050283 60.3321204,43.5566334 L60.4716453,43.858619 L60.4964922,43.8471512 C61.0201886,44.6651879 61.937613,45.2079973 62.9811832,45.2079973 L62.9811832,45.2079973 C64.6115228,45.2079973 65.9322316,43.8872885 65.9322316,42.2569489 L65.9322316,42.2569489 C65.9322316,41.9626086 65.8882717,41.6797361 65.8079971,41.412154 L65.832844,41.4006862 Z" id="Path"></path>
                    <path d="M16.7200592,53.1819442 L16.7200592,53.1819442 C10.408944,53.1819442 5.166246,57.7480417 4.10929667,63.7552601 L4.10929667,63.7552601 L8.1483653e-14,82.7459446 L19.1665242,78.554462 L19.1665242,78.554462 C25.0667097,77.4115041 29.5219523,72.2184999 29.5219523,65.9857481 L29.5219523,65.9857481 C29.5238631,58.9139352 23.7918721,53.1819442 16.7200592,53.1819442 Z" id="Path"></path>
                </g>
            </g>
        </g>
    </g>
</svg>