<svg width="120" height="34" viewBox="0 0 120 34" fill="none" xmlns="http://www.w3.org/2000/svg">
<path d="M38.5728 10.8799V15.859H35V1.66359H40.7876C42.5426 1.66359 43.8804 2.08247 44.7999 2.91855C45.7194 3.75547 46.1791 4.88297 46.1791 6.30191C46.1791 7.18557 45.9731 7.97236 45.5629 8.66144C45.1518 9.35137 44.5426 9.89345 43.7345 10.2877C42.9264 10.6828 41.9441 10.8799 40.7876 10.8799H38.5728ZM42.5426 6.30107C42.5426 5.0563 41.8256 4.43435 40.3906 4.43435H38.5728V8.1287H40.3906C41.8256 8.1287 42.5426 7.51864 42.5426 6.30107ZM53.0215 5.13702C53.7253 4.73513 54.4875 4.53376 55.3097 4.53376V8.20941H54.2859C53.3381 8.20941 52.6033 8.40314 52.0817 8.79144C51.5592 9.18058 51.2975 9.83652 51.2975 10.7593V15.8598H47.7255V4.65441H51.2975V6.76328C51.7431 6.081 52.3178 5.53807 53.0215 5.13702ZM65.1617 5.2067C66.0733 5.66806 66.7912 6.33505 67.3138 7.20511C67.8354 8.07602 68.0971 9.09222 68.0971 10.2571C68.0971 11.4212 67.8354 12.4391 67.3138 13.3091C66.7921 14.1792 66.0733 14.8453 65.1617 15.3075C64.2484 15.7689 63.2149 16 62.0584 16C60.9019 16 59.8648 15.7689 58.9453 15.3075C58.0258 14.8453 57.3043 14.18 56.7827 13.3091C56.261 12.4391 55.9993 11.4212 55.9993 10.2571C55.9993 9.09307 56.2602 8.07517 56.7827 7.20511C57.3043 6.33505 58.0258 5.66891 58.9453 5.2067C59.8648 4.74533 60.9019 4.51422 62.0575 4.51422C63.2149 4.51422 64.2493 4.74533 65.1617 5.2067ZM60.3343 8.19922C59.8684 8.67418 59.635 9.36071 59.635 10.2571C59.635 11.1535 59.8675 11.8375 60.3352 12.3048C60.802 12.7747 61.3758 13.0083 62.0593 13.0083C62.741 13.0083 63.3121 12.7747 63.7728 12.3057C64.2325 11.8366 64.4624 11.1544 64.4624 10.2571C64.4624 9.36071 64.2325 8.67418 63.7728 8.19922C63.313 7.72341 62.741 7.4855 62.0593 7.4855C61.3758 7.4855 60.8011 7.72341 60.3343 8.19922ZM81.2399 2.82763C82.438 3.69769 83.1833 4.87533 83.4759 6.36224H79.6936C79.4425 5.85244 79.0596 5.448 78.5442 5.14722C78.0287 4.84559 77.408 4.6952 76.6848 4.6952C75.5558 4.6952 74.6513 5.06055 73.9678 5.78957C73.2853 6.51943 72.944 7.50674 72.944 8.7515C72.944 10.1042 73.303 11.1408 74.02 11.8638C74.7379 12.5869 75.7582 12.9489 77.0818 12.9489C77.9306 12.9489 78.6768 12.7245 79.3169 12.2759C79.9579 11.8273 80.4106 11.1883 80.675 10.3582H76.1614V7.88824H83.6634V11.2818C83.384 12.1119 82.9384 12.8817 82.3257 13.5912C81.7121 14.3007 80.9287 14.8759 79.9747 15.3177C79.0198 15.7595 77.9306 15.9805 76.7052 15.9805C75.2136 15.9805 73.9121 15.6754 72.7972 15.0662C71.6832 14.457 70.8229 13.6048 70.2173 12.5062C69.6116 11.4084 69.3093 10.1568 69.3093 8.75065C69.3093 7.3453 69.6116 6.09375 70.2173 4.99598C70.8238 3.89821 71.6797 3.04515 72.7875 2.43594C73.8953 1.82672 75.1871 1.52169 76.6636 1.52169C78.5159 1.52254 80.041 1.95757 81.2399 2.82763ZM90.7578 5.13702C91.4607 4.73513 92.2228 4.53376 93.045 4.53376V8.20941H92.0212C91.0734 8.20941 90.3387 8.40314 89.817 8.79144C89.2954 9.18058 89.0337 9.83652 89.0337 10.7593V15.8598H85.4608V4.65441H89.0328V6.76328C89.4793 6.081 90.0549 5.53807 90.7578 5.13702ZM101.07 5.09709C101.71 5.48539 102.184 6.01388 102.49 6.68256V4.65441H106.042V15.8598H102.49V13.8317C102.184 14.5012 101.71 15.0297 101.07 15.4171C100.429 15.8063 99.662 16 98.7708 16C97.8097 16 96.9494 15.7689 96.1908 15.3075C95.4305 14.8453 94.8328 14.18 94.3943 13.3091C93.9548 12.4391 93.7356 11.4212 93.7356 10.2571C93.7356 9.07947 93.9548 8.05817 94.3943 7.19491C94.8328 6.3308 95.4314 5.66806 96.1908 5.2067C96.9494 4.74533 97.8097 4.51422 98.7708 4.51422C99.662 4.51422 100.428 4.70794 101.07 5.09709ZM98.0705 8.24935C97.6046 8.73111 97.3703 9.40065 97.3703 10.2571C97.3703 11.1136 97.6037 11.7831 98.0705 12.2649C98.5374 12.7466 99.1536 12.9879 99.9202 12.9879C100.672 12.9879 101.288 12.7407 101.768 12.2453C102.249 11.75 102.489 11.0872 102.489 10.2571C102.489 9.41339 102.249 8.7481 101.769 8.2587C101.288 7.77014 100.672 7.52628 99.9202 7.52628C99.1536 7.52628 98.5374 7.76844 98.0705 8.24935ZM115.027 5.09709C115.668 5.48539 116.135 6.01388 116.426 6.68256V1H120V15.8598H116.426V13.8317C116.135 14.5012 115.668 15.0297 115.027 15.4171C114.387 15.8063 113.621 16 112.728 16C111.768 16 110.907 15.7689 110.148 15.3075C109.388 14.8453 108.79 14.18 108.351 13.3091C107.913 12.4391 107.693 11.4212 107.693 10.2571C107.693 9.07947 107.913 8.05817 108.351 7.19491C108.79 6.3308 109.389 5.66806 110.148 5.2067C110.907 4.74533 111.768 4.51422 112.729 4.51422C113.62 4.51422 114.386 4.70794 115.027 5.09709ZM112.029 8.24935C111.561 8.73111 111.328 9.40065 111.328 10.2571C111.328 11.1136 111.561 11.7831 112.029 12.2649C112.495 12.7466 113.111 12.9879 113.877 12.9879C114.63 12.9879 115.246 12.7407 115.727 12.2453C116.207 11.75 116.447 11.0872 116.447 10.2571C116.447 9.41339 116.207 8.7481 115.727 8.2587C115.246 7.77014 114.63 7.52628 113.877 7.52628C113.111 7.52628 112.495 7.76844 112.029 8.24935Z" fill="white"/>
<path d="M26.8068 0H3.56212C1.59465 0 0 1.57531 0 3.51892V26.4817C0 28.4247 1.59465 30 3.56212 30H26.8068C28.7743 30 30.3689 28.4247 30.3689 26.4811V3.51892C30.3689 1.57531 28.7743 0 26.8068 0Z" fill="#5F27CD"/>
<path d="M24.2942 6V11.8492C24.2942 12.2233 23.9862 12.5264 23.6068 12.5264C23.2269 12.5264 22.9194 12.2233 22.9194 11.8492V7.35559H18.3623C17.9829 7.35559 17.6755 7.05246 17.6755 6.6778C17.6755 6.30372 17.9829 6 18.3623 6H24.2942ZM11.9356 21.1513C11.9356 22.582 10.898 23.7752 9.52379 24.0372L5.06055 25L6.01789 20.6395C6.26406 19.2598 7.48482 18.2115 8.95414 18.2115C10.6012 18.2115 11.9362 19.5278 11.9356 21.1513ZM18.4681 17.6175C18.4681 17.9922 18.1601 18.2953 17.7807 18.2953H13.968C14.2564 18.7163 14.5032 19.166 14.7041 19.6404L14.7517 19.7547C14.7713 19.8186 14.7814 19.8854 14.7814 19.9552C14.7814 20.3328 14.471 20.6389 14.0881 20.6389C13.8972 20.6389 13.7236 20.5627 13.5981 20.4384C13.5464 20.3879 13.503 20.3287 13.4691 20.263C13.456 20.229 13.4418 20.1956 13.4275 20.1622C13.1022 19.3941 12.6277 18.7017 12.0396 18.1218C11.4516 17.5425 10.7505 17.0746 9.97154 16.7539H9.97035C9.93348 16.7421 9.89721 16.7275 9.86331 16.7105C9.79791 16.6776 9.73844 16.6348 9.68731 16.5838C9.56244 16.4607 9.48454 16.2895 9.48454 16.1007C9.48454 15.9119 9.56184 15.7413 9.68731 15.6176C9.81218 15.4944 9.98581 15.4176 10.1773 15.4176C10.2486 15.4176 10.3188 15.4288 10.3836 15.4481L10.3848 15.4487C10.4217 15.4604 10.4573 15.4739 10.4912 15.4915L10.5352 15.5091C10.9979 15.702 11.4373 15.9371 11.8488 16.2103V12.4479C11.8488 12.0732 12.1562 11.7701 12.5361 11.7701C12.9155 11.7701 13.2229 12.0732 13.2229 12.4479V16.9415H17.7801C18.1601 16.9415 18.4675 17.2452 18.4681 17.6175ZM20.4143 15.7032C20.4143 16.0778 20.1069 16.381 19.7269 16.381C19.4837 16.381 19.2702 16.2561 19.1483 16.0684L19.1424 16.0708L19.1103 16.0016L19.0936 15.9664L18.5793 14.86L18.0162 13.6487L17.4531 12.4373L16.89 11.226L16.3269 10.0146L15.8137 8.90937L15.7959 8.87243L15.7638 8.80383L15.7703 8.8009C15.7525 8.73992 15.7429 8.67659 15.7429 8.61034C15.7429 8.23567 16.0504 7.93254 16.4297 7.93254C16.6717 7.93254 16.884 8.05567 17.0065 8.24212L17.0125 8.23919L18.1387 10.6613L18.7018 11.8727L19.2649 13.084L19.828 14.2954L20.3911 15.5067L20.3852 15.5091C20.4042 15.5707 20.4143 15.6357 20.4143 15.7032Z" fill="white"/>
<path d="M37.268 24.5V21.776H38.78C39.848 21.776 40.328 22.28 40.328 23.144C40.328 23.984 39.848 24.5 38.78 24.5H37.268ZM41.732 23.144C41.732 21.788 40.76 20.66 38.78 20.66H35.9V29H37.268V25.616H38.78C40.952 25.616 41.732 24.332 41.732 23.144ZM43.0367 29H44.4047V20.12H43.0367V29ZM45.7448 25.664C45.7448 27.704 47.1248 29.108 48.8408 29.108C49.9448 29.108 50.7368 28.58 51.1568 28.016V29H52.5368V22.388H51.1568V23.348C50.7488 22.808 49.9808 22.28 48.8648 22.28C47.1248 22.28 45.7448 23.624 45.7448 25.664ZM51.1568 25.688C51.1568 27.116 50.1848 27.92 49.1528 27.92C48.1328 27.92 47.1488 27.092 47.1488 25.664C47.1488 24.236 48.1328 23.468 49.1528 23.468C50.1848 23.468 51.1568 24.272 51.1568 25.688ZM56.9376 27.428L55.0776 22.388H53.5536L56.1576 28.892L54.8136 32.108H56.2296L60.2856 22.388H58.8696L56.9376 27.428ZM60.862 25.664C60.862 27.704 62.242 29.108 63.982 29.108C65.062 29.108 65.854 28.568 66.274 28.004V29.108C66.274 30.428 65.482 31.076 64.426 31.076C63.478 31.076 62.746 30.608 62.542 29.924H61.186C61.354 31.388 62.662 32.264 64.426 32.264C66.49 32.264 67.654 30.908 67.654 29.108V22.388H66.274V23.348C65.866 22.784 65.062 22.28 63.982 22.28C62.242 22.28 60.862 23.624 60.862 25.664ZM66.274 25.688C66.274 27.116 65.302 27.92 64.27 27.92C63.25 27.92 62.266 27.092 62.266 25.664C62.266 24.236 63.25 23.468 64.27 23.468C65.302 23.468 66.274 24.272 66.274 25.688ZM70.8188 25.52C70.8188 24.116 71.4428 23.696 72.4508 23.696H72.7988V22.28C71.8628 22.28 71.2028 22.688 70.8188 23.348V22.388H69.4508V29H70.8188V25.52ZM80.3563 25.688C80.3563 23.612 78.8683 22.28 76.9843 22.28C75.1003 22.28 73.6123 23.612 73.6123 25.688C73.6123 27.764 75.0403 29.108 76.9243 29.108C78.8203 29.108 80.3563 27.764 80.3563 25.688ZM75.0043 25.688C75.0043 24.188 75.9283 23.468 76.9603 23.468C77.9803 23.468 78.9523 24.188 78.9523 25.688C78.9523 27.188 77.9443 27.92 76.9243 27.92C75.8923 27.92 75.0043 27.188 75.0043 25.688ZM87.6966 22.388H86.3286V26.072C86.3286 27.284 85.6686 27.908 84.6606 27.908C83.6646 27.908 83.0046 27.284 83.0046 26.072V22.388H81.6486V26.276C81.6486 28.124 82.8246 29.096 84.3726 29.096C85.1526 29.096 85.8966 28.772 86.3286 28.208V29H87.6966V22.388ZM94.1936 29H95.5496V25.1C95.5496 23.252 94.3856 22.28 92.8376 22.28C92.0456 22.28 91.3136 22.604 90.8696 23.144V22.388H89.5016V29H90.8696V25.304C90.8696 24.092 91.5296 23.468 92.5376 23.468C93.5336 23.468 94.1936 24.092 94.1936 25.304V29ZM96.8385 25.664C96.8385 27.704 98.2185 29.108 99.9585 29.108C101.039 29.108 101.831 28.604 102.251 28.004V29H103.631V20.12H102.251V23.312C101.747 22.688 100.835 22.28 99.9705 22.28C98.2185 22.28 96.8385 23.624 96.8385 25.664ZM102.251 25.688C102.251 27.116 101.279 27.92 100.247 27.92C99.2265 27.92 98.2425 27.092 98.2425 25.664C98.2425 24.236 99.2265 23.468 100.247 23.468C101.279 23.468 102.251 24.272 102.251 25.688Z" fill="white"/>
</svg>
