<svg xmlns="http://www.w3.org/2000/svg" width="155" height="50" viewBox="0 0 155 50">
    <g fill="none">
        <path fill="#000" d="M62.214 16.385v5.86h-4.041V5.538h6.546c1.985 0 3.498.493 4.538 1.477 1.04.985 1.56 2.312 1.56 3.982 0 1.04-.233 1.966-.697 2.777-.465.812-1.154 1.45-2.068 1.914-.914.465-2.025.697-3.333.697h-2.505zm4.49-5.389c0-1.465-.811-2.197-2.434-2.197h-2.056v4.348h2.056c1.623 0 2.434-.717 2.434-2.15zM78.556 9.626c.796-.473 1.658-.71 2.588-.71v4.326h-1.158c-1.072 0-1.903.228-2.493.685-.591.458-.887 1.23-.887 2.316v6.003h-4.04V9.058h4.04v2.482c.504-.803 1.154-1.442 1.95-1.914zM92.287 9.708c1.031.543 1.843 1.328 2.434 2.352.59 1.025.886 2.221.886 3.592 0 1.37-.296 2.568-.886 3.592-.59 1.024-1.403 1.808-2.434 2.352-1.033.543-2.202.815-3.51.815-1.308 0-2.481-.272-3.521-.815-1.04-.544-1.856-1.327-2.446-2.352-.59-1.024-.886-2.222-.886-3.592s.295-2.568.886-3.592c.59-1.024 1.406-1.808 2.446-2.352 1.04-.543 2.213-.815 3.52-.815 1.309 0 2.478.272 3.51.815zm-5.46 3.522c-.527.559-.791 1.367-.791 2.422 0 1.055.263 1.86.792 2.41.528.553 1.177.828 1.95.828.771 0 1.417-.275 1.938-.827.52-.552.78-1.355.78-2.411 0-1.055-.26-1.863-.78-2.422-.52-.56-1.167-.84-1.938-.84-.773 0-1.422.28-1.95.84zM110.472 6.908c1.355 1.024 2.198 2.41 2.529 4.16h-4.278c-.284-.6-.717-1.076-1.3-1.43-.583-.355-1.285-.532-2.103-.532-1.277 0-2.3.43-3.073 1.288-.772.859-1.158 2.021-1.158 3.486 0 1.592.406 2.812 1.217 3.663.812.851 1.966 1.277 3.463 1.277.96 0 1.804-.264 2.528-.792.725-.528 1.237-1.28 1.536-2.257h-5.105v-2.907h8.485v3.994c-.316.977-.82 1.883-1.513 2.718-.694.835-1.58 1.512-2.659 2.032-1.08.52-2.312.78-3.698.78-1.687 0-3.159-.359-4.42-1.076-1.26-.717-2.233-1.72-2.918-3.013-.685-1.292-1.027-2.765-1.027-4.42 0-1.654.342-3.127 1.027-4.419.686-1.292 1.654-2.296 2.907-3.013 1.253-.717 2.714-1.076 4.384-1.076 2.095.001 3.82.513 5.176 1.537zM121.237 9.626c.795-.473 1.657-.71 2.587-.71v4.326h-1.158c-1.072 0-1.903.228-2.493.685-.59.458-.886 1.23-.886 2.316v6.003h-4.041V9.058h4.04v2.482c.505-.803 1.155-1.442 1.95-1.914zM132.9 9.579c.724.457 1.26 1.079 1.607 1.866V9.058h4.017v13.188h-4.017v-2.387c-.347.788-.883 1.41-1.607 1.866-.725.458-1.592.686-2.6.686-1.087 0-2.06-.272-2.918-.815-.86-.544-1.536-1.327-2.032-2.352-.497-1.024-.745-2.222-.745-3.592 0-1.386.248-2.588.745-3.604.496-1.017 1.173-1.797 2.032-2.34.858-.543 1.831-.815 2.918-.815 1.008 0 1.874.228 2.6.686zm-3.392 3.71c-.527.567-.792 1.355-.792 2.363s.264 1.796.792 2.363 1.225.851 2.092.851c.85 0 1.547-.291 2.09-.874.544-.583.816-1.363.816-2.34 0-.993-.272-1.776-.815-2.352-.544-.575-1.241-.862-2.091-.862-.867 0-1.564.284-2.092.85zM148.686 9.579c.725.457 1.253 1.079 1.583 1.866V4.757h4.042v17.489h-4.042v-2.387c-.33.788-.858 1.41-1.583 1.866-.724.458-1.59.686-2.6.686-1.086 0-2.06-.272-2.918-.815-.859-.544-1.536-1.327-2.032-2.352-.496-1.024-.745-2.222-.745-3.592 0-1.386.249-2.588.745-3.604.496-1.017 1.174-1.797 2.032-2.34.859-.543 1.832-.815 2.919-.815 1.008 0 1.875.228 2.6.686zm-3.391 3.71c-.529.567-.792 1.355-.792 2.363s.263 1.796.792 2.363c.528.567 1.224.851 2.091.851.851 0 1.548-.291 2.092-.874.543-.583.815-1.363.815-2.34 0-.993-.272-1.776-.815-2.352-.544-.575-1.241-.862-2.092-.862-.867 0-1.563.284-2.091.85zM68.477 28.36v11.415c0 1.749-.477 3.096-1.43 4.042-.953.945-2.272 1.417-3.959 1.417-1.828 0-3.277-.515-4.348-1.548-1.072-1.031-1.608-2.517-1.608-4.455h3.994c0 1.56.591 2.34 1.773 2.34 1.024 0 1.536-.599 1.536-1.796V28.36h4.042zM84.027 31.882V45.07h-4.065v-2.387c-.378.772-.942 1.386-1.69 1.843-.748.458-1.619.686-2.611.686-1.513 0-2.714-.504-3.604-1.513-.89-1.008-1.335-2.394-1.335-4.16v-7.657h4.018v7.161c0 .899.232 1.595.696 2.092.465.496 1.09.744 1.88.744.818 0 1.465-.26 1.937-.78s.709-1.26.709-2.221v-6.996h4.065zM98.55 33.253c.89 1.008 1.335 2.395 1.335 4.16v7.657h-4.041v-7.185c0-.882-.233-1.571-.697-2.068-.465-.496-1.083-.744-1.856-.744-.82 0-1.47.26-1.95.78s-.72 1.26-.72 2.221v6.996h-4.042V31.882h4.042v2.411c.378-.787.941-1.41 1.689-1.866.748-.457 1.626-.686 2.635-.686 1.513 0 2.714.504 3.604 1.512zM102.603 26.647c.44-.401 1.023-.602 1.748-.602.725 0 1.308.2 1.749.602.44.402.661.91.661 1.525 0 .599-.22 1.099-.661 1.5-.442.403-1.024.603-1.749.603-.725 0-1.308-.2-1.748-.602-.442-.402-.662-.902-.662-1.5 0-.615.22-1.124.662-1.526zm3.757 5.235V45.07h-4.041V31.882h4.041zM118.59 32.532c1.031.544 1.843 1.328 2.434 2.352.59 1.025.886 2.222.886 3.592s-.295 2.568-.886 3.592c-.59 1.024-1.403 1.808-2.434 2.352-1.032.543-2.202.815-3.51.815-1.308 0-2.481-.272-3.52-.815-1.04-.544-1.856-1.327-2.447-2.352-.59-1.024-.886-2.221-.886-3.592 0-1.37.295-2.568.886-3.592.59-1.024 1.406-1.808 2.446-2.352 1.04-.543 2.213-.815 3.521-.815 1.308 0 2.478.272 3.51.815zm-5.46 3.522c-.527.559-.792 1.367-.792 2.422 0 1.055.264 1.86.792 2.411.528.552 1.178.827 1.95.827s1.418-.275 1.938-.827c.52-.552.78-1.355.78-2.411 0-1.055-.26-1.863-.78-2.422-.52-.56-1.166-.84-1.938-.84s-1.422.28-1.95.84zM129.768 32.45c.796-.472 1.658-.709 2.588-.709v4.325h-1.158c-1.072 0-1.903.228-2.494.685-.59.458-.886 1.23-.886 2.316v6.003h-4.041V31.882h4.041v2.482c.505-.803 1.154-1.442 1.95-1.914z"/>
        <path fill="#F50A5F" d="M44.077 0H5.857C2.622 0 0 2.622 0 5.857v38.22c0 3.234 2.622 5.856 5.857 5.856h38.22c3.235 0 5.857-2.622 5.857-5.857V5.857C49.934 2.622 47.312 0 44.077 0z"/>
        <path fill="#FFF" d="M41.103 8.757v9.976c0 .638-.518 1.155-1.156 1.155-.639 0-1.156-.517-1.156-1.155v-7.664h-7.664c-.638 0-1.155-.517-1.155-1.156 0-.638.517-1.156 1.155-1.156h9.976zM20.319 34.598c0 2.44-1.745 4.475-4.056 4.922l-7.506 1.642 1.61-7.437c.414-2.353 2.467-4.141 4.938-4.141 2.77 0 5.015 2.245 5.014 5.014zM31.305 28.571c0 .639-.518 1.156-1.156 1.156h-6.412c.485.718.9 1.485 1.238 2.294l.08.195c.033.109.05.223.05.342 0 .644-.522 1.166-1.166 1.166-.321 0-.613-.13-.824-.342-.087-.086-.16-.187-.217-.299-.022-.058-.046-.115-.07-.172-.547-1.31-1.345-2.491-2.334-3.48-.989-.988-2.168-1.786-3.478-2.333h-.002c-.062-.02-.123-.045-.18-.074-.11-.056-.21-.129-.296-.216-.21-.21-.341-.502-.341-.824 0-.322.13-.613.341-.824.21-.21.502-.341.824-.341.12 0 .238.019.347.052l.002.001c.062.02.122.043.179.073l.074.03c.778.329 1.517.73 2.209 1.196v-6.417c0-.639.517-1.156 1.156-1.156.638 0 1.155.517 1.155 1.156v7.664h7.664c.639 0 1.156.518 1.157 1.153zM34.578 25.306c0 .639-.517 1.156-1.156 1.156-.409 0-.768-.213-.973-.533l-.01.004-.054-.118-.028-.06-.865-1.887-.947-2.066-.947-2.066-.947-2.066-.947-2.066-.863-1.885-.03-.063-.054-.117.011-.005c-.03-.104-.046-.212-.046-.325 0-.639.517-1.156 1.155-1.156.407 0 .764.21.97.528l.01-.005 1.894 4.131.947 2.066.947 2.066.947 2.066.947 2.066-.01.004c.032.105.049.216.049.331z"/>
    </g>
</svg>
