<svg xmlns="http://www.w3.org/2000/svg" width="1501" height="451" viewBox="0 0 1501 451">
    <defs>
        <filter id="knea792b6a">
            <feColorMatrix in="SourceGraphic" values="0 0 0 0 0.372549 0 0 0 0 0.152941 0 0 0 0 0.803922 0 0 0 1.000000 0"/>
        </filter>
    </defs>
    <g fill="none" fill-rule="evenodd">
        <g filter="url(#knea792b6a)" opacity=".1" transform="translate(1 1)">
            <g fill="#171717" stroke="#FFF">
                <path d="M321.65 37.5v8.458H431.5V401.5h-129v-364h19.15z" opacity=".194" transform="translate(0 43)"/>
                <g opacity=".194">
                    <path d="M0.5 0.5H136.5V284.5H0.5z" transform="translate(0 43) translate(467 117)"/>
                    <g>
                        <path d="M.5.5H19.724V19.671H.5zM51.908.5v19.171H32.684V.5h19.224zM84.092.5v19.171H64.868V.5h19.224zM97.052.5H116.27600000000001V19.671H97.052zM.5 29.781H19.724V48.952H.5zM51.908 29.78v19.172H32.684V29.781h19.224zM84.092 29.78v19.172H64.868V29.781h19.224zM97.052 29.781H116.27600000000001V48.952H97.052zM.5 59.062H19.724V78.233H.5zM51.908 59.062v19.17H32.684v-19.17h19.224zM84.092 59.062v19.17H64.868v-19.17h19.224zM97.052 59.062H116.27600000000001V78.233H97.052zM.5 88.342H19.724V107.513H.5zM51.908 88.342v19.172H32.684V88.342h19.224zM84.092 88.342v19.172H64.868V88.342h19.224zM97.052 88.342H116.27600000000001V107.513H97.052zM.5 117.623H19.724V136.794H.5zM51.908 117.623v19.172H32.684v-19.172h19.224zM84.092 117.623v19.172H64.868v-19.172h19.224zM97.052 117.623H116.27600000000001V136.794H97.052zM.5 146.904H19.724V166.075H.5zM51.908 146.904v19.171H32.684v-19.17h19.224zM84.092 146.904v19.171H64.868v-19.17h19.224zM97.052 146.904H116.27600000000001V166.075H97.052zM.5 176.185H19.724V195.356H.5zM51.908 176.185v19.171H32.684v-19.171h19.224zM84.092 176.185v19.171H64.868v-19.171h19.224zM97.052 176.185H116.27600000000001V195.356H97.052z" transform="translate(0 43) translate(467 117) translate(10.438 16.267)"/>
                    </g>
                </g>
                <g opacity=".194">
                    <path d="M0.5 0.5H136.5V250.5H0.5z" transform="translate(0 43) translate(1363 150)"/>
                    <g>
                        <path d="M.5.5H19.724V19.671H.5zM51.908.5v19.171H32.684V.5h19.224zM84.092.5v19.171H64.868V.5h19.224zM97.052.5H116.27600000000001V19.671H97.052zM.5 29.781H19.724V48.952H.5zM51.908 29.78v19.172H32.684V29.781h19.224zM84.092 29.78v19.172H64.868V29.781h19.224zM97.052 29.781H116.27600000000001V48.952H97.052zM.5 59.062H19.724V78.233H.5zM51.908 59.062v19.17H32.684v-19.17h19.224zM84.092 59.062v19.17H64.868v-19.17h19.224zM97.052 59.062H116.27600000000001V78.233H97.052zM.5 88.342H19.724V107.513H.5zM51.908 88.342v19.172H32.684V88.342h19.224zM84.092 88.342v19.172H64.868V88.342h19.224zM97.052 88.342H116.27600000000001V107.513H97.052zM.5 117.623H19.724V136.794H.5zM51.908 117.623v19.172H32.684v-19.172h19.224zM84.092 117.623v19.172H64.868v-19.172h19.224zM97.052 117.623H116.27600000000001V136.794H97.052zM.5 146.904H19.724V166.075H.5zM51.908 146.904v19.171H32.684v-19.17h19.224zM84.092 146.904v19.171H64.868v-19.17h19.224zM97.052 146.904H116.27600000000001V166.075H97.052zM.5 176.185H19.724V195.356H.5zM51.908 176.185v19.171H32.684v-19.171h19.224zM84.092 176.185v19.171H64.868v-19.171h19.224zM97.052 176.185H116.27600000000001V195.356H97.052z" transform="translate(0 43) translate(1363 150) translate(10.438 16.267)"/>
                    </g>
                </g>
                <path d="M804.662 85.5l-.001 7.795H957.5V401.5h-172v-316h19.162zM1175.662 61.5l-.001 8.385H1328.5V401.5h-172v-340h19.162zM639.548 37.5l-.001 39.688h7.83v40.339h96.9v-12.362H763.5V401.5h-136V117.527h8.481V37.5h3.567zM156.548 37.5l-.001 39.688h7.83v40.339H280.5V401.5h-136V117.527h8.481V37.5h3.567zM1116.452 37.5l.001 39.688h-7.83v40.339H992.5V401.5h136V117.527h-8.481V37.5h-3.567z" opacity=".194" transform="translate(0 43)"/>
                <g opacity=".194">
                    <path d="M103.346.5v33.142l12.332-9.82v173.429L134.5 207.32V387.5H8.937V140.15l22.716 12.15V90.733l68.15-54.268V.5h3.543z" transform="translate(0 43)"/>
                    <g>
                        <path d="M.5.5H19.62V19.681H.5zM51.64.5v19.181H32.52V.5h19.12zM83.659.5v19.181h-19.12V.5h19.12zM96.558.5H115.67800000000001V19.681H96.558zM.5 29.795H19.62V48.976H.5zM51.64 29.795v19.182H32.52V29.795h19.12zM83.659 29.795v19.182h-19.12V29.795h19.12zM96.558 29.795H115.67800000000001V48.976H96.558zM.5 59.091H19.62V78.272H.5zM51.64 59.09v19.182H32.52V59.09h19.12zM83.659 59.09v19.182h-19.12V59.09h19.12zM96.558 59.091H115.67800000000001V78.272H96.558zM.5 88.386H19.62V107.567H.5zM51.64 88.386v19.181H32.52V88.386h19.12zM83.659 88.386v19.181h-19.12V88.386h19.12zM96.558 88.386H115.67800000000001V107.567H96.558zM.5 117.681H19.62V136.862H.5zM51.64 117.681v19.181H32.52v-19.18h19.12zM83.659 117.681v19.181h-19.12v-19.18h19.12zM96.558 117.681H115.67800000000001V136.862H96.558z" transform="translate(0 43) translate(0 209.624)"/>
                    </g>
                </g>
            </g>
        </g>
        <g stroke="#E4E4E4">
            <path fill="#FFF" d="M0 418H1440V449H0z" transform="translate(1 1)"/>
            <path stroke-linecap="square" d="M1263.5.404L1263.5 417.596M1051.5.404L1051.5 417.596M839.5 22.5L839.5 417.596M627.5 53.5L627.5 417.596M415.5 30.5L415.5 417.596M203.5.404L203.5 417.596" transform="translate(1 1)"/>
        </g>
    </g>
</svg>
