<svg width="474" height="388" viewBox="0 0 474 388" fill="none" xmlns="http://www.w3.org/2000/svg">
<rect x="110" y="106" width="364" height="140" rx="12" fill="#383838"/>
<circle cx="179" cy="176" r="44" fill="#1E1E1E"/>
<rect x="194.347" y="160.913" width="7.52024" height="36.2323" rx="3.76012" transform="rotate(45.9414 194.347 160.913)" fill="#C4C4C4"/>
<rect x="158.397" y="175.843" width="7.54222" height="21.7012" rx="3.77111" transform="rotate(-44.0586 158.397 175.843)" fill="#C4C4C4"/>
<rect x="248" y="156" width="203" height="15" fill="#121212"/>
<rect x="248" y="182" width="135" height="15" fill="#121212"/>
<path d="M102.953 179.685H39.1187L39.695 163.082L39.9527 155.649H97.9239C97.9955 155.817 98.0599 155.986 98.1279 156.154C100.161 161.292 101.228 166.035 101.947 170.982C102.355 173.78 102.656 176.647 102.953 179.685Z" fill="#EAC340"/>
<path d="M58.103 350.126L56.4314 374.92H42.3637L36.2605 366.256L35.7092 366.575L36.307 349.387L58.103 350.126Z" fill="#FECAD0"/>
<path d="M57.9564 388H4.92142C3.2426 388 2.64481 385.772 4.09812 384.929L35.7093 366.575L36.2606 366.256L42.3638 374.92H56.4315L57.9564 388Z" fill="#142CB0"/>
<path d="M131.247 366.399L125.534 374.51H111.466L102.871 350.126L124.063 343.765L131.247 366.399Z" fill="#FECAD0"/>
<path d="M162.976 387.59H109.941L111.466 374.51H125.534L131.247 366.399L131.637 365.846L163.799 384.519C165.256 385.363 164.658 387.59 162.976 387.59Z" fill="#142CB0"/>
<path d="M97.9238 155.649H39.9526L39.9741 154.985C39.9741 154.985 39.9741 154.981 39.9741 154.978L51.597 154.874L58.749 154.809L61.2833 154.788L83.2154 154.59C83.2189 154.59 83.2189 154.59 83.2225 154.59L97.4299 154.465C97.6017 154.863 97.7663 155.258 97.9238 155.649Z" fill="#212B6B"/>
<path d="M131.87 344.459L127.78 345.473L106.505 350.744L99.1701 352.564C98.6383 352.698 98.074 352.445 97.9123 352.005L95.1235 344.302C94.9654 343.859 95.2673 343.392 95.8027 343.261L98.4909 342.595L79.3172 243.392L79.3029 243.35L72.2123 206.97L62.7426 340.805L64.464 340.853C65.021 340.868 65.4595 341.254 65.4415 341.715L65.1109 349.751C65.0929 350.215 64.6257 350.575 64.0687 350.56L58.5522 350.406L36.6694 349.793L29.9526 349.606C29.3956 349.588 28.9607 349.201 28.9787 348.74L29.3057 340.704C29.3273 340.243 29.7945 339.88 30.3515 339.895L32.2311 339.949L38.9443 179.914H103.033C103.665 185.186 104.305 191.088 105.998 198.434C109.613 214.136 119.285 313.256 125.883 335.804L128.499 335.156C129.035 335.022 129.599 335.275 129.757 335.715L132.546 343.419C132.708 343.862 132.406 344.328 131.87 344.459Z" fill="#142CB0"/>
<path d="M64.0935 7.0268C55.3987 4.64825 48.7872 17.3877 50.824 33.1873C52.8572 48.9833 39.2978 64.1013 40.8227 70.5589C42.3476 77.0129 72.5162 86.0177 92.6871 85.8455C112.858 85.6733 119.126 76.8443 115.4 70.5589C111.67 64.2735 105.738 58.1531 106.247 39.218C106.755 20.2828 93.6357 -15.0582 64.0935 7.0268Z" fill="#383838"/>
<path d="M124.517 108.293L123.464 108.82L100.838 120.164L100.143 120.67L99.1768 145.98L99.0443 145.962L82.249 143.627C82.249 143.627 79.8506 142.669 76.8116 141.994C76.8832 141.897 76.9404 141.801 76.9798 141.697C76.9906 141.668 77.0013 141.639 77.0049 141.607C77.0156 141.585 77.0192 141.564 77.0192 141.539C77.0299 141.51 77.0299 141.481 77.0335 141.449C77.2053 138.787 74.1018 137.883 68.9616 137.535C63.8106 137.191 57.2671 139.799 57.2671 139.799L39.473 142.274C39.1795 139.695 38.7464 136.8 38.1164 133.657C36.9495 127.859 37.4577 119.188 37.4577 119.188L36.8779 119.048L12.8339 113.315C12.8339 113.315 12.8768 112.975 12.9878 112.358C13.9042 107.156 19.406 82.2687 41.5814 74.5877C41.9537 74.4047 42.3224 74.2289 42.709 74.0711C43.9439 73.5258 45.2326 73.0845 46.5463 72.7545L58.4555 69.6943L59.107 69.5185L59.5831 69.4001L63.6209 68.3489L75.3296 68.3884H76.4572L89.2148 68.4279L92.2038 69.9992L93.3313 70.5983L93.36 70.6127L104.084 76.238C105.892 77.1851 107.564 78.3295 109.078 79.6605C109.464 79.9798 109.847 80.3242 110.205 80.683C112.822 83.2265 114.905 86.3262 116.273 89.7846L124.517 108.293Z" fill="#EAC340"/>
<path d="M99.1768 145.98L98.7902 156.169L93.3314 156.061L92.2038 156.036L79.2887 155.774C79.7397 155.667 80.1872 155.552 80.6275 155.426C80.7742 155.387 80.921 155.344 81.0642 155.301C81.2109 155.258 81.3541 155.215 81.4937 155.171C81.9233 155.039 82.3457 154.899 82.7537 154.755C82.9112 154.702 83.0616 154.648 83.2155 154.59C83.3265 154.551 83.4374 154.508 83.5484 154.465C84.0424 154.278 84.5185 154.084 84.9695 153.891C85.1198 153.826 85.2666 153.762 85.4098 153.693C85.5064 153.65 85.6031 153.607 85.6961 153.561C85.9825 153.428 86.2546 153.295 86.5123 153.162C86.5946 153.119 86.677 153.076 86.7557 153.033C86.9669 152.922 87.1709 152.811 87.3606 152.7C87.4609 152.642 87.5575 152.585 87.6506 152.527C87.6578 152.524 87.6613 152.52 87.6685 152.517C87.7544 152.463 87.8403 152.409 87.9191 152.359C88.0086 152.301 88.0909 152.244 88.1732 152.19C88.2448 152.14 88.3128 152.093 88.3772 152.047C88.388 152.04 88.3987 152.032 88.4059 152.029C88.4811 151.971 88.5491 151.921 88.6135 151.867C88.6242 151.86 88.635 151.853 88.6421 151.846C88.6994 151.803 88.7531 151.756 88.8032 151.713C88.8641 151.663 88.9213 151.609 88.975 151.559C89.0108 151.523 89.043 151.487 89.0788 151.455C89.1111 151.419 89.1433 151.387 89.1683 151.354C89.265 151.247 89.3366 151.146 89.3831 151.049C89.3938 151.031 89.4046 151.014 89.4117 150.996C89.4117 150.992 89.4153 150.988 89.4153 150.985C89.4261 150.96 89.4332 150.938 89.4368 150.92C89.4404 150.913 89.444 150.909 89.4404 150.906C89.444 150.899 89.4475 150.895 89.444 150.892C89.444 150.888 89.4475 150.881 89.4475 150.877C89.4583 150.845 89.4619 150.82 89.4619 150.791C89.4619 150.78 89.4619 150.766 89.4583 150.755C89.4511 150.737 89.444 150.719 89.4296 150.701C89.3366 150.569 89.0431 150.429 88.5849 150.282C88.4739 150.246 88.3522 150.21 88.2197 150.17C88.2126 150.167 88.2018 150.167 88.1947 150.163C88.1374 150.149 88.0766 150.131 88.0157 150.117C87.9441 150.095 87.8725 150.077 87.7974 150.059C87.7472 150.045 87.6971 150.031 87.6434 150.02C87.622 150.016 87.6005 150.009 87.5754 150.002C87.4931 149.98 87.4072 149.959 87.3213 149.941C87.2676 149.926 87.2103 149.916 87.153 149.901C86.8595 149.833 86.5445 149.765 86.2044 149.697C86.1114 149.675 86.0111 149.654 85.9145 149.636C85.8179 149.618 85.7212 149.6 85.6174 149.578C85.4778 149.55 85.3346 149.521 85.1878 149.496C85.1163 149.478 85.0411 149.464 84.9659 149.453C84.8621 149.431 84.7547 149.413 84.6473 149.392C84.4862 149.363 84.318 149.331 84.1498 149.302C84.0352 149.281 83.9207 149.259 83.8061 149.241C83.3229 149.155 82.8182 149.065 82.2991 148.979C82.2955 148.979 82.292 148.979 82.2884 148.976C81.9447 148.918 81.594 148.861 81.2396 148.804C80.8816 148.746 80.5165 148.685 80.1478 148.628L79.686 148.552C78.7911 148.409 77.8712 148.265 76.9477 148.126C76.7436 148.093 76.5396 148.061 76.3356 148.029C76.2317 148.014 76.1315 147.996 76.0277 147.982C75.8809 147.96 75.7378 147.935 75.5946 147.914C75.3046 147.867 75.0147 147.824 74.7283 147.781C74.5493 147.752 74.3704 147.724 74.1914 147.695C73.9874 147.666 73.7833 147.634 73.5829 147.602C73.4826 147.587 73.3824 147.573 73.2822 147.555C72.7309 147.469 72.1904 147.383 71.657 147.3C71.4781 147.268 71.2991 147.239 71.1201 147.214C70.5724 147.125 70.0391 147.038 69.5272 146.952C69.3733 146.927 69.2229 146.902 69.0726 146.877C68.7111 146.816 68.3603 146.755 68.0238 146.698C67.9415 146.683 67.8591 146.669 67.7804 146.655C67.6193 146.626 67.4654 146.597 67.3114 146.569C67.1575 146.54 67.0072 146.511 66.8604 146.486C66.8425 146.486 66.8282 146.482 66.8139 146.479C66.685 146.454 66.5562 146.429 66.4309 146.403C66.2948 146.378 66.1588 146.35 66.0264 146.325C65.9047 146.299 65.783 146.274 65.6648 146.249C65.1351 146.138 64.6769 146.034 64.3046 145.934C64.2259 145.912 64.1543 145.89 64.0827 145.873C64.0397 145.862 64.0003 145.847 63.961 145.837C63.8894 145.812 63.8249 145.79 63.7641 145.772C63.6746 145.74 63.5923 145.708 63.5243 145.679C63.467 145.654 63.4169 145.629 63.3775 145.607C63.3238 145.575 63.2808 145.546 63.2558 145.517C63.2343 145.499 63.22 145.478 63.2128 145.46C63.2057 145.435 63.2057 145.41 63.22 145.388C63.2272 145.374 63.2379 145.36 63.2522 145.349C63.2916 145.313 63.3417 145.281 63.4025 145.248L63.4061 145.245C63.4419 145.227 63.4813 145.205 63.5278 145.187C63.5565 145.173 63.5887 145.162 63.6209 145.148C63.6603 145.13 63.7032 145.116 63.7498 145.101C63.7927 145.083 63.8393 145.069 63.8894 145.055C63.9323 145.04 63.9789 145.029 64.0254 145.015C64.0791 145.001 64.1328 144.986 64.1901 144.972C64.3118 144.94 64.4406 144.907 64.5802 144.879C64.6984 144.854 64.8201 144.829 64.9453 144.803C65.2281 144.75 65.5396 144.699 65.8689 144.646C65.8725 144.646 65.8725 144.646 65.876 144.646C65.8939 144.642 65.9118 144.638 65.9333 144.635C66.4309 144.556 66.9821 144.481 67.5584 144.398C67.6909 144.384 67.8305 144.362 67.9665 144.344C68.0238 144.337 68.0811 144.33 68.1383 144.319C68.3352 144.294 68.5357 144.265 68.7361 144.237C68.8363 144.222 68.9366 144.208 69.0404 144.194C69.2408 144.168 69.4449 144.14 69.6489 144.107C69.8529 144.079 70.057 144.05 70.261 144.018C70.2682 144.014 70.2789 144.014 70.2861 144.014C70.6011 143.968 70.9161 143.917 71.2275 143.867C71.4136 143.838 71.5962 143.806 71.7788 143.774C71.8002 143.77 71.8217 143.767 71.8468 143.763C72.0222 143.731 72.194 143.702 72.3658 143.666C72.4875 143.645 72.6092 143.62 72.7273 143.598C72.8455 143.573 72.9636 143.548 73.0817 143.523C73.3144 143.472 73.5435 143.422 73.7618 143.368C73.8513 143.35 73.9372 143.325 74.0231 143.304C74.0697 143.293 74.1126 143.282 74.1556 143.272C74.2379 143.25 74.3167 143.229 74.3954 143.203C74.5458 143.164 74.6889 143.121 74.8286 143.074C74.9503 143.035 75.072 142.995 75.1865 142.952C75.4621 142.855 75.7091 142.751 75.9311 142.64C75.9776 142.619 76.0205 142.597 76.0635 142.572C76.1208 142.54 76.1781 142.507 76.2317 142.475C76.2854 142.443 76.3391 142.411 76.3857 142.375C76.4322 142.346 76.4716 142.314 76.511 142.285C76.6291 142.192 76.7293 142.095 76.8116 141.994C79.8507 142.669 82.249 143.627 82.249 143.627L99.0444 145.962L99.1768 145.98Z" fill="#587CF8"/>
<path d="M65.9333 144.635C66.4309 144.556 66.9822 144.481 67.5585 144.398C66.9822 144.481 66.4345 144.556 65.9333 144.635Z" fill="#587CF8"/>
<path d="M89.4619 150.791C89.4619 150.823 89.4548 150.856 89.444 150.891C89.444 150.899 89.444 150.909 89.4369 150.92C89.4333 150.938 89.4261 150.96 89.4154 150.985C89.4082 151.006 89.3975 151.028 89.3832 151.049C89.3366 151.146 89.265 151.247 89.1684 151.354C89.1111 151.419 89.0467 151.487 88.9751 151.559C88.7174 151.806 88.3594 152.075 87.9191 152.359C87.8404 152.409 87.7545 152.463 87.6685 152.517C87.3929 152.685 87.0851 152.861 86.7558 153.033C86.677 153.076 86.5947 153.119 86.5123 153.162C86.2546 153.295 85.9826 153.428 85.6962 153.561C85.6031 153.604 85.5065 153.65 85.4098 153.693C84.8335 153.955 84.2071 154.217 83.5485 154.465C83.4375 154.508 83.3265 154.551 83.2156 154.59C83.0616 154.648 82.9077 154.701 82.7538 154.755C81.662 155.139 80.4915 155.487 79.2888 155.774L76.4573 155.717L75.3298 155.702L62.454 155.441L59.5832 155.383L58.4556 155.358L57.797 155.344L51.1139 155.207L42.7091 155.039L41.5815 155.01L39.9743 154.985C39.9743 154.985 39.9743 154.981 39.9743 154.978C39.9922 154.748 40.3358 149.898 39.4731 142.274L57.2672 139.799C57.2672 139.799 63.8107 137.191 68.9617 137.535C74.102 137.883 77.2054 138.787 77.0336 141.449C77.03 141.503 77.0229 141.557 77.005 141.607C77.0014 141.639 76.9907 141.668 76.9799 141.697C76.8582 142.03 76.5325 142.317 76.0636 142.572C76.0206 142.597 75.9777 142.619 75.9311 142.64C75.5123 142.852 74.9897 143.038 74.3955 143.203C74.3167 143.228 74.238 143.25 74.1556 143.272C74.1127 143.282 74.0697 143.293 74.0232 143.304C73.9373 143.325 73.8514 143.35 73.7619 143.368C73.3216 143.476 72.8527 143.576 72.3659 143.666C72.194 143.702 72.0222 143.731 71.8468 143.763C71.8218 143.767 71.8003 143.77 71.7788 143.774C71.5963 143.806 71.4137 143.838 71.2276 143.867C70.9161 143.917 70.6011 143.967 70.2861 144.014C70.279 144.014 70.2682 144.014 70.2611 144.018C69.7492 144.097 69.2373 144.168 68.7362 144.237C68.5357 144.265 68.3353 144.294 68.1384 144.319C68.0811 144.33 68.0238 144.337 67.9666 144.344C67.8305 144.362 67.6909 144.384 67.5585 144.398C66.9607 144.484 66.3916 144.563 65.8761 144.646C65.8725 144.646 65.8725 144.646 65.8689 144.646C65.5396 144.699 65.2282 144.75 64.9454 144.803C64.8201 144.829 64.6984 144.854 64.5803 144.879C64.4407 144.907 64.3118 144.94 64.1901 144.972C64.1328 144.986 64.0791 145.001 64.0255 145.015C63.7641 145.087 63.5529 145.166 63.4026 145.248C63.3418 145.281 63.2916 145.313 63.2523 145.349C63.2129 145.385 63.1986 145.42 63.2129 145.46C63.22 145.478 63.2344 145.499 63.2558 145.517C63.3024 145.571 63.3954 145.621 63.5243 145.679C63.5923 145.707 63.6747 145.74 63.7641 145.772C63.825 145.794 63.893 145.815 63.961 145.837C64.3798 145.966 64.9597 146.102 65.6649 146.249C65.783 146.274 65.9047 146.299 66.0264 146.325C66.1589 146.35 66.2949 146.378 66.4309 146.403C66.5562 146.429 66.6851 146.454 66.8139 146.479C67.4976 146.604 68.2565 146.741 69.0727 146.877C69.223 146.902 69.3733 146.927 69.5273 146.952C70.0391 147.038 70.5725 147.125 71.1202 147.214C71.2991 147.243 71.4781 147.272 71.6571 147.3C72.1905 147.383 72.731 147.469 73.2822 147.555C73.3825 147.573 73.4827 147.587 73.5829 147.602C73.7834 147.634 73.9874 147.666 74.1914 147.695C74.3704 147.724 74.5494 147.752 74.7284 147.781C75.0147 147.824 75.3047 147.867 75.5946 147.914C75.7378 147.935 75.881 147.96 76.0278 147.982C77.2556 148.172 78.4905 148.362 79.6861 148.552L80.1479 148.628C80.5166 148.685 80.8817 148.746 81.2396 148.804C81.5976 148.865 81.9448 148.922 82.2884 148.976C82.292 148.979 82.2956 148.979 82.2992 148.979C82.8182 149.069 83.3229 149.155 83.8062 149.241C83.9207 149.259 84.0353 149.281 84.1498 149.302C84.3181 149.334 84.4827 149.363 84.6474 149.392C84.7548 149.413 84.8622 149.431 84.966 149.453C85.0411 149.467 85.1163 149.482 85.1879 149.496C85.3347 149.521 85.4778 149.55 85.6175 149.578C85.8215 149.618 86.0148 149.657 86.2045 149.697C86.5446 149.765 86.8596 149.833 87.1531 149.901C87.2104 149.916 87.2676 149.93 87.3213 149.941C87.4323 149.966 87.5397 149.995 87.6435 150.02C87.6972 150.034 87.7473 150.045 87.7974 150.059C87.9478 150.095 88.0874 150.135 88.2198 150.17C88.3487 150.21 88.474 150.246 88.5849 150.282C89.0431 150.429 89.3366 150.569 89.4297 150.701C89.444 150.719 89.4512 150.737 89.4583 150.755C89.4619 150.766 89.4619 150.78 89.4619 150.791Z" fill="#587CF8"/>
<path d="M89.2149 68.4279C89.2149 68.4279 84.54 77.7699 72.5914 77.7699C60.6427 77.7699 63.6174 68.3489 63.6174 68.3489L67.0036 67.244L66.8032 61.4034L66.4989 52.8866L86.8381 46.6873C86.4121 47.5375 86.1078 48.7645 85.9074 50.1744C84.9659 56.614 85.9861 67.2476 85.9861 67.2476L89.2149 68.4279Z" fill="#FECAD0"/>
<path d="M86.8415 46.6873C86.4155 47.5375 86.1113 48.7645 85.9108 50.1744C85.9108 50.1887 85.8965 50.1887 85.8965 50.1995C80.1871 61.7084 70.5759 61.8411 66.803 61.4034L66.4988 52.8866L86.8415 46.6873Z" fill="#EE84AA"/>
<path d="M64.5015 16.0388C66.3736 26.066 87.7723 33.0043 89.29 34.1488C90.1778 34.8196 90.4677 36.4125 90.5572 37.6179C90.5751 37.8726 90.9223 37.9229 91.0118 37.6825C91.5523 36.2044 92.6334 34.0878 94.4554 33.8689C97.2868 33.5317 100.018 37.1049 98.4036 41.3992C96.7892 45.6935 90.3245 43.419 90.3245 43.419C90.3245 43.419 85.059 56.2768 72.9457 56.6284C60.8324 56.9836 58.1585 46.6944 59.0784 40.3803C59.9984 34.0662 59.9053 30.9235 59.3755 27.2032C58.8458 23.4829 63.4813 20.8568 64.5015 16.0388Z" fill="#FECAD0"/>
<path d="M95.3969 36.3408C94.3803 36.6385 93.2491 39.4117 93.7002 40.714" stroke="#E45E8E" stroke-width="0.5252" stroke-miterlimit="9" stroke-linecap="round"/>
<path d="M90.2017 150.434C90.2017 150.462 90.1981 150.491 90.1874 150.52C90.1874 150.523 90.1838 150.53 90.1838 150.534C90.1838 150.538 90.1838 150.541 90.1802 150.548C90.1838 150.552 90.1802 150.555 90.1766 150.563C90.1731 150.581 90.1659 150.602 90.1552 150.627C90.1552 150.631 90.1516 150.634 90.1516 150.638C90.1444 150.656 90.1337 150.674 90.1229 150.692C90.0764 150.789 90.0048 150.889 89.9082 150.997C89.8795 151.029 89.8473 151.061 89.8187 151.097C89.7829 151.13 89.7507 151.165 89.7149 151.201C89.6612 151.251 89.6039 151.305 89.5431 151.356C89.4929 151.399 89.4392 151.442 89.382 151.488C89.3748 151.495 89.3641 151.503 89.3533 151.51C89.2889 151.564 89.2209 151.614 89.1457 151.671C89.1386 151.675 89.1278 151.682 89.1171 151.689C89.0527 151.736 88.9846 151.786 88.913 151.833C88.8307 151.886 88.7484 151.944 88.6589 152.001C88.5801 152.052 88.4942 152.105 88.4083 152.159C88.4012 152.163 88.3976 152.166 88.3904 152.17C88.2974 152.227 88.2007 152.285 88.1005 152.342C87.9108 152.453 87.7067 152.565 87.4955 152.676C87.4168 152.719 87.3344 152.762 87.2521 152.805C86.9944 152.938 86.7223 153.07 86.436 153.203C86.3429 153.246 86.2463 153.293 86.1496 153.336C86.0064 153.4 85.8597 153.469 85.7093 153.533C85.2583 153.727 84.7822 153.921 84.2882 154.107C84.1773 154.15 84.0663 154.193 83.9553 154.233C83.8014 154.29 83.6475 154.344 83.4936 154.398C83.0855 154.541 82.6631 154.681 82.2336 154.814C82.0904 154.857 81.9472 154.9 81.804 154.943C81.6572 154.986 81.5105 155.029 81.3673 155.069C80.927 155.194 80.4796 155.309 80.0285 155.417C78.7148 155.729 77.3582 155.966 76.023 156.088C72.7871 156.382 67.679 155.79 63.1938 155.083C62.3025 154.943 61.4362 154.796 60.6129 154.652C60.2263 154.584 59.8541 154.52 59.4889 154.452C56.2888 153.874 53.9979 153.372 53.9979 153.372L52.337 154.516L51.8537 154.85L40.4349 162.724L26.0772 172.626C19.9561 176.845 11.7911 176.497 6.05306 171.762C2.15132 168.529 0 163.779 0 158.868C0 157.232 0.239831 155.567 0.744551 153.946L13.7277 112C13.6167 112.617 13.5737 112.958 13.5737 112.958L37.6177 118.691L30.0577 143.327L40.2129 141.917L58.007 139.441C58.007 139.441 64.5505 136.833 69.7015 137.177C74.8417 137.525 77.9452 138.43 77.7734 141.092C77.7698 141.124 77.7698 141.153 77.7591 141.181C77.7591 141.206 77.7519 141.228 77.7448 141.249C77.7412 141.282 77.7305 141.31 77.7197 141.339C77.641 141.554 77.4799 141.748 77.2508 141.927C77.2114 141.956 77.172 141.988 77.1255 142.017C77.079 142.049 77.0253 142.085 76.9716 142.118C76.9179 142.15 76.8606 142.182 76.8033 142.214C76.7604 142.24 76.7174 142.261 76.6709 142.283C76.449 142.394 76.202 142.498 75.9263 142.595C75.8118 142.638 75.6901 142.677 75.5684 142.717C75.4288 142.763 75.2856 142.806 75.1353 142.846C75.0565 142.871 74.9778 142.892 74.8954 142.914C74.8525 142.925 74.8095 142.936 74.763 142.946C74.6771 142.968 74.5912 142.993 74.5017 143.011C74.2833 143.065 74.0542 143.115 73.8216 143.165C73.7034 143.19 73.5853 143.215 73.4672 143.24C73.3491 143.262 73.2273 143.287 73.1056 143.309C72.9338 143.345 72.762 143.373 72.5866 143.405C72.5615 143.409 72.5401 143.413 72.5186 143.416C72.336 143.449 72.1535 143.481 71.9673 143.51C71.6559 143.56 71.3409 143.61 71.0259 143.657C71.0188 143.657 71.008 143.657 71.0009 143.66C70.7968 143.693 70.5928 143.721 70.3887 143.75C70.1847 143.782 69.9807 143.811 69.7802 143.836C69.6764 143.85 69.5762 143.865 69.476 143.879C69.2755 143.908 69.075 143.936 68.8782 143.962C68.8209 143.972 68.7636 143.98 68.7064 143.987C68.5703 144.005 68.4307 144.023 68.2983 144.04C67.722 144.123 67.1743 144.198 66.6732 144.277C66.6517 144.281 66.6338 144.284 66.6159 144.288C66.6123 144.288 66.6123 144.288 66.6087 144.288C66.2794 144.342 65.968 144.392 65.6852 144.446C65.5599 144.471 65.4382 144.496 65.3201 144.521C65.1805 144.55 65.0516 144.582 64.9299 144.615C64.8726 144.629 64.8189 144.643 64.7652 144.658C64.7187 144.672 64.6722 144.683 64.6292 144.697C64.5791 144.711 64.5326 144.726 64.4896 144.744C64.4431 144.758 64.4001 144.772 64.3607 144.79C64.3285 144.805 64.2963 144.815 64.2677 144.83C64.2211 144.848 64.1818 144.869 64.146 144.887L64.1424 144.891C64.0815 144.923 64.0314 144.955 63.9921 144.991C63.9777 145.002 63.967 145.016 63.9598 145.031C63.9455 145.056 63.9419 145.077 63.9527 145.102C63.9598 145.12 63.9742 145.142 63.9956 145.16C64.0207 145.189 64.0636 145.217 64.1173 145.25C64.1567 145.271 64.2068 145.296 64.2641 145.321C64.3321 145.35 64.4144 145.382 64.5039 145.415C64.5648 145.436 64.6328 145.458 64.7008 145.479C64.7402 145.49 64.7796 145.504 64.8225 145.515C64.8905 145.536 64.9657 145.558 65.0444 145.576C65.4167 145.676 65.8749 145.78 66.4047 145.892C66.5228 145.917 66.6445 145.942 66.7662 145.967C66.8987 145.992 67.0347 146.021 67.1707 146.046C67.296 146.071 67.4249 146.096 67.5537 146.121C67.568 146.125 67.5824 146.128 67.6003 146.128C67.747 146.157 67.8974 146.186 68.0513 146.211C68.2052 146.24 68.3591 146.268 68.5202 146.297C68.6025 146.311 68.6813 146.326 68.7636 146.34C69.1001 146.398 69.4509 146.459 69.8124 146.519C69.9628 146.545 70.1131 146.57 70.267 146.595C70.7789 146.681 71.3123 146.767 71.86 146.857C72.0389 146.885 72.2179 146.914 72.3969 146.943C72.9302 147.025 73.4708 147.111 74.022 147.198C74.1222 147.215 74.2225 147.23 74.3227 147.244C74.5232 147.276 74.7272 147.309 74.9312 147.337C75.1102 147.366 75.2892 147.395 75.4682 147.424C75.7545 147.467 76.0445 147.51 76.3344 147.556C76.4776 147.578 76.6208 147.603 76.7675 147.624C76.8714 147.639 76.9716 147.657 77.0754 147.671C77.2794 147.703 77.4835 147.736 77.6875 147.768C78.611 147.908 79.531 148.051 80.4259 148.195L80.8876 148.27C81.2563 148.328 81.6215 148.389 81.9794 148.446C82.3374 148.507 82.6846 148.564 83.0282 148.618C83.0318 148.622 83.0354 148.622 83.039 148.622C83.558 148.711 84.0627 148.798 84.546 148.884C84.6605 148.902 84.7751 148.923 84.8896 148.945C85.0578 148.977 85.2225 149.006 85.3872 149.034C85.4946 149.056 85.6019 149.074 85.7057 149.095C85.7809 149.11 85.8561 149.124 85.9277 149.138C86.0744 149.164 86.2176 149.192 86.3572 149.221C86.461 149.242 86.5577 149.26 86.6543 149.278C86.7546 149.3 86.8476 149.321 86.9443 149.339C87.2843 149.407 87.5993 149.476 87.8929 149.544C87.9501 149.558 88.0074 149.573 88.0611 149.583C88.147 149.605 88.2329 149.626 88.3153 149.644C88.3403 149.651 88.3618 149.659 88.3833 149.662C88.437 149.677 88.4871 149.687 88.5372 149.702C88.6124 149.72 88.684 149.738 88.7555 149.759C88.8164 149.773 88.8773 149.791 88.9345 149.806C88.9417 149.809 88.9524 149.809 88.9596 149.813C89.0884 149.852 89.2137 149.888 89.3247 149.924C89.7829 150.071 90.0764 150.211 90.1695 150.344C90.1838 150.362 90.191 150.38 90.1981 150.398C90.2017 150.408 90.2017 150.423 90.2017 150.434Z" fill="#FECAD0"/>
<path d="M140.256 163.053C140.256 167.965 138.105 172.715 134.203 175.947C128.465 180.683 120.3 181.031 114.179 176.812L101.911 168.352L86.258 157.557C86.258 157.557 71.0699 160.897 64.2329 160.273C57.3959 159.649 50.1079 156.029 50.0542 154.619C50.0327 154.12 53.4154 153.439 57.761 152.714C58.434 152.606 59.1284 152.492 59.8372 152.38C60.3025 152.305 60.7714 152.23 61.2475 152.158C68.693 150.988 76.9905 149.808 76.2638 149.177C74.9608 148.043 62.6543 147.939 62.4825 145.277C62.4216 144.33 62.776 143.605 63.4883 143.049C64.0539 142.608 64.845 142.271 65.8329 142.016C65.8365 142.016 65.8365 142.016 65.8401 142.016C67.0321 141.704 68.5105 141.51 70.2251 141.388C70.2322 141.384 70.243 141.384 70.2501 141.384C70.3504 141.377 70.4506 141.37 70.5544 141.363C72.5876 141.227 74.8356 141.549 76.8115 141.994C79.8506 142.669 82.2489 143.627 82.2489 143.627L99.0442 145.962L99.1767 145.98L110.198 147.512V147.508L102.259 124.308L100.838 120.164L123.464 108.82L139.511 158.131C140.016 159.753 140.256 161.417 140.256 163.053Z" fill="#FECAD0"/>
</svg>
