<svg width="676" height="430" viewBox="0 0 676 430" fill="none" xmlns="http://www.w3.org/2000/svg">
<path d="M674.235 430H1.76501C1.2969 430 0.847963 429.842 0.516959 429.561C0.185955 429.279 0 428.898 0 428.5C0 428.102 0.185955 427.721 0.516959 427.439C0.847963 427.158 1.2969 427 1.76501 427H674.235C674.703 427 675.152 427.158 675.483 427.439C675.814 427.721 676 428.102 676 428.5C676 428.898 675.814 429.279 675.483 429.561C675.152 429.842 674.703 430 674.235 430Z" fill="#383838"/>
<path d="M295.65 360.283C295.65 360.283 270.36 394.153 258.37 427.133H368.22C368.22 427.133 381.09 396.783 378.7 357.203L295.65 360.283Z" fill="#142CB0"/>
<path d="M343.86 402.783L329.92 411.092L318.79 427.133" stroke="#142CB0" stroke-width="1.0868" stroke-miterlimit="10"/>
<path d="M193.15 253.902L177.36 227.693C176.33 225.983 174.13 225.393 172.39 226.353C170.73 227.263 170.02 229.272 170.74 231.012L174.03 239.053C174.03 239.053 167.84 252.683 181.26 266.103L193.15 253.902Z" fill="#FE9184"/>
<path d="M171.14 232.002L165.8 224.222C164.4 222.182 161.38 222.213 160.02 224.273L156.32 229.862C154.18 233.102 153.68 237.143 154.98 240.803C157.88 248.963 164.87 263.702 180.21 275.812L187.44 254.963L171.14 232.002Z" fill="#FE9184"/>
<path d="M171.14 232.003L174.03 239.062C174.03 239.062 167.63 245.273 174.44 255.693" stroke="#4F3B32" stroke-width="1.271" stroke-miterlimit="10" stroke-linecap="round" stroke-linejoin="round"/>
<path d="M494.58 153.992L513.04 125.232L533.37 141.583C533.37 141.583 530.02 157.272 511.76 164.772L499.66 185.672L494.58 153.992Z" fill="#FE9184"/>
<rect x="69" width="171" height="68" rx="4" fill="#383838"/>
<rect x="69" y="75" width="104" height="68" rx="4" fill="#383838"/>
<rect x="247" width="50" height="68" rx="4" fill="#383838"/>
<rect x="373" y="75" width="31" height="68" rx="4" fill="#383838"/>
<rect x="304" width="98" height="68" rx="4" fill="#383838"/>
<circle cx="334" cy="34" r="7" fill="#121212"/>
<circle cx="353" cy="34" r="7" fill="#121212"/>
<circle cx="372" cy="34" r="7" fill="#121212"/>
<rect x="180" y="75" width="59" height="68" rx="4" fill="#383838"/>
<rect x="411" y="75" width="59" height="68" rx="4" fill="#383838"/>
<rect x="476" y="75" width="131" height="68" rx="4" fill="#383838"/>
<rect x="409" width="198" height="68" rx="4" fill="#383838"/>
<rect x="246" y="75" width="120" height="68" rx="4" fill="#383838"/>
<path d="M506.56 164.583C512.98 154.623 510.28 146.243 510.28 146.243L513.96 140.613C514.76 139.393 514.53 137.783 513.44 136.823C512.4 135.913 510.87 135.863 509.77 136.693L502 142.573L506.56 164.583Z" fill="#FE9184"/>
<path d="M513.04 148.212C513.04 148.212 515.93 153.842 512.04 161.172" stroke="#4F3B32" stroke-width="1.271" stroke-miterlimit="10" stroke-linecap="round" stroke-linejoin="round"/>
<rect x="85" y="27" width="118" height="6" fill="#121212"/>
<rect x="85" y="40" width="78" height="6" fill="#121212"/>
<rect x="430" y="27" width="161" height="6" fill="#121212"/>
<rect x="430" y="40" width="106.424" height="6" fill="#121212"/>
<rect x="260" y="102" width="91" height="6" fill="#121212"/>
<rect x="260" y="115" width="60" height="6" fill="#121212"/>
<ellipse cx="517.5" cy="111" rx="8.5" ry="8" fill="#121212"/>
<circle cx="540" cy="111" r="8" fill="#121212"/>
<ellipse cx="562.5" cy="111" rx="8.5" ry="8" fill="#121212"/>
<path d="M394.48 273.973C399.18 295.202 378.95 363.473 378.95 363.473C333.59 382.533 295.65 360.293 295.65 360.293C295.65 360.293 310.66 333.113 304.98 299.033C304.83 298.133 304.69 297.242 304.55 296.372C280.97 309.262 247.07 323.713 247.07 323.713L231.64 328.943C225.29 331.103 218.26 329.182 213.88 324.092L168.5 271.402L193.12 245.092L228.59 284.383L310.28 235.202L310.44 235.092L311.16 234.663L311.23 234.622C313.01 233.632 315.03 233.022 317.16 232.923L376.52 229.893L376.62 229.883C378.62 229.583 411.07 224.792 435.06 216.702C446.59 212.812 456.6 205.373 463.84 195.583L495.82 152.303C495.82 152.303 509.48 161.173 513.04 182.373C495.93 234.893 434.39 272.743 394.48 273.973Z" fill="#EAC340"/>
<path d="M304.98 296.133L316.43 289.383C316.43 289.383 311.71 307.333 305.12 329.823C305.12 329.813 307.55 317.423 304.98 296.133Z" fill="#AE8E15"/>
<path d="M338.99 197.963L340.15 231.592C340.23 233.923 342.14 235.762 344.47 235.762H357.34C359.75 235.762 361.7 233.782 361.66 231.372L361.22 201.973L338.99 197.963Z" fill="#FE9184"/>
<path d="M340.64 194.533C340.64 194.533 345.99 218.512 361.49 219.952L361.22 201.982L340.64 194.533Z" fill="#503931"/>
<path d="M366.41 145.702C366.41 145.702 386.92 143.812 386.92 169.242C386.92 194.672 381.38 212.213 363.92 210.823C346.53 209.443 337.61 204.522 333.18 183.282C328.74 162.042 336.22 146.812 366.41 145.702Z" fill="#FE9184"/>
<path d="M335.66 168.473C345.7 181.562 340.64 189.983 340.64 189.983L337.21 195.793C337.21 195.793 335.43 197.273 329.12 190.913C329.17 191.463 329.19 192.013 329.19 192.573C329.19 202.703 320.98 210.913 310.86 210.913C300.73 210.913 292.52 202.703 292.52 192.573C292.52 182.443 300.73 174.233 310.86 174.233C313.69 174.233 316.36 174.872 318.75 176.022C314.56 161.422 326.6 143.152 350.95 140.382C380.38 137.022 383.95 155.272 383.95 155.272C357.45 143.132 335.66 168.473 335.66 168.473Z" fill="#44312A"/>
<path d="M341.08 234.123C341.08 234.123 347.32 244.153 358.45 240.483C361.94 239.333 363.67 235.263 361.85 232.073C361.15 230.833 360.03 229.453 358.34 227.953L341.08 234.123Z" fill="#FE9184"/>
<path d="M337.697 201.291C342.319 199.389 344.524 194.1 342.621 189.478C340.719 184.857 335.43 182.652 330.808 184.554C326.187 186.457 323.982 191.746 325.884 196.367C327.787 200.989 333.075 203.194 337.697 201.291Z" fill="#FE9184"/>
</svg>
