<svg width="598" height="410" viewBox="0 0 598 410" fill="none" xmlns="http://www.w3.org/2000/svg">
<path d="M121.76 132.299H7.34015C6.16524 132.299 5.03846 131.833 4.20767 131.002C3.37689 130.171 2.91016 129.044 2.91016 127.869C2.91015 127.288 3.02481 126.712 3.24756 126.175C3.47031 125.639 3.79678 125.151 4.20827 124.74C4.61977 124.33 5.10821 124.004 5.64562 123.783C6.18304 123.561 6.75887 123.448 7.34015 123.449H121.76C122.932 123.449 124.057 123.915 124.886 124.744C125.714 125.573 126.18 126.697 126.18 127.869C126.181 128.451 126.068 129.026 125.847 129.564C125.625 130.101 125.3 130.59 124.889 131.001C124.479 131.413 123.991 131.739 123.454 131.962C122.917 132.185 122.341 132.299 121.76 132.299Z" fill="white"/>
<path d="M332.609 14.0695H258.069C256.868 14.0695 255.715 13.5923 254.866 12.7427C254.016 11.8932 253.539 10.741 253.539 9.53954C253.539 8.94513 253.656 8.35655 253.884 7.8075C254.112 7.25846 254.446 6.75973 254.866 6.33988C255.287 5.92003 255.787 5.5873 256.336 5.36073C256.886 5.13417 257.475 5.01823 258.069 5.01954H332.609C333.203 5.01823 333.792 5.13417 334.342 5.36073C334.891 5.5873 335.391 5.92003 335.812 6.33988C336.232 6.75973 336.566 7.25846 336.794 7.8075C337.022 8.35655 337.139 8.94513 337.139 9.53954C337.139 10.741 336.662 11.8932 335.812 12.7427C334.963 13.5923 333.81 14.0695 332.609 14.0695Z" fill="white"/>
<path d="M58.2889 165.779H45.1389C41.6816 165.779 38.8789 168.582 38.8789 172.039V184.389C38.8789 187.847 41.6816 190.649 45.1389 190.649H58.2889C61.7462 190.649 64.5489 187.847 64.5489 184.389V172.039C64.5489 168.582 61.7462 165.779 58.2889 165.779Z" fill="#407FFE"/>
<path d="M440.94 396.34H433.75C431.867 396.34 430.34 397.867 430.34 399.75V406.5C430.34 408.383 431.867 409.91 433.75 409.91H440.94C442.823 409.91 444.35 408.383 444.35 406.5V399.75C444.35 397.867 442.823 396.34 440.94 396.34Z" fill="white"/>
<path d="M569.651 108.648H562.461C560.578 108.648 559.051 110.175 559.051 112.058V118.808C559.051 120.692 560.578 122.218 562.461 122.218H569.651C571.534 122.218 573.061 120.692 573.061 118.808V112.058C573.061 110.175 571.534 108.648 569.651 108.648Z" fill="#407FFE"/>
<path d="M67.8208 330.379L31.5808 349.149L42.0208 354.209L29.0508 369.699L39.1708 377.989L51.6908 361.339L60.0908 370.339L67.8208 330.379Z" fill="#FEFEF4"/>
<path d="M194 408.479H151.66C150.159 408.474 148.721 407.874 147.66 406.812C146.599 405.749 146.003 404.31 146 402.809C146 401.302 146.598 399.858 147.664 398.793C148.729 397.727 150.174 397.129 151.68 397.129H194C195.506 397.129 196.951 397.727 198.016 398.793C199.082 399.858 199.68 401.302 199.68 402.809C199.68 403.554 199.533 404.292 199.247 404.981C198.962 405.67 198.543 406.295 198.016 406.822C197.488 407.348 196.862 407.766 196.173 408.05C195.484 408.335 194.745 408.48 194 408.479Z" fill="white"/>
<path d="M117.59 105.83H472.9" stroke="#FEFEF4" stroke-width="1.94" stroke-miterlimit="10"/>
<path d="M465.75 69.9297H124.74C120.791 69.9297 117.59 73.1309 117.59 77.0797V361.11C117.59 365.059 120.791 368.26 124.74 368.26H465.75C469.699 368.26 472.9 365.059 472.9 361.11V77.0797C472.9 73.1309 469.699 69.9297 465.75 69.9297Z" stroke="#FEFEF4" stroke-width="1.94" stroke-miterlimit="10"/>
<path d="M147.619 93.2485C150.386 93.2485 152.629 91.0055 152.629 88.2385C152.629 85.4716 150.386 83.2285 147.619 83.2285C144.852 83.2285 142.609 85.4716 142.609 88.2385C142.609 91.0055 144.852 93.2485 147.619 93.2485Z" stroke="#FEFEF4" stroke-width="1.94" stroke-miterlimit="10"/>
<path d="M167.088 93.2485C169.855 93.2485 172.098 91.0055 172.098 88.2385C172.098 85.4716 169.855 83.2285 167.088 83.2285C164.321 83.2285 162.078 85.4716 162.078 88.2385C162.078 91.0055 164.321 93.2485 167.088 93.2485Z" stroke="#FEFEF4" stroke-width="1.94" stroke-miterlimit="10"/>
<path d="M186.561 93.2485C189.328 93.2485 191.571 91.0055 191.571 88.2385C191.571 85.4716 189.328 83.2285 186.561 83.2285C183.794 83.2285 181.551 85.4716 181.551 88.2385C181.551 91.0055 183.794 93.2485 186.561 93.2485Z" stroke="#FEFEF4" stroke-width="1.94" stroke-miterlimit="10"/>
<path d="M191.359 226.85H10.7992C5.08308 226.85 0.449219 231.483 0.449219 237.2V304.14C0.449219 309.856 5.08308 314.49 10.7992 314.49H191.359C197.075 314.49 201.709 309.856 201.709 304.14V237.2C201.709 231.483 197.075 226.85 191.359 226.85Z" fill="#407FFE"/>
<path d="M24.8505 243.128C24.8505 243.882 24.627 244.619 24.2084 245.245C23.7897 245.872 23.1947 246.36 22.4985 246.648C21.8023 246.937 21.0362 247.012 20.2972 246.865C19.5581 246.718 18.8792 246.355 18.3464 245.822C17.8136 245.29 17.4507 244.611 17.3037 243.872C17.1567 243.133 17.2321 242.367 17.5205 241.67C17.8089 240.974 18.2972 240.379 18.9237 239.96C19.5503 239.542 20.2869 239.318 21.0405 239.318C22.0509 239.318 23.02 239.72 23.7345 240.434C24.4491 241.149 24.8505 242.118 24.8505 243.128V243.128Z" stroke="#FEFEF4" stroke-width="1.48" stroke-miterlimit="10"/>
<path d="M35.8491 246.929C37.9533 246.929 39.6591 245.223 39.6591 243.119C39.6591 241.014 37.9533 239.309 35.8491 239.309C33.7449 239.309 32.0391 241.014 32.0391 243.119C32.0391 245.223 33.7449 246.929 35.8491 246.929Z" stroke="#FEFEF4" stroke-width="1.48" stroke-miterlimit="10"/>
<path d="M50.6577 246.929C52.7619 246.929 54.4677 245.223 54.4677 243.119C54.4677 241.014 52.7619 239.309 50.6577 239.309C48.5534 239.309 46.8477 241.014 46.8477 243.119C46.8477 245.223 48.5534 246.929 50.6577 246.929Z" stroke="#FEFEF4" stroke-width="1.48" stroke-miterlimit="10"/>
<path d="M0.449219 257.549H201.709" stroke="#FEFEF4" stroke-width="1.48" stroke-miterlimit="10"/>
<path d="M515.838 1.69922H434.838C428.078 1.69922 422.598 7.17925 422.598 13.9392V79.2792C422.598 86.0392 428.078 91.5192 434.838 91.5192H515.838C522.598 91.5192 528.078 86.0392 528.078 79.2792V13.9392C528.078 7.17925 522.598 1.69922 515.838 1.69922Z" stroke="#407FFE" stroke-width="3" stroke-miterlimit="10"/>
<path d="M468.679 56.8096C465.074 56.8096 461.549 55.7404 458.551 53.7373C455.553 51.7342 453.217 48.887 451.837 45.5559C450.457 42.2248 450.096 38.5594 450.8 35.0231C451.503 31.4868 453.239 28.2386 455.789 25.6891C458.338 23.1395 461.586 21.4033 465.123 20.6999C468.659 19.9965 472.324 20.3575 475.656 21.7373C478.987 23.1171 481.834 25.4537 483.837 28.4516C485.84 31.4495 486.909 34.9741 486.909 38.5796C486.907 43.4137 484.985 48.049 481.567 51.4672C478.149 54.8855 473.513 56.807 468.679 56.8096ZM468.679 24.4796C465.891 24.4796 463.164 25.3066 460.846 26.8559C458.527 28.4052 456.72 30.6073 455.653 33.1838C454.585 35.7602 454.306 38.5953 454.85 41.3304C455.394 44.0655 456.737 46.5779 458.709 48.5498C460.681 50.5217 463.193 51.8646 465.928 52.4087C468.664 52.9527 471.499 52.6735 474.075 51.6063C476.652 50.5391 478.854 48.7319 480.403 46.4132C481.952 44.0944 482.779 41.3683 482.779 38.5796C482.771 34.8443 481.283 31.2646 478.639 28.6253C475.996 25.9859 472.414 24.5023 468.679 24.4996V24.4796Z" fill="#407FFE"/>
<path d="M481.545 48.5796L478.625 51.5L484.006 56.8811L486.926 53.9607L481.545 48.5796Z" fill="#407FFE"/>
<path d="M483.241 59.6551L493.89 70.3041C495.019 71.4327 496.849 71.4327 497.977 70.3041L500.346 67.9353C501.475 66.8067 501.475 64.9768 500.346 63.8482L489.697 53.1992C488.568 52.0706 486.738 52.0706 485.61 53.1992L483.241 55.568C482.112 56.6966 482.112 58.5265 483.241 59.6551Z" fill="#407FFE"/>
<path d="M86.6783 19.709H40.1183C32.3145 19.709 25.9883 26.0352 25.9883 33.839V73.319C25.9883 81.1228 32.3145 87.449 40.1183 87.449H86.6783C94.4821 87.449 100.808 81.1228 100.808 73.319V33.839C100.808 26.0352 94.4821 19.709 86.6783 19.709Z" fill="#407FFE"/>
<path d="M63.3991 68.1785C60.2638 68.1805 57.1984 67.2526 54.5906 65.5122C51.9827 63.7718 49.9496 61.297 48.7484 58.401C47.5473 55.505 47.232 52.3177 47.8424 49.2425C48.4529 46.1672 49.9616 43.3421 52.1779 41.1244C54.3942 38.9068 57.2183 37.3962 60.2932 36.7838C63.3681 36.1714 66.5555 36.4847 69.4523 37.6841C72.3491 38.8834 74.8251 40.915 76.5672 43.5217C78.3092 46.1284 79.2391 49.1933 79.2391 52.3285C79.2338 56.5288 77.5636 60.5558 74.5944 63.5268C71.6253 66.4978 67.5994 68.1706 63.3991 68.1785ZM63.3991 41.2385C61.2052 41.2365 59.0601 41.8853 57.2351 43.1027C55.41 44.32 53.987 46.0514 53.1461 48.0776C52.3052 50.1039 52.0842 52.334 52.5109 54.4859C52.9377 56.6378 53.9932 58.6148 55.5437 60.1668C57.0943 61.7188 59.0703 62.776 61.2218 63.2047C63.3734 63.6334 65.6037 63.4144 67.6307 62.5753C69.6577 61.7362 71.3903 60.3148 72.6094 58.4908C73.8284 56.6669 74.4791 54.5223 74.4791 52.3285C74.4764 49.3898 73.3085 46.5721 71.2315 44.4932C69.1544 42.4142 66.3378 41.2438 63.3991 41.2385Z" fill="#FEFEF4"/>
<path d="M72.7386 41.2383L54.5586 63.4083" stroke="#FEFEF4" stroke-width="4.52" stroke-miterlimit="10"/>
<path d="M584.52 173.84H415.89C408.683 173.84 402.84 179.683 402.84 186.89V312.72C402.84 319.927 408.683 325.77 415.89 325.77H584.52C591.727 325.77 597.57 319.927 597.57 312.72V186.89C597.57 179.683 591.727 173.84 584.52 173.84Z" fill="#407FFE"/>
<path d="M422.991 191.868C425.029 191.868 426.681 190.216 426.681 188.178C426.681 186.14 425.029 184.488 422.991 184.488C420.953 184.488 419.301 186.14 419.301 188.178C419.301 190.216 420.953 191.868 422.991 191.868Z" stroke="#FEFEF4" stroke-width="1.43" stroke-miterlimit="10"/>
<path d="M437.338 191.868C439.376 191.868 441.028 190.216 441.028 188.178C441.028 186.14 439.376 184.488 437.338 184.488C435.301 184.488 433.648 186.14 433.648 188.178C433.648 190.216 435.301 191.868 437.338 191.868Z" stroke="#FEFEF4" stroke-width="1.43" stroke-miterlimit="10"/>
<path d="M451.678 191.868C453.716 191.868 455.368 190.216 455.368 188.178C455.368 186.14 453.716 184.488 451.678 184.488C449.64 184.488 447.988 186.14 447.988 188.178C447.988 190.216 449.64 191.868 451.678 191.868Z" stroke="#FEFEF4" stroke-width="1.43" stroke-miterlimit="10"/>
<path d="M402.84 203.568H597.58" stroke="#FEFEF4" stroke-width="1.43" stroke-miterlimit="10"/>
<path d="M313.808 262.18L313.068 252.18L250.518 255.25V264.94C250.518 264.94 236.448 278.32 230.898 367.36H343.488C343.488 367.36 355.838 288.53 313.808 262.18Z" fill="#407FFE"/>
<path d="M250.52 264.9L313.81 262.18" stroke="black" stroke-width="1.55" stroke-miterlimit="10"/>
<path d="M263.449 305.959L276.419 311.239L283.359 367.329" stroke="black" stroke-width="1.55" stroke-miterlimit="10"/>
<path d="M182.14 242.809L199.42 185.809L237.42 200.049L219.18 254.679C217.548 259.518 214.077 263.521 209.519 265.823C204.96 268.125 199.679 268.542 194.815 266.983C189.952 265.425 185.896 262.016 183.525 257.493C181.153 252.97 180.656 247.695 182.14 242.809Z" fill="#F26E5A"/>
<path d="M208.8 155.28C209.577 152.646 210.872 150.194 212.609 148.068C214.346 145.941 216.491 144.183 218.917 142.897C221.343 141.611 224.001 140.822 226.736 140.576C229.471 140.331 232.228 140.635 234.844 141.469C237.46 142.304 239.883 143.653 241.971 145.436C244.058 147.22 245.769 149.402 247.002 151.856C248.235 154.309 248.965 156.985 249.15 159.724C249.335 162.464 248.971 165.213 248.08 167.81L237.43 199.97L199.43 185.73L208.8 155.28Z" fill="#FEFEF4"/>
<path d="M211.491 238.509L168.081 156.199C168.081 156.199 169.081 141.329 144.371 140.439C144.041 140.439 143.701 140.389 143.371 140.389H135.121C134.373 140.374 133.644 140.628 133.068 141.106C132.491 141.583 132.106 142.251 131.981 142.989C131.913 143.393 131.929 143.806 132.026 144.203C132.124 144.6 132.302 144.973 132.549 145.299C132.797 145.625 133.108 145.897 133.464 146.099C133.821 146.3 134.214 146.426 134.621 146.469L142.951 147.649L131.621 150.649L129.501 151.429L114.071 141.239C113.545 140.862 112.894 140.704 112.253 140.797C111.613 140.89 111.034 141.228 110.637 141.74C110.241 142.251 110.059 142.897 110.128 143.54C110.198 144.183 110.514 144.774 111.011 145.189C112.011 145.989 113.501 147.299 115.171 148.749L111.761 146.749C111.205 146.387 110.529 146.261 109.88 146.398C109.231 146.535 108.663 146.924 108.301 147.479C107.939 148.035 107.812 148.712 107.949 149.361C108.086 150.009 108.475 150.577 109.031 150.939L112.031 153.079L110.851 152.619C110.223 152.347 109.52 152.297 108.86 152.479C108.199 152.661 107.621 153.063 107.221 153.619C106.971 153.979 106.804 154.391 106.734 154.823C106.663 155.256 106.69 155.699 106.813 156.12C106.936 156.541 107.151 156.929 107.443 157.256C107.735 157.583 108.097 157.84 108.501 158.009L125.361 165.069C128.271 166.289 131.061 167.069 134.481 166.239L149.481 162.689L183.171 256.809L211.491 238.509Z" fill="#F26E5A"/>
<path d="M193.668 204.719L201.708 219.949" stroke="#DB5749" stroke-width="1.5" stroke-miterlimit="10"/>
<path d="M242.588 140.929L226.448 142.139C226.448 142.139 203.088 173.809 250.518 255.219L313.068 252.149L317.778 164.449L310.058 139.559H281.998L242.588 140.929Z" fill="#FEFEF4"/>
<path d="M224.281 195.06C224.281 195.06 219.621 185.27 222.611 163.59" stroke="#FCE7E4" stroke-width="1.55" stroke-miterlimit="10"/>
<path d="M369.461 231.329L343.461 177.689L308.141 197.689L334.711 248.809C337.053 253.375 341.105 256.83 345.984 258.421C350.862 260.013 356.172 259.612 360.756 257.306C365.34 255 368.827 250.976 370.458 246.11C372.088 241.245 371.73 235.932 369.461 231.329Z" fill="#F26E5A"/>
<path d="M329.47 149.07C328.271 146.621 326.598 144.435 324.549 142.637C322.499 140.84 320.113 139.466 317.53 138.597C314.946 137.727 312.215 137.378 309.496 137.571C306.776 137.764 304.122 138.493 301.686 139.718C299.251 140.944 297.083 142.639 295.307 144.708C293.531 146.776 292.183 149.177 291.341 151.769C290.498 154.362 290.179 157.097 290.4 159.814C290.621 162.531 291.379 165.177 292.63 167.6L308.17 197.7L343.49 177.7L329.47 149.07Z" fill="#FEFEF4"/>
<path d="M308.17 197.7L295.34 172.84" stroke="#FCE7E4" stroke-width="1.55" stroke-miterlimit="10"/>
<path d="M423.678 139.56C423.273 139.013 422.696 138.618 422.04 138.437C421.384 138.255 420.687 138.299 420.058 138.56L412.508 141.5L419.598 135.5C420.181 135.029 420.566 134.358 420.679 133.618C420.792 132.878 420.624 132.122 420.208 131.5C419.972 131.175 419.673 130.901 419.33 130.694C418.986 130.487 418.604 130.351 418.207 130.294C417.81 130.238 417.405 130.261 417.017 130.363C416.629 130.465 416.266 130.645 415.948 130.89L409.358 136.2L414.998 128.81C415.456 128.228 415.682 127.498 415.634 126.76C415.586 126.022 415.267 125.327 414.738 124.81C414.443 124.534 414.094 124.322 413.714 124.187C413.333 124.053 412.928 123.998 412.525 124.027C412.123 124.056 411.73 124.168 411.373 124.356C411.015 124.544 410.7 124.804 410.448 125.12L399.348 136.64L388.018 133.64L396.348 132.46C396.751 132.409 397.14 132.279 397.492 132.077C397.844 131.874 398.152 131.603 398.398 131.28C398.644 130.957 398.823 130.588 398.924 130.194C399.025 129.801 399.047 129.392 398.988 128.99C398.862 128.253 398.475 127.585 397.899 127.108C397.324 126.632 396.596 126.377 395.848 126.39H387.588C382.714 126.35 377.997 128.109 374.338 131.33L374.158 131.46C369.098 135.46 370.938 143.64 370.938 143.64L339.828 231.72L370.658 245.4L388.418 150.81H399.768C400.47 150.87 401.176 150.87 401.878 150.81H401.998C403.226 150.7 404.43 150.403 405.568 149.93L422.428 143.93C422.82 143.749 423.168 143.486 423.449 143.158C423.729 142.83 423.936 142.446 424.055 142.031C424.173 141.616 424.201 141.181 424.136 140.754C424.071 140.328 423.915 139.92 423.678 139.56Z" fill="#F26E5A"/>
<path d="M351.9 195.059L345.18 218.509" stroke="#DB5749" stroke-width="1.5" stroke-miterlimit="10"/>
<path d="M241.339 68.2691C239.389 69.6091 226.339 72.9991 226.089 75.3591C226.089 75.3591 230.379 92.1291 225.989 95.2591C214.109 103.719 210.309 120.309 210.309 120.309C210.309 120.309 241.649 143.809 324.999 119.139C324.999 119.139 325.999 109.139 310.849 101.909C306.442 99.9207 302.745 96.6387 300.249 92.4991C298.805 90.1918 297.893 87.5924 297.579 84.8891C296.139 76.6591 273.439 46.2491 241.339 68.2691Z" fill="#212121"/>
<path d="M242.569 93.4087C242.709 95.3825 242.26 97.3534 241.279 99.072C240.298 100.791 238.829 102.179 237.059 103.063C235.288 103.947 233.296 104.285 231.333 104.035C229.37 103.786 227.525 102.96 226.032 101.661C224.539 100.363 223.464 98.6505 222.945 96.7412C222.425 94.8319 222.484 92.8114 223.113 90.9354C223.742 89.0593 224.914 87.4122 226.479 86.2023C228.045 84.9924 229.935 84.2743 231.909 84.1387C234.551 83.9573 237.157 84.8315 239.156 86.5694C241.154 88.3072 242.382 90.7669 242.569 93.4087Z" fill="#DB5749"/>
<path d="M247.078 117.879L248.458 139.599C248.928 147.229 252.048 152.429 259.558 151.909C265.968 151.459 273.558 146.329 273.938 139.909L270.118 105.809L247.078 117.879Z" fill="#F26E5A"/>
<path d="M242.589 140.929L281.999 139.559C281.999 139.559 281.049 158.949 257.599 157.129C241.339 155.869 242.589 140.929 242.589 140.929Z" fill="#F26E5A"/>
<path d="M248.221 135.769L273.431 111.119L246.891 115.649L248.221 135.769Z" fill="#DB5749"/>
<path d="M253.688 121.39C240.858 121.39 230.258 111.32 229.868 100.84L229.118 76.1002C228.887 69.7806 231.122 63.6188 235.35 58.9165C239.579 54.2142 245.469 51.3397 251.778 50.9002C265.198 49.9702 279.188 59.9002 280.128 73.3602L280.518 93.2602C280.818 108.65 269.048 120.32 253.688 121.39Z" fill="#F26E5A"/>
<path d="M243.33 92.1289L242.59 98.2689L245.76 98.3889" stroke="black" stroke-width="1.24" stroke-linecap="round" stroke-linejoin="round"/>
<path d="M256 77.1396C256 77.1396 248.91 76.5596 248.84 79.4396C248.84 79.4396 248.84 81.4396 255.03 81.7796C261.22 82.1196 262.83 81.7196 263.4 79.8796C263.97 78.0396 259.34 77.1596 256 77.1396Z" fill="black"/>
<path d="M235.46 81.3488C235.46 81.3488 240.83 80.9188 241.33 83.5188C241.33 83.5188 241.63 85.2688 236.93 85.5188C232.23 85.7688 230.77 85.2088 230.68 83.7188C230.57 81.9688 232.9 81.3288 235.46 81.3488Z" fill="black"/>
<path d="M238.57 89.8085C238.584 90.2572 238.464 90.6998 238.226 91.0805C237.988 91.4611 237.643 91.7627 237.234 91.9471C236.824 92.1315 236.37 92.1904 235.927 92.1163C235.484 92.0423 235.073 91.8387 234.746 91.5313C234.419 91.2238 234.191 90.8263 234.09 90.3889C233.988 89.9516 234.019 89.4941 234.178 89.0743C234.337 88.6545 234.617 88.2911 234.982 88.0302C235.347 87.7693 235.782 87.6226 236.23 87.6085C236.528 87.5992 236.825 87.6487 237.104 87.7542C237.383 87.8598 237.639 88.0193 237.856 88.2236C238.073 88.4279 238.248 88.673 238.371 88.945C238.493 89.2169 238.561 89.5104 238.57 89.8085Z" fill="black"/>
<path d="M257.628 89.1599C257.644 89.6089 257.526 90.0524 257.289 90.4344C257.053 90.8163 256.708 91.1194 256.299 91.3053C255.89 91.4912 255.435 91.5516 254.992 91.4787C254.549 91.4059 254.137 91.2031 253.809 90.8961C253.481 90.5891 253.251 90.1917 253.149 89.7541C253.047 89.3166 253.077 88.8586 253.236 88.4382C253.394 88.0178 253.674 87.6538 254.039 87.3924C254.405 87.1311 254.839 86.984 255.288 86.9699C255.889 86.951 256.472 87.1709 256.911 87.5814C257.35 87.9919 257.608 88.5595 257.628 89.1599Z" fill="black"/>
<path d="M250.998 102.66C250.998 102.66 247.648 101.13 243.598 104.66" stroke="black" stroke-width="1.24" stroke-linecap="round" stroke-linejoin="round"/>
<path d="M259.72 46.6497C256.514 46.4809 253.301 46.8184 250.2 47.6497C242.51 49.6497 228.7 55.3897 226.34 70.1497C225.55 74.0497 226.09 75.3497 226.09 75.3497C226.09 75.3497 251.88 76.3497 267.09 69.1697C269.29 78.4497 271.31 84.1697 280.49 93.2497L288.64 80.9997L297.81 89.2297C297.9 89.5497 297.88 48.6797 259.72 46.6497Z" fill="#212121"/>
<path d="M293.901 93.5083C294.041 95.4821 293.592 97.453 292.611 99.1716C291.63 100.89 290.161 102.279 288.391 103.163C286.62 104.046 284.628 104.385 282.665 104.135C280.702 103.885 278.857 103.059 277.364 101.761C275.871 100.462 274.796 98.7501 274.277 96.8408C273.757 94.9315 273.816 92.911 274.445 91.035C275.074 89.1589 276.246 87.5118 277.811 86.3019C279.377 85.092 281.267 84.3739 283.241 84.2384C285.883 84.0569 288.489 84.9311 290.488 86.669C292.486 88.4068 293.714 90.8665 293.901 93.5083Z" fill="#F26E5A"/>
<path d="M280.121 97.0599C280.121 97.0599 279.621 89.8299 286.601 90.4899" stroke="black" stroke-width="1.24" stroke-linecap="round" stroke-linejoin="round"/>
</svg>
