<svg xmlns="http://www.w3.org/2000/svg" viewBox="0 0 1747 1319">
    <g fill="none" fill-rule="evenodd" transform="translate(2 .427)">
        <g fill="#FFF" stroke="#373737" transform="translate(0 466.573)">
            <ellipse cx="871.5" cy="424.5" stroke-width="3.65" rx="871.5" ry="424.5"/>
            <ellipse cx="606.5" cy="74.5" stroke-width="1.825" rx="29.5" ry="14.5"/>
            <ellipse cx="1230.5" cy="128.5" stroke-width="1.825" rx="29.5" ry="14.5"/>
            <ellipse cx="923" cy="186" stroke-width="1.825" rx="51" ry="25"/>
            <ellipse cx="346.5" cy="196" stroke-width="1.369" rx="13.5" ry="6"/>
            <ellipse cx="1424" cy="260" stroke-width="1.825" rx="51" ry="25"/>
        </g>
        <circle cx="276.65" cy="191.434" r="1.825" fill="#373737"/>
        <circle cx="515.701" cy="158.588" r="1.825" fill="#373737"/>
        <circle cx="786.942" cy="124.135" r="1.825" fill="#373737"/>
        <circle cx="513.876" cy="255.303" r="1.825" fill="#373737"/>
        <circle cx="552.197" cy="326.471" r="1.825" fill="#373737"/>
        <circle cx="692.555" cy="408.442" r="1.825" fill="#373737"/>
        <circle cx="426.046" cy="337.588" r="1.825" fill="#373737"/>
        <circle cx="408.825" cy="69.398" r="1.825" fill="#373737"/>
        <circle cx="426.046" cy="337.588" r="1.825" fill="#373737"/>
        <circle cx="320.445" cy="379.391" r="1.825" fill="#373737"/>
        <circle cx="1527.137" cy="177.301" r="1.825" fill="#373737" transform="rotate(135 1527.137 177.301)"/>
        <circle cx="1381.329" cy="369.562" r="1.825" fill="#373737" transform="rotate(135 1381.329 369.562)"/>
        <circle cx="1314.231" cy="299.883" r="1.825" fill="#373737" transform="rotate(135 1314.231 299.883)"/>
        <circle cx="1236.811" cy="276.657" r="1.825" fill="#373737" transform="rotate(135 1236.81 276.657)"/>
        <circle cx="1519.968" cy="357.056" r="1.825" fill="#373737" transform="rotate(135 1519.968 357.056)"/>
        <circle cx="1318.152" cy="179.594" r="1.825" fill="#373737" transform="rotate(135 1318.152 179.594)"/>
        <circle cx="1363.264" cy="75.364" r="1.825" fill="#373737" transform="rotate(135 1363.264 75.364)"/>
        <path fill="#373737" fill-rule="nonzero" d="M221.649 10L221.649 5.793 225.776 5.793 225.776 4.187 221.649 4.187 221.649 0 219.902 0 219.902 4.187 215.776 4.187 215.776 5.793 219.902 5.793 219.902 10zM1070.998 423L1070.998 417.11 1076.776 417.11 1076.776 414.862 1070.998 414.862 1070.998 409 1068.553 409 1068.553 414.862 1062.776 414.862 1062.776 417.11 1068.553 417.11 1068.553 423zM1196.998 102L1196.998 95.268 1202.776 95.268 1202.776 92.699 1196.998 92.699 1196.998 86 1194.553 86 1194.553 92.699 1188.776 92.699 1188.776 95.268 1194.553 95.268 1194.553 102zM334.268 348.547L334.268 340.974 340.87 340.974 340.87 338.084 334.268 338.084 334.268 330.547 331.473 330.547 331.473 338.084 324.87 338.084 324.87 340.974 331.473 340.974 331.473 348.547z"/>
        <circle cx="1417.124" cy="185.697" r="9.124" fill="#FFF" stroke="#373737" stroke-width="1.825"/>
        <circle cx="1533.124" cy="507.697" r="9.124" fill="#FFF" stroke="#373737" stroke-width="1.825"/>
        <circle cx="1279.124" cy="364.697" r="9.124" fill="#FFF" stroke="#373737" stroke-width="1.825"/>
        <circle cx="1093.124" cy="5.697" r="4" fill="#FFF" stroke="#373737" stroke-width="1.825"/>
        <circle cx="512.051" cy="111.142" r="7.299" fill="#FFF" stroke="#373737" stroke-width="1.825"/>
        <circle cx="700.299" cy="94.208" r="7.299" fill="#FFF" stroke="#373737" stroke-width="1.825"/>
        <circle cx="255.299" cy="21.872" r="7.299" fill="#FFF" stroke="#373737" stroke-width="1.825"/>
        <circle cx="211.299" cy="447.872" r="7.299" fill="#FFF" stroke="#373737" stroke-width="1.825"/>
        <circle cx="292.299" cy="181.872" r="7.299" fill="#FFF" stroke="#373737" stroke-width="1.825"/>
    </g>
</svg>
