<svg xmlns="http://www.w3.org/2000/svg" xmlns:xlink="http://www.w3.org/1999/xlink" viewBox="0 0 578 493">
    <defs>
        <circle id="c6gyosq0da" cx="74.28" cy="73.905" r="73.905"/>
    </defs>
    <g fill="none" fill-rule="evenodd" transform="translate(0 2)">
        <circle cx="167.429" cy="274.672" r="1.825" fill="#373737"/>
        <circle cx="264.144" cy="214.453" r="1.825" fill="#373737"/>
        <circle cx="406.48" cy="241.825" r="1.825" fill="#373737"/>
        <circle cx="497.721" cy="267.372" r="1.825" fill="#373737"/>
        <circle cx="404.655" cy="338.54" r="1.825" fill="#373737"/>
        <circle cx="442.976" cy="409.708" r="1.825" fill="#373737"/>
        <circle cx="366.334" cy="451.679" r="1.825" fill="#373737"/>
        <circle cx="316.825" cy="420.825" r="1.825" fill="#373737"/>
        <circle cx="211.225" cy="462.628" r="1.825" fill="#373737"/>
        <path fill="#373737" fill-rule="nonzero" d="M187.852 229.704L187.852 226.339 191.153 226.339 191.153 225.054 187.852 225.054 187.852 221.704 186.455 221.704 186.455 225.054 183.153 225.054 183.153 226.339 186.455 226.339 186.455 229.704zM317.763 153.237L317.763 148.188 322.715 148.188 322.715 146.262 317.763 146.262 317.763 141.237 315.667 141.237 315.667 146.262 310.715 146.262 310.715 148.188 315.667 148.188 315.667 153.237zM473.048 243.653L473.048 237.763 478.825 237.763 478.825 235.515 473.048 235.515 473.048 229.653 470.602 229.653 470.602 235.515 464.825 235.515 464.825 237.763 470.602 237.763 470.602 243.653zM225.183 432.212L225.183 424.279 232.425 424.279 232.425 421.252 225.183 421.252 225.183 413.358 222.117 413.358 222.117 421.252 214.874 421.252 214.874 424.279 222.117 424.279 222.117 432.212z"/>
        <circle cx="222.173" cy="174.307" r="9.124" fill="#FFF" stroke="#373737" stroke-width="1.825"/>
        <circle cx="172.903" cy="407.883" r="9.124" fill="#FFF" stroke="#373737" stroke-width="1.825"/>
        <circle cx="289.692" cy="480.876" r="9.124" fill="#FFF" stroke="#373737" stroke-width="1.825"/>
        <circle cx="530.568" cy="236.35" r="6" fill="#FFF" stroke="#373737" stroke-width="1.825"/>
        <circle cx="402.83" cy="194.38" r="7.299" fill="#FFF" stroke="#373737" stroke-width="1.825"/>
        <circle cx="421.079" cy="287.445" r="7.299" fill="#FFF" stroke="#373737" stroke-width="1.825"/>
        <circle cx="388.232" cy="409.708" r="11" fill="#FFF" stroke="#373737" stroke-width="1.825"/>
        <circle cx="198.451" cy="312.993" r="7.299" fill="#FFF" stroke="#373737" stroke-width="1.825"/>
        <circle cx="324.299" cy="365.299" r="7.299" fill="#FFF" stroke="#373737" stroke-width="1.825"/>
        <g transform="translate(355.531)">
            <circle cx="118.075" cy="73.905" r="73.905" fill="#FFF" stroke="#373737" stroke-width="3.65"/>
            <g transform="translate(43.796)">
                <mask id="pa992gge5b" fill="#fff">
                    <use xlink:href="#c6gyosq0da"/>
                </mask>
                <use fill="#FFF" xlink:href="#c6gyosq0da"/>
                <path stroke="#A7A7A7" stroke-width="1.825" d="M-1.97 70.115c-30.523 2.913-44.34 6.001-41.451 9.265 4.433 5.008 15.937 11.86 113.506 11.86s105.121-6.978 106.52-10.562c.932-2.389-7.718-4.936-25.95-7.641" mask="url(#pa992gge5b)" opacity=".526"/>
            </g>
            <path stroke="#373737" stroke-width="1.825" d="M41.826 64.64C11.303 67.555-2.514 70.643.375 73.906 4.808 78.913 16.31 85.766 113.88 85.766c97.57 0 105.122-6.979 106.52-10.562.933-2.39-7.717-4.936-25.95-7.642"/>
            <circle cx="83.404" cy="46.533" r="11.861" fill="#FFF" stroke="#373737" stroke-width="1.825"/>
            <circle cx="142.71" cy="116.788" r="7.299" fill="#FFF" stroke="#373737" stroke-width="1.369"/>
        </g>
        <g fill="#373737" fill-rule="nonzero">
            <path d="M134.145 0v41.37c0 2.649-2.145 4.794-4.793 4.794s-4.793-2.145-4.793-4.793V9.586H92.774c-2.648 0-4.793-2.145-4.793-4.793S90.126 0 92.774 0h41.371zM47.949 107.169c0 10.123-7.236 18.557-16.82 20.414L0 134.39l6.674-30.844c1.717-9.757 10.232-17.173 20.482-17.173 11.486 0 20.796 9.31 20.793 20.796zM93.51 82.173c0 2.648-2.145 4.793-4.793 4.793H62.126c2.008 2.977 3.734 6.16 5.134 9.515.112.27.22.54.33.81.136.45.21.925.21 1.416 0 2.672-2.166 4.836-4.836 4.836-1.335 0-2.542-.54-3.418-1.415-.363-.36-.667-.78-.9-1.242-.093-.24-.192-.478-.292-.714-2.269-5.436-5.578-10.331-9.679-14.432-4.1-4.098-8.993-7.407-14.426-9.676-.003 0-.003-.003-.006-.003-.257-.08-.509-.183-.748-.304-.453-.233-.87-.534-1.226-.894-.875-.876-1.416-2.083-1.416-3.418s.54-2.542 1.416-3.418c.872-.875 2.083-1.415 3.418-1.415.5 0 .984.077 1.437.217.003 0 .006.003.01.003.257.08.505.18.741.301.103.04.205.084.308.127 3.225 1.363 6.289 3.03 9.16 4.961V45.605c0-2.648 2.145-4.793 4.793-4.793s4.793 2.145 4.793 4.793v31.788h31.785c2.648 0 4.793 2.145 4.796 4.78zM107.085 68.632c0 2.648-2.145 4.793-4.793 4.793-1.695 0-3.185-.881-4.035-2.21l-.04.019-.227-.49c-.04-.084-.078-.168-.115-.252l-3.589-7.826-3.927-8.568-3.927-8.568-3.927-8.567-3.926-8.568-3.583-7.817c-.043-.087-.084-.174-.12-.264l-.224-.484.043-.022c-.124-.428-.192-.878-.192-1.347 0-2.648 2.145-4.793 4.793-4.793 1.685 0 3.166.872 4.02 2.189l.046-.022 7.854 17.136 3.927 8.567 3.927 8.568 3.927 8.568 3.927 8.568-.04.018c.13.435.201.894.201 1.372z" transform="translate(229.473 214.453)"/>
        </g>
        <path stroke="#696969" stroke-width="1.825" d="M223.998 350.668c-46.068 27.57-95.213 42.383-147.433 44.441-23.617.931-48.93-1.003-75.943-5.803"/>
    </g>
</svg>
