<svg xmlns="http://www.w3.org/2000/svg" xmlns:xlink="http://www.w3.org/1999/xlink" width="815" height="2033.5" viewBox="0 0 815 2033.5"><defs><filter id="a" x="60.5" y="1865" width="63" height="63" filterUnits="userSpaceOnUse"><feOffset dy="2" input="SourceAlpha"/><feGaussianBlur stdDeviation="2" result="b"/><feFlood flood-opacity="0.078"/><feComposite operator="in" in2="b"/><feComposite in="SourceGraphic"/></filter><clipPath id="c"><path d="M25.541,29.975l-2.577-11.1,8.564-7.465L20.2,10.421,15.764,0,11.331,10.421,0,11.406l8.6,7.465-2.615,11.1,9.777-5.912Z" transform="translate(0 0)" fill="#ffd900"/></clipPath><filter id="d" x="450.5" y="1543" width="63" height="63" filterUnits="userSpaceOnUse"><feOffset dy="2" input="SourceAlpha"/><feGaussianBlur stdDeviation="2" result="e"/><feFlood flood-opacity="0.078"/><feComposite operator="in" in2="e"/><feComposite in="SourceGraphic"/></filter><filter id="g" x="60.5" y="771" width="63" height="63" filterUnits="userSpaceOnUse"><feOffset dy="2" input="SourceAlpha"/><feGaussianBlur stdDeviation="2" result="h"/><feFlood flood-opacity="0.078"/><feComposite operator="in" in2="h"/><feComposite in="SourceGraphic"/></filter><filter id="j" x="60.5" y="1093" width="63" height="63" filterUnits="userSpaceOnUse"><feOffset dy="2" input="SourceAlpha"/><feGaussianBlur stdDeviation="2" result="k"/><feFlood flood-opacity="0.078"/><feComposite operator="in" in2="k"/><feComposite in="SourceGraphic"/></filter><filter id="m" x="450.5" y="771" width="63" height="63" filterUnits="userSpaceOnUse"><feOffset dy="2" input="SourceAlpha"/><feGaussianBlur stdDeviation="2" result="n"/><feFlood flood-opacity="0.078"/><feComposite operator="in" in2="n"/><feComposite in="SourceGraphic"/></filter><filter id="p" x="60.5" y="322" width="63" height="63" filterUnits="userSpaceOnUse"><feOffset dy="2" input="SourceAlpha"/><feGaussianBlur stdDeviation="2" result="q"/><feFlood flood-opacity="0.078"/><feComposite operator="in" in2="q"/><feComposite in="SourceGraphic"/></filter><filter id="s" x="451.5" y="322" width="63" height="63" filterUnits="userSpaceOnUse"><feOffset dy="2" input="SourceAlpha"/><feGaussianBlur stdDeviation="2" result="t"/><feFlood flood-opacity="0.078"/><feComposite operator="in" in2="t"/><feComposite in="SourceGraphic"/></filter><filter id="v" x="450.5" y="0" width="63" height="63" filterUnits="userSpaceOnUse"><feOffset dy="2" input="SourceAlpha"/><feGaussianBlur stdDeviation="2" result="w"/><feFlood flood-opacity="0.078"/><feComposite operator="in" in2="w"/><feComposite in="SourceGraphic"/></filter><filter id="y" x="60.5" y="0" width="63" height="63" filterUnits="userSpaceOnUse"><feOffset dy="2" input="SourceAlpha"/><feGaussianBlur stdDeviation="2" result="z"/><feFlood flood-opacity="0.078"/><feComposite operator="in" in2="z"/><feComposite in="SourceGraphic"/></filter><filter id="ab" x="60.5" y="1543" width="63" height="63" filterUnits="userSpaceOnUse"><feOffset dy="2" input="SourceAlpha"/><feGaussianBlur stdDeviation="2" result="ac"/><feFlood flood-opacity="0.078"/><feComposite operator="in" in2="ac"/><feComposite in="SourceGraphic"/></filter></defs><g transform="translate(18377 -6688.5)"><path d="M87.28,0H803a8,8,0,0,1,8,8V314.535a8,8,0,0,1-7.976,8L7.976,324.924a8,8,0,0,0-7.976,8V765.963a8,8,0,0,0,8,8H802.54a8,8,0,0,1,8,7.988l.448,303.561a8,8,0,0,1-8,8.012L8,1093.537a8,8,0,0,0-8,8v436.428a8,8,0,0,0,8.024,8l794.492-2.4a8,8,0,0,1,8.024,7.988l.448,308.409a8,8,0,0,1-8.027,8.012l-718.04-2.423" transform="translate(-18375 6717)" fill="none" stroke="#e4e4e4" stroke-linecap="square" stroke-miterlimit="10" stroke-width="4"/><g transform="translate(-18311 8558)"><g transform="translate(1)"><g transform="matrix(1, 0, 0, 1, -67, -1869.5)" filter="url(#a)"><circle cx="25" cy="25" r="25" transform="translate(67 1869.5)" fill="#fff" stroke="#e4e4e4" stroke-miterlimit="10" stroke-width="1"/></g><g transform="translate(9 10)"><path d="M25.541,29.975l-2.577-11.1,8.564-7.465L20.2,10.421,15.764,0,11.331,10.421,0,11.406l8.6,7.465-2.615,11.1,9.777-5.912Z" fill="#ffd900"/><path d="M25.541,29.975l-2.577-11.1,8.564-7.465L20.2,10.421,15.764,0,11.331,10.421,0,11.406l8.6,7.465-2.615,11.1,9.777-5.912Z" transform="translate(0 0)" fill="#ffd900"/><g clip-path="url(#c)"><path d="M3.189,23.329s17.444-9.8,18.546-19.368S30.5,7.929,30.5,7.929l-8.77,8.656,2.5,12.437-11.8-5.694L0,29.022Z" transform="translate(3.323 2.926)" fill="#fc0"/></g><path d="M0,8.05l8.516-.72L11.613,0" transform="translate(3.323 3.711)" fill="none" stroke="rgba(255,255,255,0.57)" stroke-miterlimit="10" stroke-width="0.5"/></g></g><text transform="translate(0 66)" font-size="21" font-family="OpenSans-Bold, Open Sans" font-weight="700"><tspan x="0" y="22">Capstone Project</tspan></text><text transform="translate(0 104)" font-size="21" font-family="OpenSans-Regular, Open Sans"><tspan x="0" y="22">Unlock Microdegree in </tspan><tspan x="0" y="52" font-family="OpenSans-Bold, Open Sans" font-weight="700">Coding</tspan></text></g><g transform="translate(-17921 8236)"><g transform="translate(1)"><g transform="matrix(1, 0, 0, 1, -457, -1547.5)" filter="url(#d)"><circle cx="25" cy="25" r="25" transform="translate(457 1547.5)" fill="#fff" stroke="#e4e4e4" stroke-miterlimit="10" stroke-width="1"/></g><g transform="translate(9 10)"><path d="M25.541,29.975l-2.577-11.1,8.564-7.465L20.2,10.421,15.764,0,11.331,10.421,0,11.406l8.6,7.465-2.615,11.1,9.777-5.912Z" fill="#ffd900"/><path d="M25.541,29.975l-2.577-11.1,8.564-7.465L20.2,10.421,15.764,0,11.331,10.421,0,11.406l8.6,7.465-2.615,11.1,9.777-5.912Z" transform="translate(0 0)" fill="#ffd900"/><g clip-path="url(#c)"><path d="M3.189,23.329s17.444-9.8,18.546-19.368S30.5,7.929,30.5,7.929l-8.77,8.656,2.5,12.437-11.8-5.694L0,29.022Z" transform="translate(3.323 2.926)" fill="#fc0"/></g><path d="M0,8.05l8.516-.72L11.613,0" transform="translate(3.323 3.711)" fill="none" stroke="rgba(255,255,255,0.57)" stroke-miterlimit="10" stroke-width="0.5"/></g></g><text transform="translate(0 66)" font-size="21" font-family="OpenSans-Bold, Open Sans" font-weight="700"><tspan x="0" y="22">Milestone 9</tspan></text><text transform="translate(0 104)" font-size="21" font-family="OpenSans-Regular, Open Sans"><tspan x="0" y="22">Unlock your certificate of </tspan><tspan x="0" y="52">completion in </tspan><tspan y="52" font-family="OpenSans-Bold, Open Sans" font-weight="700">NLP and </tspan><tspan x="0" y="82" font-family="OpenSans-Bold, Open Sans" font-weight="700">conversation bots</tspan></text></g><g transform="translate(-18311 7464)"><g transform="translate(1)"><g transform="matrix(1, 0, 0, 1, -67, -775.5)" filter="url(#g)"><circle cx="25" cy="25" r="25" transform="translate(67 775.5)" fill="#fff" stroke="#e4e4e4" stroke-miterlimit="10" stroke-width="1"/></g><g transform="translate(9 10)"><path d="M25.541,29.975l-2.577-11.1,8.564-7.465L20.2,10.421,15.764,0,11.331,10.421,0,11.406l8.6,7.465-2.615,11.1,9.777-5.912Z" fill="#ffd900"/><path d="M25.541,29.975l-2.577-11.1,8.564-7.465L20.2,10.421,15.764,0,11.331,10.421,0,11.406l8.6,7.465-2.615,11.1,9.777-5.912Z" transform="translate(0 0)" fill="#ffd900"/><g clip-path="url(#c)"><path d="M3.189,23.329s17.444-9.8,18.546-19.368S30.5,7.929,30.5,7.929l-8.77,8.656,2.5,12.437-11.8-5.694L0,29.022Z" transform="translate(3.323 2.926)" fill="#fc0"/></g><path d="M0,8.05l8.516-.72L11.613,0" transform="translate(3.323 3.711)" fill="none" stroke="rgba(255,255,255,0.57)" stroke-miterlimit="10" stroke-width="0.5"/></g></g><text transform="translate(0 66)" font-size="21" font-family="OpenSans-Bold, Open Sans" font-weight="700"><tspan x="0" y="22">Milestone 5</tspan></text><text transform="translate(0 104)" font-size="21" font-family="OpenSans-Regular, Open Sans"><tspan x="0" y="22">Unlock your certificate of </tspan><tspan x="0" y="52">completion in</tspan><tspan font-family="OpenSans-Bold, Open Sans" font-weight="700"><tspan x="0" y="82">Python for everyday fun</tspan></tspan></text></g><g transform="translate(-18311 7786)"><g transform="translate(1)"><g transform="matrix(1, 0, 0, 1, -67, -1097.5)" filter="url(#j)"><circle cx="25" cy="25" r="25" transform="translate(67 1097.5)" fill="#fff" stroke="#e4e4e4" stroke-miterlimit="10" stroke-width="1"/></g><g transform="translate(9 10)"><path d="M25.541,29.975l-2.577-11.1,8.564-7.465L20.2,10.421,15.764,0,11.331,10.421,0,11.406l8.6,7.465-2.615,11.1,9.777-5.912Z" fill="#ffd900"/><path d="M25.541,29.975l-2.577-11.1,8.564-7.465L20.2,10.421,15.764,0,11.331,10.421,0,11.406l8.6,7.465-2.615,11.1,9.777-5.912Z" transform="translate(0 0)" fill="#ffd900"/><g clip-path="url(#c)"><path d="M3.189,23.329s17.444-9.8,18.546-19.368S30.5,7.929,30.5,7.929l-8.77,8.656,2.5,12.437-11.8-5.694L0,29.022Z" transform="translate(3.323 2.926)" fill="#fc0"/></g><path d="M0,8.05l8.516-.72L11.613,0" transform="translate(3.323 3.711)" fill="none" stroke="rgba(255,255,255,0.57)" stroke-miterlimit="10" stroke-width="0.5"/></g></g><text transform="translate(0 66)" font-size="21" font-family="OpenSans-Bold, Open Sans" font-weight="700"><tspan x="0" y="22">Milestone 7</tspan></text><text transform="translate(0 104)" font-size="21" font-family="OpenSans-Regular, Open Sans"><tspan x="0" y="22">Unlock your certificate of </tspan><tspan x="0" y="52">completion in </tspan><tspan y="52" font-family="OpenSans-Bold, Open Sans" font-weight="700">Python deep </tspan><tspan x="0" y="82" font-family="OpenSans-Bold, Open Sans" font-weight="700">dive</tspan></text></g><g transform="translate(-17921 7464)"><g transform="translate(1)"><g transform="matrix(1, 0, 0, 1, -457, -775.5)" filter="url(#m)"><circle cx="25" cy="25" r="25" transform="translate(457 775.5)" fill="#fff" stroke="#e4e4e4" stroke-miterlimit="10" stroke-width="1"/></g><g transform="translate(9 10)"><path d="M25.541,29.975l-2.577-11.1,8.564-7.465L20.2,10.421,15.764,0,11.331,10.421,0,11.406l8.6,7.465-2.615,11.1,9.777-5.912Z" fill="#ffd900"/><path d="M25.541,29.975l-2.577-11.1,8.564-7.465L20.2,10.421,15.764,0,11.331,10.421,0,11.406l8.6,7.465-2.615,11.1,9.777-5.912Z" transform="translate(0 0)" fill="#ffd900"/><g clip-path="url(#c)"><path d="M3.189,23.329s17.444-9.8,18.546-19.368S30.5,7.929,30.5,7.929l-8.77,8.656,2.5,12.437-11.8-5.694L0,29.022Z" transform="translate(3.323 2.926)" fill="#fc0"/></g><path d="M0,8.05l8.516-.72L11.613,0" transform="translate(3.323 3.711)" fill="none" stroke="rgba(255,255,255,0.57)" stroke-miterlimit="10" stroke-width="0.5"/></g></g><text transform="translate(0 66)" font-size="21" font-family="OpenSans-Bold, Open Sans" font-weight="700"><tspan x="0" y="22">Milestone 6</tspan></text><text transform="translate(0 104)" font-size="21" font-family="OpenSans-Regular, Open Sans"><tspan x="0" y="22">Unlock your certificate of </tspan><tspan x="0" y="52">completion in </tspan><tspan y="52" font-family="OpenSans-Bold, Open Sans" font-weight="700">Applications </tspan><tspan x="0" y="82" font-family="OpenSans-Bold, Open Sans" font-weight="700">of Python in the world of </tspan><tspan x="0" y="112" font-family="OpenSans-Bold, Open Sans" font-weight="700">data</tspan></text></g><g transform="translate(-18311 7015)"><g transform="translate(1)"><g transform="matrix(1, 0, 0, 1, -67, -326.5)" filter="url(#p)"><circle cx="25" cy="25" r="25" transform="translate(67 326.5)" fill="#fff" stroke="#e4e4e4" stroke-miterlimit="10" stroke-width="1"/></g><g transform="translate(9 10)"><path d="M25.541,29.975l-2.577-11.1,8.564-7.465L20.2,10.421,15.764,0,11.331,10.421,0,11.406l8.6,7.465-2.615,11.1,9.777-5.912Z" fill="#ffd900"/><path d="M25.541,29.975l-2.577-11.1,8.564-7.465L20.2,10.421,15.764,0,11.331,10.421,0,11.406l8.6,7.465-2.615,11.1,9.777-5.912Z" transform="translate(0 0)" fill="#ffd900"/><g clip-path="url(#c)"><path d="M3.189,23.329s17.444-9.8,18.546-19.368S30.5,7.929,30.5,7.929l-8.77,8.656,2.5,12.437-11.8-5.694L0,29.022Z" transform="translate(3.323 2.926)" fill="#fc0"/></g><path d="M0,8.05l8.516-.72L11.613,0" transform="translate(3.323 3.711)" fill="none" stroke="rgba(255,255,255,0.57)" stroke-miterlimit="10" stroke-width="0.5"/></g></g><text transform="translate(0 66)" font-size="21" font-family="OpenSans-Bold, Open Sans" font-weight="700"><tspan x="0" y="22">Milestone 4</tspan></text><text transform="translate(0 104)" font-size="21" font-family="OpenSans-Regular, Open Sans"><tspan x="0" y="22">Unlock your certificate of </tspan><tspan x="0" y="52">completion in </tspan><tspan y="52" font-family="OpenSans-Bold, Open Sans" font-weight="700">Full stack web </tspan><tspan x="0" y="82" font-family="OpenSans-Bold, Open Sans" font-weight="700">and mobile app </tspan><tspan x="0" y="112" font-family="OpenSans-Bold, Open Sans" font-weight="700">development</tspan></text></g><g transform="translate(-17920 7015)"><g transform="translate(1)"><g transform="matrix(1, 0, 0, 1, -458, -326.5)" filter="url(#s)"><circle cx="25" cy="25" r="25" transform="translate(458 326.5)" fill="#fff" stroke="#e4e4e4" stroke-miterlimit="10" stroke-width="1"/></g><g transform="translate(9 10)"><path d="M25.541,29.975l-2.577-11.1,8.564-7.465L20.2,10.421,15.764,0,11.331,10.421,0,11.406l8.6,7.465-2.615,11.1,9.777-5.912Z" fill="#ffd900"/><path d="M25.541,29.975l-2.577-11.1,8.564-7.465L20.2,10.421,15.764,0,11.331,10.421,0,11.406l8.6,7.465-2.615,11.1,9.777-5.912Z" transform="translate(0 0)" fill="#ffd900"/><g clip-path="url(#c)"><path d="M3.189,23.329s17.444-9.8,18.546-19.368S30.5,7.929,30.5,7.929l-8.77,8.656,2.5,12.437-11.8-5.694L0,29.022Z" transform="translate(3.323 2.926)" fill="#fc0"/></g><path d="M0,8.05l8.516-.72L11.613,0" transform="translate(3.323 3.711)" fill="none" stroke="rgba(255,255,255,0.57)" stroke-miterlimit="10" stroke-width="0.5"/></g></g><text transform="translate(0 66)" font-size="21" font-family="OpenSans-Bold, Open Sans" font-weight="700"><tspan x="0" y="22">Milestone 3</tspan></text><text transform="translate(0 104)" font-size="21" font-family="OpenSans-Regular, Open Sans"><tspan x="0" y="22">Unlock your certificate of </tspan><tspan x="0" y="52">completion in </tspan><tspan y="52" font-family="OpenSans-Bold, Open Sans" font-weight="700">Web </tspan><tspan x="0" y="82" font-family="OpenSans-Bold, Open Sans" font-weight="700">development deep dive</tspan></text></g><g transform="translate(-17921 6693)"><g transform="translate(1)"><g transform="matrix(1, 0, 0, 1, -457, -4.5)" filter="url(#v)"><circle cx="25" cy="25" r="25" transform="translate(457 4.5)" fill="#fff" stroke="#e4e4e4" stroke-miterlimit="10" stroke-width="1"/></g><g transform="translate(9 10)"><path d="M25.541,29.975l-2.577-11.1,8.564-7.465L20.2,10.421,15.764,0,11.331,10.421,0,11.406l8.6,7.465-2.615,11.1,9.777-5.912Z" fill="#ffd900"/><path d="M25.541,29.975l-2.577-11.1,8.564-7.465L20.2,10.421,15.764,0,11.331,10.421,0,11.406l8.6,7.465-2.615,11.1,9.777-5.912Z" transform="translate(0 0)" fill="#ffd900"/><g clip-path="url(#c)"><path d="M3.189,23.329s17.444-9.8,18.546-19.368S30.5,7.929,30.5,7.929l-8.77,8.656,2.5,12.437-11.8-5.694L0,29.022Z" transform="translate(3.323 2.926)" fill="#fc0"/></g><path d="M0,8.05l8.516-.72L11.613,0" transform="translate(3.323 3.711)" fill="none" stroke="rgba(255,255,255,0.57)" stroke-miterlimit="10" stroke-width="0.5"/></g></g><text transform="translate(0 66)" font-size="21" font-family="OpenSans-Bold, Open Sans" font-weight="700"><tspan x="0" y="22">Milestone 2</tspan></text><text transform="translate(0 104)" font-size="21" font-family="OpenSans-Regular, Open Sans"><tspan x="0" y="22">Unlock your certificate of </tspan><tspan x="0" y="52">completion in </tspan><tspan y="52" font-family="OpenSans-Bold, Open Sans" font-weight="700">Introduction </tspan><tspan x="0" y="82" font-family="OpenSans-Bold, Open Sans" font-weight="700">to web development</tspan></text></g><g transform="translate(-18311 6693)"><g transform="translate(1)"><g transform="matrix(1, 0, 0, 1, -67, -4.5)" filter="url(#y)"><circle cx="25" cy="25" r="25" transform="translate(67 4.5)" fill="#fff" stroke="#e4e4e4" stroke-miterlimit="10" stroke-width="1"/></g><g transform="translate(9 10)"><path d="M25.541,29.975l-2.577-11.1,8.564-7.465L20.2,10.421,15.764,0,11.331,10.421,0,11.406l8.6,7.465-2.615,11.1,9.777-5.912Z" fill="#ffd900"/><path d="M25.541,29.975l-2.577-11.1,8.564-7.465L20.2,10.421,15.764,0,11.331,10.421,0,11.406l8.6,7.465-2.615,11.1,9.777-5.912Z" transform="translate(0 0)" fill="#ffd900"/><g clip-path="url(#c)"><path d="M3.189,23.329s17.444-9.8,18.546-19.368S30.5,7.929,30.5,7.929l-8.77,8.656,2.5,12.437-11.8-5.694L0,29.022Z" transform="translate(3.323 2.926)" fill="#fc0"/></g><path d="M0,8.05l8.516-.72L11.613,0" transform="translate(3.323 3.711)" fill="none" stroke="rgba(255,255,255,0.57)" stroke-miterlimit="10" stroke-width="0.5"/></g></g><text transform="translate(0 66)" font-size="21" font-family="OpenSans-Bold, Open Sans" font-weight="700"><tspan x="0" y="22">Milestone 1</tspan></text><text transform="translate(0 104)" font-size="21" font-family="OpenSans-Regular, Open Sans"><tspan x="0" y="22">Unlock your certificate of </tspan><tspan x="0" y="52">completion in </tspan><tspan y="52" font-family="OpenSans-Bold, Open Sans" font-weight="700">Introduction </tspan><tspan x="0" y="82" font-family="OpenSans-Bold, Open Sans" font-weight="700">to coding</tspan></text></g><g transform="translate(-18311 8236)"><g transform="translate(1)"><g transform="matrix(1, 0, 0, 1, -67, -1547.5)" filter="url(#ab)"><circle cx="25" cy="25" r="25" transform="translate(67 1547.5)" fill="#fff" stroke="#e4e4e4" stroke-miterlimit="10" stroke-width="1"/></g><g transform="translate(9 10)"><path d="M25.541,29.975l-2.577-11.1,8.564-7.465L20.2,10.421,15.764,0,11.331,10.421,0,11.406l8.6,7.465-2.615,11.1,9.777-5.912Z" fill="#ffd900"/><path d="M25.541,29.975l-2.577-11.1,8.564-7.465L20.2,10.421,15.764,0,11.331,10.421,0,11.406l8.6,7.465-2.615,11.1,9.777-5.912Z" transform="translate(0 0)" fill="#ffd900"/><g clip-path="url(#c)"><path d="M3.189,23.329s17.444-9.8,18.546-19.368S30.5,7.929,30.5,7.929l-8.77,8.656,2.5,12.437-11.8-5.694L0,29.022Z" transform="translate(3.323 2.926)" fill="#fc0"/></g><path d="M0,8.05l8.516-.72L11.613,0" transform="translate(3.323 3.711)" fill="none" stroke="rgba(255,255,255,0.57)" stroke-miterlimit="10" stroke-width="0.5"/></g></g><text transform="translate(0 66)" font-size="21" font-family="OpenSans-Bold, Open Sans" font-weight="700"><tspan x="0" y="22">Milestone 8</tspan></text><text transform="translate(0 104)" font-size="21" font-family="OpenSans-Regular, Open Sans"><tspan x="0" y="22">Unlock your certificate of </tspan><tspan x="0" y="52">completion in</tspan><tspan font-family="OpenSans-Bold, Open Sans" font-weight="700"><tspan x="0" y="82">Introduction to AI and ML</tspan></tspan></text></g></g></svg>