<svg xmlns="http://www.w3.org/2000/svg" width="24" height="24" viewBox="0 0 24 24">
    <path fill="#7FCB22" d="M12 24c1.656 0 3.215-.313 4.676-.938 1.46-.625 2.734-1.48 3.82-2.566 1.086-1.086 1.942-2.36 2.567-3.82.625-1.461.937-3.02.937-4.676 0-1.656-.313-3.215-.938-4.676-.625-1.46-1.48-2.734-2.566-3.82-1.086-1.086-2.36-1.942-3.82-2.567C15.215.313 13.656 0 12 0c-1.656 0-3.215.313-4.676.938-1.46.625-2.734 1.48-3.82 2.566C2.418 4.59 1.562 5.864.937 7.324.313 8.785 0 10.344 0 12c0 1.656.313 3.215.938 4.676.625 1.46 1.48 2.734 2.566 3.82 1.086 1.086 2.36 1.942 3.82 2.567 1.461.625 3.02.937 4.676.937zm0-1.477c-1.453 0-2.816-.277-4.09-.832-1.273-.554-2.383-1.308-3.328-2.261-.945-.953-1.695-2.067-2.25-3.34C1.777 14.816 1.5 13.453 1.5 12c0-1.453.277-2.816.832-4.09.555-1.273 1.305-2.383 2.25-3.328.945-.945 2.055-1.695 3.328-2.25C9.184 1.777 10.547 1.5 12 1.5c1.453 0 2.816.277 4.09.832 1.273.555 2.383 1.305 3.328 2.25.945.945 1.695 2.055 2.25 3.328.555 1.274.832 2.637.832 4.09 0 1.453-.277 2.816-.832 4.09-.555 1.273-1.305 2.387-2.25 3.34-.945.953-2.055 1.707-3.328 2.261-1.274.555-2.637.832-4.09.832zm-2.238-6c.21 0 .386-.078.527-.234l.024-.023.07-.07 7.476-7.524c.141-.14.211-.317.211-.527 0-.211-.07-.387-.21-.528-.157-.156-.337-.234-.54-.234s-.383.078-.539.234L9.75 14.695l-3.164-3.164c-.156-.156-.336-.234-.54-.234-.202 0-.382.078-.538.234-.14.14-.211.317-.211.528 0 .21.07.386.21.527l3.727 3.703c.141.156.317.234.528.234z"/>
</svg>
