<svg xmlns="http://www.w3.org/2000/svg" width="16" height="16" viewBox="0 0 16 16">
    <path fill="#000" fill-rule="nonzero" d="M8 16a7.859 7.859 0 0 0 4.016-1.07 7.9 7.9 0 0 0 2.914-2.914A7.859 7.859 0 0 0 16 8a7.859 7.859 0 0 0-1.07-4.016 7.841 7.841 0 0 0-2.914-2.906A7.815 7.815 0 0 0 8 0a7.859 7.859 0 0 0-4.016 1.07A7.9 7.9 0 0 0 1.07 3.984 7.859 7.859 0 0 0 0 8c0 1.448.357 2.786 1.07 4.016a7.9 7.9 0 0 0 2.914 2.914A7.859 7.859 0 0 0 8 16zm0-1.125a6.833 6.833 0 0 1-2.672-.531 6.955 6.955 0 0 1-2.187-1.485 6.74 6.74 0 0 1-1.47-2.187A6.665 6.665 0 0 1 1.126 8c0-.938.177-1.828.531-2.672a6.955 6.955 0 0 1 1.485-2.187 6.74 6.74 0 0 1 2.187-1.47A6.665 6.665 0 0 1 8 1.126c.938 0 1.828.177 2.672.531a6.955 6.955 0 0 1 2.187 1.485 6.74 6.74 0 0 1 1.47 2.187c.364.844.546 1.734.546 2.672 0 .938-.177 1.828-.531 2.672a6.955 6.955 0 0 1-1.485 2.187 6.74 6.74 0 0 1-2.187 1.47A6.665 6.665 0 0 1 8 14.874zM11.453 9c.156 0 .29-.055.399-.164a.542.542 0 0 0 .164-.399.542.542 0 0 0-.164-.398.542.542 0 0 0-.399-.164h-2.89v-3.75a.542.542 0 0 0-.165-.398A.542.542 0 0 0 8 3.563a.542.542 0 0 0-.398.164.542.542 0 0 0-.165.398v3.75c0 .313.11.578.329.797.218.219.484.328.796.328h2.891z"/>
</svg>
