<svg xmlns="http://www.w3.org/2000/svg" width="12" height="15" viewBox="0 0 12 15">
    <g fill="none" fill-rule="evenodd">
        <g fill="#FFF" fill-rule="nonzero">
            <path d="M180.72 177.889c.238 0 .445-.082.623-.246.178-.164.275-.365.294-.602l1.025-10.117h.602c.118 0 .22-.043.307-.13.087-.087.13-.19.13-.308s-.043-.22-.13-.307c-.086-.087-.189-.13-.307-.13h-3.077v-1.19c0-.282-.1-.52-.3-.71-.2-.192-.438-.288-.711-.288h-2.352c-.273 0-.51.096-.71.287-.201.192-.302.429-.302.711v1.19h-3.076c-.118 0-.22.043-.307.13-.087.086-.13.189-.13.307 0 .119.043.221.13.308.086.087.189.13.307.13h.602l1.012 10.117c.027.237.13.438.307.602.178.164.385.246.622.246h5.442zm-1.407-11.84h-2.625v-1.19c0-.036.013-.068.04-.095.028-.028.06-.041.096-.041h2.352c.036 0 .068.013.095.04.028.028.042.06.042.096v1.19zm1.408 10.965h-5.442c-.009 0-.02-.007-.034-.02-.014-.015-.02-.026-.02-.035l-.998-10.035h7.546l-.998 10.035c0 .018-.006.032-.02.041-.014.01-.025.014-.034.014z" transform="translate(-172 -163)"/>
        </g>
    </g>
</svg>
