<?xml version="1.0" encoding="UTF-8"?>
<svg width="52px" height="52px" viewBox="0 0 52 52" version="1.1" xmlns="http://www.w3.org/2000/svg" xmlns:xlink="http://www.w3.org/1999/xlink">
    <title>facebook</title>
    <g id="Alpha-V-1.0" stroke="none" stroke-width="1" fill="none" fill-rule="evenodd">
        <g id="Home" transform="translate(-129.000000, -7898.000000)">
            <g id="facebook" transform="translate(130.000000, 7899.000000)">
                <circle id="Oval" stroke="#000000" cx="25" cy="25" r="25"></circle>
                <path d="M26.9349579,35.57 L26.9349579,26.1874099 L30.0748498,26.1874099 L30.5569591,22.5283233 L26.9349579,22.5283233 L26.9349579,20.1919471 C26.9349579,19.5985817 27.0585757,19.1535577 27.3058113,18.856875 C27.5530469,18.5601923 28.0310357,18.411851 28.7397776,18.411851 L28.7397776,18.411851 L30.6805769,18.411851 L30.6805769,15.1483413 C30.0130409,15.0494471 29.0735457,15 27.8620913,15 C26.4363662,15 25.2949619,15.4223608 24.4378786,16.2670823 C23.5807953,17.1118039 23.1522536,18.300595 23.1522536,19.8334555 L23.1522536,19.8334555 L23.1522536,22.5283233 L20,22.5283233 L20,26.1874099 L23.1522536,26.1874099 L23.1522536,35.57 L26.9349579,35.57 Z" id="" fill="#000000" fill-rule="nonzero"></path>
            </g>
        </g>
    </g>
</svg>