<svg width="23" height="23" viewBox="0 0 23 23" fill="none" xmlns="http://www.w3.org/2000/svg">
<path fill-rule="evenodd" clip-rule="evenodd" d="M22.05 11.5056C22.05 10.7079 21.9784 9.94083 21.8455 9.20447H11.25V13.5562H17.3045C17.0438 14.9624 16.2511 16.1539 15.0597 16.9516V19.7744H18.6955C20.8227 17.8158 22.05 14.9317 22.05 11.5056Z" fill="#4285F4"/>
<path fill-rule="evenodd" clip-rule="evenodd" d="M11.2497 22.5C14.2872 22.5 16.8338 21.4926 18.6952 19.7744L15.0594 16.9517C14.052 17.6267 12.7633 18.0255 11.2497 18.0255C8.31958 18.0255 5.83947 16.0465 4.95481 13.3875H1.19629V16.3022C3.04743 19.9789 6.85197 22.5 11.2497 22.5Z" fill="#34A853"/>
<path fill-rule="evenodd" clip-rule="evenodd" d="M4.95511 13.3874C4.73011 12.7124 4.60227 11.9914 4.60227 11.2499C4.60227 10.5084 4.73011 9.7874 4.95511 9.1124V6.19763H1.19659C0.434659 7.71638 0 9.43456 0 11.2499C0 13.0652 0.434659 14.7834 1.19659 16.3022L4.95511 13.3874Z" fill="#FBBC05"/>
<path fill-rule="evenodd" clip-rule="evenodd" d="M11.2497 4.47443C12.9014 4.47443 14.3844 5.04205 15.5503 6.15682L18.777 2.93011C16.8287 1.11477 14.2821 0 11.2497 0C6.85197 0 3.04743 2.52102 1.19629 6.19773L4.95481 9.1125C5.83947 6.45341 8.31958 4.47443 11.2497 4.47443Z" fill="#EA4335"/>
</svg>
