<svg xmlns="http://www.w3.org/2000/svg" width="24" height="21" viewBox="0 0 24 21">
    <path d="M2.222 21c.13 0 .236-.041.32-.123.083-.082.125-.187.125-.314V3.253c.268-.154.483-.364.646-.628.162-.264.243-.556.243-.875 0-.483-.174-.896-.521-1.237C2.687.17 2.269 0 1.778 0 1.287 0 .868.17.52.513.174.854 0 1.267 0 1.75c0 .319.081.61.243.875.162.264.377.474.646.629v17.308c0 .128.042.233.125.315.083.082.19.123.32.123h.888zm2.222-5.25c.167 0 .32-.041.459-.123.88-.529 1.937-.994 3.173-1.395 1.236-.4 2.327-.601 3.271-.601.537 0 1.065.064 1.584.191.518.128.94.26 1.263.397.325.136.783.355 1.375.656l.39.191c.647.32 1.379.479 2.194.479 1.398 0 3.106-.529 5.125-1.586.065-.036.143-.077.236-.123.324-.164.486-.424.486-.78V2.626c0-.319-.144-.57-.43-.752-.288-.164-.575-.173-.862-.027l-.43.232C20.537 3.1 19.102 3.61 17.972 3.61c-.472 0-.884-.086-1.236-.26-1.037-.5-2.005-.893-2.903-1.175-.898-.283-1.865-.424-2.902-.424-.676 0-1.394.087-2.153.26-.76.173-1.466.399-2.118.677-.653.278-1.18.515-1.584.71-.402.196-.766.39-1.09.582-.287.182-.43.432-.43.751v10.145c0 .337.148.592.444.766.148.073.296.109.444.109zm.89-7.93V5.236c1.962-1.075 3.74-1.65 5.333-1.722v2.693c-1.565.064-3.343.602-5.334 1.613zM22.221 6.7c-2.185 1.202-3.963 1.612-5.333 1.23V5.25c.305.073.667.11 1.083.11 1.269 0 2.685-.415 4.25-1.245V6.7zm-5.517 4.233c-.121-.043-.24-.091-.358-.146-.99-.483-1.905-.857-2.743-1.121-.838-.264-1.729-.396-2.673-.396h-.264V6.234c.24-.027.467-.04.68-.04.204 0 .408.008.611.027.204.018.387.036.549.054.162.019.345.053.549.103.203.05.365.089.486.116.12.027.287.084.5.171.213.087.363.146.451.178.088.032.248.102.48.212.23.11.377.177.437.205.06.027.22.105.479.232.26.128.412.205.458.233.176.082.357.15.542.205v3.062l-.184-.06zM5.333 13.426v-2.53c1.88-.92 3.658-1.453 5.334-1.6v2.626c-1.658.127-3.436.629-5.334 1.504zm11.556-2.434c1.38.41 3.157.087 5.333-.97v2.515c-1.602.839-2.958 1.258-4.07 1.258-.453 0-.874-.078-1.263-.232v-2.57z"/>
</svg>
