<?xml version="1.0" encoding="UTF-8"?>
<svg width="52px" height="52px" viewBox="0 0 52 52" version="1.1" xmlns="http://www.w3.org/2000/svg" xmlns:xlink="http://www.w3.org/1999/xlink">
    <title>instagram</title>
    <g id="Alpha-V-1.0" stroke="none" stroke-width="1" fill="none" fill-rule="evenodd">
        <g id="Home" transform="translate(-63.000000, -7898.000000)">
            <g id="instagram" transform="translate(64.000000, 7899.000000)">
                <circle id="Oval" stroke="#000000" cx="25" cy="25" r="25"></circle>
                <path d="M25.6399994,35.714054 C27.4946707,35.7115824 28.7917542,35.6893382 29.53125,35.6473214 C31.3883929,35.5580357 32.8258929,35.0044643 33.84375,33.9866071 C34.8616071,32.96875 35.4151786,31.53125 35.5044643,29.6741071 C35.5491071,28.8883929 35.5714286,27.4732143 35.5714286,25.4285714 L35.5711969,25.0742863 C35.5687253,23.2196151 35.5464811,21.9225315 35.5044643,21.1830357 C35.4151786,19.3258929 34.8616071,17.8883929 33.84375,16.8705357 C32.8258929,15.8526786 31.3883929,15.2991071 29.53125,15.2098214 C28.7455357,15.1651786 27.3303571,15.1428571 25.2857143,15.1428571 C23.2410714,15.1428571 21.8258929,15.1651786 21.0401786,15.2098214 C19.1830357,15.2991071 17.7455357,15.8526786 16.7276786,16.8705357 C15.7098214,17.8883929 15.15625,19.3258929 15.0669643,21.1830357 C15.0275735,21.876313 15.005561,23.0596577 15.0009268,24.7330697 L15.0009268,26.1240732 C15.005561,27.7974852 15.0275735,28.9808298 15.0669643,29.6741071 C15.15625,31.53125 15.7098214,32.96875 16.7276786,33.9866071 C17.7455357,35.0044643 19.1830357,35.5580357 21.0401786,35.6473214 C21.8258929,35.6919643 23.2410714,35.7142857 25.2857143,35.7142857 L25.6399994,35.714054 Z M24.2611607,33.8727679 C23.640625,33.8772321 23.1696429,33.8772321 22.8482143,33.8727679 C22.5267857,33.8683036 22.0959821,33.8549107 21.5558036,33.8325893 C21.015625,33.8102679 20.5558036,33.765625 20.1763393,33.6986607 C19.796875,33.6316964 19.4776786,33.5491071 19.21875,33.4508929 C18.7723214,33.2723214 18.3794643,33.0133929 18.0401786,32.6741071 C17.7008929,32.3348214 17.4419643,31.9419643 17.2633929,31.4955357 C17.1651786,31.2366071 17.0825893,30.9174107 17.015625,30.5379464 C16.9486607,30.1584821 16.9040179,29.6986607 16.8816964,29.1584821 C16.859375,28.6183036 16.8459821,28.1875 16.8415179,27.8660714 C16.8402423,27.7742347 16.8393313,27.6701895 16.8387846,27.5539359 L16.8387846,26.9483874 C16.8393313,26.7955084 16.8402423,26.6304209 16.8415179,26.453125 C16.8441964,26.0808036 16.8460714,25.8089286 16.8471429,25.6375 L16.8479464,25.4995536 C16.848125,25.4647321 16.8482143,25.4410714 16.8482143,25.4285714 L16.8481473,25.4014509 C16.8481027,25.3896205 16.8480357,25.375 16.8479464,25.3575893 L16.8471429,25.2196429 C16.8460714,25.0482143 16.8441964,24.7763393 16.8415179,24.4040179 C16.8402423,24.2267219 16.8393313,24.0616345 16.8387846,23.9087555 L16.8387846,23.303207 C16.8393313,23.1869534 16.8402423,23.0829082 16.8415179,22.9910714 C16.8459821,22.6696429 16.859375,22.2388393 16.8816964,21.6986607 C16.9040179,21.1584821 16.9486607,20.6986607 17.015625,20.3191964 C17.0825893,19.9397321 17.1651786,19.6205357 17.2633929,19.3616071 C17.4419643,18.9151786 17.7008929,18.5223214 18.0401786,18.1830357 C18.3794643,17.84375 18.7723214,17.5848214 19.21875,17.40625 C19.4776786,17.3080357 19.796875,17.2254464 20.1763393,17.1584821 C20.5558036,17.0915179 21.015625,17.046875 21.5558036,17.0245536 C22.0959821,17.0022321 22.5267857,16.9888393 22.8482143,16.984375 C22.940051,16.9830995 23.0440962,16.9821884 23.1603499,16.9816418 L23.7658983,16.9816418 C23.9187773,16.9821884 24.0838648,16.9830995 24.2611607,16.984375 C24.6334821,16.9870536 24.9053571,16.9889286 25.0767857,16.99 L25.2147321,16.9908036 C25.2495536,16.9909821 25.2732143,16.9910714 25.2857143,16.9910714 L26.3035714,16.9910714 C26.6160714,16.9866071 26.890625,16.983817 27.1272321,16.9827009 L27.453683,16.9822824 C27.5530134,16.9825614 27.6428571,16.9832589 27.7232143,16.984375 C28.0446429,16.9888393 28.4754464,17.0022321 29.015625,17.0245536 C29.5558036,17.046875 30.015625,17.0915179 30.3950893,17.1584821 C30.7745536,17.2254464 31.09375,17.3080357 31.3526786,17.40625 C31.7991071,17.5848214 32.1919643,17.84375 32.53125,18.1830357 C32.8705357,18.5223214 33.1294643,18.9151786 33.3080357,19.3616071 C33.40625,19.6205357 33.4888393,19.9397321 33.5558036,20.3191964 C33.6227679,20.6986607 33.6674107,21.1584821 33.6897321,21.6986607 C33.7120536,22.2388393 33.7254464,22.6696429 33.7299107,22.9910714 C33.734375,23.3125 33.734375,23.7834821 33.7299107,24.4040179 C33.7267857,24.8383929 33.7247545,25.1360491 33.723817,25.2969866 L33.723817,25.5601562 C33.7247545,25.7210938 33.7267857,26.01875 33.7299107,26.453125 C33.734375,27.0736607 33.734375,27.5446429 33.7299107,27.8660714 C33.7254464,28.1875 33.7120536,28.6183036 33.6897321,29.1584821 C33.6674107,29.6986607 33.6227679,30.1584821 33.5558036,30.5379464 C33.4888393,30.9174107 33.40625,31.2366071 33.3080357,31.4955357 C33.1294643,31.9419643 32.8705357,32.3348214 32.53125,32.6741071 C32.1919643,33.0133929 31.7991071,33.2723214 31.3526786,33.4508929 C31.09375,33.5491071 30.7745536,33.6316964 30.3950893,33.6986607 C30.015625,33.765625 29.5558036,33.8102679 29.015625,33.8325893 C28.4754464,33.8549107 28.0446429,33.8683036 27.7232143,33.8727679 C27.4017857,33.8772321 26.9308036,33.8772321 26.3102679,33.8727679 C25.8758929,33.8696429 25.5782366,33.8676116 25.4172991,33.8666741 L25.1541295,33.8666741 C24.993192,33.8676116 24.6955357,33.8696429 24.2611607,33.8727679 Z M30.7767857,21.1696429 C31.1160714,21.1696429 31.40625,21.0491071 31.6473214,20.8080357 C31.8883929,20.5669643 32.0089286,20.2767857 32.0089286,19.9375 C32.0089286,19.5982143 31.8883929,19.3080357 31.6473214,19.0669643 C31.40625,18.8258929 31.1160714,18.7053571 30.7767857,18.7053571 C30.4375,18.7053571 30.1473214,18.8258929 29.90625,19.0669643 C29.6651786,19.3080357 29.5446429,19.5982143 29.5446429,19.9375 C29.5446429,20.2767857 29.6651786,20.5669643 29.90625,20.8080357 C30.1473214,21.0491071 30.4375,21.1696429 30.7767857,21.1696429 Z M25.2857143,30.7053571 C26.75,30.7053571 27.9955357,30.1919643 29.0223214,29.1651786 C30.0491071,28.1383929 30.5625,26.8928571 30.5625,25.4285714 C30.5625,23.9642857 30.0491071,22.71875 29.0223214,21.6919643 C27.9955357,20.6651786 26.75,20.1517857 25.2857143,20.1517857 C23.8214286,20.1517857 22.5758929,20.6651786 21.5491071,21.6919643 C20.5223214,22.71875 20.0089286,23.9642857 20.0089286,25.4285714 C20.0089286,26.8928571 20.5223214,28.1383929 21.5491071,29.1651786 C22.5758929,30.1919643 23.8214286,30.7053571 25.2857143,30.7053571 Z M25.2857143,28.8571429 C24.3392857,28.8571429 23.53125,28.5223214 22.8616071,27.8526786 C22.1919643,27.1830357 21.8571429,26.375 21.8571429,25.4285714 C21.8571429,24.4821429 22.1919643,23.6741071 22.8616071,23.0044643 C23.53125,22.3348214 24.3392857,22 25.2857143,22 C26.2321429,22 27.0401786,22.3348214 27.7098214,23.0044643 C28.3794643,23.6741071 28.7142857,24.4821429 28.7142857,25.4285714 C28.7142857,26.375 28.3794643,27.1830357 27.7098214,27.8526786 C27.0401786,28.5223214 26.2321429,28.8571429 25.2857143,28.8571429 Z" id="" fill="#000000" fill-rule="nonzero"></path>
            </g>
        </g>
    </g>
</svg>