<svg xmlns="http://www.w3.org/2000/svg" width="10" height="16" viewBox="0 0 10 16">
    <path fill="#000" fill-rule="nonzero" d="M7.545 3.516c.49 0 .907-.172 1.25-.516.344-.344.516-.76.516-1.25 0-.48-.172-.89-.516-1.234A1.702 1.702 0 0 0 7.545 0c-.479 0-.89.172-1.234.516a1.684 1.684 0 0 0-.516 1.234c0 .49.172.906.516 1.25.344.344.755.516 1.234.516zm0-1.016a.723.723 0 0 1-.53-.219.723.723 0 0 1-.22-.531c0-.208.073-.385.22-.531A.723.723 0 0 1 7.544 1c.209 0 .386.073.532.219a.723.723 0 0 1 .218.531.723.723 0 0 1-.218.531.723.723 0 0 1-.532.219zM4.295 5c.271 0 .506-.099.704-.297A.961.961 0 0 0 5.295 4 .953.953 0 0 0 5 3.29.974.974 0 0 0 4.295 3a.974.974 0 0 0-.703.29.953.953 0 0 0-.297.71c0 .27.1.505.297.703A.961.961 0 0 0 4.295 5zm4.797 11a.493.493 0 0 0 .453-.297.484.484 0 0 0 .04-.281.454.454 0 0 0-.133-.25l-2.657-3.156V6.5h.329a.494.494 0 0 0 .5-.5.487.487 0 0 0-.141-.36.487.487 0 0 0-.36-.14h-.828a.494.494 0 0 0-.5.5v6.203a.522.522 0 0 0 .125.344L7.967 15H1.624l2.046-2.453a.522.522 0 0 0 .125-.344V6a.494.494 0 0 0-.5-.5h-.828a.487.487 0 0 0-.359.14.487.487 0 0 0-.14.36.494.494 0 0 0 .5.5h.327v5.516L.14 15.172a.454.454 0 0 0-.133.25.484.484 0 0 0 .04.281.493.493 0 0 0 .453.297h8.593z"/>
</svg>
