<?xml version="1.0" encoding="UTF-8"?>
<svg width="52px" height="52px" viewBox="0 0 52 52" version="1.1" xmlns="http://www.w3.org/2000/svg" xmlns:xlink="http://www.w3.org/1999/xlink">
    <title>linkedin</title>
    <g id="Alpha-V-1.0" stroke="none" stroke-width="1" fill="none" fill-rule="evenodd">
        <g id="Home" transform="translate(-195.000000, -7898.000000)">
            <g id="linkedin" transform="translate(196.000000, 7899.000000)">
                <circle id="Oval" stroke="#000000" cx="25" cy="25" r="25"></circle>
                <path d="M17.4642857,19.9910714 C18.2142857,19.9910714 18.8191964,19.7723214 19.2790179,19.3348214 C19.7388393,18.8973214 19.9642857,18.3526786 19.9553571,17.7008929 C19.9464286,17.0401786 19.71875,16.4933036 19.2723214,16.0602679 C18.8258929,15.6272321 18.2321429,15.4107143 17.4910714,15.4107143 C16.75,15.4107143 16.1495536,15.6272321 15.6897321,16.0602679 C15.2299107,16.4933036 15,17.0401786 15,17.7008929 C15,18.3526786 15.2232143,18.8973214 15.6696429,19.3348214 C16.1160714,19.7723214 16.7053571,19.9910714 17.4375,19.9910714 L17.4375,19.9910714 L17.4642857,19.9910714 Z M26.5178571,35.0714286 L26.5178571,27.6651786 C26.5178571,27.2098214 26.5669643,26.8482143 26.6651786,26.5803571 C26.8526786,26.125 27.1361607,25.7433036 27.515625,25.4352679 C27.8950893,25.1272321 28.3660714,24.9732143 28.9285714,24.9732143 C29.6964286,24.9732143 30.2611607,25.2388393 30.6227679,25.7700893 C30.984375,26.3013393 31.1651786,27.0357143 31.1651786,27.9732143 L31.1651786,27.9732143 L31.1651786,35.0714286 L35.5714286,35.0714286 L35.5714286,27.4642857 C35.5714286,25.5089286 35.1071429,24.0245536 34.1785714,23.0111607 C33.25,21.9977679 32.0223214,21.4910714 30.4955357,21.4910714 C29.9330357,21.4910714 29.421875,21.5602679 28.9620536,21.6986607 C28.5022321,21.8370536 28.1138393,22.03125 27.796875,22.28125 C27.4799107,22.53125 27.2276786,22.7633929 27.0401786,22.9776786 C26.8526786,23.1919643 26.6696429,23.4419643 26.4910714,23.7276786 L26.517,23.688 L26.5178571,21.7991071 L22.1116071,21.7991071 L22.125,22.4419643 C22.1313776,22.7480867 22.1354774,23.5097485 22.1372996,24.7269497 L22.1379069,25.2381256 C22.1379879,25.3273708 22.1380588,25.4186407 22.1381195,25.5119351 L22.1380221,27.2157532 C22.1361684,29.3094878 22.1273634,31.9280462 22.1116071,35.0714286 L22.1116071,35.0714286 L26.5178571,35.0714286 Z M19.6741071,35.0714286 L19.6741071,21.7991071 L15.2544643,21.7991071 L15.2544643,35.0714286 L19.6741071,35.0714286 Z" id="" fill="#000000" fill-rule="nonzero"></path>
            </g>
        </g>
    </g>
</svg>