<?xml version="1.0" encoding="UTF-8"?>
<svg width="52px" height="52px" viewBox="0 0 52 52" version="1.1" xmlns="http://www.w3.org/2000/svg" xmlns:xlink="http://www.w3.org/1999/xlink">
    <title>linkedin_outline</title>
    <g id="Vision-Skills-Assessment" stroke="none" stroke-width="1" fill="none" fill-rule="evenodd">
        <g id="Stikcy-Bar---2" transform="translate(-1296.000000, -760.000000)">
            <g id="linkedin_outline" transform="translate(1297.000000, 761.000000)">
                <circle id="Oval" stroke="#FFFFFF" stroke-width="2" cx="25" cy="25" r="25"></circle>
                <g id="Group-9" transform="translate(13.000000, 12.000000)" fill="#FFFFFF" fill-rule="nonzero">
                    <path d="M2.875,5.35831063 C3.75,5.35831063 4.45572917,5.1024069 4.9921875,4.59059946 C5.52864583,4.07879201 5.79166667,3.44164396 5.78125,2.67915531 C5.77083333,1.90622162 5.50520833,1.26646231 4.984375,0.759877384 C4.46354167,0.253292461 3.77083333,1.22124533e-13 2.90625,1.22124533e-13 C2.04166667,1.22124533e-13 1.34114583,0.253292461 0.8046875,0.759877384 C0.268229167,1.26646231 2.63788991e-13,1.90622162 2.63788991e-13,2.67915531 C2.63788991e-13,3.44164396 0.260416667,4.07879201 0.78125,4.59059946 C1.30208333,5.1024069 1.98958333,5.35831063 2.84375,5.35831063 L2.84375,5.35831063 L2.875,5.35831063 Z" id="Path"></path>
                    <path d="M13.4375,23 L13.4375,14.3358311 C13.4375,13.8031335 13.4947917,13.380109 13.609375,13.0667575 C13.828125,12.5340599 14.1588542,12.0875341 14.6015625,11.7271798 C15.0442708,11.3668256 15.59375,11.1866485 16.25,11.1866485 C17.1458333,11.1866485 17.8046875,11.4973887 18.2265625,12.1188692 C18.6484375,12.7403497 18.859375,13.599455 18.859375,14.6961853 L18.859375,14.6961853 L18.859375,23 L24,23 L24,14.1008174 C24,11.8133515 23.4583333,10.0768619 22.375,8.89134877 C21.2916667,7.7058356 19.859375,7.11307902 18.078125,7.11307902 C17.421875,7.11307902 16.8255208,7.19402816 16.2890625,7.35592643 C15.7526042,7.5178247 15.2994792,7.74500454 14.9296875,8.03746594 C14.5598958,8.32992734 14.265625,8.60149864 14.046875,8.85217984 C13.828125,9.10286104 13.6145833,9.39532243 13.40625,9.72956403 L13.4372,9.68080654 L13.4375,7.47343324 L8.296875,7.47343324 L8.3125,8.22547684 C8.32060185,8.61542537 8.32555298,9.63723495 8.3273534,11.2909056 L8.32763672,13.8714343 C8.32535807,16.3105167 8.31510417,19.3533719 8.296875,23 L8.296875,23 L13.4375,23 Z" id="Path"></path>
                    <polygon id="Path" points="5.453125 23 5.453125 7.47343324 0.296875 7.47343324 0.296875 23"></polygon>
                </g>
            </g>
        </g>
    </g>
</svg>