<svg xmlns="http://www.w3.org/2000/svg" viewBox="0 0 13 16">
    <path fill="#696969" d="M11 16c.552 0 1.023-.195 1.414-.586.39-.39.586-.862.586-1.414V8c0-.552-.195-1.023-.586-1.414C12.024 6.196 11.552 6 11 6h-.5V4.094c0-.573-.099-1.11-.297-1.61-.198-.5-.474-.932-.828-1.296C9.021.823 8.596.533 8.102.32 7.607.107 7.068 0 6.484 0 5.891 0 5.35.107 4.86.32c-.49.214-.908.506-1.257.875-.35.37-.62.805-.813 1.305C2.596 3 2.5 3.531 2.5 4.094V6H2c-.552 0-1.023.195-1.414.586C.196 6.976 0 7.448 0 8v6c0 .552.195 1.023.586 1.414.39.39.862.586 1.414.586h9zM9.5 6h-6V4.094c0-.854.27-1.584.813-2.188C4.854 1.302 5.577 1 6.483 1c.896 0 1.623.3 2.18.898.557.6.836 1.331.836 2.196V6zm1.5 9H2c-.27 0-.505-.099-.703-.297C1.099 14.505 1 14.271 1 14V8c0-.27.099-.505.297-.703C1.495 7.099 1.729 7 2 7h9c.27 0 .505.099.703.297.198.198.297.432.297.703v6c0 .27-.099.505-.297.703-.198.198-.432.297-.703.297zm-4.5-2c.135 0 .253-.05.352-.148.099-.1.148-.217.148-.352v-1.64c.146-.084.266-.201.36-.352.093-.151.14-.32.14-.508 0-.281-.096-.518-.29-.71C7.019 9.095 6.782 9 6.5 9c-.281 0-.518.096-.71.29-.194.192-.29.429-.29.71 0 .188.047.357.14.508.094.15.214.268.36.351V12.5c0 .135.05.253.148.352.1.099.217.148.352.148z"/>
</svg>
