<svg xmlns="http://www.w3.org/2000/svg" width="405" height="517" viewBox="0 0 405 517">
    <g fill="none" fill-rule="evenodd">
        <g>
            <g>
                <g fill="#E5E5E5" fill-rule="nonzero">
                    <path d="M292.577 11.096V.478H.477v10.618h144.988H.478v292.099h292.099v-292.1H147.589h144.988zM145.465 300.699H2.973V157.89h142.492v142.81zm0-144.934H2.973V13.59h142.492v142.174zm144.617 144.934H147.589V157.89h142.493v142.81zm0-287.108v142.227H147.589V13.59h142.493z" transform="translate(-177 -243) translate(177 243) translate(37.694)"/>
                </g>
                <g fill="#4D4D4D" fill-rule="nonzero">
                    <path d="M139.997.265h-3.026c-5.096.107-6.583 4.779-6.583 4.779l-21.714 74.484c0 .053-.053.053-.053.053H46.294c-19.112 0-23.253 13.857-25.695 22.086l-.053.212c-1.912 6.424-5.522 19.165-7.008 24.315 0 .053-.053.053-.053.053H8.813c-1.38-.212-2.708.53-3.398 1.699-1.699 3.026.425 6.105 3.292 6.105h40.348v124.124c0 1.22-.372 2.442-1.009 3.45-11.202 17.626-38.224 19.113-43.002 20.015-5.044.956-4.62 4.62-4.62 4.62 0 .583.479 1.06 1.063 1.06H97.95c.584 0 1.062-.477 1.062-1.06 0 0 .425-3.664-4.619-4.62-4.778-.902-31.8-2.389-43.002-20.014-.637-1.01-1.009-2.23-1.009-3.451v-124.07h55.213c2.177 0 3.929-1.753 3.929-3.93 0-2.176-1.752-3.928-3.929-3.928h-9.397c-.053 0-.053-.053-.053-.106l8.388-28.297c0-.053.053-.053.053-.053h2.283c2.867 0 5.68-1.805 6.424-4.46L140.05.213c.053.107 0 .053-.053.053zm-36.632 97.58l-8.44 28.349c0 .053-.054.053-.054.053H14.76c-.053 0-.053-.053-.053-.106 1.54-5.362 5.043-17.679 6.901-23.944l.054-.265c2.548-8.494 6.37-21.289 24.633-21.289h62.009c.053 0 .053.053.053.106l-4.99 17.095z" transform="translate(-177 -243) translate(177 243) translate(263.324 228.816)"/>
                </g>
                <g fill-rule="nonzero">
                    <g>
                        <g>
                            <path fill="#FED672" d="M137.927 56.275c-.478 1.009-1.009 2.017-1.593 2.92-.53.796-1.062 1.54-1.646 2.177-1.22 1.38-2.548 2.601-4.035 3.61-11.042 7.645-28.35 5.043-35.039 5.68-.902.106-2.389.16-4.247.266-.371 0-.743.053-1.168.053-1.858.106-4.035.16-6.37.265-11.733.425-28.51.797-37.535 1.009-3.929.106-6.37.16-6.37.16H39.232c-10.14-.213-18.9-1.859-25.377-3.983-4.088-1.327-8.6 1.115-10.67-.424-.744-.531-1.328-1.062-1.753-1.593l-.477-.637c-.053-.106-.107-.16-.16-.265-2.495-4.566 3.823-16.83 4.088-17.255C2.283 39.976 3.716 35.04 3.716 35.04c3.876.956 7.008 4.778 7.008 4.778.531-.69 1.274-1.274 2.018-1.805.637-.425 1.38-.796 2.07-1.115.796-.371 1.646-.637 2.442-.902 1.38-.425 2.708-.69 3.77-.903 1.38-.212 2.335-.318 2.335-.318-.053-6.318 1.912-8.866 1.912-8.866 2.813.902 5.202 7.38 6.211 7.326.796-.053 2.07-2.336 11.627-9.238.69-.477 1.38-1.008 2.123-1.54 1.858-1.273 3.982-2.76 6.424-4.352l.956-.638c.53-.318 1.062-.69 1.592-1.008 2.071-1.327 4.195-2.602 6.371-3.823.956-.584 1.965-1.115 2.973-1.645 1.646-.903 3.292-1.752 4.99-2.549.797-.371 1.646-.743 2.443-1.115 1.486-.637 2.92-1.274 4.46-1.858 2.017-.796 4.034-1.486 6.105-2.123 2.23-.69 4.46-1.275 6.689-1.7h.053c.16-.052.319-.052.478-.105C92.164.85 95.56.478 99.012.372h.637c2.39-.053 4.778.106 7.22.424 3.345.425 6.637 1.168 9.928 2.336 7.008 2.495 12.53 7.539 16.458 13.75 1.274 2.018 2.389 4.195 3.345 6.424.371.903.743 1.805 1.061 2.708 1.487 4.194 2.442 8.6 2.761 12.848.478 6.37-.319 12.582-2.495 17.413z" transform="translate(-177 -243) translate(177 243) translate(73.795 181.036) translate(4.247 33.446)"/>
                            <path fill="#F3BE65" d="M148.385 61.265c0 16.033-15.449 22.723-36.1 26.598-18.104 3.398-26.492.956-27.5-3.716-.16-.637-.16-1.38 0-2.124 1.167-5.946 22.88-2.973 36.578-4.618 13.697-1.646 20.652-6.53 21.554-16.352.903-9.822-2.548-16.51-2.548-16.51l-.16-6.743v-.69c0 .053 8.176 8.122 8.176 24.155z" transform="translate(-177 -243) translate(177 243) translate(73.795 181.036) translate(4.247 33.446)"/>
                            <path fill="#FFD67B" d="M145.306 57.708c0 16.033-15.661 23.625-36.366 27.5-12.051 2.284-23.253 2.284-24.156-1.008-.16-.637-.16-1.38 0-2.123 1.168-5.947 22.882-2.974 36.579-4.62 13.697-1.645 20.652-6.53 21.554-16.35.903-9.822-2.548-16.512-2.548-16.512l-.16-6.742c.213.372.478.796.69 1.22 2.177 4.036 4.407 10.247 4.407 18.635z" transform="translate(-177 -243) translate(177 243) translate(73.795 181.036) translate(4.247 33.446)"/>
                            <path fill="#FFD67B" d="M146.474 61.318c0 16.034-15.29 20.015-35.995 23.838-12.05 2.283-21.13 1.061-25.27-.797 0-.424 0-.85.106-1.327 1.168-5.946 22.882-2.973 36.579-4.619 13.697-1.645 20.652-6.53 21.554-16.351.903-9.822-2.92-17.785-2.92-17.785l-.265-7.114c5.096 5.309 6.211 15.608 6.211 24.155z" transform="translate(-177 -243) translate(177 243) translate(73.795 181.036) translate(4.247 33.446)"/>
                            <g fill="#F3BE65">
                                <path d="M7.857 34.774C5.574 29.04 2.548 25.748.107 23.89c.69-.477 1.38-1.008 2.123-1.54 4.46 5.257 5.627 12.424 5.627 12.424zM17.626 30.792C15.024 24.156 11.52 20.28 8.654 18.05l.955-.637c.531-.318 1.062-.69 1.593-1.008 5.097 6.158 6.424 14.387 6.424 14.387zM27.607 26.014c-2.92-7.433-6.955-11.414-9.981-13.485.955-.584 1.964-1.115 2.973-1.646 5.521 6.265 7.008 15.13 7.008 15.13zM41.728 24.899C37.641 14.493 31.801 9.503 27.978 7.22c1.487-.637 2.92-1.274 4.46-1.858 7.273 7.698 9.237 19.112 9.29 19.537zM58.24 27.341C52.186 12.104 43.373 5.681 38.542 3.238c2.39-.743 4.778-1.327 7.167-1.805C55.48 11.52 58.133 26.81 58.24 27.341zM69.919 26.545C67.211 12.05 60.947 4.14 56.594.265c2.389-.053 4.778.107 7.22.425 6.53 11.68 6.105 25.855 6.105 25.855z" transform="translate(-177 -243) translate(177 243) translate(73.795 181.036) translate(4.247 33.446) translate(43.003)"/>
                            </g>
                            <path fill="#F3BE65" d="M85.262 71.193c-16.776.584-43.905 1.168-43.905 1.168h-.372c-4.353-3.345-4.247-10.3.797-13.325 3.079-1.859 7.22-3.398 12.21-2.973 11.361.955 13.379 10.405 23.36 12.423 4.3.849 6.636 1.805 7.91 2.707z" transform="translate(-177 -243) translate(177 243) translate(73.795 181.036) translate(4.247 33.446)"/>
                            <path fill="#FFEDC0" d="M88.394 73.688c.053.372-.265.69-.85 1.01-1.38.742-4.353 1.22-8.228 1.38-2.602.106-5.575.106-8.813-.107-6.795-.371-18.9-.106-26.545-3.716-4.3-2.07-5.627-7.008-3.77-10.83.638-1.328 1.7-2.549 3.133-3.398 3.08-1.858 7.22-3.398 12.21-2.973 11.362.956 13.38 10.405 23.36 12.423.319.053.584.106.903.16 8.919 2.017 8.44 4.246 8.6 6.051z" transform="translate(-177 -243) translate(177 243) translate(73.795 181.036) translate(4.247 33.446)"/>
                            <path fill="#FFD67B" d="M87.545 74.697c-.106.053-.16.106-.266.16-.106.052-.212.106-.318.106-.16.053-.319.106-.531.159-.106.053-.266.053-.425.106-.318.106-.637.16-.955.212-.107 0-.213.053-.319.053-.796.16-1.699.266-2.76.372-.372.053-.797.053-1.169.106-.265 0-.53.053-.796.053-.212 0-.478.053-.69.053-2.602.107-5.575.107-8.813-.106-6.795-.371-18.9-.106-26.545-3.716-4.3-2.07-5.627-7.008-3.77-10.83.585-.797 1.381-1.487 2.284-2.07 3.079-1.859 7.22-3.399 12.21-2.974 11.361.956 13.379 10.406 23.36 12.423.318.053.584.106.902.16l1.434.318c7.007 1.858 7.06 3.77 7.167 5.415z" transform="translate(-177 -243) translate(177 243) translate(73.795 181.036) translate(4.247 33.446)"/>
                            <path fill="#FFEDC0" d="M140.528 43.374v1.487c0 .478-.053.955-.053 1.433-.69 14.228-6.424 23.2-11.202 26.386-.478.318-.902.53-1.38.743l-.319.16c-.159.052-.318.105-.53.158-.213.054-.372.107-.585.16h-.053c-1.54.318-3.185.53-4.937.743h-.106c-5.575.53-12.052.425-18.794.425-1.805 0-3.185-.213-4.247-.478-4.247-1.221-4.088-3.77-2.442-6.318 1.699-2.548 14.493-2.92 13.697-4.672-.796-1.805-6.69-2.76-6.69-14.6v-.743c.266-9.078 7.433-16.457 16.405-17.307 4.3-.424 9.663-.424 13.963 1.274 1.115.478 2.177 1.01 3.08 1.7.265.212.477.424.742.636.213.16.372.372.584.584.16.213.372.425.531.584.16.213.319.425.425.584.053.053.053.053.053.106l.319.478c.212.319.371.69.53 1.009.107.212.213.425.266.637 0 .053.053.053.053.053.106.266.212.531.265.85.107.265.16.584.213.902v.053c.053.16.053.372.106.531.053.16.053.372.053.584 0 .584.053 1.221.053 1.858z" transform="translate(-177 -243) translate(177 243) translate(73.795 181.036) translate(4.247 33.446)"/>
                            <path fill="#FFD67B" d="M140.528 43.374v1.487c0 .478-.053.955-.053 1.433-.69 14.228-6.424 23.2-11.202 26.386-.478.318-.902.53-1.38.743l-.319.16c-.159.052-.318.105-.53.158-.213.054-.372.107-.585.16h-.053c-.371.106 1.115.053.478.159-1.646.265-3.45.425-5.415.584h-.106c-5.84.425-12.742.425-18.794.425-1.805 0-3.185-.213-4.247-.478-3.026-1.434-2.23-4.194-1.38-5.946 1.22-2.336 14.493-2.867 13.697-4.672-.797-1.805-6.69-2.76-6.69-14.6v-.743c.266-9.078 7.433-16.458 16.405-17.307 3.929-.372 8.813-.425 12.9.902 1.116.478 2.178 1.01 3.08 1.7.266.212.478.424.743.636.213.16.372.372.584.584.16.213.372.425.531.584.16.213.319.425.425.584.053.053.053.053.053.106l.319.478c.212.319.371.69.53 1.009.107.212.213.425.266.637 0 .053.053.053.053.053.106.266.212.531.265.85.107.265.16.584.213.902v.053c.053.16.053.372.106.531.053.16.053.372.053.584 0 .584.053 1.221.053 1.858z" transform="translate(-177 -243) translate(177 243) translate(73.795 181.036) translate(4.247 33.446)"/>
                            <path fill="#F3BE65" d="M5.68 46.029s-1.274-5.946-.796-8.972c0 0 2.655.477 4.46 3.663 0 0-3.239 3.822-3.663 5.309zM25.748 27.553s-1.327 4.725-1.061 7.38c0 0 3.716-.85 5.627-.69 0 0-2.23-4.672-4.566-6.69z" transform="translate(-177 -243) translate(177 243) translate(73.795 181.036) translate(4.247 33.446)"/>
                            <g fill="#855F01">
                                <g>
                                    <path d="M.053 3.398s0-.425.212-1.009c.054-.16.107-.319.213-.425.106-.159.16-.318.318-.477.107-.16.266-.319.425-.478.16-.16.319-.266.478-.372.212-.106.371-.212.584-.318.212-.107.425-.16.584-.16.212-.053.371-.053.584-.053h.265c.106 0 .16.053.266.053.159.053.265.053.424.106.107.054.213.107.266.16.16.106.265.159.265.159s-.106 0-.265.053h-.319c-.106 0-.265.053-.371.053-.16 0-.266.053-.425.106-.16.053-.319.053-.425.16-.053.053-.159.053-.212.106-.053.053-.16.053-.212.106-.16.053-.319.16-.425.265-.16.107-.266.213-.425.319-.106.106-.265.212-.371.318-.107.107-.266.213-.372.319l-.319.319c-.477.424-.743.69-.743.69z" transform="translate(-177 -243) translate(177 243) translate(73.795 181.036) translate(4.247 33.446) translate(4.778 49.373) translate(0 2.124)"/>
                                </g>
                                <g>
                                    <path d="M.265 1.433s.054-.106.213-.265C.53 1.115.638.956.796.903c.107-.107.266-.213.425-.319.16-.106.372-.212.584-.265.212-.107.425-.16.69-.213.266-.053.478-.053.743-.106.266 0 .531 0 .797.053.265.053.53.106.743.212.266.107.478.16.69.266.213.106.425.212.584.372.16.106.319.265.478.371.16.106.265.213.372.372.106.106.212.212.265.318.16.16.212.266.212.266s-.106-.053-.318-.106c-.212-.054-.478-.213-.796-.372-.16-.053-.372-.16-.531-.212-.213-.053-.372-.107-.584-.213-.213-.106-.425-.106-.637-.212l-.637-.16C3.663.904 3.45.904 3.186.904c-.213 0-.425-.054-.638 0-.212 0-.424.053-.637.053-.212.053-.371.053-.53.106-.69.16-1.116.371-1.116.371z" transform="translate(-177 -243) translate(177 243) translate(73.795 181.036) translate(4.247 33.446) translate(4.778 49.373) translate(9.556)"/>
                                </g>
                                <g>
                                    <path d="M.796 1.115c-.318.265-.371.69-.159 1.009.425.637 1.433 1.645 2.124 1.433.69-.212.955-2.336.69-2.814C3.238.265 1.91.16.796 1.115z" transform="translate(-177 -243) translate(177 243) translate(73.795 181.036) translate(4.247 33.446) translate(4.778 49.373) translate(5.309 4.247)"/>
                                </g>
                                <g>
                                    <path d="M0.833 0.253H1.833V3.173H0.833z" transform="translate(-177 -243) translate(177 243) translate(73.795 181.036) translate(4.247 33.446) translate(4.778 49.373) translate(7.433 6.902) rotate(-23.229 1.045 1.713)"/>
                                </g>
                                <g>
                                    <path d="M.106 2.654s.319.319.903.638c.318.159.69.318 1.115.424.212.053.424.053.69.053h.159c.053 0 .106 0 .16-.053.105-.053.265-.106.37-.212.213-.16.373-.319.479-.478.159-.16.265-.372.371-.53.213-.372.425-.691.531-1.01C5.15.85 5.256.426 5.256.426s-.053.106-.16.265c-.106.16-.265.372-.424.69-.16.266-.372.584-.637.903-.106.16-.266.318-.372.478-.16.159-.265.318-.425.424-.053.053-.159.107-.212.16-.053 0-.106.053-.16.053h-.052-.053c-.213.053-.372 0-.584 0-.372-.053-.744-.16-1.062-.266C.796 3.026.53 2.92.372 2.867c-.16-.16-.266-.213-.266-.213z" transform="translate(-177 -243) translate(177 243) translate(73.795 181.036) translate(4.247 33.446) translate(4.778 49.373) translate(5.84 6.37)"/>
                                </g>
                            </g>
                        </g>
                        <g fill="#894D16">
                            <g>
                                <path d="M6.424 0.425L7.008 1.805 5.362 6.955 8.76 5.468 9.503 7.167 3.292 9.875 2.708 8.494 4.353 3.345 1.221 4.725 0.478 3.026z" transform="translate(-177 -243) translate(177 243) translate(73.795 181.036) translate(1.062 55.213)"/>
                            </g>
                            <g>
                                <path d="M6.742 0.053L6.902 1.54 3.769 5.946 7.433 5.574 7.645 7.433 0.903 8.123 0.743 6.636 3.876 2.23 0.478 2.601 0.265 0.743z" transform="translate(-177 -243) translate(177 243) translate(73.795 181.036) translate(10.087 38.755)"/>
                            </g>
                            <g opacity=".58">
                                <path d="M5.362 0.372L5.468 1.487 3.079 4.831 5.893 4.513 6.052 5.946 0.903 6.477 0.796 5.362 3.185 2.017 0.584 2.283 0.425 0.849z" transform="translate(-177 -243) translate(177 243) translate(73.795 181.036) translate(0 22.829)"/>
                            </g>
                            <g opacity=".39">
                                <path d="M4.778 1.168L4.566 1.964 2.07 3.716 4.088 4.194 3.822 5.203 0.106 4.3 0.319 3.504 2.814 1.752 0.903 1.274 1.168 0.265z" transform="translate(-177 -243) translate(177 243) translate(73.795 181.036) translate(13.803 6.902)"/>
                            </g>
                            <g opacity=".15">
                                <path d="M3.822 0.212L4.088 1.009 2.92 3.822 4.884 3.132 5.203 4.141 1.593 5.362 1.327 4.566 2.495 1.752 0.637 2.389 0.319 1.38z" transform="translate(-177 -243) translate(177 243) translate(73.795 181.036) translate(.53)"/>
                            </g>
                        </g>
                    </g>
                </g>
                <g transform="translate(-177 -243) translate(177 243) translate(254.83 134.848)">
                    <path fill="#F6C2AB" d="M11.202.372s3.185 1.752 7.857 4.3c3.663 2.017 8.176 4.512 12.848 7.114C43.215 18.05 55.16 24.793 56.169 25.802c5.787 5.574 7.326 14.228 3.875 21.5l-4.937 10.194c-4.619 9.61-17.679 10.99-24.209 2.548l-6.37-8.07-13.114-16.67L.106 20.865 6.158 9.715 7.751 6.85l3.45-6.477z"/>
                    <path fill="#F2A887" d="M19.06 4.672c3.662 2.017 8.175 4.512 12.847 7.114l-7.38 40.189-13.113-16.67-5.256-25.59-.53-2.495s.743-.16 2.07-.371c2.336-.478 6.477-1.275 11.361-2.177z"/>
                    <circle cx="41.782" cy="43.109" r="1.805" fill="#333"/>
                </g>
                <g transform="translate(-177 -243) translate(177 243) translate(260.139 162.454)">
                    <path fill="#F7F6F1" fill-rule="nonzero" d="M59.46 13.06c5.256 15.555 34.35 102.144 34.35 102.144l.052.107c7.751 23.147-4.618 48.205-27.765 56.062-23.148 7.857-48.312-4.566-56.116-27.766 0 0-3.929-11.308-6.636-27.712v-.054C2.335 110.798-14.653 20.6 44.436.637 44.383.584 54.204-2.548 59.46 13.06z"/>
                    <circle cx="38.012" cy="48.524" r="2.23" fill="#A6A6A6" fill-rule="nonzero"/>
                    <circle cx="38.012" cy="48.524" r="1" fill="#F6D183"/>
                </g>
                <g fill-rule="nonzero">
                    <g>
                        <g transform="translate(-177 -243) translate(177 243) translate(228.285 179.443) translate(0 6.37)">
                            <path fill="#D6D4C9" d="M65.619 82.714s-7.167 2.07-22.351-21.449c-15.184-23.518-14.281-25.43-14.281-25.43l19.643-8.228 18.847 31.376 4.247 16.67-6.105 7.06z"/>
                            <path fill="#F6C7B4" d="M90.73 8.07c11.892 10.883 12.742 29.358 1.858 41.25-1.062 1.168-2.176 2.177-3.344 3.133l-54.736 47.25v.052l-1.274 1.115c-7.698 6.106-18.9 5.893-26.385-.955-7.698-7.008-8.76-18.582-2.867-26.81l42.896-59.673c.796-1.221 1.752-2.39 2.76-3.557C60.364-1.965 78.839-2.814 90.73 8.07z"/>
                            <circle cx="20.493" cy="84.89" r="1" fill="#F6C2AB"/>
                            <circle cx="71.034" cy="29.624" r="1" fill="#A6A6A6"/>
                            <circle cx="18.9" cy="85.952" r="1.911" fill="#5F27CD"/>
                        </g>
                        <path fill="#F0EFE7" d="M46.719 16.67L28.987 42.206s9.45 2.495 24.952 21.82c15.502 19.325 11.68 25.058 11.68 25.058s57.443-34.296 26.014-77.457c0 .053-16.883-28.563-44.914 5.043z" transform="translate(-177 -243) translate(177 243) translate(228.285 179.443)"/>
                    </g>
                </g>
                <g transform="translate(-177 -243) translate(177 243) translate(213.951 84.943)">
                    <g>
                        <g>
                            <path fill="#F6C2AB" d="M3.398 1.911s-7.114 7.804-.053 21.82c7.06 14.016 11.68 19.43 7.167 26.704 0 0-.531 1.274.478 1.964 1.008.69 4.565 1.646 6.636 2.443 2.07.796 10.246 10.564 14.865 13.325 4.619 2.814 13.75-.85 20.599-10.883 6.848-10.034 10.564-33.234 6.848-41.888-3.663-8.654-41.197-18.74-56.54-13.485z" transform="translate(4.778 31.323)"/>
                            <path fill="#322929" d="M18.688 26.332c-2.23 0-4.566.85-5.84 2.761-.266.425-.903.584-1.328.266-.424-.319-.584-.903-.265-1.328 1.593-2.389 4.672-3.716 7.486-3.663.53 0 .955.425.955 1.009-.053.53-.478.955-1.008.955zM17.626 31.8c-1.115.532-1.593 1.912-1.062 3.08l1.327 2.707c.531 1.115 1.911 1.593 3.08 1.062 1.114-.53 1.592-1.911 1.061-3.079l-1.22-2.495c-.054 0-1.116-2.018-3.186-1.274z" transform="translate(4.778 31.323)"/>
                            <path d="M20.546 32.332L20.599 32.332M19.856 31.907L19.909 31.96" transform="translate(4.778 31.323)"/>
                        </g>
                        <path fill="#333" d="M65.937 67.105c9.238 2.76 18.953-2.495 22.457-11.52C101.826 20.917 63.867 3.398 63.867 3.398 37.375-9.662 11.945 21.288 3.132 34.986c-7.326 11.68-.053 19.43 15.025 24.793 15.024 5.362 32.597-4.672 32.597-4.672s5.627 9.131 15.183 11.998z"/>
                        <path fill="#F4B599" d="M42.472 52.028c.477-13.538 19.324-5.203 13.91 7.485-1.01 2.39-3.664 3.61-6.106 2.761-2.548-.85-5.628-2.814-7.273-7.114-.372-.956-.531-2.07-.531-3.132z"/>
                    </g>
                    <g>
                        <path fill="#FFF" fill-rule="nonzero" d="M3.08 19.378c3.662 5.15 9.715 7.167 13.537 4.46 3.822-2.708 3.929-9.08.265-14.229C13.22 4.46 7.167 2.442 3.345 5.15c-3.823 2.655-3.929 9.026-.266 14.229z" opacity=".19" transform="translate(12.21 53.62)"/>
                        <path stroke="#5021AC" stroke-width="1.14" d="M3.08 19.378c3.662 5.15 9.715 7.167 13.537 4.46 3.822-2.708 3.929-9.08.265-14.229C13.22 4.46 7.167 2.442 3.345 5.15c-3.823 2.655-3.929 9.026-.266 14.229zM16.829 9.609L29.889.319" transform="translate(12.21 53.62)"/>
                    </g>
                    <circle cx="55.532" cy="61.159" r="1.805" fill="#E60023"/>
                    <circle cx="55.532" cy="61.159" r="1" fill="#F6D183"/>
                </g>
                <g>
                    <g>
                        <path fill="#F7CEBF" fill-rule="nonzero" d="M101.454 9.45L88.023 79.58l-3.398 23.2L9.928 89.35c-2.23-.372-3.663-2.495-3.292-4.725.319-1.646 1.593-2.973 3.239-3.292l43.374-6.424L65.194.425l36.26 9.025z" transform="translate(-177 -243) translate(177 243) translate(136.971 291.993) translate(0 95.03)"/>
                        <path fill="#CF0850" fill-rule="nonzero" d="M2.124 86.908c0-.053.053-.053.053-.107 1.91-3.61 5.521-6.052 9.609-6.583l41.463-5.415c12.37 9.344 35.145 3.823 35.145 3.823l-.16 32.066c-.158 1.009-1.167 1.699-2.176 1.54L1.062 97.471c-2.07-.318 1.008-10.458 1.062-10.564z" transform="translate(-177 -243) translate(177 243) translate(136.971 291.993) translate(0 95.03)"/>
                        <path stroke="#BC0849" stroke-width="1.14" d="M88.553 105.808L1.168 90.093M88.341 90.093s-24.315-3.716-28.934 10.512" transform="translate(-177 -243) translate(177 243) translate(136.971 291.993) translate(0 95.03)"/>
                    </g>
                    <g fill-rule="nonzero" transform="translate(-177 -243) translate(177 243) translate(136.971 291.993) translate(48.842)">
                        <path fill="#CF0850" d="M81.705 38.278l-.85 3.185-26.013 96.304-6.477 23.413L.212 150.828l3.77-24.262 15.82-98.216.531-3.292c3.663-16.935 20.28-27.66 37.216-24.05h.053c16.936 3.664 27.713 20.334 24.103 37.27z"/>
                        <path fill="#481E9C" d="M.212 3.398C.32 2.336.531 1.22.743.106l-.53 3.292z" opacity=".25" transform="translate(19.643 24.952)"/>
                        <path fill="#481E9C" d="M1.009.053C.796 1.168.478 2.23.159 3.238L1.01.053z" opacity=".25" transform="translate(80.696 38.225)"/>
                        <circle cx="51.338" cy="31.057" r="2.07" fill="#481E9C"/>
                    </g>
                </g>
                <g fill-rule="nonzero">
                    <g transform="translate(-177 -243) translate(177 243) translate(205.457 291.993)">
                        <path fill="#F50A5F" d="M151.04 31.694c0 17.36-14.016 31.376-31.323 31.376H31.694C14.387 63.07.372 49.055.372 31.748v-.054C.372 14.387 14.387.372 31.694.372h88.023c17.307 0 31.323 14.015 31.323 31.322z"/>
                        <circle cx="31.641" cy="31.111" r="2.07" fill="#481E9C"/>
                    </g>
                    <path fill="#F50A5F" d="M111.86 0.372H151.04V33.341H111.86z" transform="translate(-177 -243) translate(177 243) translate(205.457 291.993)"/>
                </g>
                <g>
                    <g>
                        <path fill="#F7CEBF" fill-rule="nonzero" d="M43.48.319L69.23 66.946l9.397 21.448-70.503 28.138c-2.07.85-4.46-.16-5.256-2.283-.637-1.54-.213-3.345 1.009-4.46l33.393-28.456L7.963 11.786 43.48.319z" transform="translate(-177 -243) translate(177 243) translate(205.457 291.993) translate(28.137 92.376)"/>
                        <path fill="#F50A5F" fill-rule="nonzero" d="M.319 118.655v-.106c-.319-4.088 1.486-8.07 4.671-10.671L37.27 81.333c15.449 1.38 31.854-15.343 31.854-15.343l16.882 27.288c.372.956-.106 2.07-1.062 2.443L4.99 128.21c-1.964.797-4.671-9.45-4.671-9.556z" transform="translate(-177 -243) translate(177 243) translate(205.457 291.993) translate(28.137 92.376)"/>
                        <path stroke="#BC0849" stroke-width="1.14" d="M83.563 88.925L1.115 121.841M75.069 75.706S52.453 85.42 56.116 99.968" transform="translate(-177 -243) translate(177 243) translate(205.457 291.993) translate(28.137 92.376)"/>
                    </g>
                    <g fill-rule="nonzero">
                        <path fill="#F50A5F" d="M61.212 21.13l.956 3.185 28.934 95.455 6.901 23.253-46.294 16.724-9.662-22.563L3.451 45.498l-1.274-3.08C-3.716 26.12 4.725 8.177 21.023 2.284h.054c16.298-5.84 34.242 2.601 40.135 18.847z" transform="translate(-177 -243) translate(177 243) translate(205.457 291.993)"/>
                        <path fill="#481E9C" d="M1.38 3.557C.903 2.548.478 1.54.106.477l1.274 3.08z" opacity=".25" transform="translate(-177 -243) translate(177 243) translate(205.457 291.993) translate(2.124 41.94)"/>
                        <path fill="#481E9C" d="M.16.425c.37 1.062.69 2.123.955 3.185L.159.425z" opacity=".25" transform="translate(-177 -243) translate(177 243) translate(205.457 291.993) translate(61.053 20.705)"/>
                    </g>
                </g>
                <g fill="#4D4D4D" fill-rule="nonzero">
                    <g>
                        <path d="M275.747 233.17c.053.265-.159.583-.424.637h-.107c-.265 0-.477-.16-.53-.425L235.134 22.298c-1.221-5.044-4.354-9.397-8.813-12.105-1.911-1.168-3.982-2.017-6.105-2.442H55.744c-2.124.478-4.194 1.274-6.105 2.442-4.46 2.708-7.592 7.061-8.813 12.105L1.274 233.328c-.053.266-.265.425-.53.425H.636c-.265-.053-.478-.318-.425-.637L39.764 22.032c1.274-5.415 4.619-9.928 9.29-12.794 1.01-.584 2.018-1.115 3.08-1.54H41.357c-2.07 0-3.716-1.646-3.716-3.716 0-2.07 1.645-3.717 3.716-3.717h194.679c2.07 0 3.717 1.646 3.717 3.717 0 2.07-1.646 3.716-3.717 3.716h-12.21c1.062.425 2.07.956 3.079 1.54 4.725 2.866 8.016 7.432 9.29 12.794l39.552 211.137z" transform="translate(-177 -243) translate(177 243) translate(0 282.437)"/>
                        <path d="M65.035 7.751c-.106.106-.319.212-.478.16h-.106c-.16-.054-.372-.107-.531-.107l1.115-.053z" transform="translate(-177 -243) translate(177 243) translate(0 282.437)"/>
                    </g>
                </g>
                <g>
                    <path fill="#F6C7B4" fill-rule="nonzero" d="M18.634 129.22C7.433 128.105-.743 118.071.372 106.87c.053-.638.159-1.275.265-1.912 0-.053.053-.16.053-.212l15.662-79.263c1.22-6.424 7.167-10.936 13.803-10.246 6.69.69 11.627 6.424 11.467 13.06v.053l-.53 80.537v.265c0 .637-.054 1.274-.107 1.911-1.115 11.15-11.149 19.272-22.35 18.157z" transform="translate(-177 -243) translate(177 243) translate(226.162 162.454)"/>
                    <path fill="#F6C7B4" fill-rule="nonzero" d="M16.723 24.209C18.103 15.82 17.944-.956 31.694.425c2.071.212 3.823.53 5.416 1.008 6.211 1.7 8.866 6.955 5.893 13.963-2.973 7.008-1.38 11.627-1.38 11.627l-24.9-2.814z" transform="translate(-177 -243) translate(177 243) translate(226.162 162.454)"/>
                    <path fill="#F6C7B4" fill-rule="nonzero" d="M33.287 32.81c-.743-2.071.319-4.354 2.336-5.097l.053-.053.213-.107c.159-.053.318-.159.477-.265l.956-.637c.637-.478 1.274-1.062 1.805-1.646 1.115-1.22 2.07-2.707 2.814-4.353.159-.425.371-.796.53-1.274l.585-1.487c.371-1.009.796-2.07 1.22-3.079.425-1.062.903-2.07 1.434-3.132.266-.531.531-1.062.85-1.646.053-.16.159-.266.265-.425.106-.16.16-.318.319-.478.106-.159.212-.318.371-.53l.266-.319.212-.212.16-.16.105-.106.107-.106.159-.106c1.168-.903 2.654-1.062 3.875-.478.584.265 1.062.637 1.487 1.168 1.327 1.699-1.009 6.37-1.221 6.795-.053.107-.106.266-.212.478-.584 1.327-1.752 4.3-2.071 5.15l-.584 1.54c-.212.584-.425 1.168-.69 1.698-1.009 2.283-2.336 4.46-4.088 6.424-.85.956-1.805 1.858-2.867 2.708-.53.425-1.062.796-1.699 1.168-.318.16-.584.371-.955.53-.16.107-.319.16-.531.266l-.266.106-.159.053-.265.107c-1.965.69-4.248-.425-4.99-2.496z" transform="translate(-177 -243) translate(177 243) translate(226.162 162.454)"/>
                    <path fill="#F5F4EE" fill-rule="nonzero" d="M52.506 15.502c-1.593-.478-2.602-2.442-2.39-4.619.16-1.752 1.115-3.185 2.283-3.769.584.265 1.062.637 1.487 1.168 1.327 1.699-1.009 6.37-1.221 6.795 0 .054-.053.213-.16.425z" transform="translate(-177 -243) translate(177 243) translate(226.162 162.454)"/>
                    <path stroke="#F2A887" stroke-linecap="round" stroke-width="1.14" d="M41.57 3.77s-2.39 1.008-4.195 5.627M38.171 1.487s-2.389 1.008-4.194 5.627M33.977.69S31.588 1.7 29.783 6.318M29.093.319S26.704 1.327 24.9 5.946" transform="translate(-177 -243) translate(177 243) translate(226.162 162.454)"/>
                </g>
            </g>
        </g>
    </g>
</svg>
