<svg xmlns="http://www.w3.org/2000/svg" width="17" height="16" viewBox="0 0 17 16">
    <path fill="#000" fill-rule="nonzero" d="M15.634 13.264c.38 0 .702-.132.968-.396.265-.264.398-.585.398-.962V1.358c0-.377-.133-.698-.398-.962A1.321 1.321 0 0 0 15.634 0H1.366C.986 0 .664.132.398.396A1.306 1.306 0 0 0 0 1.358v10.548c0 .377.133.698.398.962.266.264.589.396.968.396h14.268zm-14.268-1.34V1.359h14.268v10.548l-14.268.019zM16.317 16a.66.66 0 0 0 .484-.198.653.653 0 0 0 .199-.481.653.653 0 0 0-.2-.481.66.66 0 0 0-.483-.198H.683a.66.66 0 0 0-.484.198.653.653 0 0 0-.199.48c0 .19.066.35.2.482A.66.66 0 0 0 .682 16h15.634z"/>
</svg>
