<svg xmlns="http://www.w3.org/2000/svg" width="14" height="15" viewBox="0 0 14 15">
    <g fill="none" fill-rule="evenodd">
        <g fill="#FFF" fill-rule="nonzero">
            <path d="M149.424 177.889c.027 0 .052-.003.075-.007.023-.005.043-.012.062-.02.009 0 .186-.058.533-.172.346-.114.736-.239 1.169-.376.433-.136.854-.27 1.264-.403.41-.132.68-.216.807-.253.036-.009.07-.023.103-.04.031-.019.061-.042.088-.07l.022-.02.128-.127 1.272-1.26c.866-.857 1.816-1.798 2.85-2.824l2.892-2.864.766-.76.51-.51c.128-.128.213-.216.256-.261.264-.274.465-.554.601-.84.137-.288.2-.582.192-.883-.01-.282-.082-.563-.22-.84-.136-.279-.34-.545-.614-.8-.237-.228-.486-.401-.745-.52-.26-.118-.531-.178-.814-.178-.437 0-.807.103-1.107.308-.301.205-.497.353-.588.444-.032.028-.17.162-.412.404l-.579.578-.465.468-2.434 2.44-3.445 3.445-.31.31-.68.68-.2.2-.13.13c-.027.027-.05.057-.068.088l-.055.103c-.045.182-.13.48-.252.895l-.383 1.279-.349 1.155c-.1.333-.155.504-.164.513-.018.082-.018.164 0 .246.018.082.06.15.123.205.037.046.082.08.137.102.054.023.11.035.164.035zm12.072-10.5c-.064-.183-.16-.383-.287-.602-.128-.219-.296-.433-.506-.642-.219-.22-.433-.395-.642-.527-.21-.132-.401-.235-.575-.307l.069-.069c.018-.027.13-.114.335-.26.205-.145.449-.218.731-.218.164 0 .326.036.485.109.16.073.313.182.458.328.183.173.322.347.417.52.096.173.144.341.144.506 0 .164-.046.337-.137.52-.09.181-.228.364-.41.546l-.034.041c-.014.018-.03.036-.048.055zm-7.943 7.875c-.073-.164-.171-.344-.294-.54-.123-.196-.276-.39-.458-.581-.228-.228-.454-.41-.677-.547-.223-.137-.426-.242-.608-.315l.486-.486 1.059-1.059c.647-.647 1.323-1.326 2.03-2.037.706-.71 1.392-1.399 2.057-2.064.666-.666 1.213-1.208 1.641-1.627.11.027.283.096.52.205.237.11.492.296.765.56.274.274.458.545.554.814.096.269.148.44.157.513-.428.419-.973.957-1.634 1.613l-2.044 2.03c-.701.697-1.374 1.363-2.016 1.996-.643.634-1.155 1.142-1.538 1.525zm-3.514 1.545c.128-.41.28-.894.458-1.45.178-.556.317-1.002.417-1.34.128.028.305.099.533.212.228.114.47.299.725.554.191.192.337.388.437.588.1.2.174.37.22.506-.302.1-.735.246-1.3.437-.565.192-1.062.356-1.49.493z" transform="translate(-149 -163)"/>
        </g>
    </g>
</svg>
