<svg width="512" height="512" viewBox="0 0 512 512" fill="none" xmlns="http://www.w3.org/2000/svg">
<path d="M237 0.699895C199.1 4.29989 170.9 12.2999 139 28.4999C101.2 47.7999 67.2999 78.1999 42.4999 115C32.0999 130.6 19.2999 156.9 13.0999 175.5C8.1999 190.5 4.1999 207.6 1.7999 224.5C0.0999023 236.3 0.0999023 275.7 1.7999 287.5C5.9999 317 13.7999 342.8 25.9999 367.5C39.6999 395.5 53.1999 414.3 75.3999 436.6C97.4999 458.6 116.6 472.3 143.5 485.5C162.3 494.7 174.4 499.2 193.5 504C243.5 516.6 293.7 514.2 342.5 496.9C357.5 491.6 383.3 478.6 396.5 469.8C426.7 449.6 453.8 421.8 473.4 391C480.6 379.7 492.2 355.7 496.9 342.4C520.4 276.2 516.3 205.2 485.4 143.1C473 118.1 459.1 98.3999 439.6 78.2999C418.2 56.0999 396.6 40.3999 368.5 26.4999C338.9 11.8999 311.3 3.99989 278.5 0.999895C268.3 0.0998947 245.2 -0.100105 237 0.699895ZM291.5 34.8999C354.9 45.5999 408.6 80.5999 443.8 134.4C460.8 160.2 472.4 190.7 477.7 223.5C480.1 238.8 480.1 273.2 477.7 288.5C466.9 355.3 430.3 410.7 373.5 446.5C349.2 461.8 319.8 472.6 288.5 477.7C273.1 480.1 238.8 480.1 223.5 477.6C173.8 469.5 132.8 448.8 97.8999 414C63.3999 379.7 42.3999 338.2 34.2999 288.5C31.8999 273.2 31.8999 238.8 34.2999 223.5C44.7999 158.8 78.9999 105.2 132.6 69.3999C163.2 48.8999 200.1 36.0999 238 32.5999C248.8 31.5999 279.8 32.9999 291.5 34.8999Z" fill="#FAFAFA"/>
<path d="M363.5 126.9C336.2 137.2 93.8 232.6 91.5 233.9C84.1 238.2 81.5 249 86.2 256C87.8 258.3 98.2 265.5 119.5 279.2C136.6 290.1 152.2 299.9 154.2 301C160.5 304.4 164.7 303.7 181.4 296.4C203.2 286.9 202.3 287 195.8 293.7C192.7 296.9 189.6 300.8 189.1 302.3C187.4 306.9 187.6 373.2 189.4 377.4C192.3 384.2 200.9 388.2 208.3 386C211.7 385 215.9 381.4 230.8 366.7L249 348.6L287.8 367.8C309.1 378.4 327.6 387.1 329 387C333.1 386.9 339.5 383.5 341.9 380.1C343.8 377.4 347.5 358.5 365.8 258.2L387.4 139.4L385.1 134.7C381.1 126.4 372.8 123.4 363.5 126.9ZM349.6 168.7C349.3 169.7 342.1 209.2 333.6 256.5C325 303.8 317.8 343.5 317.5 344.7C317 346.8 315.1 346 282.9 330C261.8 319.4 247.8 313 245.9 313C240.8 313 236.4 315.6 228.1 323.6L220 331.3V322.9V314.5L253 281.5C289.2 245.3 290.4 243.7 288.1 236C285.6 227.7 277.4 221.9 270.3 223.6C268.8 224 244.2 234.4 215.7 246.7C187.2 259 163.6 269 163.2 268.8C160.5 267.7 136 251.7 136 251.1C136 250.4 347.3 167.1 349.3 167C349.8 167 349.9 167.8 349.6 168.7Z" fill="#FAFAFA"/>
</svg>
