<?xml version="1.0" encoding="UTF-8"?>
<svg width="52px" height="52px" viewBox="0 0 52 52" version="1.1" xmlns="http://www.w3.org/2000/svg" xmlns:xlink="http://www.w3.org/1999/xlink">
    <title>twitter_outline</title>
    <g id="Vision-Skills-Assessment" stroke="none" stroke-width="1" fill="none" fill-rule="evenodd">
        <g id="Stikcy-Bar---2" transform="translate(-1214.000000, -760.000000)">
            <g id="twitter_outline" transform="translate(1215.000000, 761.000000)">
                <circle id="Oval" stroke="#FFFFFF" stroke-width="2" cx="25" cy="25" r="25"></circle>
                <path d="M21.5532995,35.4923858 C23.2994924,35.4923858 24.9390863,35.215736 26.4720812,34.6624365 C28.0050761,34.1091371 29.3147208,33.3680203 30.4010152,32.4390863 C31.4873096,31.5101523 32.4238579,30.4416244 33.2106599,29.2335025 C33.9974619,28.0253807 34.5837563,26.7639594 34.9695431,25.4492386 C35.3553299,24.1345178 35.5482234,22.8172589 35.5482234,21.4974619 C35.5482234,21.213198 35.5431472,21 35.5329949,20.857868 C36.4974619,20.1573604 37.319797,19.3096447 38,18.3147208 C37.0558376,18.7208122 36.1116751,18.9746193 35.1675127,19.0761421 C36.2335025,18.4365482 36.9543147,17.5329949 37.3299492,16.3654822 C36.3553299,16.9441624 35.3147208,17.3401015 34.2081218,17.5532995 C33.2335025,16.5177665 32.035533,16 30.6142132,16 C29.2538071,16 28.0939086,16.4796954 27.1345178,17.4390863 C26.1751269,18.3984772 25.6954315,19.5583756 25.6954315,20.9187817 C25.6954315,21.284264 25.7360406,21.6598985 25.8172589,22.0456853 C23.8071066,21.9441624 21.9213198,21.4390863 20.1598985,20.5304569 C18.3984772,19.6218274 16.9035533,18.4111675 15.6751269,16.8984772 C15.2284264,17.6598985 15.0050761,18.4873096 15.0050761,19.3807107 C15.0050761,20.2233503 15.2030457,21.0050761 15.5989848,21.7258883 C15.9949239,22.4467005 16.5279188,23.0304569 17.1979695,23.4771574 C16.4060914,23.4467005 15.6649746,23.2385787 14.9746193,22.8527919 L14.9746193,22.8527919 L14.9746193,22.9137056 C14.9746193,24.1015228 15.3477157,25.1446701 16.0939086,26.0431472 C16.8401015,26.9416244 17.7817259,27.5076142 18.9187817,27.7411168 C18.4923858,27.8527919 18.0609137,27.9086294 17.6243655,27.9086294 C17.3401015,27.9086294 17.0304569,27.8832487 16.6954315,27.8324873 C17.0101523,28.8172589 17.5888325,29.6269036 18.4314721,30.2614213 C19.2741117,30.8959391 20.2284264,31.2233503 21.2944162,31.2436548 C19.5076142,32.6446701 17.4720812,33.3451777 15.1878173,33.3451777 C14.751269,33.3451777 14.3553299,33.3248731 14,33.284264 C16.284264,34.7563452 18.8020305,35.4923858 21.5532995,35.4923858 Z" id="" fill="#FFFFFF" fill-rule="nonzero"></path>
            </g>
        </g>
    </g>
</svg>