<svg xmlns="http://www.w3.org/2000/svg" width="52" height="52" viewBox="0 0 52 52">
    <g fill="none" fill-rule="evenodd" transform="translate(1 1)">
        <path fill="#FFF" fill-rule="nonzero" d="M13 37l6.536-2.09c1.821.965 3.714 1.447 5.678 1.447 3.25 0 6.027-1.134 8.33-3.402C35.849 30.688 37 27.93 37 24.68s-1.152-6.01-3.455-8.277C31.24 14.134 28.465 13 25.215 13s-6.036 1.143-8.358 3.429c-2.286 2.25-3.428 5-3.428 8.25 0 2.142.571 4.16 1.714 6.053L13 37zm12.214-2.357c-1.714 0-3.339-.41-4.875-1.232l-.643-.322-.696.215-3.268 1.017 1.018-3.053.268-.75-.429-.697c-.964-1.571-1.446-3.285-1.446-5.142 0-2.715.982-5.054 2.946-7.018 2.036-1.965 4.411-2.947 7.125-2.947 2.715 0 5.09.982 7.125 2.947 1.965 1.964 2.947 4.303 2.947 7.018 0 2.75-.982 5.107-2.947 7.071-2 1.929-4.375 2.893-7.125 2.893zm2.947-4.125c.535.071.821.053.857-.054.321-.035.714-.187 1.178-.455.465-.268.75-.563.858-.884.285-.714.375-1.179.267-1.393-.035-.071-.232-.196-.589-.375-.071-.036-.393-.214-.964-.536-.572-.321-.91-.5-1.018-.535-.286-.107-.518-.054-.696.16-.072.072-.241.26-.51.563-.267.303-.437.491-.508.562-.143.179-.357.197-.643.054-.929-.464-1.714-1-2.357-1.607-.715-.679-1.25-1.375-1.607-2.09-.108-.214-.054-.428.16-.642l.482-.482c.108-.108.215-.268.322-.483.071-.142.071-.321 0-.535 0-.036-.063-.197-.188-.482-.125-.286-.25-.608-.375-.965s-.223-.625-.294-.803c-.143-.393-.375-.59-.697-.59h-.535c-.286 0-.554.125-.804.375-.75.75-1.143 1.572-1.179 2.465-.035 1.035.34 2.071 1.125 3.107l.161.214c.107.179.232.375.375.59.143.214.322.464.536.75.214.285.464.57.75.857.286.285.58.571.884.857.303.285.66.553 1.071.803.41.25.813.465 1.206.643 1.285.536 2.196.84 2.732.91z"/>
        <circle cx="25" cy="25" r="25" stroke="#FFF" stroke-width="2"/>
    </g>
</svg>
