<?xml version="1.0" encoding="UTF-8"?>
<svg width="52px" height="52px" viewBox="0 0 52 52" version="1.1" xmlns="http://www.w3.org/2000/svg" xmlns:xlink="http://www.w3.org/1999/xlink">
    <title>youtube</title>
    <g id="Alpha-V-1.0" stroke="none" stroke-width="1" fill="none" fill-rule="evenodd">
        <g id="Home" transform="translate(-261.000000, -7898.000000)">
            <g id="youtube" transform="translate(262.000000, 7899.000000)">
                <circle id="Oval" stroke="#000000" cx="25" cy="25" r="25"></circle>
                <path d="M25.285,32.4624742 C28.1621906,32.4624742 30.5611248,32.3897792 32.4818026,32.2443893 C32.4894547,32.2443893 32.5525846,32.2386502 32.6711922,32.227172 C32.7897998,32.2156939 32.877799,32.2042157 32.9351897,32.1927376 C32.9925805,32.1812594 33.0844057,32.1640422 33.2106654,32.1410859 C33.3369251,32.1181296 33.4459676,32.0875212 33.5377928,32.0492606 C33.629618,32.0110001 33.7367475,31.9631745 33.8591811,31.9057837 C33.9816148,31.8483929 34.1002224,31.775698 34.2150039,31.6876988 C34.3297854,31.5996996 34.4407409,31.4983092 34.5478704,31.3835277 L34.5478704,31.3835277 L34.7085645,31.1883991 C34.815694,31.0583133 34.9381276,30.8230112 35.0758655,30.4824926 C35.2136033,30.141974 35.3092546,29.7612819 35.3628193,29.3404163 C35.5082093,28.2308614 35.5770782,27.1213065 35.5694261,26.0117516 L35.5694261,26.0117516 L35.5694261,23.9915965 C35.561774,23.6778602 35.5407307,23.2436034 35.5062962,22.688826 C35.4718618,22.1340485 35.4240361,21.6117925 35.3628193,21.1220579 C35.3092546,20.7011923 35.2078642,20.3147611 35.0586482,19.9627644 C34.9094322,19.6107676 34.7984767,19.3869436 34.7257818,19.2912923 C34.6530868,19.1956411 34.593783,19.1248591 34.5478704,19.0789465 C34.4407409,18.9641649 34.3297854,18.8627746 34.2150039,18.7747754 C34.1002224,18.6867762 33.9816148,18.6121682 33.8591811,18.5509514 C33.7367475,18.4897346 33.629618,18.4399959 33.5377928,18.4017354 C33.4459676,18.3634749 33.3369251,18.3328665 33.2106654,18.3099102 C33.0844057,18.2869539 32.9944935,18.2697366 32.9409288,18.2582585 C32.8873641,18.2467803 32.7993649,18.2353022 32.6769313,18.223824 C32.5544976,18.2123459 32.4894547,18.2066068 32.4818026,18.2066068 L32.4818026,18.2066068 L31.6438974,18.1606942 C31.0852939,18.1224336 30.2072151,18.0860862 29.009661,18.0516517 C27.8121069,18.0172172 26.5705533,18 25.285,18 C22.4078094,18 20.0088752,18.0688689 18.0881974,18.2066068 C18.0805453,18.2066068 18.0155024,18.2123459 17.8930687,18.223824 C17.7706351,18.2353022 17.6826359,18.2467803 17.6290712,18.2582585 C17.5755065,18.2697366 17.4855943,18.2869539 17.3593346,18.3099102 C17.2330749,18.3328665 17.1240324,18.3634749 17.0322072,18.4017354 C16.940382,18.4399959 16.8332525,18.4897346 16.7108189,18.5509514 C16.5883852,18.6121682 16.4697776,18.6867762 16.3549961,18.7747754 C16.2402146,18.8627746 16.1292591,18.9641649 16.0221296,19.0789465 L16.0221296,19.0789465 L15.8614355,19.2740751 C15.754306,19.4041609 15.6318724,19.639463 15.4941345,19.9799816 C15.3563967,20.3205002 15.2607454,20.7011923 15.2071807,21.1220579 C15.0617907,22.2316128 14.9929218,23.3411677 15.0005739,24.4507226 L15.0005739,24.4507226 L15.0005739,26.4708777 C15.008226,26.784614 15.0292693,27.2188708 15.0637038,27.7736482 C15.0981382,28.3284257 15.1459639,28.8506817 15.2071807,29.3404163 C15.2607454,29.7612819 15.3621358,30.1477131 15.5113518,30.4997098 C15.6605678,30.8517066 15.7715233,31.0755306 15.8442182,31.1711819 C15.9169132,31.2668331 15.976217,31.3376151 16.0221296,31.3835277 C16.2057801,31.5748303 16.421952,31.7316984 16.6706453,31.854132 C16.9193387,31.9765657 17.1144673,32.0569127 17.2560312,32.0951733 C17.3975951,32.1334338 17.6061149,32.1716943 17.8815906,32.2099548 L17.8815906,32.2099548 L18.2948041,32.2558674 L18.8572337,32.30178 C19.2245346,32.3247363 19.9916579,32.3534317 21.1586036,32.3878662 C22.3255493,32.4223007 23.7010147,32.44717 25.285,32.4624742 Z M23.1615415,27.8941689 L23.1615415,22.1206573 L28.7169681,25.0246303 L23.1615415,27.8941689 Z" id="" fill="#000000" fill-rule="nonzero"></path>
            </g>
        </g>
    </g>
</svg>